<svg width="140" height="100" viewBox="0 0 140 100" fill="none" xmlns="http://www.w3.org/2000/svg">
<path d="M52.8872 52.9767C53.0045 55.4259 53.1218 57.8751 53.2428 60.3658H49.957V43.9975H53.1404V50.6179C53.2483 50.9175 53.2483 51.1059 53.6988 50.9269L58.5353 43.8882H61.7968C60.2331 45.9474 58.9299 47.8767 57.4053 49.6043C56.2883 50.8704 56.4056 51.7822 57.4295 52.9955C58.8499 54.678 60.0711 56.5299 61.4487 58.2519C61.9644 58.8981 62.6773 59.3823 63.7533 60.3413C64.4179 59.2109 64.1778 49.2784 64.0158 43.9014C66.8082 43.9014 69.6602 43.713 72.4731 43.9523C75.5894 44.2198 77.114 46.0059 77.3281 49.2087C77.4454 50.9751 77.4454 52.7476 77.3281 54.514C77.0824 58.2821 75.0346 60.2923 71.2705 60.4072C68.0611 60.5071 64.8405 60.3262 61.6404 60.3262C59.0174 60.3262 58.8034 59.2768 57.8372 58.267C56.2437 56.6034 55.0243 54.5743 53.6486 52.6997C53.4345 52.6131 52.876 52.4247 52.8872 52.9767ZM67.1787 52.0347C67.1787 53.5092 67.1787 54.9832 67.1787 56.4565C67.1787 59.452 68.6483 59.1119 71.0006 58.7493C72.2358 58.5589 73.3648 56.8389 73.5268 55.7047C73.8849 53.1886 73.8592 50.6317 73.4504 48.1235C73.1023 46.0511 71.2463 45.1467 69.1892 44.9508C67.9029 44.8283 67.0837 45.1524 67.1657 46.7312C67.2494 48.4946 67.1731 50.2675 67.1731 52.0347H67.1787Z" fill="#0365C0"/>
<path d="M108.05 54.7666V43.9562H110.684V61.1007H108.537C107.607 60.1587 107.607 59.9703 106.676 58.8399C104.628 56.2512 102.953 53.3574 101.013 50.6746C100.64 50.1565 100.223 49.6685 99.449 48.685V60.3414H96.625V43.9505C98.8589 43.9505 99.2312 43.3853 100.955 45.6687C103.247 48.702 105.382 51.8653 107.618 54.9475L108.05 54.7666Z" fill="#0365C0"/>
<path d="M86.9868 43.4135C92.6386 43.4135 95.0828 46.0699 95.0884 52.2438C95.0884 57.9919 92.5213 60.7407 87.1022 60.7822C81.4746 60.8236 78.9111 58.0824 78.9111 52.014C78.9093 46.0398 81.3666 43.4191 86.9868 43.4135ZM82.3476 51.7031C82.5338 53.427 82.5506 54.9869 82.8819 56.4734C83.3585 58.608 84.885 59.6989 87.0072 59.6762C89.1294 59.6536 90.8589 58.5873 91.0599 56.4244C91.3352 53.4544 91.3152 50.464 91.0004 47.498C90.7919 45.5631 89.1201 44.5872 87.1897 44.5062C85.168 44.4195 83.5856 45.3125 83.0011 47.319C82.5841 48.7735 82.5394 50.341 82.3476 51.6993V51.7031Z" fill="#0365C0"/>
<path d="M43.356 43.9449H46.4556C46.4556 49.4085 46.5468 55.1679 46.5468 60.5242C46.5468 60.4982 43.1769 61.3531 43.1959 59.7706C42.2937 60.5242 40.2025 60.8332 37.9183 60.7804C37.1736 60.7616 35.2599 60.7145 33.9289 59.3919C32.9366 58.4047 32.4899 56.8862 32.4619 54.7987C32.4377 52.9542 32.4619 51.1098 32.4619 49.2653V43.9298H35.6378C35.6378 47.7242 35.5187 51.5167 35.6806 55.2961C35.7886 57.7905 37.5422 59.4409 39.4709 59.3203C41.7234 59.1828 43.3393 57.3421 43.356 54.8232C43.3728 51.2322 43.356 47.6413 43.356 43.9449Z" fill="#0365C0"/>
<path d="M126.408 46.2075C125.034 45.7855 123.647 44.5883 120.248 44.9791C119.257 44.9791 118.014 45.7648 117.319 46.5749C115.272 48.9695 115.311 55.1226 117.198 57.7132C118.447 59.4295 120.866 60.136 122.658 59.0791C123.284 58.7023 123.844 57.7603 123.928 57.0255C124.114 55.3732 123.988 53.687 123.988 51.9161H126.929C126.929 54.0318 127.163 56.0797 126.776 58.0768C126.674 58.6118 126.141 59.3636 125.862 59.6838C125.287 60.3376 124.356 61.8448 117.708 61.191C117.206 61.1218 116.717 60.9777 116.256 60.7634C113.131 59.4125 111.988 55.4335 112.608 49.7702C112.967 46.475 114.743 44.2312 117.833 43.8299C120.11 43.536 122.455 43.8393 124.769 43.7922C126.78 43.7583 126.408 44.8887 126.408 46.2075Z" fill="#0365C0"/>
<path d="M13 39.2819H17.4529V60.3526H13V39.2819Z" fill="#0365C0"/>
<path d="M31.2735 60.4921C26.4333 60.526 25.1991 60.6221 22.9838 57.1178C21.5243 54.808 20.4837 52.2364 18.542 50.0208C18.5222 49.9927 18.5098 49.96 18.5061 49.9258C18.5023 49.8915 18.5073 49.8568 18.5206 49.8251C18.5339 49.7933 18.5549 49.7656 18.5818 49.7444C18.6087 49.7233 18.6405 49.7094 18.6742 49.7043C21.9413 49.0844 24.4451 49.7137 26.1895 52.5303C27.8091 55.1453 29.4957 57.7151 31.2735 60.4921Z" fill="#0365C0"/>
<path d="M18.4317 47.9709C20.3343 45.4972 22.1419 42.9368 24.1692 40.5761C25.8241 38.6544 28.1846 39.0538 30.9938 39.003C28.4695 42.0174 26.4924 44.8604 24.0072 47.1344C22.8381 48.2045 20.8071 48.31 19.1149 48.7998C18.9786 48.8401 18.8379 48.8629 18.6961 48.8677C18.3405 48.8733 18.119 48.8733 18.4317 47.9709Z" fill="#00AA38"/>
</svg>
