<svg width="140" height="100" viewBox="0 0 140 100" fill="none" xmlns="http://www.w3.org/2000/svg">
<path d="M32.9111 45.4557H19.0023V48.7306H6.72947V43.0003H22.2747V38.0836H32.9111V45.4557ZM32.9111 56.0984H17.3658V61.0085H6.72947V53.6422H20.6382V50.3681H32.9111V56.0984ZM38.6384 33.1778L17.3665 33.1727L17.3658 38.0894L1 38.0945L1.00218 65.9216L22.2747 65.9201V61.01H38.6384V33.1778Z" fill="#E42127"/>
<path d="M56.1895 33.1771V36.5233H46.6959V39.542H55.233V42.8882H46.6959V46.1442H56.5422V49.5486H43.5479V33.1771H56.1895Z" fill="black"/>
<path d="M61.8571 33.1771L70.1927 44.1909V33.1771H73.3153V49.5486H70.3185L61.9829 38.5065V49.5486H58.8857V33.1771H61.8571Z" fill="black"/>
<path d="M89.8092 33.1771V36.4928H84.1444V49.5486H80.9954V36.4928H75.3291V33.1771H89.8092Z" fill="black"/>
<path d="M104.469 33.1771V36.5233H94.9744V39.542H103.512V42.8882H94.9744V46.1442H104.821V49.5486H91.8262V33.1771H104.469Z" fill="black"/>
<path d="M110.313 42.5331H115.248C116.861 42.5331 117.969 41.4968 117.969 39.601C117.969 37.7067 116.861 36.5524 115.248 36.5524H110.313V42.5331ZM115.375 33.1771C118.648 33.1771 121.116 35.7534 121.116 39.601C121.116 43.1939 119.49 45.343 117.359 45.5715L120.562 49.5494H117.137L114.141 45.9077H110.313V49.5494H107.165V33.1771H115.375Z" fill="black"/>
<path d="M51.2056 52.0637V53.2121H44.772V55.8488H50.5466V56.9979H44.772V59.8448H51.4398V61.0092H43.5479V52.0637H51.2056Z" fill="black"/>
<path d="M54.5514 52.0637L60.8598 59.3434V52.0637H62.068V61.0092H60.7027L54.4103 53.7135V61.0092H53.2021V52.0637H54.5514Z" fill="black"/>
<path d="M72.8138 56.0104V61.0094H71.9984L71.7941 59.861C70.9314 60.5909 69.9429 61.0094 68.3892 61.0094C65.6122 61.0094 63.5879 59.2868 63.5879 56.4915C63.5879 53.7122 65.6747 52.0049 68.3892 52.0049C70.3357 52.0049 71.6377 52.6722 72.5949 53.9611L71.6064 54.5353C70.8681 53.603 69.8491 53.1227 68.358 53.1227C66.2086 53.1227 64.8273 54.4574 64.8273 56.4907C64.8273 58.4942 66.3025 59.8915 68.358 59.8915C69.8804 59.8915 70.8528 59.4723 71.6377 58.634V57.1122L69.2526 57.105V56.0104H72.8145H72.8138Z" fill="black"/>
<path d="M74.6035 61.0092H75.8269V52.063H74.6035V61.0092Z" fill="black"/>
<path d="M78.9664 52.0637L85.2746 59.3434V52.0637H86.4827V61.0092H85.1181L78.8253 53.7135V61.0092H77.6172V52.0637H78.9664Z" fill="black"/>
<path d="M95.9267 52.0637V53.2121H89.4926V55.8488H95.2673V56.9979H89.4926V59.8448H96.1617V61.0092H88.2686V52.0637H95.9267Z" fill="black"/>
<path d="M105.467 52.0637V53.2121H99.0337V55.8488H104.808V56.9979H99.0337V59.8448H105.701V61.0092H97.8096V52.0637H105.467Z" fill="black"/>
<path d="M108.574 57.6769H112.386C113.736 57.6769 114.677 56.8523 114.677 55.4609C114.677 54.1021 113.736 53.2281 112.386 53.2281H108.574V57.6769ZM112.402 52.063C114.364 52.063 115.902 53.4224 115.902 55.4609C115.902 56.9324 115.133 58.0007 113.987 58.5021L115.368 61.0092H114.019L112.842 58.842H108.574V61.0092H107.35V52.063H112.403H112.402Z" fill="black"/>
<path d="M117.374 61.0092H118.598V52.063H117.374V61.0092Z" fill="black"/>
<path d="M121.737 52.0637L128.046 59.3434V52.0637H129.254V61.0092H127.889L121.596 53.7135V61.0092H120.387V52.0637H121.737Z" fill="black"/>
<path d="M140 56.0104V61.0094H139.184L138.98 59.861C138.116 60.5909 137.127 61.0094 135.574 61.0094C132.797 61.0094 130.773 59.2868 130.773 56.4915C130.773 53.7122 132.86 52.0049 135.574 52.0049C137.52 52.0049 138.822 52.6722 139.78 53.9611L138.792 54.5353C138.053 53.603 137.034 53.1227 135.543 53.1227C133.393 53.1227 132.013 54.4574 132.013 56.4907C132.013 58.4942 133.487 59.8915 135.543 59.8915C137.066 59.8915 138.038 59.4723 138.822 58.634V57.1122L136.438 57.105V56.0104H140Z" fill="black"/>
</svg>
