<svg width="140" height="100" viewBox="0 0 140 100" fill="none" xmlns="http://www.w3.org/2000/svg">
<g clip-path="url(#clip0_709_3313)">
<path d="M72.0149 17.2391C71.8043 18.4905 71.5939 19.7414 71.3838 20.9919C71.0982 22.6874 70.8123 24.3831 70.5259 26.079C70.4116 26.7557 70.2884 27.4324 70.1818 28.1134C70.1561 28.2765 70.0925 28.3349 69.9204 28.3257C69.6861 28.3128 69.4498 28.3257 69.2141 28.3257C63.2752 28.3257 57.3365 28.3247 51.398 28.3226C50.1915 28.3226 49.1828 28.7606 48.3025 29.5081C47.6155 30.0907 47.1435 30.8099 46.9894 31.6847C46.7968 32.7662 46.9252 33.8139 47.5275 34.7669C48.0649 35.6158 48.9125 36.0692 49.8827 36.3258C50.8529 36.5823 51.8276 36.6451 52.8222 36.626C53.4784 36.6137 54.1308 36.5694 54.7819 36.498C54.8374 36.4979 54.8928 36.5024 54.9475 36.5116C54.9084 37.0277 54.7934 37.5211 54.7112 38.0176C54.3833 39.9936 54.0514 41.9694 53.7153 43.945C53.5227 45.0795 53.3198 46.2121 53.1375 47.3477C53.1034 47.5581 53.0257 47.6067 52.8119 47.6252C49.5225 47.9113 46.3332 47.5464 43.309 46.2354C40.2847 44.9244 37.9334 42.882 36.3346 40.076C35.1589 38.012 34.5444 35.7979 34.4192 33.4515C34.4006 33.0966 34.3794 32.7422 34.3833 32.3873C34.4102 29.9344 34.938 27.5887 36.0379 25.3696C36.6743 24.0683 37.5193 22.8704 38.5421 21.8193C40.3676 19.9528 42.5982 18.7353 45.1428 18.018C46.5213 17.6382 47.938 17.4 49.369 17.3074C49.6259 17.289 49.8891 17.3283 50.1395 17.2391H72.0149ZM71.1584 17.9891C70.969 17.9214 70.8187 17.9478 70.6723 17.9478C64.2257 17.9478 57.7789 17.9478 51.3319 17.9478C50.7007 17.9478 50.0715 17.9614 49.4403 18.0044C47.9946 18.0926 46.564 18.3369 45.1755 18.7328C43.4149 19.2472 41.7988 20.0248 40.3676 21.142C38.2609 22.7864 36.8457 24.883 35.9853 27.3328C35.2405 29.4279 34.9614 31.6492 35.166 33.8539C35.3528 35.9013 35.9018 37.8429 36.9202 39.6552C38.4336 42.3517 40.6751 44.308 43.5703 45.5876C45.0998 46.2644 46.7127 46.6735 48.3802 46.8765C49.6203 47.0339 50.8738 47.071 52.1217 46.9872C52.4761 46.9614 52.4735 46.962 52.5275 46.6218C52.6011 46.153 52.6777 45.6846 52.7573 45.2167C53.1935 42.6669 53.6302 40.1169 54.0672 37.5666C54.1154 37.2867 54.0961 37.259 53.7905 37.2744C53.1734 37.3046 52.5577 37.3249 51.9387 37.3033C51.0674 37.2726 50.2115 37.1631 49.3825 36.9022C48.4695 36.6149 47.6688 36.1541 47.0941 35.3962C46.2857 34.3301 46.0931 33.1132 46.2363 31.841C46.3705 30.6555 46.9618 29.6767 47.9057 28.9107C48.9067 28.0956 50.0503 27.6305 51.3993 27.6336C57.2757 27.6471 63.1496 27.6391 69.0292 27.6391C69.1159 27.6391 69.2032 27.6336 69.2893 27.6391C69.4671 27.6545 69.5461 27.5998 69.5769 27.4115C69.6835 26.7077 69.8151 26.0076 69.9339 25.3057C70.2421 23.4806 70.5495 21.6555 70.856 19.8304C70.9536 19.2225 71.0518 18.6147 71.1584 17.9891Z" fill="#FECB02"/>
<path d="M90.5785 17.2773C91.1564 17.3345 91.7343 17.38 92.3122 17.4508C94.3887 17.7067 96.3882 18.2185 98.2554 19.1475C101.013 20.5182 103.039 22.5571 104.333 25.2644C105.116 26.9107 105.553 28.6407 105.738 30.4321C105.861 31.5527 105.874 32.6817 105.779 33.8047C105.495 36.9736 104.308 39.7851 102.094 42.1714C100.634 43.747 98.8647 44.9288 96.873 45.8073C95.0847 46.5953 93.2073 47.0992 91.2669 47.4025C89.4699 47.6738 87.6516 47.7936 85.8328 47.7605C84.8813 47.7482 83.9312 47.7 82.9826 47.616C82.7174 47.592 82.7123 47.592 82.7553 47.3379C82.9338 46.2853 83.1162 45.2339 83.294 44.1813C83.5783 42.4973 83.861 40.8128 84.1422 39.128C84.2706 38.3559 84.3991 37.5839 84.5313 36.8118C84.5821 36.5128 84.5859 36.5079 84.8967 36.5528C85.7776 36.6795 86.6624 36.7847 87.5549 36.7601C88.6619 36.73 89.7432 36.5719 90.7712 36.1412C91.5745 35.8133 92.2503 35.2522 92.7033 34.5369C93.1564 33.8217 93.3638 32.9883 93.2965 32.1541C93.2323 31.2854 93.014 30.4734 92.474 29.7579C91.934 29.0424 91.1783 28.6358 90.2909 28.442C89.8796 28.3554 89.4593 28.3141 89.0382 28.3189C83.5461 28.3222 78.0539 28.3222 72.5615 28.3189C72.442 28.3189 72.3155 28.3534 72.1826 28.2759L72.6366 25.5868C72.902 24.0082 73.1672 22.4292 73.4321 20.8498C73.6209 19.7535 73.8078 18.6541 73.9933 17.556C74.0107 17.4514 74.0145 17.345 74.0241 17.2391H90.0219C90.2023 17.3216 90.3911 17.2871 90.5785 17.2773ZM73.0372 27.5998C73.2209 27.6668 73.384 27.6385 73.5426 27.6385C78.7379 27.6385 83.9329 27.6385 89.1274 27.6385C89.4988 27.6336 89.8699 27.6624 90.2357 27.7246C91.3587 27.9289 92.3193 28.405 93.0211 29.2891C93.6067 30.0273 93.8834 30.8806 93.9926 31.793C94.2584 34.0077 93.1328 35.8951 91.0203 36.7958C89.9365 37.2572 88.7929 37.4184 87.623 37.4516C86.9039 37.4725 86.1892 37.4073 85.4746 37.3384C85.1818 37.3101 85.1773 37.3169 85.1285 37.598C85.0688 37.937 85.018 38.2778 84.9609 38.6174C84.6227 40.6184 84.2839 42.6195 83.9445 44.6205C83.816 45.3914 83.6876 46.1629 83.5592 46.9398C83.6238 46.9617 83.6904 46.9774 83.7582 46.9866C84.907 47.0241 86.0518 47.1183 87.2056 47.0623C88.2445 47.0118 89.2809 46.9638 90.3121 46.8365C92.0452 46.6313 93.7475 46.2335 95.3846 45.651C97.4393 44.9128 99.2911 43.8558 100.872 42.3904C102.441 40.9419 103.621 39.1515 104.313 37.1717C104.978 35.2947 105.208 33.366 105.09 31.3888C104.991 29.7074 104.685 28.0667 104.08 26.4881C103.485 24.9328 102.62 23.529 101.444 22.3133C100.02 20.8418 98.2978 19.791 96.3413 19.0915C94.1107 18.2917 91.7927 17.9583 89.4254 17.9497C84.6739 17.9319 79.9282 17.9442 75.1793 17.9442C75.0937 17.949 75.008 17.949 74.9224 17.9442C74.7202 17.9202 74.6476 18.0057 74.6161 18.1952C74.1568 20.9463 73.693 23.6971 73.2247 26.4475C73.1554 26.832 73.0976 27.2177 73.0372 27.5998Z" fill="#FECB02"/>
<path d="M90.5791 17.2773C90.3917 17.2871 90.2029 17.3216 90.0225 17.2391H90.6921L90.5791 17.2773Z" fill="#FECB02"/>
<path d="M73.0529 58.2177C72.8699 59.3454 72.6959 60.4324 72.5168 61.5213C72.2775 62.972 72.0361 64.4222 71.7925 65.872C71.6641 66.6441 71.5395 67.4168 71.4124 68.1889C71.3649 68.4762 71.363 68.4786 71.0714 68.4792C70.3275 68.4792 69.5835 68.4792 68.8395 68.4792C68.5641 68.4792 68.5589 68.4756 68.5076 68.2209C68.2103 66.7444 67.9181 65.2642 67.6183 63.7871C67.5541 63.4567 67.5162 63.1178 67.3672 62.7179C67.2998 63.4561 67.2728 64.1107 67.1958 64.7622C67.0898 65.6573 66.9171 66.542 66.7784 67.4322C66.7367 67.7016 66.6828 67.9699 66.65 68.2405C66.6301 68.411 66.5697 68.4866 66.3733 68.4866C65.6028 68.4762 64.8322 68.4866 64.0669 68.4811C63.803 68.4811 63.7959 68.4731 63.837 68.2166C63.9654 67.4088 64.1041 66.6017 64.2377 65.7945C64.5232 64.0633 64.8091 62.3317 65.0955 60.5998C65.2156 59.8744 65.3453 59.151 65.4551 58.4244C65.4808 58.2528 65.5527 58.2146 65.7164 58.2158C66.4978 58.222 67.2786 58.2232 68.06 58.2158C68.2366 58.2158 68.2816 58.2774 68.313 58.4355C68.6238 59.9591 68.9418 61.4815 69.2672 63.0027C69.3372 63.3325 69.3738 63.6721 69.524 63.987C69.6306 63.7084 69.6165 63.4155 69.619 63.1375C69.6287 61.9107 69.8354 60.7074 70.028 59.5016C70.0871 59.1276 70.1622 58.7548 70.2207 58.3801C70.2387 58.262 70.2849 58.2165 70.4094 58.2165C71.2737 58.2183 72.1405 58.2177 73.0529 58.2177Z" fill="#040304"/>
<path d="M72.7422 68.4799C72.8064 68.064 72.8616 67.69 72.9233 67.3172C73.1673 65.8436 73.4125 64.3706 73.6591 62.8982C73.9061 61.4016 74.1509 59.9046 74.3937 58.4072C74.4174 58.2577 74.4816 58.2134 74.6319 58.2153C75.8711 58.2307 77.1104 58.1833 78.3483 58.2424C78.9703 58.2622 79.5755 58.4404 80.1019 58.7585C80.629 59.0833 80.9629 59.5392 81.065 60.1347C81.2448 61.2156 80.8724 62.3439 79.8322 62.9394C79.6132 63.0625 79.3615 63.1166 79.0893 63.2249C79.3031 63.3085 79.4745 63.3651 79.6344 63.439C80.1436 63.6727 80.4306 64.0695 80.5102 64.5974C80.7632 66.2726 79.6113 67.9994 77.7293 68.3612C77.3176 68.4427 76.8983 68.4839 76.4779 68.4842C75.3748 68.4805 74.2717 68.4842 73.1692 68.4842L72.7422 68.4799ZM76.0355 66.2037C76.298 66.2561 76.5707 66.2348 76.8208 66.1422C77.2959 65.973 77.5598 65.6438 77.6118 65.1634C77.6332 65.0092 77.6007 64.8527 77.5194 64.7181C77.438 64.5836 77.3125 64.4786 77.1624 64.4196C76.9686 64.3419 76.7611 64.3001 76.5511 64.2966C76.4008 64.2879 76.3379 64.3353 76.3154 64.4903C76.2358 65.0496 76.135 65.6075 76.0355 66.2018V66.2037ZM77.2933 60.4497C76.9954 60.4392 76.9845 60.4454 76.937 60.7204C76.8644 61.1406 76.7932 61.5608 76.7257 61.9822C76.7142 62.0572 76.6821 62.144 76.8169 62.1729C77.4892 62.3199 78.1936 61.7349 78.1371 61.076C78.1338 60.9505 78.089 60.8292 78.0091 60.7297C77.9292 60.6302 77.8185 60.5576 77.6927 60.5223C77.5661 60.4722 77.4303 60.4469 77.2933 60.4479V60.4497Z" fill="#040304"/>
<path d="M21.2538 76.2986C21.4015 76.4074 21.5549 76.4185 21.6923 76.469C22.3531 76.7101 22.7024 77.1801 22.7614 77.8384C22.9316 79.7295 21.4997 81.3561 19.5182 81.5419C19.0855 81.5825 18.652 81.5628 18.2193 81.5647C17.2403 81.568 16.2615 81.568 15.283 81.5647C14.9799 81.5647 14.9722 81.5598 15.0197 81.2651C15.1957 80.1768 15.378 79.0897 15.5578 78.0045C15.9032 75.9128 16.2489 73.8199 16.5948 71.7258C16.6151 71.6577 16.6297 71.5881 16.6384 71.5178C16.6384 71.3425 16.729 71.3025 16.8953 71.3031C17.9868 71.3086 19.0784 71.289 20.1661 71.313C20.796 71.3265 21.4195 71.4169 22.0025 71.6864C23.0664 72.1785 23.4151 73.0078 23.329 74.0094C23.2802 74.5581 23.0992 75.0725 22.7171 75.5086C22.3528 75.9416 21.8291 76.2243 21.2538 76.2986ZM18.2726 79.3051C18.4707 79.3429 18.6749 79.3396 18.8716 79.2956C19.0682 79.2516 19.2528 79.1677 19.4129 79.0497C19.7474 78.8172 19.9221 78.338 19.8162 77.9774C19.6954 77.5659 19.3532 77.4576 18.9673 77.4121C18.8941 77.4028 18.8196 77.4059 18.7464 77.3967C18.618 77.3801 18.5731 77.4447 18.557 77.5542C18.5326 77.7172 18.4986 77.8796 18.4723 78.0427C18.4061 78.4591 18.3413 78.8763 18.2726 79.3051ZM20.3728 74.2469C20.3728 73.914 20.2252 73.7184 19.8932 73.6126C19.7397 73.5675 19.5799 73.545 19.4193 73.5461C19.2659 73.5461 19.2036 73.5972 19.1843 73.7473C19.1347 74.1218 19.0743 74.495 19.0033 74.867C18.8883 75.4656 18.9866 75.3075 19.4206 75.2564C19.9959 75.1912 20.3728 74.7606 20.3741 74.2469H20.3728Z" fill="#040304"/>
<path d="M98.5795 81.5173C98.7895 80.2377 98.9956 78.9741 99.2043 77.7117C99.2518 77.4213 99.255 77.4201 98.9474 77.4176C98.6867 77.4176 98.4261 77.4238 98.1666 77.4146C97.9907 77.4084 97.9047 77.449 97.879 77.6409C97.8077 78.1688 97.7043 78.6929 97.6177 79.2196C97.5079 79.8858 97.416 80.5558 97.2889 81.219C97.217 81.593 97.3095 81.561 96.887 81.5622C96.0458 81.5622 95.2053 81.5622 94.3359 81.5622C94.3359 81.1513 94.4374 80.7736 94.4977 80.3934C94.7328 78.9169 94.9857 77.4465 95.2304 75.9725C95.4769 74.4874 95.7207 73.0021 95.9617 71.5166C95.988 71.3554 96.0433 71.2951 96.2185 71.297C97.0486 71.3036 97.8788 71.3036 98.7092 71.297C98.914 71.297 98.9173 71.3764 98.8896 71.5363C98.7176 72.5415 98.5564 73.548 98.3901 74.5508C98.3554 74.6884 98.3443 74.8305 98.3573 74.9716C98.7368 74.9716 99.1189 74.9667 99.5003 74.9716C99.6608 74.9747 99.6749 74.8787 99.6929 74.768C99.7655 74.3109 99.8406 73.855 99.9144 73.3985C100.018 72.7669 100.121 72.1349 100.223 71.5025C100.244 71.3696 100.293 71.2908 100.457 71.2921C101.348 71.297 102.239 71.2921 103.154 71.2921C103.167 71.6563 103.069 71.9854 103.016 72.317C102.808 73.6403 102.587 74.9624 102.368 76.2826C102.111 77.8378 101.852 79.3928 101.591 80.9477C101.587 80.971 101.577 80.9932 101.572 81.0166C101.542 81.1888 101.592 81.4115 101.444 81.5173C101.296 81.6231 101.084 81.5499 100.9 81.5512C100.258 81.5549 99.6135 81.5549 98.9667 81.5512C98.8511 81.5598 98.7272 81.5893 98.5795 81.5173Z" fill="#040304"/>
<path d="M97.2159 68.4799C96.2233 68.4799 95.2447 68.4756 94.2662 68.4842C94.0684 68.4842 94.0581 68.3784 94.0299 68.2424C93.7897 67.0797 93.5466 65.9175 93.3005 64.756C93.2946 64.6553 93.2508 64.56 93.1772 64.4878C93.1457 64.6527 93.113 64.7887 93.0937 64.9271C92.9512 66.0443 92.7348 67.1504 92.5659 68.2639C92.5415 68.4245 92.4876 68.4848 92.3091 68.4829C91.4911 68.4749 90.6724 68.4829 89.8544 68.4786C89.6161 68.4786 89.6072 68.4694 89.6444 68.2326C89.7471 67.5767 89.8576 66.9222 89.9654 66.267C90.2557 64.5124 90.5461 62.7579 90.8368 61.0033C90.9806 60.1377 91.1302 59.2734 91.267 58.4072C91.2914 58.2571 91.3536 58.2134 91.5045 58.2152C92.6603 58.2294 93.8109 58.1838 94.9622 58.2429C95.5078 58.2643 96.0448 58.3806 96.5469 58.5862C97.3816 58.9393 97.8311 59.5637 97.9171 60.4269C97.9961 61.207 97.8901 61.9612 97.5389 62.6742C97.2415 63.295 96.7258 63.7958 96.082 64.0892C95.811 64.2159 95.8085 64.219 95.9054 64.5057C96.3138 65.7119 96.723 66.9181 97.1331 68.1243C97.1684 68.2246 97.2275 68.3193 97.2159 68.4799ZM94.9982 61.5115C95.011 60.8384 94.6675 60.4736 94.1037 60.4447C93.922 60.4349 93.8405 60.4829 93.8135 60.6674C93.7178 61.3226 93.6048 61.976 93.4969 62.6299C93.443 62.9535 93.4719 62.9849 93.7994 62.9307C93.9708 62.9036 94.1339 62.8406 94.2771 62.7462C94.7638 62.4251 94.9577 61.9569 94.9982 61.5115Z" fill="#040304"/>
<path d="M34.6873 71.3025C35.0963 71.3025 35.5053 71.2982 35.915 71.3025C36.1333 71.3056 36.141 71.321 36.1076 71.5308C35.7617 73.6257 35.4154 75.7205 35.0687 77.8151C35.0372 77.9996 35.0045 78.1891 34.9807 78.3774C34.9351 78.7237 35.095 79.0381 35.3525 79.1156C35.526 79.1671 35.713 79.1574 35.8796 79.0881C36.0462 79.0187 36.1813 78.8945 36.2604 78.7379C36.3477 78.5671 36.4073 78.3845 36.437 78.1965C36.541 77.6006 36.6423 77.004 36.7407 76.4069C36.9282 75.2716 37.115 74.1366 37.3013 73.0017C37.3822 72.5095 37.4759 72.0174 37.5369 71.5252C37.5613 71.332 37.6467 71.2933 37.8233 71.2945C38.6169 71.3001 39.4105 71.2945 40.2041 71.2945C40.4963 71.2945 40.5034 71.3013 40.461 71.5751C40.3326 72.3717 40.199 73.1666 40.068 73.9627C39.851 75.2751 39.6342 76.5859 39.4176 77.895C39.2988 78.613 39.1184 79.31 38.7312 79.948C38.1822 80.8505 37.3738 81.4029 36.3086 81.6213C35.4739 81.7936 34.6391 81.7979 33.8115 81.5727C32.7565 81.2848 32.1934 80.5484 32.0528 79.5056C31.9745 78.9212 32.0567 78.3478 32.1504 77.7751C32.4899 75.7039 32.8323 73.6327 33.1777 71.5615C33.2208 71.3013 33.2188 71.2982 33.4988 71.2958C33.8937 71.3007 34.2905 71.3025 34.6873 71.3025Z" fill="#040304"/>
<path d="M85.6305 58.2615C85.339 60.0081 85.0526 61.7386 84.7631 63.4686C84.67 64.0303 84.5826 64.5926 84.4959 65.1548C84.4789 65.2482 84.4726 65.3431 84.4773 65.4378C84.4972 65.6944 84.5512 65.93 84.8626 66.0235C85.0051 66.0651 85.1575 66.0642 85.2994 66.0209C85.4414 65.9776 85.5663 65.894 85.6575 65.7811C85.8225 65.5781 85.8893 65.3339 85.9317 65.0896C86.1082 64.0733 86.2745 63.0552 86.4453 62.0376C86.6444 60.8331 86.8417 59.6283 87.0373 58.4233C87.0592 58.2886 87.0919 58.2129 87.2589 58.2147C88.1385 58.2227 89.0188 58.2203 89.8985 58.2234C89.9203 58.2234 89.9428 58.2412 89.9884 58.2603C89.8953 58.8349 89.8015 59.4169 89.7059 59.9976C89.4651 61.4606 89.2262 62.9229 88.9803 64.3846C88.8814 64.9684 88.7928 65.5535 88.5809 66.1164C87.962 67.7639 86.6425 68.5926 84.8452 68.6467C84.4492 68.66 84.0528 68.6334 83.6625 68.5674C82.4361 68.3545 81.6887 67.6003 81.5513 66.4111C81.4871 65.8654 81.5378 65.3222 81.6271 64.7814C81.9755 62.6754 82.3233 60.5697 82.6705 58.4645C82.6917 58.3341 82.6987 58.2123 82.9004 58.2141C83.78 58.2234 84.6603 58.2209 85.54 58.2234C85.5718 58.2323 85.6022 58.2451 85.6305 58.2615Z" fill="#040304"/>
<path d="M103.708 61.5866C103.684 61.3269 103.658 61.1036 103.558 60.8981C103.404 60.5807 103.153 60.4749 102.797 60.5709C102.422 60.6717 102.198 60.9357 102.015 61.239C101.758 61.6647 101.621 62.1341 101.522 62.6103C101.353 63.4242 101.211 64.243 101.231 65.0778C101.226 65.2797 101.26 65.4808 101.332 65.6709C101.528 66.1304 101.974 66.2861 102.423 66.0486C102.501 66.0113 102.572 65.963 102.635 65.9053C102.959 65.5799 103.158 65.1578 103.197 64.7093H102.159C102.267 64.0375 102.372 63.3971 102.471 62.7548C102.498 62.585 102.573 62.5254 102.762 62.5272C103.94 62.5364 105.117 62.5309 106.294 62.5327C106.547 62.5327 106.574 62.5487 106.54 62.761C106.312 64.2375 105.978 65.6783 105.092 66.9443C103.919 68.6208 102.045 68.9339 100.419 68.4744C99.3873 68.1828 98.7889 67.4445 98.4929 66.4713C98.2605 65.709 98.2226 64.9277 98.3003 64.1458C98.3921 63.1873 98.5937 62.2485 98.9725 61.3509C99.2717 60.6428 99.6531 59.9809 100.193 59.4137C100.922 58.6508 101.806 58.1833 102.893 58.0658C103.64 57.9839 104.352 58.0522 105.016 58.3918C105.86 58.8225 106.348 59.5281 106.621 60.3918C106.692 60.6145 106.542 60.6299 106.408 60.6754C105.524 60.9744 104.638 61.2728 103.708 61.5866Z" fill="#040304"/>
<path d="M45.4407 77.8168C45.1357 77.8168 44.8628 77.8125 44.5925 77.8168C44.4416 77.8168 44.3999 77.7627 44.4249 77.623C44.5302 77.0152 44.6278 76.4068 44.7293 75.799C44.7492 75.6759 44.814 75.6249 44.954 75.6255C46.1697 75.6304 47.385 75.6304 48.5998 75.6255C48.768 75.6255 48.8181 75.687 48.7924 75.839C48.551 77.3474 48.2145 78.827 47.2867 80.1115C46.131 81.7111 44.265 82.0187 42.6816 81.5739C41.7435 81.3106 41.1631 80.6769 40.826 79.8175C40.5409 79.0915 40.4908 78.3348 40.5268 77.5732C40.5727 76.3727 40.8603 75.192 41.3737 74.0961C41.8938 73.0016 42.6149 72.0659 43.7841 71.5344C44.8115 71.0705 45.8793 70.9604 46.9554 71.3541C47.9969 71.7362 48.567 72.5285 48.8785 73.5209C48.9324 73.6937 48.8143 73.7208 48.6967 73.7608C47.9733 74.0032 47.2495 74.2464 46.5252 74.4904L45.9942 74.6682C45.8915 74.5452 45.9261 74.3914 45.8959 74.2579C45.7585 73.6427 45.2725 73.4538 44.7331 73.8119C44.3678 74.0542 44.1906 74.4215 44.0358 74.7962C43.7931 75.3855 43.6923 76.0081 43.5992 76.6301C43.5241 77.134 43.4483 77.6384 43.4663 78.1509C43.4663 78.3764 43.5099 78.6 43.5947 78.8104C43.7693 79.209 44.154 79.3524 44.5732 79.1832C44.7682 79.104 44.9356 78.9735 45.0561 78.8067C45.2609 78.5403 45.3778 78.2499 45.4407 77.8168Z" fill="#040304"/>
<path d="M40.0146 68.48C40.2323 67.9515 40.4249 67.4784 40.6214 67.0072C41.7883 64.2018 42.9559 61.3965 44.124 58.5912C44.1486 58.5372 44.1701 58.482 44.1882 58.4257C44.2332 58.2658 44.3321 58.2104 44.5093 58.2128C45.2644 58.2227 46.0208 58.2172 46.7759 58.2172C47.0237 58.2172 47.2716 58.2141 47.5194 58.2172C47.8604 58.2227 47.8135 58.1606 47.8494 58.5297C47.8905 58.9419 47.8931 59.3571 47.9181 59.7705C47.9824 60.8447 48.053 61.9188 48.1108 62.9936C48.1557 63.786 48.1853 64.5783 48.2296 65.3701C48.2784 66.2443 48.3291 67.1179 48.3907 67.9909C48.4254 68.48 48.4363 68.4793 47.9162 68.4793C47.1851 68.4793 46.4542 68.4793 45.7235 68.4793C45.3947 68.4793 45.3934 68.4793 45.3915 68.1767C45.3915 67.9035 45.3851 67.6304 45.3915 67.3578C45.396 67.2053 45.3402 67.1499 45.1777 67.1523C44.682 67.1597 44.1863 67.1616 43.6913 67.1523C43.5198 67.1487 43.4575 67.2139 43.412 67.3634C43.3195 67.671 43.1924 67.9675 43.096 68.2732C43.0575 68.4184 42.9933 68.4855 42.8225 68.4855C41.9062 68.4756 40.99 68.48 40.0146 68.48ZM44.2486 64.9456C44.5902 64.9456 44.8875 64.9352 45.1828 64.9499C45.3678 64.9592 45.4223 64.8681 45.4397 64.7241C45.4446 64.6531 45.4457 64.5818 45.4429 64.5107C45.4429 63.7041 45.4917 62.8995 45.5283 62.0942C45.5456 61.7053 45.561 61.3165 45.5777 60.9253C45.1629 62.2596 44.691 63.5688 44.2486 64.9456Z" fill="#040304"/>
<path d="M22.5859 81.5616C22.767 81.1187 22.9307 80.7126 23.0996 80.3091C24.2982 77.425 25.4967 74.5415 26.6953 71.6587C26.8642 71.2551 26.7659 71.3037 27.2501 71.3025C28.2042 71.2988 29.1584 71.2988 30.1125 71.3025C30.3861 71.3025 30.3899 71.3074 30.4047 71.5744C30.4432 72.2721 30.4753 72.9697 30.5164 73.6661C30.5806 74.6935 30.6589 75.7197 30.7039 76.7477C30.7296 77.3272 30.7681 77.9061 30.7996 78.485C30.8445 79.3598 30.8914 80.2344 30.9402 81.1088C30.9402 81.1562 30.9524 81.2036 30.9524 81.2503C30.9524 81.6028 30.9781 81.5616 30.6403 81.5622C29.8223 81.5622 29.0043 81.5561 28.1869 81.5659C27.9898 81.5659 27.9301 81.5093 27.9397 81.3248C27.9538 81.0288 27.9397 80.7317 27.9448 80.4352C27.9448 80.3269 27.9384 80.2506 27.7939 80.2549C27.261 80.2592 26.7281 80.2617 26.1951 80.2549C26.041 80.2549 26.0102 80.3503 25.9749 80.4475C25.867 80.7502 25.7649 81.0553 25.6616 81.3598C25.6269 81.4626 25.6025 81.5647 25.4516 81.5641C24.5129 81.5604 23.5728 81.5616 22.5859 81.5616ZM28.0527 75.5382C28.0636 75.0651 28.1644 74.5957 28.1034 74.1232C28.1503 74.1232 28.1593 74.09 28.1619 74.0555C28.1644 74.0211 28.1619 73.9897 28.1619 73.9565C28.1413 73.9848 28.1195 74.0119 28.0976 74.0408C28.0874 74.0607 28.0783 74.0813 28.0707 74.1023C27.7073 75.4237 27.2161 76.7089 26.818 78.0365H27.9397C27.9501 77.9989 27.9578 77.9607 27.9628 77.9221" fill="#040304"/>
<path d="M102.212 81.5622C102.171 81.433 102.233 81.3518 102.268 81.2657C103.605 78.0506 104.942 74.8358 106.28 71.6212C106.413 71.3025 106.414 71.3025 106.785 71.3025C107.752 71.3025 108.719 71.3025 109.686 71.3025C109.964 71.3025 109.957 71.3074 109.973 71.5738C110.037 72.6252 110.106 73.6759 110.166 74.7273C110.211 75.5203 110.237 76.3139 110.281 77.1063C110.34 78.146 110.41 79.1857 110.474 80.2248C110.497 80.6148 110.474 81.0067 110.543 81.3936C110.56 81.489 110.528 81.5579 110.414 81.561C110.365 81.561 110.315 81.561 110.266 81.561C109.448 81.561 108.629 81.561 107.811 81.561C107.522 81.561 107.521 81.5561 107.519 81.2602C107.519 80.987 107.513 80.7138 107.519 80.4407C107.523 80.306 107.477 80.2512 107.326 80.2561C106.819 80.2623 106.31 80.2635 105.802 80.2561C105.646 80.2561 105.59 80.3177 105.545 80.4487C105.442 80.7655 105.321 81.0774 105.217 81.3936C105.184 81.4939 105.148 81.5659 105.025 81.5659C104.084 81.5616 103.144 81.5622 102.212 81.5622ZM107.621 74.154C107.266 75.4576 106.786 76.7249 106.38 78.0476C106.71 78.0476 107.006 78.0359 107.301 78.0513C107.502 78.0617 107.55 77.9897 107.552 77.8052C107.552 77.3795 107.577 76.9537 107.595 76.528C107.629 75.7373 107.665 74.9465 107.701 74.1558V74.0254C107.672 74.0667 107.645 74.1096 107.621 74.154Z" fill="#040304"/>
<path d="M34.7659 68.4799C34.3697 68.4799 33.9729 68.4799 33.5768 68.4799C33.3039 68.4799 33.2994 68.4738 33.3398 68.2252C33.44 67.6051 33.5453 66.9856 33.6474 66.3655C33.864 65.0559 34.0797 63.7459 34.2946 62.4355C34.5181 61.0907 34.7473 59.7465 34.9637 58.4011C34.9855 58.2669 35.0279 58.2134 35.1659 58.2165C36.4398 58.2491 37.7176 58.1371 38.9877 58.3026C39.4806 58.3599 39.9574 58.5078 40.3919 58.7382C41.1149 59.1344 41.5034 59.7342 41.5804 60.5186C41.6738 61.4209 41.5073 62.3306 41.0989 63.1486C40.5897 64.1778 39.7049 64.753 38.5645 64.9942C38.0586 65.1038 37.54 65.151 37.0216 65.1344C36.8437 65.1277 36.768 65.1714 36.7397 65.3627C36.6049 66.2652 36.4469 67.164 36.2973 68.064C36.2286 68.4793 36.2292 68.4793 35.8106 68.4799H34.7659ZM37.1718 62.7511C37.2193 62.7819 37.229 62.793 37.2392 62.7936C37.742 62.8244 38.133 62.6293 38.3867 62.2208C38.6596 61.7804 38.7225 61.3097 38.4753 60.8342C38.3263 60.5481 38.0598 60.4521 37.7407 60.4454C37.6052 60.4454 37.5442 60.4835 37.5231 60.6182C37.4107 61.3294 37.29 62.04 37.1718 62.7511Z" fill="#040304"/>
<path d="M49.0479 68.4313C49.1763 67.6562 49.2976 66.8749 49.426 66.0936C49.611 64.971 49.7974 63.8485 49.9853 62.726C50.1993 61.4402 50.4134 60.1542 50.6274 58.868C50.6505 58.7278 50.6756 58.5875 50.6916 58.446C50.7083 58.2756 50.7828 58.2085 50.9754 58.2122C51.6175 58.2252 52.2641 58.2209 52.9087 58.2165C53.6394 58.211 54.3695 58.2098 55.0874 58.3691C55.6485 58.4922 56.1719 58.6896 56.604 59.0754C57.0281 59.4505 57.2863 59.9669 57.3257 60.5186C57.4149 61.5313 57.2268 62.5033 56.6939 63.3947C56.0691 64.4405 55.0585 64.9044 53.8642 65.0687C53.5095 65.1213 53.1507 65.1447 52.7919 65.1388C52.5145 65.1308 52.5094 65.1388 52.4657 65.3996C52.3565 66.0542 52.2519 66.71 52.1447 67.3652C52.0933 67.6814 52.0387 67.997 51.9931 68.3132C51.9771 68.4252 51.9366 68.4824 51.8082 68.4818C50.9163 68.4769 50.0238 68.4769 49.1313 68.4732C49.1082 68.4732 49.0877 68.4523 49.0479 68.4313ZM52.9055 62.7487C52.9333 62.7707 52.9657 62.7865 53.0005 62.7952C53.0354 62.804 53.0717 62.8053 53.1072 62.7992C53.1812 62.7967 53.2548 62.7882 53.3274 62.774C54.2905 62.5722 54.5268 61.4617 54.2539 60.9099C54.1962 60.7782 54.1006 60.6649 53.9783 60.5832C53.856 60.5015 53.712 60.4548 53.563 60.4485C53.3158 60.4282 53.2966 60.4393 53.2555 60.6774C53.138 61.3639 53.023 62.0523 52.9055 62.7487Z" fill="#040304"/>
<path d="M67.7767 77.6064H66.2704C66.0964 77.6064 65.923 77.6064 65.7497 77.6064C65.6244 77.6064 65.5474 77.6261 65.5268 77.7725C65.4626 78.2032 65.3856 78.6381 65.3053 79.1149H67.7767C67.6888 79.6624 67.6091 80.1657 67.527 80.6683C67.4923 80.8787 67.455 81.0889 67.4152 81.2989C67.3664 81.5585 67.3645 81.5616 67.0987 81.5622C66.0324 81.5622 64.9661 81.5622 63.8998 81.5622H62.1905C62.1545 81.5669 62.1179 81.5642 62.083 81.5544C62.0481 81.5445 62.0158 81.5277 61.9883 81.505C62.0897 80.8928 62.1957 80.2653 62.2984 79.6372C62.6409 77.566 62.9807 75.4949 63.3181 73.4237C63.4195 72.8036 63.5229 72.1836 63.6282 71.5639C63.6718 71.3086 63.6757 71.3049 63.9621 71.3043C65.5613 71.3043 67.1608 71.3043 68.7604 71.3043C69.0718 71.3043 69.0757 71.3086 69.0288 71.6015C68.9261 72.2339 68.8227 72.8663 68.7129 73.4975C68.668 73.7559 68.659 73.7584 68.3842 73.759C67.7421 73.759 67.0942 73.767 66.4495 73.759C66.2505 73.7553 66.1657 73.8119 66.1458 74.0051C66.1169 74.2874 66.054 74.5667 66.0078 74.8473C65.9583 75.145 65.959 75.1481 66.2646 75.1493C66.8211 75.1526 67.3791 75.1526 67.9385 75.1493C68.0856 75.1493 68.18 75.1702 68.1504 75.345C68.0233 76.0918 67.9013 76.8405 67.7767 77.6064Z" fill="#040304"/>
<path d="M55.8729 71.3443C55.8588 71.6925 55.7734 72.0376 55.7169 72.3865C55.6584 72.7494 55.6058 73.113 55.5403 73.4748C55.4889 73.7559 55.4819 73.7577 55.1936 73.7584C54.574 73.7584 53.9537 73.7584 53.3315 73.7584C52.9983 73.7584 53.0214 73.7067 52.9662 74.0518C52.9109 74.3969 52.8519 74.7519 52.7947 75.1032C52.9514 75.1795 53.1016 75.145 53.2442 75.1463C53.7521 75.1512 54.2606 75.1506 54.7685 75.1463C54.9181 75.1463 55.0016 75.1696 54.9714 75.3456C54.843 76.0924 54.7236 76.8405 54.5984 77.6046H52.7633C52.378 77.6046 52.378 77.6046 52.3196 77.9454C52.2554 78.3195 52.2027 78.6947 52.1379 79.1143H54.6054C54.5162 79.6625 54.434 80.1632 54.3486 80.664C54.3081 80.9101 54.26 81.1562 54.2292 81.4022C54.2144 81.5253 54.1598 81.5702 54.0397 81.561C54.0025 81.561 53.9653 81.561 53.928 81.561H49.0224C48.9627 81.561 48.903 81.5536 48.8105 81.5468C48.8959 81.0159 48.9762 80.5053 49.0603 79.9959C49.2945 78.5686 49.5299 77.1416 49.7666 75.7147C49.9961 74.3231 50.2255 72.9311 50.4549 71.5387C50.4768 71.4077 50.4992 71.2963 50.6977 71.2969C52.396 71.3056 54.0943 71.3031 55.7926 71.3056C55.8138 71.3062 55.8344 71.3259 55.8729 71.3443Z" fill="#040304"/>
<path d="M64.1025 58.2522C63.9837 58.9855 63.8624 59.7213 63.7468 60.4583C63.7211 60.622 63.6312 60.6626 63.4675 60.6607C62.8254 60.6527 62.1788 60.6564 61.5341 60.6607C61.2433 60.6607 61.2394 60.6607 61.1906 60.9351C61.1264 61.2956 61.068 61.658 60.998 62.0628H63.2177C63.0893 62.8515 62.966 63.5965 62.8549 64.3433C62.8286 64.5193 62.7175 64.5094 62.5904 64.5094C62.045 64.5094 61.4997 64.5094 60.9543 64.5094C60.5941 64.5094 60.5954 64.5094 60.544 64.8429C60.4856 65.2175 60.4259 65.5916 60.3681 65.9662C60.3681 65.9755 60.3752 65.9853 60.3912 66.0235H61.1553C61.626 66.0235 62.0973 66.0271 62.5679 66.0235C62.7336 66.0235 62.8247 66.0456 62.7888 66.2406C62.6649 66.929 62.5512 67.6193 62.4421 68.3102C62.4215 68.4387 62.3779 68.4892 62.2353 68.4886C60.5252 68.4812 58.8153 68.4767 57.1056 68.475C57.0941 68.475 57.0832 68.4664 57.0479 68.451C57.0479 68.0352 57.1609 67.6224 57.227 67.2065C57.4838 65.6027 57.7542 64.0013 58.02 62.3993C58.2391 61.0778 58.4583 59.7566 58.6775 58.4355C58.698 58.3125 58.7089 58.2184 58.8874 58.219C60.598 58.2264 62.3085 58.2252 64.0184 58.2282C64.0475 58.2323 64.0758 58.2404 64.1025 58.2522Z" fill="#040304"/>
<path d="M80.9742 78.1245C81.2124 78.4979 81.4641 78.8172 81.8358 79.0263C82.1794 79.2195 82.5377 79.3161 82.9345 79.19C83.5849 78.9827 83.757 78.3355 83.2703 77.8698C82.9903 77.6022 82.6834 77.3616 82.4002 77.0952C81.5013 76.2481 81.2445 75.2447 81.5963 74.0973C81.9347 72.9838 82.5704 72.0721 83.662 71.5203C84.8119 70.9389 85.9735 71.0281 87.1235 71.5473C87.2718 71.6138 87.3039 71.7048 87.2782 71.8549C87.1151 72.8091 86.9623 73.7651 86.8024 74.739C86.6682 74.6873 86.6419 74.5747 86.5815 74.4929C86.3485 74.1767 86.0679 73.9183 85.6858 73.7701C85.3526 73.6396 85.0315 73.6618 84.7336 73.8654C84.3984 74.0937 84.331 74.4314 84.5506 74.7685C84.6976 74.9943 84.916 75.153 85.1285 75.3155C85.4028 75.5198 85.6585 75.7462 85.8926 75.9922C86.4608 76.6074 86.6432 77.329 86.5347 78.1386C86.3664 79.3832 85.7706 80.3853 84.7002 81.1057C83.6299 81.8261 82.4234 81.8895 81.1822 81.5874C81.0031 81.5437 80.831 81.4736 80.6518 81.4269C80.4592 81.3758 80.4149 81.2737 80.4489 81.0836C80.5908 80.3017 80.7122 79.5173 80.8432 78.7341C80.8759 78.5403 80.8836 78.3435 80.9742 78.1245Z" fill="#040304"/>
<path d="M61.7296 74.8048C61.4818 74.4 61.2256 74.0992 60.8705 73.8919C60.5154 73.6846 60.1405 73.5966 59.7501 73.8205C59.3295 74.0617 59.2364 74.4357 59.5266 74.8147C59.6955 75.0355 59.9202 75.2078 60.1418 75.3801C60.4747 75.6278 60.7728 75.9159 61.0285 76.237C61.406 76.7292 61.5466 77.2829 61.503 77.8815C61.4426 78.7138 61.1819 79.4871 60.6522 80.1577C59.7379 81.3174 58.525 81.86 57.0039 81.7369C56.51 81.6943 56.0248 81.5858 55.5624 81.4146C55.4391 81.3703 55.346 81.326 55.3742 81.1623C55.5444 80.1811 55.7049 79.1986 55.8693 78.2161C55.8725 78.1989 55.8924 78.1841 55.9142 78.1546C56.0426 78.3176 56.1614 78.4813 56.2943 78.6326C56.5444 78.9317 56.8938 79.1397 57.2844 79.222C57.4598 79.264 57.6437 79.2606 57.8173 79.2123C57.9909 79.164 58.148 79.0725 58.2726 78.947C58.3863 78.8369 58.4596 78.6944 58.4815 78.541C58.5034 78.3875 58.4727 78.2314 58.394 78.0962C58.3153 77.9609 58.2084 77.8426 58.08 77.7486C57.7923 77.5231 57.5207 77.2794 57.2671 77.019C56.5486 76.3182 56.2558 75.4809 56.4356 74.5126C56.6237 73.4982 57.1066 72.6196 57.9291 71.9552C59.0656 71.038 60.3556 70.9094 61.7258 71.4089C62.2639 71.6039 62.2594 71.6101 62.1663 72.1669C62.0237 73.0208 61.8837 73.8753 61.7296 74.8048Z" fill="#040304"/>
<path d="M69.5053 32.0963C69.4142 32.6438 69.3275 33.1692 69.2389 33.6958C68.8964 35.719 68.5553 37.7426 68.2154 39.7666C67.911 41.5675 67.6058 43.3684 67.2998 45.1693C66.9616 47.1691 66.6232 49.1693 66.2846 51.17C66.2493 51.3773 66.2891 51.6418 66.1363 51.7759C65.9835 51.91 65.7099 51.8239 65.4903 51.8245C61.9439 51.827 58.3974 51.827 54.8509 51.8245C54.7167 51.8245 54.5787 51.8498 54.4297 51.795C54.4843 51.1964 54.6146 50.6071 54.7129 50.0146C55.0455 48.0009 55.3843 45.9887 55.7293 43.9783C56.0131 42.3061 56.3033 40.6346 56.5858 38.9625C56.9189 36.9861 57.2497 35.0088 57.5785 33.0307C57.6196 32.7847 57.6748 32.5386 57.7069 32.2925C57.7249 32.1565 57.7878 32.1079 57.9233 32.1153C58.01 32.1209 58.0973 32.1153 58.184 32.1153C61.4822 32.1153 64.7808 32.1153 68.0799 32.1153C68.5364 32.1159 68.991 32.039 69.5053 32.0963ZM68.6546 32.7933H58.7022C58.3593 32.7933 58.3574 32.7736 58.3034 33.1046C58.0329 34.7451 57.7576 36.3838 57.4777 38.0206C57.14 40.0094 56.8009 41.9985 56.4606 43.9881C56.146 45.8374 55.8322 47.6865 55.5193 49.5354C55.4423 49.9918 55.371 50.4496 55.2888 50.9054C55.2593 51.0685 55.2888 51.1626 55.4872 51.1441C55.5368 51.1417 55.5866 51.1417 55.6362 51.1441H65.195C65.5616 51.1441 65.5584 51.1441 65.6143 50.807C65.8711 49.262 66.1305 47.7175 66.3925 46.1733C66.7277 44.196 67.0645 42.2192 67.4031 40.2428C67.7409 38.254 68.0775 36.2649 68.4131 34.2753C68.496 33.7881 68.5724 33.2959 68.6546 32.7933Z" fill="#FECB02"/>
<path d="M68.2031 51.8246C68.3226 51.1054 68.4349 50.4275 68.5486 49.7501C68.787 48.3344 69.0256 46.9194 69.2645 45.5052C69.5415 43.868 69.818 42.2307 70.0941 40.5935C70.3856 38.8746 70.6775 37.1557 70.9699 35.4368C71.1445 34.4076 71.3243 33.3796 71.4881 32.3491C71.517 32.1683 71.585 32.1074 71.7706 32.1154C72.055 32.1277 72.3408 32.1184 72.6259 32.1184C76.0358 32.1184 79.4457 32.1184 82.8556 32.1184C82.9892 32.1184 83.1273 32.0908 83.2865 32.1566C83.1966 32.7103 83.1086 33.2695 83.0149 33.8269C82.7191 35.5814 82.422 37.3358 82.1237 39.0899C81.7872 41.0659 81.4499 43.0418 81.1117 45.0174C80.8057 46.8302 80.5022 48.6436 80.2012 50.4576C80.137 50.855 80.0548 51.2506 79.9964 51.6493C79.9765 51.7871 79.9181 51.8338 79.7826 51.824C79.7338 51.8197 79.6837 51.824 79.6343 51.824H68.205L68.2031 51.8246ZM74.2189 51.1436H78.9434C79.3351 51.1436 79.3357 51.1436 79.407 50.788C79.4256 50.6945 79.4436 50.6034 79.4596 50.5081C79.74 48.8335 80.021 47.1593 80.3027 45.4856C80.5846 43.8245 80.8742 42.1635 81.1554 40.5024C81.5676 38.0679 81.9777 35.6335 82.3856 33.1994C82.4543 32.7933 82.4582 32.7933 82.0293 32.7933H72.7292C72.1578 32.7933 72.1552 32.7933 72.0615 33.3415C71.7751 35.0148 71.4898 36.6886 71.2055 38.3627C70.715 41.2657 70.2257 44.1688 69.7377 47.0722C69.5237 48.3481 69.3097 49.6242 69.0956 50.9006C69.0571 51.1319 69.0629 51.1337 69.3101 51.143C69.3839 51.143 69.4584 51.143 69.5329 51.143L74.2189 51.1436Z" fill="#FECB02"/>
<path d="M94.103 74.2684C93.9964 74.2721 93.9559 74.2026 93.9103 74.1534C93.3909 73.6157 92.5093 73.6262 91.8987 73.9996C91.5425 74.2201 91.2573 74.531 91.0749 74.8978C90.5811 75.855 90.3686 76.8664 90.5362 77.9313C90.5632 78.1075 90.6175 78.2787 90.6973 78.4395C90.9201 78.8861 91.2925 79.1218 91.8101 79.1476C92.3141 79.1734 92.7591 79.0135 93.1687 78.7471C93.2695 78.6819 93.3652 78.6087 93.5045 78.5103C93.5418 78.7563 93.4513 78.9409 93.414 79.1255C93.2817 79.7763 93.1199 80.4223 92.9857 81.0732C92.9376 81.3082 92.8201 81.4343 92.5793 81.5081C91.7446 81.7653 90.9099 81.8342 90.0572 81.6269C88.8911 81.3439 88.1437 80.6327 87.7366 79.569C87.5023 78.9575 87.4638 78.3226 87.467 77.6767C87.4671 76.5585 87.7105 75.4526 88.1816 74.4296C88.9059 72.8565 90.1079 71.7769 91.8601 71.3136C92.6602 71.102 93.4654 71.0645 94.277 71.2792C94.598 71.3647 94.6032 71.3714 94.5518 71.6932C94.4234 72.4776 94.295 73.2613 94.1665 74.0451C94.1511 74.1226 94.1235 74.1983 94.103 74.2684Z" fill="#040304"/>
<path d="M115.164 75.206H117.201C117.141 75.5917 117.086 75.9442 117.03 76.2899C116.972 76.6529 116.917 77.0165 116.852 77.3789C116.803 77.6625 116.798 77.6649 116.508 77.6662C116.024 77.6662 115.54 77.6662 115.057 77.6662C114.732 77.6662 114.726 77.6662 114.678 77.9578C114.518 78.9292 114.364 79.9012 114.206 80.8732C114.182 81.0252 114.142 81.1765 114.131 81.3291C114.12 81.5136 114.034 81.5678 113.847 81.5647C113.289 81.5548 112.731 81.561 112.173 81.561H111.172C111.252 81.0541 111.324 80.5767 111.402 80.1054C111.718 78.186 112.035 76.2668 112.353 74.3478C112.506 73.425 112.656 72.5021 112.809 71.575C112.854 71.3074 112.859 71.3019 113.13 71.3019C114.655 71.2994 116.181 71.2994 117.706 71.3019C117.983 71.3019 117.983 71.3074 117.94 71.5781C117.836 72.2345 117.726 72.8897 117.631 73.5468C117.608 73.7086 117.548 73.7658 117.374 73.7627C116.792 73.7529 116.209 73.7658 115.626 73.7553C115.444 73.7516 115.356 73.7965 115.338 73.9799C115.297 74.3797 115.179 74.7698 115.164 75.206Z" fill="#040304"/>
<path d="M120.022 73.8377H118.441C118.529 73.2957 118.61 72.7839 118.694 72.272C118.732 72.0376 118.775 71.8045 118.815 71.5707C118.861 71.3043 118.86 71.3012 119.13 71.2994C119.579 71.2994 120.022 71.2994 120.468 71.2994C121.881 71.2994 123.294 71.2994 124.706 71.2994C125.02 71.2994 125.027 71.3061 124.977 71.5965C124.864 72.2732 124.738 72.95 124.635 73.6322C124.609 73.8026 124.54 73.8469 124.374 73.8432C123.977 73.834 123.58 73.8469 123.184 73.8371C123.003 73.8328 122.932 73.8801 122.902 74.0672C122.611 75.8937 122.307 77.7184 122.003 79.5425C121.905 80.1392 121.806 80.7356 121.707 81.3315C121.687 81.4545 121.674 81.5628 121.495 81.5616C120.592 81.5566 119.688 81.5616 118.743 81.5616C119.175 78.9771 119.594 76.4246 120.022 73.8377Z" fill="#040304"/>
<path d="M78.0771 79.1242H80.187C80.0618 79.8938 79.9366 80.6289 79.8261 81.366C79.8037 81.5173 79.7427 81.5763 79.5911 81.5628C79.5539 81.561 79.5166 81.561 79.4794 81.5628C77.9812 81.5628 76.483 81.5628 74.9848 81.5628C74.9007 81.5628 74.8108 81.5831 74.71 81.5148C74.8384 80.7464 74.9668 79.9676 75.0952 79.1881C75.4377 77.1067 75.7801 75.0253 76.1226 72.9438C76.1951 72.4997 76.2677 72.0555 76.3434 71.6113C76.3954 71.3037 76.3974 71.3037 76.7049 71.3037C77.4851 71.3037 78.2659 71.3037 79.0466 71.3037C79.3221 71.3037 79.3253 71.3129 79.2836 71.5615C78.8778 73.9919 78.4722 76.4228 78.0668 78.8541C78.0508 78.931 78.0232 79.0128 78.0771 79.1242Z" fill="#040304"/>
<path d="M72.1087 79.1229H74.245C74.1165 79.9165 73.9881 80.6744 73.8681 81.433C73.8539 81.5234 73.8128 81.556 73.7294 81.561C73.6799 81.561 73.6298 81.561 73.5804 81.561H69.0093C68.9259 81.5721 68.8409 81.5556 68.7686 81.5142C68.8668 80.899 68.9612 80.269 69.0684 79.6409C69.252 78.5305 69.4421 77.4206 69.6251 76.3102C69.8357 75.0361 70.0412 73.7614 70.2492 72.4867C70.3006 72.1711 70.3507 71.8555 70.4033 71.5399C70.4284 71.3916 70.4675 71.2938 70.6781 71.2938C71.4955 71.308 72.3136 71.2975 73.1309 71.3006C73.3653 71.3006 73.3769 71.3197 73.3377 71.5547C73.0552 73.2489 72.7716 74.9432 72.4869 76.6375C72.3559 77.4208 72.2275 78.2044 72.1017 78.9882C72.1 79.0332 72.1024 79.0783 72.1087 79.1229Z" fill="#040304"/>
<path d="M71.1584 17.989C71.0543 18.6147 70.9535 19.2225 70.8514 19.8303C70.5445 21.6558 70.2372 23.4809 69.9294 25.3056C69.8106 26.0076 69.679 26.7077 69.5724 27.4115C69.5435 27.5997 69.4626 27.6545 69.2847 27.6391C69.1987 27.6323 69.1114 27.6391 69.0247 27.6391C63.1483 27.6391 57.2744 27.6471 51.3948 27.6336C50.0464 27.6305 48.9022 28.0956 47.9012 28.9107C46.9599 29.6766 46.3685 30.6554 46.2317 31.8409C46.0886 33.1132 46.2812 34.33 47.0896 35.3962C47.6642 36.1541 48.4649 36.6149 49.378 36.9022C50.2069 37.163 51.0628 37.2713 51.9342 37.3033C52.5531 37.3248 53.1689 37.3033 53.7859 37.2744C54.0916 37.2596 54.1108 37.2867 54.0627 37.5666C53.6261 40.1168 53.1894 42.6668 52.7528 45.2167C52.6732 45.685 52.5966 46.1534 52.523 46.6218C52.469 46.962 52.4716 46.9614 52.1172 46.9872C50.8693 47.071 49.6158 47.0339 48.3757 46.8765C46.7063 46.6734 45.0952 46.2643 43.5658 45.5876C40.6725 44.308 38.4291 42.3517 36.9169 39.654C35.8986 37.8416 35.3496 35.9013 35.1627 33.8526C34.9581 31.648 35.2372 29.4267 35.982 27.3315C36.8424 24.8818 38.2576 22.7852 40.3643 21.1407C41.7981 20.0247 43.4142 19.2471 45.1755 18.7328C46.5641 18.3364 47.995 18.0917 49.4409 18.0032C50.0721 17.9601 50.7013 17.9466 51.3325 17.9466C57.7791 17.9466 64.2259 17.9466 70.6729 17.9466C70.8187 17.9478 70.9689 17.9214 71.1584 17.989Z" fill="#FECB02"/>
<path d="M73.0381 27.5998C73.0984 27.2178 73.1562 26.832 73.2211 26.4475C73.6855 23.6967 74.1493 20.946 74.6125 18.1952C74.644 18.0051 74.7165 17.9202 74.9188 17.9442C75.0043 17.949 75.0901 17.949 75.1756 17.9442C79.9271 17.9442 84.6728 17.9319 89.4217 17.9497C91.7891 17.9583 94.1089 18.2942 96.3376 19.0915C98.2954 19.7916 100.016 20.8418 101.44 22.3134C102.617 23.529 103.482 24.9329 104.077 26.4881C104.682 28.0698 104.987 29.7075 105.087 31.3888C105.204 33.3667 104.974 35.2954 104.309 37.1717C103.618 39.1507 102.438 40.9404 100.87 42.3886C99.2893 43.8534 97.4362 44.911 95.3828 45.6492C93.7458 46.2317 92.0435 46.6295 90.3103 46.8347C89.2791 46.962 88.2428 47.01 87.2039 47.0605C86.0481 47.1165 84.9052 47.0223 83.7565 46.9848C83.6887 46.9756 83.622 46.9599 83.5575 46.938C83.6859 46.161 83.8143 45.3896 83.9427 44.6187C84.2809 42.6177 84.6197 40.6166 84.9591 38.6156C85.0163 38.276 85.067 37.9352 85.1267 37.5962C85.1755 37.3151 85.18 37.3083 85.4728 37.3366C86.1875 37.4055 86.9021 37.4707 87.6212 37.4498C88.7911 37.4166 89.9328 37.2554 91.0185 36.794C93.131 35.8933 94.2566 34.0034 93.9908 31.7912C93.8816 30.8788 93.6055 30.0249 93.0193 29.2873C92.3175 28.4032 91.3569 27.9271 90.2339 27.7228C89.8682 27.6606 89.4971 27.6318 89.1257 27.6367C83.9303 27.6392 78.7354 27.6392 73.5408 27.6367C73.3848 27.6361 73.2217 27.6668 73.0381 27.5998Z" fill="#FECB02"/>
<path d="M28.105 74.1207L28.0771 74.1256C28.0771 74.1256 28.0771 74.0986 28.0771 74.098C28.0847 74.0769 28.0938 74.0563 28.1044 74.0364C28.1238 74.0075 28.1459 73.9804 28.1692 73.9521C28.1692 73.9854 28.1692 74.0186 28.1692 74.0512C28.1692 74.0838 28.1523 74.1201 28.105 74.1207Z" fill="#FECB02"/>
<path d="M107.702 74.1577C107.693 74.173 107.688 74.197 107.675 74.2013C107.637 74.213 107.628 74.1835 107.621 74.1552C107.645 74.111 107.672 74.0683 107.702 74.0272V74.1577Z" fill="#FECB02"/>
<path d="M68.6543 32.7933C68.5721 33.2977 68.4957 33.7862 68.4129 34.2747C68.0769 36.2634 67.7402 38.2526 67.4029 40.2421C67.0664 42.2186 66.7296 44.1954 66.3922 46.1727C66.1311 47.7168 65.8717 49.2614 65.614 50.8064C65.5582 51.141 65.5614 51.1435 65.1947 51.1435H55.6372C55.5876 51.141 55.5379 51.141 55.4883 51.1435C55.2918 51.162 55.2603 51.0678 55.2899 50.9048C55.372 50.4489 55.4433 49.9912 55.5204 49.5347C55.8337 47.6855 56.1475 45.8364 56.4617 43.9875C56.7998 41.9979 57.1389 40.0088 57.4787 38.02C57.757 36.3819 58.0322 34.7432 58.3045 33.1039C58.3584 32.773 58.3603 32.7926 58.7032 32.7926H68.6556L68.6543 32.7933Z" fill="#FECB02"/>
<path d="M74.2183 51.1436H69.5311C69.4566 51.1436 69.3821 51.1436 69.3083 51.1436C69.0611 51.1344 69.0553 51.1325 69.0938 50.9012C69.3078 49.6249 69.5219 48.3487 69.7359 47.0728C70.2277 44.1694 70.7174 41.2661 71.205 38.3628C71.488 36.6886 71.7733 35.0148 72.0609 33.3415C72.1547 32.7933 72.1572 32.7933 72.7287 32.7933H82.0313C82.4602 32.7933 82.4564 32.7933 82.3877 33.1994C81.9767 35.6335 81.5666 38.0679 81.1574 40.5024C80.8762 42.1635 80.5866 43.8245 80.3047 45.4856C80.0209 47.1597 79.7399 48.8339 79.4617 50.5081C79.4456 50.6016 79.4276 50.6926 79.409 50.788C79.3377 51.143 79.3371 51.1436 78.9454 51.1436H74.2183Z" fill="#FECB02"/>
</g>
<defs>
<clipPath id="clip0_709_3313">
<rect width="110" height="64.5192" fill="white" transform="translate(15 17.2404)"/>
</clipPath>
</defs>
</svg>
