<svg width="140" height="100" viewBox="0 0 140 100" fill="none" xmlns="http://www.w3.org/2000/svg">
<g clip-path="url(#clip0_703_3045)">
<path d="M70.4802 33.7903C65.836 33.7903 61.809 36.4777 59.8642 40.3613L59.5955 41.0318C59.5955 41.0318 58.5914 43.9498 60.6372 45.9935C62.3949 47.7455 65.8436 47.636 65.8436 47.636H75.9897C76.6412 47.636 76.9831 47.8291 77.1992 48.1392C77.5152 48.5855 77.3002 49.3128 77.3002 49.3128C76.0102 51.7546 73.4376 53.4367 70.4802 53.4367C67.9549 53.4367 65.7511 52.2116 64.3321 50.3524C63.3194 49.0264 60.7608 49.0897 60.2007 49.4469C59.8459 49.669 59.5686 50.3749 59.8642 50.9553C61.8401 54.8378 65.821 57.5596 70.4802 57.5596C75.048 57.5596 79.0181 54.9709 80.9951 51.1903L81.3316 50.2848C81.3316 50.2848 82.3733 47.3979 80.3232 45.3563C78.5655 43.6076 75.1157 43.6806 75.1157 43.6806H64.9706C64.3202 43.6806 63.9461 43.5186 63.7279 43.2107C63.4129 42.7633 63.6602 42.037 63.6602 42.037C64.9545 39.5953 67.5217 37.9142 70.4802 37.9142C73.0054 37.9142 75.2104 39.1415 76.6283 40.9985C77.6399 42.3299 80.2039 42.2623 80.7597 41.9029C81.1112 41.683 81.394 40.9417 81.0962 40.3613C79.1235 36.482 75.1351 33.7903 70.4802 33.7903ZM45.62 33.8911C39.0752 33.8911 33.7613 39.1962 33.7613 45.7253C33.7613 52.2534 39.0752 57.5596 45.62 57.5596C52.1627 57.5596 57.4454 52.2534 57.4454 45.7253C57.4454 39.1962 52.1627 33.8911 45.62 33.8911ZM95.4081 33.8911C88.8676 33.8911 83.5827 39.1962 83.5827 45.7253V45.7586C83.5827 52.2867 88.8676 57.5596 95.4081 57.5596C100.852 57.5596 105.441 53.9002 106.829 48.9105C106.829 48.9105 106.98 48.1563 106.326 47.8045C105.677 47.4483 103.519 47.4268 101.993 49.7817C101.675 50.2896 101.303 50.7619 100.883 51.1903C99.4283 52.6336 97.4585 53.4412 95.407 53.4357C94.3963 53.4374 93.3952 53.2399 92.4611 52.8547C91.5269 52.4695 90.6782 51.9041 89.9635 51.1909C89.2488 50.4777 88.6822 49.6307 88.2962 48.6985C87.9102 47.7663 87.7124 46.7672 87.7141 45.7586V45.7253C87.7141 41.4759 91.1488 38.014 95.407 38.014C97.4631 38.0204 99.4326 38.8407 100.883 40.2948C101.311 40.7185 101.664 41.1927 101.992 41.7023C103.518 44.0582 105.677 44.0024 106.326 43.6473C106.98 43.2933 106.83 42.5745 106.83 42.5745C105.44 37.5816 100.852 33.8911 95.406 33.8911H95.4081ZM121.175 33.8911C114.63 33.8911 109.316 39.1962 109.316 45.7253C109.316 52.2534 114.629 57.5596 121.175 57.5596C127.717 57.5596 133 52.2534 133 45.7253C133 39.1962 127.717 33.8911 121.175 33.8911ZM19.6848 33.9244C13.1582 33.9244 7.85938 39.2144 7.85938 45.7253V62.6222C7.85938 63.3935 8.83336 66.2097 10.849 66.2097L11.9574 65.3707L11.9252 54.6426C14.0784 56.5065 16.8343 57.5307 19.6848 57.5263C26.207 57.5263 31.5102 52.2384 31.5102 45.7253C31.5102 39.2144 26.207 33.9244 19.6848 33.9244ZM19.6848 38.015C23.943 38.015 27.3777 41.4759 27.3777 45.7253C27.3777 49.9758 23.943 53.4367 19.6848 53.4367C15.4265 53.4367 11.9574 49.9769 11.9574 45.7253C11.9574 41.4759 15.4265 38.014 19.6848 38.014V38.015ZM45.62 38.015C49.8814 38.015 53.3129 41.4759 53.3129 45.7253C53.3129 49.9758 49.8814 53.4367 45.62 53.4367C41.3618 53.4367 37.8926 49.9769 37.8926 45.7253C37.8926 41.4759 41.3618 38.014 45.62 38.014V38.015ZM121.175 38.015C125.432 38.015 128.868 41.4759 128.868 45.7253C128.868 49.9758 125.432 53.4367 121.175 53.4367C116.913 53.4367 113.448 49.9769 113.448 45.7253C113.448 41.4759 116.914 38.014 121.175 38.014V38.015Z" fill="#00588A"/>
</g>
<defs>
<clipPath id="clip0_703_3045">
<rect width="126" height="34" fill="white" transform="translate(7 33)"/>
</clipPath>
</defs>
</svg>
