<svg width="140" height="100" viewBox="0 0 140 100" fill="none" xmlns="http://www.w3.org/2000/svg">
<path d="M48.7801 68.2706H47.1433C46.6414 68.2706 46.2829 68.1648 46.0683 67.9543C45.8731 67.7575 45.7744 67.4377 45.7744 66.9943V65.8685C45.7744 65.3753 45.8781 65.0255 46.0856 64.818C46.2926 64.6105 46.6465 64.5073 47.1468 64.5073H48.7872C49.6811 64.5073 50.1275 64.8607 50.1275 65.5685H49.7416C49.7416 65.3468 49.6735 65.1806 49.5377 65.0702C49.3841 64.9446 49.1324 64.8821 48.7821 64.8821H47.1417C46.7593 64.8821 46.5 64.9522 46.3643 65.0916C46.2285 65.2309 46.1604 65.4897 46.1604 65.8685V66.9943C46.1604 67.3411 46.231 67.578 46.3734 67.7046C46.5143 67.8318 46.7716 67.8953 47.1443 67.8953H48.7902C49.1553 67.8953 49.4014 67.8414 49.5265 67.7341C49.6699 67.6126 49.7416 67.368 49.7416 66.9999V66.8768H47.9029V66.5011H50.1275V66.7909C50.1275 67.3731 50.0355 67.7657 49.8525 67.9675C49.6684 68.1694 49.3109 68.2706 48.7801 68.2706V68.2706ZM51.082 64.9304V66.3673H53.4942C53.7515 66.3673 53.9447 66.3084 54.0734 66.1904C54.2163 66.0582 54.2874 65.8456 54.2874 65.5523C54.2874 65.3702 54.2188 65.2207 54.081 65.1048C53.9437 64.9889 53.7571 64.9304 53.5212 64.9304H51.082V64.9304ZM51.082 66.7426V68.2757H50.696V64.5551H53.3762C53.8268 64.5551 54.1608 64.6553 54.379 64.8556C54.5752 65.0341 54.6739 65.2899 54.6739 65.6219C54.6739 65.8721 54.6185 66.0724 54.5076 66.2224C54.4359 66.3226 54.3164 66.4207 54.1481 66.5173C54.2803 66.5458 54.3876 66.6297 54.47 66.7701C54.5666 66.9312 54.6144 67.1428 54.6144 67.4046V68.2757H54.2285V67.3609C54.2285 67.1357 54.1822 66.976 54.0891 66.8829C53.9966 66.7889 53.8481 66.7426 53.6442 66.7426H51.082ZM59.2091 65.8045C59.2091 65.4363 59.1435 65.1907 59.0133 65.0672C58.8826 64.9441 58.6284 64.8821 58.2496 64.8821H56.6199C56.2588 64.8821 56.0031 64.9477 55.8531 65.0778C55.7031 65.2085 55.6278 65.4506 55.6278 65.8045V66.9943C55.6278 67.3482 55.6995 67.5867 55.8424 67.7102C55.9853 67.8333 56.2441 67.8953 56.6199 67.8953H58.2496C58.6391 67.8953 58.8963 67.8363 59.0214 67.7184C59.1465 67.6004 59.2091 67.3589 59.2091 66.9943V65.8045V65.8045ZM59.595 66.9943C59.595 67.5094 59.4948 67.8541 59.2945 68.0291C59.1124 68.1897 58.7657 68.2706 58.2546 68.2706H56.6249C56.1175 68.2706 55.76 68.1765 55.5526 67.9889C55.3456 67.8013 55.2419 67.4697 55.2419 66.9943V65.8365C55.2419 65.3539 55.3431 65.0117 55.5449 64.8099C55.7468 64.608 56.1068 64.5073 56.6249 64.5073H58.2546C58.7336 64.5073 59.0697 64.5928 59.2624 64.7646C59.4841 64.9609 59.595 65.3184 59.595 65.8365V66.9943V66.9943ZM60.1737 64.55H60.5596V67.1448C60.5596 67.4092 60.6262 67.5969 60.7584 67.7077C60.9084 67.8328 61.1743 67.8953 61.5567 67.8953H63.192C63.5281 67.8953 63.7681 67.8318 63.913 67.7046C64.058 67.578 64.1302 67.3843 64.1302 67.1229V64.55H64.5161V66.9836C64.5161 67.484 64.4073 67.8292 64.1891 68.0184C63.9924 68.1862 63.6583 68.2706 63.1869 68.2706H61.5567C61.0676 68.2706 60.7187 68.1826 60.5118 68.0077C60.2865 67.8145 60.1737 67.4769 60.1737 66.9943V64.55V64.55ZM65.1273 68.265V64.55H67.6362C68.1009 64.55 68.435 64.6375 68.6389 64.8129C68.8423 64.9878 68.944 65.2828 68.944 65.6972C68.944 66.1009 68.8469 66.3745 68.6521 66.5173C68.4574 66.6602 68.1202 66.7319 67.6417 66.7319H65.5132V68.265H65.1273V68.265ZM65.5132 66.3567H67.7541C68.0684 66.3567 68.2779 66.3175 68.3816 66.2387C68.499 66.1492 68.558 65.9687 68.558 65.6972C68.558 65.415 68.5001 65.2156 68.3841 65.0992C68.2677 64.9833 68.0704 64.9253 67.7917 64.9253H65.5132V66.3567V66.3567ZM75.1093 65.8045C75.1093 65.4363 75.0437 65.1907 74.9136 65.0672C74.7829 64.9441 74.5286 64.8821 74.1498 64.8821H72.5201C72.1591 64.8821 71.9033 64.9477 71.7533 65.0778C71.6033 65.2085 71.5281 65.4506 71.5281 65.8045V66.9943C71.5281 67.3482 71.5998 67.5867 71.7427 67.7102C71.8856 67.8333 72.1449 67.8953 72.5201 67.8953H74.1498C74.5393 67.8953 74.7966 67.8363 74.9217 67.7184C75.0468 67.6004 75.1093 67.3589 75.1093 66.9943V65.8045V65.8045ZM75.4953 66.9943C75.4953 67.5094 75.3951 67.8541 75.1948 68.0291C75.0127 68.1897 74.6659 68.2706 74.1549 68.2706H72.5252C72.0178 68.2706 71.6603 68.1765 71.4528 67.9889C71.2459 67.8013 71.1421 67.4697 71.1421 66.9943V65.8365C71.1421 65.3539 71.2433 65.0117 71.4452 64.8099C71.6471 64.608 72.0071 64.5073 72.5252 64.5073H74.1549C74.6339 64.5073 74.97 64.5928 75.1627 64.7646C75.3844 64.9609 75.4953 65.3184 75.4953 65.8365V66.9943V66.9943ZM76.0739 68.2706V64.55H79.3709V64.9253H76.4604V66.1584H79.2962V66.5336H76.4604V68.2706H76.0739V68.2706ZM84.6409 68.2813H83.0112C82.5073 68.2813 82.1523 68.1821 81.9469 67.9833C81.7415 67.785 81.6388 67.4413 81.6388 66.9516V65.8685C81.6388 65.3789 81.743 65.03 81.9525 64.8205C82.1615 64.6116 82.5144 64.5073 83.0112 64.5073H84.6409C85.5414 64.5073 85.9919 64.8607 85.9919 65.5685H85.606C85.606 65.3433 85.5399 65.177 85.4071 65.0702C85.2536 64.9446 84.9998 64.8821 84.6459 64.8821H83.0163C82.6374 64.8821 82.3776 64.9512 82.2362 65.0885C82.0954 65.2263 82.0247 65.4861 82.0247 65.8685V66.9516C82.0247 67.3197 82.0954 67.5709 82.2362 67.7046C82.3776 67.8389 82.6374 67.906 83.0163 67.906H84.6459C84.9927 67.906 85.2393 67.8516 85.3858 67.7423C85.5322 67.6335 85.606 67.4591 85.606 67.2196H85.9919C85.9919 67.577 85.8871 67.8435 85.6782 68.0184C85.4692 68.1933 85.1234 68.2813 84.6409 68.2813ZM90.5484 65.8045C90.5484 65.4363 90.4833 65.1907 90.3526 65.0672C90.2225 64.9441 89.9677 64.8821 89.5889 64.8821H87.9592C87.5982 64.8821 87.3424 64.9477 87.1924 65.0778C87.0424 65.2085 86.9672 65.4506 86.9672 65.8045V66.9943C86.9672 67.3482 87.0389 67.5867 87.1818 67.7102C87.3246 67.8333 87.584 67.8953 87.9592 67.8953H89.5889C89.9784 67.8953 90.2357 67.8363 90.3608 67.7184C90.4859 67.6004 90.5484 67.3589 90.5484 66.9943V65.8045V65.8045ZM90.9344 66.9943C90.9344 67.5094 90.8342 67.8541 90.6343 68.0291C90.4518 68.1897 90.105 68.2706 89.594 68.2706H87.9643C87.4568 68.2706 87.0994 68.1765 86.8924 67.9889C86.685 67.8013 86.5812 67.4697 86.5812 66.9943V65.8365C86.5812 65.3539 86.6824 65.0117 86.8843 64.8099C87.0862 64.608 87.4462 64.5073 87.9643 64.5073H89.594C90.073 64.5073 90.4091 64.5928 90.6023 64.7646C90.8235 64.9609 90.9344 65.3184 90.9344 65.8365V66.9943V66.9943ZM96.9172 64.55H96.0914L94.2151 67.7235L92.3281 64.55H91.5028V68.2706H91.8888V64.85H92.1084L94.1134 68.2706H94.3117L96.3167 64.85H96.5312V68.2706H96.9172V64.55ZM97.5711 68.265V64.55H100.08C100.545 64.55 100.879 64.6375 101.083 64.8129C101.286 64.9878 101.388 65.2828 101.388 65.6972C101.388 66.1009 101.291 66.3745 101.096 66.5173C100.901 66.6602 100.565 66.7319 100.086 66.7319H97.957V68.265H97.5711V68.265ZM97.957 66.3567H100.198C100.512 66.3567 100.722 66.3175 100.825 66.2387C100.943 66.1492 101.002 65.9687 101.002 65.6972C101.002 65.415 100.944 65.2156 100.828 65.0992C100.711 64.9833 100.514 64.9253 100.236 64.9253H97.957V66.3567ZM102.074 68.2706H101.646L103.575 64.55H104.165L106.095 68.2706H105.645L105.167 67.3375H102.551L102.074 68.2706ZM102.76 66.9623H104.969L103.865 64.818L102.76 66.9623V66.9623ZM106.449 68.2706V64.55H107.307L110.169 67.8841V64.55H110.555V68.2706H109.997L107.049 64.8394H106.835V68.2706H106.449V68.2706ZM111.788 68.2706H111.402V64.55H111.788V68.2706ZM112.689 68.2706V64.55H115.986V64.9253H113.075V66.1584H115.911V66.5336H113.075V67.8953H115.986V68.2706H112.689V68.2706ZM116.613 65.6006C116.613 65.2289 116.709 64.9609 116.902 64.7967C117.095 64.6319 117.402 64.55 117.824 64.55H119.701C120.544 64.55 120.966 64.9004 120.966 65.6006H120.58C120.58 65.3789 120.512 65.2146 120.376 65.1073C120.223 64.9858 119.971 64.9253 119.62 64.9253H117.83C117.498 64.9253 117.272 64.9807 117.154 65.0916C117.051 65.1877 116.999 65.3575 116.999 65.6006C116.999 65.8151 117.056 65.9601 117.171 66.0348C117.306 66.1243 117.567 66.169 117.953 66.169H119.615C120.097 66.169 120.448 66.2468 120.668 66.4019C120.888 66.5575 120.998 66.8051 120.998 67.1448V67.2196C120.998 67.6055 120.903 67.877 120.714 68.0347C120.525 68.1918 120.212 68.2706 119.776 68.2706H117.857C117.474 68.2706 117.179 68.1847 116.972 68.0128C116.754 67.8308 116.645 67.5628 116.645 67.2089H117.031C117.031 67.4341 117.097 67.6004 117.23 67.7077C117.383 67.8328 117.635 67.8953 117.985 67.8953H119.744C120.036 67.8953 120.255 67.8404 120.397 67.7316C120.541 67.6228 120.612 67.4484 120.612 67.2089C120.612 66.9658 120.548 66.7945 120.422 66.6943C120.295 66.5941 120.06 66.5443 119.717 66.5443H117.846C117.367 66.5443 117.036 66.4655 116.854 66.3084C116.693 66.169 116.613 65.9331 116.613 65.6006V65.6006Z" fill="#5B5B5B"/>
<path fill-rule="evenodd" clip-rule="evenodd" d="M4.99902 38.0417H26.5282V39.0384H5.75921V40.0523H26.5282V41.0657H5.75921V42.0796H26.5282V43.093H5.75921V44.1065H26.5282V45.1204H5.75921V46.1338H26.5282V47.1477H5.75921V48.1611H26.5282V49.175H5.75921V50.1884H26.5282V51.2019H5.75921V52.2158H26.5282V53.2292H5.75921V54.2431H26.5282V55.2565H5.75921V56.2704H26.5282V58.3146H4.99902V38.0417Z" fill="#D12023"/>
<path fill-rule="evenodd" clip-rule="evenodd" d="M4.99902 38.0417L26.5282 58.3146H4.99902V38.0417Z" fill="#D12023"/>
<path fill-rule="evenodd" clip-rule="evenodd" d="M11.6847 46.4596L12.1002 46.5237C14.5739 43.8532 15.3504 41.5304 16.3735 38.7368C17.8791 48.1183 21.4354 52.6738 23.8151 53.8149C21.3459 53.9257 19.6328 52.6057 18.4054 50.6389C16.4416 48.7544 14.0009 47.3093 12.5161 46.7546C10.3739 49.5029 8.41263 51.0345 7.90212 51.2104C7.52431 51.3406 6.98583 50.8529 7.27211 50.5753C7.925 49.9428 11.0995 47.8148 11.8576 46.7561C11.9024 46.693 11.9715 46.6488 12.0274 46.5944L11.6847 46.4596ZM12.5995 46.6381C13.7797 46.9498 15.6229 47.6805 17.4291 48.7254C16.763 46.8237 15.8507 43.6879 15.5736 41.6886C14.9583 43.0386 13.8295 44.9103 12.5995 46.6381V46.6381Z" fill="#FEFEFE"/>
<path fill-rule="evenodd" clip-rule="evenodd" d="M33.3268 38.0417C38.4629 38.0417 43.9149 38.0417 49.0516 38.0417C55.1493 38.0417 57.052 41.5676 57.052 44.0693C57.052 47.0496 57.052 51.2944 57.052 54.2746C57.052 57.3972 55.0842 58.3146 51.7491 58.3146H37.4099C34.3717 58.3146 32.5081 56.5857 32.1934 54.8624V48.8618C32.2295 46.8523 34.5248 45.5277 36.6924 45.4143C40.5381 45.4143 44.3837 45.4143 48.2294 45.4143C48.2294 44.0775 47.397 43.5054 45.7581 43.5054H33.3268V38.0417V38.0417ZM41.974 50.4956H48.2746V51.7317V51.7464H48.2741C48.266 52.4192 47.7021 52.9673 47.0136 52.9673H41.9349C41.2413 52.9673 40.6738 52.411 40.6738 51.7317C40.6738 51.0213 41.2672 50.4956 41.974 50.4956V50.4956Z" fill="#D12023"/>
<path fill-rule="evenodd" clip-rule="evenodd" d="M60.4473 31H68.1605V44.4198L74.6548 38.0272L83.6728 38.0414L75.2848 46.2752L83.6728 58.314H75.0036L69.9051 50.9024L68.3455 52.0648V58.314H60.4473V31Z" fill="#2B2A29"/>
<path fill-rule="evenodd" clip-rule="evenodd" d="M90.4627 38.0418C90.8629 33.3027 94.1009 31.0913 101.796 31.0913H106.316V36.1548H102.295C100.545 36.1548 99.8697 36.8138 99.7395 37.8257L99.741 38.0418H106.316L106.316 43.5054H99.741V58.3145H90.4627L90.4994 43.5054H87.0742V38.0565L90.4627 38.0418V38.0418Z" fill="#2B2A29"/>
<path fill-rule="evenodd" clip-rule="evenodd" d="M110.848 38.0417C115.984 38.0417 121.436 38.0417 126.573 38.0417C132.671 38.0417 134.573 41.5676 134.573 44.0693C134.573 47.0496 134.573 51.2944 134.573 54.2746C134.573 57.3972 132.606 58.3146 129.271 58.3146H114.931C111.893 58.3146 110.03 56.5857 109.715 54.8624V48.8618C109.751 46.8523 112.046 45.5277 114.213 45.4143C118.06 45.4143 121.905 45.4143 125.751 45.4143C125.751 44.0775 124.918 43.5054 123.279 43.5054H110.848V38.0417V38.0417ZM119.495 50.4956H125.796V51.7317V51.7464C125.787 52.4192 125.224 52.9673 124.535 52.9673H119.456C118.763 52.9673 118.195 52.411 118.195 51.7317C118.195 51.0213 118.789 50.4956 119.495 50.4956Z" fill="#D12023"/>
</svg>
