<svg width="140" height="100" viewBox="0 0 140 100" fill="none" xmlns="http://www.w3.org/2000/svg">
<g clip-path="url(#clip0_703_3043)">
<path d="M140 75.5258C139.78 75.6446 139.542 75.7275 139.297 75.7714C137.531 75.7911 135.764 75.7714 134.001 75.7911C133.458 75.7911 133.253 75.5897 133.314 75.0665C133.319 74.9847 133.319 74.9027 133.314 74.8209C133.314 73.9268 133.314 73.9268 134.227 73.9096C134.327 73.9096 134.427 73.9096 134.673 73.885C134.545 73.7632 134.409 73.6515 134.264 73.551C133.046 72.8706 131.814 72.1877 130.578 71.527C130.344 71.4081 130.087 71.3435 129.825 71.3379C128.81 71.3158 127.795 71.3379 126.782 71.3231C126.346 71.3231 126.141 71.5049 126.146 71.9421C126.151 72.3793 126.146 72.8436 126.146 73.2931C126.146 73.7426 126.37 73.9219 126.794 73.912C127.218 73.9022 127.605 73.912 128.011 73.912C128.418 73.912 128.559 74.0496 128.586 74.445C128.674 75.742 128.644 75.7837 127.339 75.7837C125.779 75.7837 124.216 75.7616 122.652 75.7837C122.053 75.7837 121.839 75.5528 121.888 74.9854C121.898 74.8218 121.898 74.6578 121.888 74.4942C121.888 74.0889 122.061 73.8899 122.477 73.9022C122.893 73.9145 123.329 73.9022 123.755 73.9022C123.832 73.9146 123.91 73.9085 123.984 73.8843C124.057 73.8601 124.124 73.8186 124.179 73.7631C124.233 73.7076 124.274 73.6398 124.297 73.5653C124.32 73.4909 124.326 73.4118 124.313 73.3348C124.313 71.3502 124.313 69.3647 124.313 67.3784C124.313 67.0394 124.155 66.8994 123.826 66.9019C123.378 66.9019 122.932 66.9019 122.487 66.9019C122.083 66.9019 121.91 66.7054 121.881 66.3025C121.79 65.0425 121.839 64.9835 123.098 64.9835C127.278 64.9835 131.459 64.9983 135.637 64.9835C136.32 64.9956 136.982 65.2175 137.536 65.6197C138.644 66.3173 139.06 67.2015 138.941 68.5156C138.873 69.2943 138.698 69.8125 138.069 70.3234C137.152 71.0849 136.202 71.4951 135.011 71.3379C134.64 71.3145 134.268 71.3145 133.896 71.3379L133.86 71.4951C134.115 71.64 134.366 71.7898 134.622 71.9298C135.445 72.3769 136.282 72.7944 137.086 73.2685C137.816 73.7008 138.547 74.0373 139.43 73.9391C139.611 73.9194 139.813 74.0987 140.003 74.1847L140 75.5258ZM131.174 66.9092C129.713 66.9092 128.252 66.9215 126.792 66.9092C126.326 66.9092 126.112 67.0689 126.137 67.5503C126.16 67.9176 126.16 68.2859 126.137 68.6532C126.093 69.2279 126.297 69.4466 126.899 69.4416C129.735 69.4146 132.572 69.4416 135.42 69.4416C135.541 69.4449 135.663 69.4408 135.783 69.4294C136.375 69.3557 136.959 68.8423 137.035 68.3388C137.11 67.8352 136.791 67.2924 136.146 67.0296C135.937 66.9561 135.717 66.9227 135.496 66.9313C134.052 66.9043 132.613 66.9092 131.174 66.9092Z" fill="black"/>
<path d="M-5.29885e-05 65.2095C0.246217 65.0915 0.507652 65.0088 0.776643 64.9639C4.72829 64.9492 8.67995 64.9344 12.6316 64.9811C13.1646 65.0281 13.6724 65.2313 14.0925 65.5657C15.8139 66.8454 15.5022 66.337 15.5533 68.4518C15.5728 69.2329 15.5119 69.9256 14.7279 70.2547C14.7426 70.3775 14.7279 70.4389 14.7547 70.4537C16.0476 71.3649 15.4219 72.706 15.4852 73.8924C15.4852 74.0472 15.2977 74.251 15.1467 74.3714C14.6673 74.7804 14.164 75.1602 13.6396 75.5086C13.3642 75.6747 13.0498 75.7637 12.729 75.7666C8.71647 75.7846 4.70395 75.7846 0.691425 75.7666C0.442784 75.7242 0.20265 75.6412 -0.0195312 75.5209V74.17C0.467425 73.6787 1.0956 73.9391 1.6556 73.9244C2.2156 73.9096 2.4469 73.7205 2.43716 73.131C2.41038 71.5197 2.43716 69.9084 2.43716 68.2971C2.43716 66.7693 2.59056 66.924 1.08343 66.897C0.716683 66.8584 0.354085 66.7869 -5.29885e-05 66.6833V65.2095ZM8.52169 71.1954H5.59995C4.26812 71.1954 4.33143 71.0702 4.32899 72.5046C4.32899 74.0398 4.27056 73.9145 5.70464 73.9121C7.8156 73.9121 9.92412 73.9121 12.0351 73.9121C13.0723 73.9121 13.7151 73.3078 13.6469 72.4383C13.6031 71.8488 12.7947 71.2102 12.0521 71.1954C10.8761 71.1856 9.69769 71.1954 8.52169 71.1954ZM8.64343 66.9093C7.40656 66.9093 6.16725 66.9093 4.93038 66.9093C4.52621 66.9093 4.32412 67.0566 4.33143 67.4791C4.33143 67.99 4.33143 68.5034 4.33143 69.0143C4.33143 69.3582 4.47995 69.5571 4.83543 69.5571C7.28969 69.5571 9.74395 69.5571 12.1982 69.5571C12.7826 69.5571 13.5471 68.9234 13.6347 68.4862C13.6755 68.2957 13.6728 68.0984 13.6267 67.9092C13.5805 67.72 13.4923 67.5439 13.3686 67.3942C13.2449 67.2446 13.089 67.1253 12.9128 67.0455C12.7366 66.9658 12.5446 66.9276 12.3516 66.9338C11.1172 66.8945 9.8803 66.9117 8.64343 66.9093Z" fill="black"/>
<path d="M79.9975 10H83.1919C83.2041 10.2677 83.2236 10.5084 83.2285 10.7492C83.3697 17.1355 83.489 23.5217 83.6545 29.908C83.7276 32.7303 83.898 35.5575 84.0246 38.3723C84.0216 38.5671 84.0951 38.7553 84.2292 38.8955C84.9596 39.3647 85.7168 39.7896 86.586 40.3005V39.5636C86.586 37.7828 86.569 36.002 86.586 34.2212C86.6298 30.7481 88.9648 29.741 91.5725 30.0456C93.0333 30.2102 94.1168 30.9225 94.706 32.3324C94.7573 32.4077 94.8245 32.4705 94.9029 32.5164C94.9812 32.5623 95.0686 32.59 95.1589 32.5977C97.4671 32.7352 98.217 34.5234 98.2267 36.1666C98.2462 39.0527 98.2267 41.9388 98.2267 44.8225V45.5348H101.117V55.7209H38.8691V48.3964L39.4437 48.3178V47.6349C39.4437 45.1983 39.4437 42.7641 39.4437 40.3275C39.4437 38.0039 41.17 36.7266 43.3857 37.38C44.569 37.7312 45.2385 38.7285 45.2629 40.2219C45.2799 41.3248 45.2629 42.4325 45.2629 43.6091L47.6977 42.9852V19.6163C47.9411 19.6163 48.1262 19.5844 48.3185 19.5844C51.4643 19.5844 54.6076 19.5844 57.7533 19.5844C58.0073 19.571 58.2576 19.6493 58.4594 19.8054C60.361 21.8466 62.2406 23.9098 64.1909 26.0394C63.7502 26.2408 63.3655 26.4422 62.9735 26.5921C62.8357 26.6223 62.7148 26.7052 62.6363 26.8233C62.5578 26.9415 62.5277 27.0857 62.5523 27.2258C62.5839 27.6925 62.5523 28.1641 62.5523 28.7339C63.1393 28.7722 63.7281 28.7722 64.3151 28.7339C66.4601 28.4466 68.2643 29.1491 70.0538 30.3182C72.9098 32.1825 75.8973 33.8577 78.8191 35.6115C78.9384 35.6827 79.0625 35.749 79.3304 35.9038C79.5519 27.1939 79.7759 18.6264 79.9975 10ZM78.8872 41.7448C79.177 40.4479 79.1599 40.4184 78.1568 39.8117C74.4657 37.6011 70.7551 35.4052 67.1005 33.1282C66.0924 32.4994 65.1015 32.7229 64.0813 32.6664V39.2983L78.8872 41.7448ZM85.3954 45.5176H86.53C86.6128 44.8151 86.3596 44.5474 85.3954 44.2895V45.5176Z" fill="black"/>
<path d="M90.2698 73.6173C90.0929 73.571 89.9238 73.4982 89.7683 73.4012C88.8601 72.6471 87.9568 71.8857 87.0705 71.107C86.9211 70.9406 86.7135 70.8392 86.4915 70.8241C86.2694 70.8089 86.0502 70.8813 85.8799 71.026C85.1495 71.5172 84.3631 71.9692 83.6059 72.4481C83.4379 72.5538 83.226 72.679 83.1627 72.8436C83.0521 73.0995 83.0249 73.3841 83.0848 73.6566C83.1311 73.7966 83.4695 73.8826 83.6862 73.9022C84.0103 73.9261 84.3355 73.9302 84.6601 73.9145C85.3905 73.9145 85.4222 73.971 85.4173 74.8848C85.4173 75.7199 85.3662 75.7813 84.6455 75.7813H79.5325C78.7728 75.7813 78.7339 75.7395 78.729 74.9904C78.729 74.8062 78.729 74.6219 78.729 74.4377C78.729 74.0865 78.8848 73.9072 79.2452 73.9145C79.6712 73.9145 80.0973 73.9145 80.5234 73.9145C80.9495 73.9145 81.1443 73.7107 81.1443 73.2759C81.1443 71.3526 81.1443 69.4294 81.1443 67.5061C81.1443 67.0517 80.9568 66.8822 80.521 66.9068C80.1582 66.9289 79.7905 66.9068 79.4253 66.9068C78.8946 66.9363 78.7168 66.6906 78.7168 66.1699C78.7168 64.9811 78.6998 64.9811 79.866 64.9811C81.4681 64.9811 83.0702 64.9958 84.6723 64.9811C85.225 64.9811 85.4685 65.1727 85.4149 65.7327C85.3979 65.9366 85.4149 66.1429 85.4149 66.3468C85.4217 66.424 85.4113 66.5017 85.3844 66.5743C85.3574 66.6469 85.3147 66.7125 85.2594 66.7662C85.204 66.82 85.1374 66.8605 85.0644 66.8848C84.9915 66.9091 84.9141 66.9166 84.8379 66.9068C84.3923 66.885 83.9459 66.8916 83.5012 66.9264C83.3307 66.9486 83.0556 67.1721 83.0507 67.3145C83.0142 68.437 83.0288 69.562 83.0288 70.8958L89.2326 66.9952C88.0883 66.7913 87.8935 66.504 88.1248 65.3864C88.1682 65.2873 88.2355 65.2008 88.3206 65.1347C88.4056 65.0686 88.5057 65.0251 88.6118 65.0081C90.4768 64.9811 92.3418 64.9934 94.2118 64.9884C94.5989 64.9884 94.7304 65.1628 94.7425 65.5509C94.7864 66.9068 94.7985 66.9314 93.4594 66.897C92.7901 66.8657 92.1288 67.0545 91.5749 67.4349C90.5815 68.1055 89.5467 68.7097 88.5338 69.3508C88.0128 69.6824 88.0079 69.8027 88.4754 70.2007C89.6392 71.1832 90.8274 72.1485 91.9596 73.1703C92.5585 73.7107 93.1916 74.0103 93.9951 73.9072C94.5258 73.8384 94.7644 74.0177 94.7498 74.6121C94.7206 75.7739 94.7498 75.7764 93.5909 75.7764C92.0083 75.7764 90.4257 75.7494 88.8455 75.7887C88.2392 75.8009 88.0761 75.5725 88.0907 75.0002C88.1175 73.9072 88.0907 73.9072 89.1937 73.9072H90.0751L90.2698 73.6173Z" fill="black"/>
<path d="M39.0293 68.0464C39.0049 68.3903 38.983 68.5843 38.983 68.7833C38.983 70.2145 38.983 71.6465 38.983 73.0793C38.983 73.8309 39.0682 73.9095 39.8327 73.9144H40.3806C41.542 73.9144 41.7903 74.2166 41.5079 75.3882C41.4616 75.4883 41.3917 75.5754 41.3042 75.6418C41.2168 75.7082 41.1144 75.7519 41.0063 75.7689C39.1413 75.7959 37.2762 75.7837 35.4063 75.791C35.3303 75.8044 35.2521 75.7993 35.1784 75.7762C35.1047 75.7531 35.0375 75.7126 34.9823 75.6582C34.9272 75.6037 34.8856 75.5368 34.8611 75.463C34.8366 75.3891 34.8299 75.3104 34.8414 75.2335C34.8414 75.0296 34.8414 74.8233 34.8414 74.6194C34.8049 74.0913 35.0386 73.9022 35.5719 73.9095C37.2762 73.9341 37.1228 74.0839 37.1253 72.3252C37.1253 70.7704 37.1082 69.2156 37.1253 67.6583C37.1253 67.1057 36.9573 66.8453 36.3948 66.9215C36.2132 66.9313 36.0311 66.9313 35.8494 66.9215C34.8755 66.9215 34.8487 66.892 34.8487 65.9389C34.8487 64.9859 34.878 65.0817 35.808 64.9564C37.678 64.7108 39.1047 65.3249 40.456 66.6758C42.5013 68.7121 44.7413 70.5494 46.9009 72.4702C47.0616 72.6126 47.2345 72.7403 47.4974 72.9614C47.5315 72.6568 47.568 72.4702 47.568 72.308C47.568 70.7532 47.5559 69.1984 47.568 67.6411C47.568 67.059 47.3586 66.8011 46.7767 66.8551C46.5552 66.8748 46.3312 66.8551 46.1096 66.8551C45.1625 66.8551 45.1625 66.8551 45.1625 65.9291C45.1625 65.0031 45.1625 64.9835 46.112 64.9835C47.7531 64.9835 49.3957 64.9835 51.04 64.9835C51.8094 64.9835 51.8533 65.0326 51.8581 65.8333C51.8581 65.9561 51.846 66.079 51.8581 66.2018C51.9068 66.6685 51.7193 66.8895 51.2373 66.86C50.894 66.8379 50.5458 66.8748 50.2025 66.86C49.6303 66.8207 49.4112 67.0541 49.416 67.6461C49.4404 69.977 49.416 72.313 49.416 74.6415C49.416 75.8033 48.878 76.1644 47.7823 75.7051C47.5262 75.5802 47.2919 75.4143 47.0884 75.2138C44.5887 72.9704 42.0849 70.7303 39.5771 68.4935C39.4432 68.3731 39.2995 68.2675 39.0293 68.0464Z" fill="black"/>
<path d="M108.347 75.7814C106.848 75.7814 105.348 75.7568 103.848 75.7814C103.244 75.7828 102.66 75.5608 102.207 75.1575C101.265 74.4329 100.909 73.5756 100.99 72.372C101.094 70.7435 101.026 69.1028 101.009 67.4595C101.009 67.2395 101.052 67.0217 101.135 66.8185C101.219 66.6154 101.341 66.4309 101.496 66.2756C102.39 65.2268 103.444 64.8927 104.819 64.9443C107.512 65.045 110.21 64.9836 112.905 64.9664C113.429 64.9797 113.932 65.1769 114.327 65.524C115.369 66.2977 115.764 67.2434 115.662 68.5697C115.542 70.1344 115.623 71.7162 115.64 73.2907C115.637 73.5118 115.591 73.7301 115.504 73.9333C115.418 74.1364 115.293 74.3204 115.136 74.4746C114.75 74.9603 114.247 75.3366 113.674 75.5666C113.101 75.7966 112.479 75.8723 111.868 75.7863C110.709 75.6929 109.526 75.7814 108.347 75.7814ZM108.313 66.9093C106.935 66.9093 105.555 66.9093 104.174 66.9093C103.339 66.9093 102.884 67.3686 102.876 68.1939C102.876 69.6464 102.876 71.0997 102.876 72.5538C102.876 73.3619 103.339 73.8876 104.145 73.8949C106.924 73.9195 109.704 73.9195 112.484 73.8949C113.295 73.8949 113.733 73.3742 113.738 72.5514C113.738 71.1185 113.738 69.6857 113.738 68.2529C113.738 67.3392 113.305 66.9118 112.389 66.9068C111.026 66.9044 109.677 66.9093 108.316 66.9093H108.313Z" fill="black"/>
<path d="M65.1304 75.7812C63.5892 75.7812 62.048 75.764 60.5044 75.7812C59.9784 75.7812 59.6059 75.5651 59.1871 75.2752C58.1085 74.5384 57.7409 73.5558 57.8383 72.2442C57.9527 70.6575 57.8748 69.051 57.8577 67.4594C57.8569 67.2382 57.8996 67.0191 57.9831 66.8146C58.0667 66.6102 58.1896 66.4244 58.3447 66.2681C59.2431 65.2316 60.312 64.9024 61.6755 64.954C64.3294 65.0547 66.9882 64.9958 69.6445 64.9736C70.2064 64.9888 70.7471 65.1928 71.1809 65.5533C72.2327 66.2902 72.5371 67.2383 72.4591 68.5008C72.3617 70.1097 72.425 71.7308 72.4421 73.3471C72.4434 73.5691 72.3993 73.7891 72.3126 73.9932C72.2259 74.1973 72.0984 74.3812 71.9381 74.5334C71.559 74.9968 71.0703 75.3563 70.5171 75.5787C69.9638 75.8011 69.3639 75.8792 68.7729 75.8058C67.5701 75.6879 66.3454 75.7812 65.1304 75.7812ZM65.1694 66.9092C63.8084 66.9092 62.4497 66.9092 61.0911 66.9092C60.1586 66.9092 59.7033 67.3661 59.6984 68.2945C59.6984 69.6864 59.6984 71.0783 59.6984 72.4702C59.6984 73.4109 60.1854 73.9022 61.1325 73.9046C63.8108 73.9145 66.489 73.9145 69.1673 73.9046C70.112 73.9046 70.5795 73.4134 70.5819 72.4554C70.5819 71.0848 70.5819 69.7142 70.5819 68.3436C70.5819 67.3218 70.1583 66.9092 69.1211 66.9067L65.1694 66.9092Z" fill="black"/>
<path d="M25.1359 64.9639C26.0489 64.9639 26.9595 64.9639 27.8726 64.9639C28.3133 64.9639 28.4837 65.1358 28.4983 65.5779C28.5397 66.8405 28.5494 66.8405 27.315 66.8405H26.9498C26.1877 66.8405 26.1122 66.9166 26.1098 67.6805C26.1098 69.5006 26.1219 71.3207 26.1098 73.1408C26.1098 73.7229 26.3216 73.971 26.9011 73.9219C27.2225 73.8949 27.5487 73.9219 27.875 73.9219C28.3619 73.8875 28.5421 74.1208 28.5007 74.5802C28.5007 74.6219 28.5007 74.6637 28.5007 74.703C28.5007 75.7936 28.5007 75.7936 27.4513 75.796C25.8298 75.796 24.2082 75.7764 22.5818 75.796C22.0072 75.796 21.7418 75.6118 21.8026 75.0174C21.8136 74.8341 21.8136 74.6504 21.8026 74.4672C21.8026 74.0815 21.9926 73.9121 22.3675 73.917C22.7936 73.917 23.2173 73.917 23.6433 73.917C23.7241 73.9303 23.8069 73.924 23.8848 73.8985C23.9627 73.873 24.0334 73.8291 24.091 73.7704C24.1487 73.7118 24.1916 73.6401 24.2162 73.5614C24.2408 73.4826 24.2464 73.399 24.2326 73.3176C24.2326 71.3526 24.2326 69.3876 24.2326 67.4226C24.2326 66.9977 24.0183 66.838 23.6312 66.838C23.2051 66.838 22.7814 66.838 22.3553 66.838C21.9804 66.838 21.8172 66.671 21.7978 66.2829C21.7296 65.0154 21.7637 64.9663 23.0152 64.9663L25.1359 64.9639Z" fill="black"/>
<path d="M29.6045 86.6601L27.3256 90.0227L25.0491 86.6601L24.9078 86.6944V91.8158H24.2334V85.233C24.696 85.0463 24.9784 85.2035 25.239 85.6161C25.8988 86.6674 26.6024 87.6917 27.3353 88.7946C28.0657 87.6966 28.7791 86.665 29.4438 85.6014C29.4871 85.5081 29.5484 85.4244 29.624 85.3551C29.6997 85.2858 29.7882 85.2324 29.8844 85.1979C29.9807 85.1634 30.0828 85.1485 30.1848 85.1541C30.2868 85.1597 30.3866 85.1857 30.4786 85.2305V91.8109H29.7482V86.7092L29.6045 86.6601Z" fill="black"/>
<path d="M49.3311 91.8427V85.2501C50.5314 85.2501 51.722 85.1862 52.9029 85.2722C53.2321 85.2992 53.5426 85.4381 53.7836 85.666C54.0246 85.894 54.1819 86.1976 54.2298 86.5274C54.393 87.3306 54.0302 87.9053 53.329 88.3573L53.7989 88.6275C54.8799 89.2587 54.9432 90.7423 53.867 91.3883C53.4267 91.6333 52.9393 91.7799 52.4378 91.8182C51.6538 91.8869 50.8601 91.8403 50.0712 91.8427H49.3311ZM50.0615 91.0764C51.0524 91.0764 51.985 91.1402 52.9004 91.0543C53.0387 91.0456 53.1739 91.0092 53.298 90.9472C53.4222 90.8852 53.5329 90.7988 53.6235 90.6931C53.7142 90.5875 53.7831 90.4646 53.8262 90.3318C53.8692 90.1989 53.8856 90.0588 53.8743 89.9195C53.8829 89.6593 53.7887 89.4063 53.6125 89.2161C53.4363 89.0259 53.1924 88.914 52.9345 88.905C51.985 88.8166 51.0257 88.8043 50.0615 88.7601V91.0764ZM50.0761 85.8494V88.092C50.882 88.092 51.6514 88.1436 52.411 88.0773C53.1707 88.011 53.5067 87.5565 53.4945 86.9179C53.4823 86.2793 53.0611 85.8961 52.3137 85.8593C51.5662 85.8224 50.8577 85.8494 50.0737 85.8494H50.0761Z" fill="black"/>
<path d="M80.3478 86.5863V91.8084L79.666 91.8477V85.2305C80.0897 85.0536 80.3697 85.2034 80.6399 85.5621C81.8573 87.1611 83.1112 88.7429 84.4601 90.4746V85.1961H85.1686V91.9999C84.818 91.769 84.5039 91.6561 84.3262 91.435C83.0309 89.8163 81.7624 88.1755 80.4841 86.5396L80.3478 86.5863Z" fill="black"/>
<path d="M36.9307 85.2576C38.1359 85.2576 39.3508 85.1716 40.5488 85.2871C41.4618 85.373 42.0315 86.1418 42.0973 87.0064C42.163 87.8711 41.7126 88.5907 40.8263 88.9543L40.3394 89.1434L42.2872 91.7667C41.7126 91.946 41.3376 91.8379 41.0698 91.3516C40.8896 91.0323 40.5828 90.7817 40.4294 90.4575C39.8524 89.2687 38.9101 89.0009 37.6489 89.3399V91.7962L36.9453 91.8428L36.9307 85.2576ZM37.6441 88.5514H39.5919C39.7129 88.5535 39.834 88.5494 39.9547 88.5392C40.7484 88.463 41.3035 87.9472 41.3474 87.2496C41.3912 86.552 40.9627 86.0018 40.13 85.9159C39.303 85.8662 38.4741 85.8597 37.6465 85.8962L37.6441 88.5514Z" fill="black"/>
<path d="M104.964 85.1986C106.081 85.1986 107.155 85.147 108.222 85.2133C109.288 85.2796 110.021 85.9649 110.14 86.9327C110.26 87.9005 109.748 88.6373 108.665 89.0377L108.385 89.1482L110.311 91.747C109.536 91.9287 109.539 91.9287 109.122 91.3663C108.748 90.8578 108.331 90.3837 108.002 89.8385C107.891 89.6234 107.715 89.4498 107.499 89.3428C107.283 89.2359 107.039 89.2013 106.802 89.244C106.447 89.2809 106.084 89.244 105.677 89.244V91.7936H104.964V85.1986ZM105.709 85.8568V88.5096C105.779 88.5268 105.849 88.5392 105.921 88.5465C106.549 88.5465 107.177 88.5612 107.803 88.5465C108.757 88.5243 109.364 88.0036 109.381 87.2102C109.398 86.4169 108.835 85.8986 107.834 85.8618C107.148 85.8347 106.461 85.8568 105.709 85.8568Z" fill="black"/>
<path d="M70.4448 88.4826C70.4373 88.029 70.5198 87.5784 70.6876 87.1574C70.8554 86.7365 71.105 86.3537 71.4217 86.0316C71.7384 85.7094 72.1158 85.4545 72.5317 85.2819C72.9476 85.1092 73.3936 85.0223 73.8433 85.0263C74.293 85.0302 74.7374 85.1249 75.1503 85.3048C75.5631 85.4847 75.9361 85.7462 76.2473 86.0738C76.5584 86.4014 76.8014 86.7885 76.9619 87.2123C77.1224 87.6362 77.1972 88.0881 77.1818 88.5416C77.1838 88.9923 77.0968 89.439 76.9258 89.8554C76.7549 90.2719 76.5034 90.6498 76.1861 90.9672C75.8688 91.2846 75.492 91.535 75.0777 91.7039C74.6634 91.8728 74.2199 91.9567 73.7732 91.9509C71.8546 91.9288 70.4375 90.4501 70.4448 88.4826ZM71.2166 88.4679C71.2166 90.0374 72.3001 91.2238 73.7683 91.2435C75.2803 91.2631 76.4076 90.0866 76.4027 88.4924C76.4027 86.9499 75.2657 85.7439 73.8146 85.734C72.3634 85.7242 71.2239 86.9032 71.2166 88.4679Z" fill="black"/>
<path d="M21.333 88.802H17.7733V91.1182H21.7615V91.8109H17.0186V85.1986H21.725L21.7712 85.825H17.7733V88.1093H21.2721L21.333 88.802Z" fill="black"/>
<path d="M61.3106 88.1093V88.7774H57.768V91.1011H61.7854C61.7975 91.3688 61.8073 91.5604 61.8195 91.7937H57.0205V85.2085H61.7221L61.7537 85.8324H57.7802V88.1093H61.3106Z" fill="black"/>
<path d="M97.7637 85.201H102.465C102.477 85.4025 102.487 85.5793 102.499 85.8274H98.5136V88.1215H102.017C102.037 88.3672 102.051 88.5317 102.073 88.7847H98.5087V91.1256H102.487V91.8084H97.7637V85.201Z" fill="black"/>
<path d="M90.416 90.8112L90.752 90.3961C91.2765 90.6829 91.8219 90.9293 92.3833 91.1329C92.8157 91.2275 93.2632 91.2275 93.6957 91.1329C93.9313 91.0974 94.1471 90.9796 94.3055 90.8001C94.4639 90.6205 94.5548 90.3906 94.5625 90.1504C94.6038 89.6002 94.2776 89.2637 93.7955 89.1016C93.1625 88.8904 92.5051 88.7504 91.8769 88.5268C91.015 88.2198 90.6376 87.7015 90.6254 86.9106C90.6188 86.5157 90.7456 86.1303 90.985 85.8178C91.2244 85.5053 91.5622 85.2843 91.9426 85.1912C93.0918 84.8621 94.1339 85.1274 95.1078 85.8618L94.7524 86.353C94.2341 86.118 93.6974 85.9266 93.1478 85.7807C92.7525 85.704 92.3432 85.7619 91.984 85.9453C91.8321 86.0455 91.7036 86.1778 91.6073 86.333C91.5111 86.4882 91.4494 86.6627 91.4265 86.8443C91.4476 87.0167 91.5056 87.1823 91.5964 87.3299C91.6872 87.4775 91.8087 87.6034 91.9524 87.6991C92.2908 87.9275 92.7412 87.9938 93.1454 88.1215C93.4741 88.2247 93.815 88.2935 94.1339 88.4237C94.9691 88.7602 95.3367 89.2956 95.3124 90.0915C95.3028 90.4625 95.1777 90.8212 94.9548 91.1165C94.732 91.4119 94.4226 91.629 94.0706 91.7372C92.9117 92.1891 91.3047 91.7937 90.416 90.8112Z" fill="black"/>
<path d="M127.904 86.439C127.2 85.9747 126.492 85.6259 125.656 85.7733C125.096 85.874 124.644 86.1368 124.588 86.773C124.532 87.4092 124.938 87.7015 125.457 87.871C125.975 88.0404 126.552 88.1583 127.091 88.3377C128.157 88.6938 128.639 89.357 128.522 90.2535C128.405 91.1501 127.704 91.7838 126.669 91.887C126.111 91.9575 125.544 91.9003 125.01 91.7196C124.477 91.5389 123.99 91.2393 123.587 90.8431L123.969 90.4107C124.492 90.694 125.036 90.9362 125.596 91.1353C126.028 91.2324 126.476 91.2324 126.908 91.1353C127.143 91.1005 127.359 90.9827 127.516 90.8029C127.673 90.623 127.762 90.3927 127.767 90.1528C127.804 89.5977 127.485 89.2686 127 89.104C126.27 88.8584 125.508 88.711 124.809 88.4015C124.553 88.2909 124.329 88.1154 124.159 87.8921C123.989 87.6687 123.879 87.405 123.84 87.1263C123.8 86.8476 123.833 86.5633 123.934 86.301C124.035 86.0386 124.201 85.807 124.417 85.6284C124.677 85.4003 124.988 85.2386 125.323 85.1568C125.845 85.0394 126.386 85.0449 126.906 85.1727C127.425 85.3005 127.908 85.5472 128.318 85.8937L127.904 86.439Z" fill="black"/>
<path d="M115.053 90.8702C115.808 89.0402 116.514 87.3724 117.181 85.685C117.368 85.206 117.617 85.0439 118.126 85.2281C118.094 85.361 118.056 85.4922 118.011 85.6211C117.186 87.5739 116.365 89.5266 115.523 91.472C115.479 91.562 115.417 91.6417 115.341 91.7061C115.264 91.7704 115.175 91.8178 115.08 91.8453C114.989 91.8511 114.898 91.8336 114.816 91.7946C114.734 91.7555 114.663 91.696 114.61 91.6218C113.694 89.5118 112.806 87.3945 111.897 85.2355C112.448 85.0316 112.728 85.1692 112.932 85.7095C113.49 87.1833 114.106 88.6178 114.702 90.0719C114.79 90.3003 114.892 90.514 115.053 90.8702Z" fill="black"/>
<path d="M11.7108 85.8521H9.51953V85.2061H14.6764L14.7105 85.8496H12.4924V91.811H11.7108V85.8521Z" fill="black"/>
<path d="M66.7131 91.8109H65.9826V85.8987H63.7621C63.7451 85.653 63.7353 85.4565 63.7207 85.2158H68.8776V85.8471H66.7131V91.8109Z" fill="black"/>
<path d="M120.471 85.2035H121.165V91.8059H120.471V85.2035Z" fill="black"/>
<path d="M33.3564 91.8084V85.1986H34.0163V91.8084H33.3564Z" fill="black"/>
<path d="M44.2881 89.308V88.6006H46.8373L46.8714 89.3104L44.2881 89.308Z" fill="black"/>
</g>
<defs>
<clipPath id="clip0_703_3043">
<rect width="140" height="82" fill="white" transform="translate(0 10)"/>
</clipPath>
</defs>
</svg>
