<svg width="140" height="100" viewBox="0 0 140 100" fill="none" xmlns="http://www.w3.org/2000/svg">
<g clip-path="url(#clip0_703_3050)">
<path fill-rule="evenodd" clip-rule="evenodd" d="M39.4444 21.0692C44.1833 18.5866 49.55 17.5733 54.8636 18.1579C60.1771 18.7425 65.1978 20.8985 69.2887 24.3524C68.1629 27.0607 67.0312 29.7671 65.8936 32.4714C62.7602 29.0068 58.4615 26.8273 53.8242 26.3519C49.1868 25.8765 44.538 27.1387 40.7716 29.8959C38.4184 31.6243 36.4809 33.8599 35.1014 36.4387H26.2139C28.5282 29.8196 33.2561 24.3275 39.4444 21.0692ZM26.9249 56.7569H36.1797C38.3415 59.9332 41.3932 62.3943 44.9487 63.829C49.2131 65.5346 53.9506 65.6213 58.2741 64.0729C60.9008 63.1234 63.289 61.609 65.2715 59.6357V69.884C60.9797 72.3428 56.0969 73.5695 51.1573 73.43C46.2177 73.2905 41.4114 71.7901 37.264 69.093C32.6788 66.0972 29.0809 61.8044 26.9249 56.7569ZM68.8325 59.7309H79.0175C79.0175 60.7301 79.0175 61.7294 79.0175 62.7048H72.9148V64.4892H78.0814V67.4632H72.9148V69.426C75.03 69.426 77.1452 69.426 79.2605 69.426V72.4H68.8265C68.8265 68.1651 68.8265 63.9301 68.8265 59.6952L68.8325 59.7309ZM81.4883 59.7309H86.4534C87.1704 62.3539 87.905 64.971 88.6338 67.5881L90.8083 59.7547H95.7794V72.4595H92.0763C92.0763 70.6751 92.0763 68.8431 92.1237 67.029C92.1237 66.1249 92.2836 65.2446 92.3192 64.3286C91.5904 67.0469 90.8202 69.7472 90.0736 72.4595H87.1941C86.4357 69.7651 85.7009 67.0647 84.9307 64.3703C85.1775 67.0591 85.2646 69.7603 85.1914 72.4595H81.4883V59.7547V59.7309ZM98.5345 59.7309H108.726V62.7048H102.641V64.4892C104.353 64.4892 106.065 64.4892 107.778 64.4892V67.4632H102.641V69.426C104.756 69.426 106.871 69.426 108.986 69.426V72.4H98.5345V59.7547V59.7309ZM111.338 59.7309H115.196C116.677 62.0089 118.123 64.3048 119.61 66.577C119.438 64.2989 119.45 62.0149 119.462 59.7309C120.777 59.7309 122.092 59.7309 123.408 59.7309C123.437 63.9658 123.408 68.2067 123.408 72.4417H119.539C118.069 70.1517 116.576 67.8677 115.113 65.5658C115.178 66.8982 115.302 68.2246 115.285 69.5569V72.4417H111.321V59.7547L111.338 59.7309ZM125.517 59.7309H137V63.0736H133.35V72.4595H129.202V63.0974H125.499L125.517 59.7309Z" fill="#A5A7AA"/>
<path fill-rule="evenodd" clip-rule="evenodd" d="M11.5202 36.4387C16.4261 36.4387 21.3261 36.4387 26.232 36.4387H64.2527C63.5714 38.122 62.8544 39.7934 62.1612 41.4766C46.8273 41.4766 31.4914 41.4766 16.1535 41.4766C15.7921 42.3391 15.4366 43.2075 15.0692 44.064H61.0651C60.3778 45.7354 59.6727 47.4008 58.9854 49.0781C43.6396 49.0781 28.2879 49.0781 12.9422 49.0781C12.5867 49.9525 12.2134 50.8209 11.8579 51.6893H57.9071L55.8037 56.7272C49.2546 56.7272 42.7074 56.7272 36.1623 56.7272H26.9252C18.9501 56.7272 10.9751 56.7272 3 56.7272C5.84005 49.9783 8.68011 43.2154 11.5202 36.4387ZM95.2702 43.8499C96.2035 43.6636 97.1644 43.6638 98.0977 43.8506C99.031 44.0373 99.9184 44.407 100.709 44.9383C101.433 45.4966 102.029 46.2035 102.458 47.0118C102.887 47.8202 103.14 48.7112 103.198 49.6253C103.409 51.4601 102.925 53.3075 101.841 54.8001C100.805 56.0656 99.3159 56.8728 97.6935 57.0484C95.8856 57.3148 94.0439 56.8903 92.5328 55.8588C91.2916 54.8945 90.4699 53.4857 90.2398 51.9272C89.8571 50.056 90.1779 48.1089 91.1404 46.461C91.6033 45.7562 92.2085 45.1569 92.9169 44.702C93.6253 44.247 94.4209 43.9466 95.2524 43.8201L95.2702 43.8499ZM95.9575 46.9547C95.6153 47.0848 95.3078 47.2927 95.0591 47.562C94.8103 47.8313 94.627 48.1548 94.5236 48.5071C94.1593 49.6652 94.1346 50.9041 94.4525 52.0759C94.5286 52.4207 94.6726 52.7467 94.8761 53.0348C95.0796 53.3229 95.3385 53.5671 95.6375 53.7532C96.0812 53.9897 96.5911 54.0695 97.0854 53.98C97.5797 53.8905 98.0297 53.6367 98.363 53.2595C98.8824 52.5078 99.1519 51.6106 99.1333 50.696C99.233 49.6296 98.9608 48.5616 98.363 47.6744C98.0841 47.3318 97.7087 47.0815 97.2859 46.9563C96.8631 46.8311 96.4126 46.8368 95.993 46.9725L95.9575 46.9547ZM62.7774 44.0521V50.4462C62.7053 51.6506 62.8437 52.8584 63.1862 54.0149C63.5141 55.0389 64.2289 55.8931 65.177 56.3941C66.5714 57.0076 68.1005 57.2474 69.6149 57.09C71.0166 57.0956 72.3719 56.5857 73.4247 55.6566C74.4438 54.6276 74.7637 53.1168 74.8052 51.7131V44.0521H70.6992V51.4811C70.7549 52.1486 70.5994 52.8168 70.2548 53.3904C70.0748 53.5935 69.8511 53.7527 69.6005 53.8558C69.35 53.9589 69.0793 54.0031 68.8091 53.9852C68.5512 54.0023 68.2925 53.9662 68.049 53.8793C67.8055 53.7923 67.5822 53.6563 67.393 53.4796C67.0405 53.0019 66.8703 52.4131 66.9131 51.8201V44.0521H62.7774ZM77.0448 44.0521H82.1226C83.4125 43.9928 84.7047 44.0988 85.9679 44.3673C86.7632 44.5293 87.4751 44.9699 87.9765 45.6105C88.474 46.4861 88.6383 47.5132 88.4386 48.5012C88.3567 49.0302 88.1283 49.5254 87.7794 49.9303C87.4305 50.3352 86.9753 50.6335 86.4656 50.7911C87.1055 51.0528 87.8402 51.3324 88.1483 51.9807C88.7941 53.3131 88.2668 54.8595 88.6934 56.2454L88.9363 56.3644C88.9363 56.4595 88.9363 56.6558 88.9363 56.7569H84.7888C84.4985 55.7339 84.6525 54.6633 84.5222 53.6164C84.5134 53.3741 84.4348 53.1395 84.296 52.9411C84.1572 52.7427 83.9641 52.5888 83.7401 52.4982C82.9053 52.3198 82.0497 52.2598 81.1983 52.3198V56.7569H77.0508V44.0521H77.0448ZM81.1923 47.0261C81.1923 47.8588 81.1923 48.6975 81.1923 49.5302C81.9711 49.5529 82.7505 49.5311 83.5268 49.4647C83.7267 49.4552 83.922 49.4018 84.0991 49.3083C84.2762 49.2148 84.4308 49.0834 84.5518 48.9235C84.6401 48.7746 84.695 48.6082 84.7126 48.4359C84.7301 48.2636 84.71 48.0895 84.6536 47.9257C84.5972 47.762 84.5058 47.6127 84.3859 47.4881C84.2659 47.3635 84.1204 47.2667 83.9593 47.2045C83.0765 46.8833 82.1048 47.0796 81.1864 47.0261H81.1923ZM84.0363 75.9807C84.4994 75.8616 84.9843 75.8567 85.4496 75.9665C85.9149 76.0763 86.3468 76.2975 86.7085 76.6112C86.9539 76.8707 87.1417 77.1795 87.2594 77.5172C87.3771 77.8549 87.422 78.2139 87.3912 78.5704C87.3604 78.9268 87.2546 79.2726 87.0807 79.585C86.9068 79.8973 86.6689 80.1691 86.3826 80.3822C85.9229 80.6625 85.3989 80.8191 84.8613 80.8368C84.3237 80.8545 83.7906 80.7328 83.3135 80.4833C83.0063 80.2935 82.7437 80.0392 82.5437 79.7378C82.3437 79.4365 82.211 79.0953 82.1547 78.7376C82.0984 78.3799 82.1198 78.0143 82.2176 77.6657C82.3154 77.3171 82.4871 76.9939 82.721 76.7183C83.0661 76.3392 83.5228 76.0808 84.0245 75.9807H84.0363ZM84.4748 77.4558C84.3085 77.5375 84.1683 77.6645 84.0703 77.8222C83.9722 77.9799 83.9203 78.1621 83.9203 78.348C83.9203 78.5339 83.9722 78.7161 84.0703 78.8738C84.1683 79.0315 84.3085 79.1585 84.4748 79.2402C84.6072 79.2887 84.7493 79.3046 84.8891 79.2866C85.0289 79.2686 85.1624 79.2173 85.2784 79.137C85.3944 79.0566 85.4896 78.9495 85.5559 78.8247C85.6223 78.6998 85.6579 78.5609 85.6598 78.4194C85.6808 78.2667 85.6623 78.1111 85.6061 77.9676C85.5499 77.8242 85.4578 77.6977 85.3388 77.6003C85.2197 77.5029 85.0777 77.4379 84.9264 77.4115C84.7751 77.3852 84.6195 77.3984 84.4748 77.4499V77.4558ZM68.9335 76.0402H72.1212V77.3904H70.7702V77.7651C71.1652 77.7651 71.5602 77.7651 71.9552 77.7651C71.9552 78.1398 71.9552 78.5086 71.9552 78.8833H70.7702V79.3116H72.1212V80.6677H68.9335V76.0283V76.0402ZM72.7788 76.0402C73.7209 76.0402 74.6511 76.0402 75.5932 76.0402C75.863 76.0245 76.1297 76.1048 76.3464 76.2668C76.5631 76.4289 76.716 76.6625 76.7782 76.9265C76.8477 77.1867 76.8128 77.4639 76.681 77.6985C76.5492 77.9332 76.3309 78.1066 76.0731 78.1815C76.2439 78.2172 76.4051 78.2892 76.5459 78.3927C76.6866 78.4963 76.8036 78.6289 76.8889 78.7816C76.9743 78.9344 77.026 79.1037 77.0406 79.2783C77.0553 79.4528 77.0324 79.6284 76.9737 79.7934C76.8709 80.0688 76.6819 80.3034 76.4352 80.462C76.1885 80.6207 75.8973 80.695 75.6051 80.6737H72.7966V76.0343L72.7788 76.0402ZM74.6156 77.1584V77.8068C74.8289 77.8068 75.1488 77.8068 75.1548 77.5034C75.1607 77.2001 74.8289 77.1644 74.6156 77.1584ZM74.6156 78.8952V79.5317C74.8407 79.5317 75.2614 79.5733 75.2496 79.2343C75.3029 79.0677 75.1251 78.9844 75.0363 78.8833H74.6156V78.8952ZM77.5781 76.0402V80.6796H79.4148V79.2699C80.0176 79.3386 80.627 79.2225 81.1627 78.9369C81.506 78.662 81.7273 78.2622 81.7783 77.8244C81.8294 77.3866 81.7061 76.9463 81.4353 76.5993C81.2631 76.4161 81.0542 76.2716 80.8224 76.1752C80.5906 76.0788 80.3411 76.0328 80.0903 76.0402H77.5781ZM79.4148 77.2714C79.6578 77.2714 80.0607 77.2714 80.0073 77.6224C80.0607 77.9733 79.6578 78.0566 79.4148 78.0387V77.2952V77.2714ZM88.0002 76.0402H89.8369C89.8369 77.1346 89.8369 78.2291 89.8369 79.3235H90.8383C90.8383 78.2291 90.8383 77.1346 90.8383 76.0402H92.6691C92.6691 77.1346 92.6691 78.2291 92.6691 79.3235H93.2083C93.2083 80.0848 93.2083 80.8402 93.2083 81.6015H91.6322V80.6796H87.9883V76.0402H88.0002ZM93.6526 76.0402H96.8403V77.4201H95.4894V77.7949H96.7218V78.925C96.313 78.925 95.8982 78.925 95.4894 78.925V79.3532H96.8403V80.7094H93.6526V76.0699V76.0402ZM97.8001 76.0402C98.4697 76.0402 99.157 75.9926 99.8146 76.0759C100.058 76.9146 100.265 77.7711 100.496 78.6157C100.733 77.7532 100.964 76.8967 101.195 76.0402H103.204C103.417 77.5867 103.63 79.1331 103.855 80.6737H102.078C102.001 79.9123 101.965 79.151 101.871 78.3956C101.645 79.151 101.438 79.9183 101.213 80.6737H99.8146C99.5895 79.9004 99.3821 79.1212 99.151 78.348C99.1036 79.1212 99.0207 79.8945 98.9614 80.6677C98.3689 80.6677 97.7764 80.6677 97.1839 80.6677C97.3795 79.1153 97.6165 77.5688 97.8298 76.0224L97.8001 76.0402ZM104.318 76.0402H107.505V77.4201H106.125V77.7949H107.357C107.357 78.1696 107.357 78.5443 107.357 78.925C106.942 78.925 106.528 78.925 106.119 78.925V79.3532H107.499V80.7094H104.318V76.0699V76.0402ZM108.163 76.0402H109.94V77.6224H110.835C110.835 77.093 110.835 76.5696 110.835 76.0402H112.666C112.666 77.5867 112.666 79.1331 112.666 80.6796H110.829C110.829 80.1264 110.829 79.5733 110.829 79.0201C110.533 79.0201 110.237 79.0201 109.929 79.0201V80.6915H108.151C108.151 79.145 108.151 77.5986 108.151 76.0521L108.163 76.0402ZM113.128 76.0402H116.861V77.3904H115.943C115.943 78.4848 115.943 79.5792 115.943 80.6737H114.094V77.4201H113.146V76.064L113.128 76.0402ZM122.904 77.7354C123.047 77.5956 123.217 77.4876 123.404 77.4187C123.591 77.3497 123.791 77.3213 123.989 77.3354C124.188 77.3494 124.382 77.4056 124.557 77.5002C124.733 77.5947 124.886 77.7256 125.008 77.8841C125.275 78.2777 125.4 78.7514 125.363 79.2264C125.325 79.7013 125.127 80.1491 124.8 80.4952C124.539 80.7187 124.205 80.8379 123.862 80.8302C123.519 80.8225 123.191 80.6885 122.94 80.4536C122.94 80.9592 122.94 81.4647 122.94 81.9763H121.5V77.4796H122.934C122.934 77.545 122.934 77.6699 122.934 77.7354H122.904ZM123.124 78.5621C122.733 78.8298 122.816 79.5971 123.313 79.6685C123.811 79.7398 124.03 79.258 123.906 78.8952C123.89 78.8131 123.854 78.7361 123.802 78.6711C123.75 78.606 123.682 78.5547 123.606 78.5219C123.529 78.489 123.446 78.4755 123.363 78.4825C123.28 78.4895 123.2 78.5169 123.13 78.5621H123.124ZM118.757 80.6796C118.757 79.6149 118.757 78.5443 118.757 77.4796H121.127V78.6038H120.268C120.268 79.2937 120.268 79.9837 120.268 80.6796H118.757ZM125.452 77.4856C125.993 78.4253 126.536 79.3631 127.082 80.2989C126.809 80.858 126.519 81.4112 126.258 81.9763H127.757L129.677 77.4796C129.197 77.4796 128.723 77.4796 128.249 77.4796C128.071 77.9198 127.941 78.3778 127.775 78.8239C127.567 78.3718 127.348 77.9317 127.141 77.4856H125.452ZM129.92 80.6796V77.4796H133.475V80.6796H132.011V78.5205C131.798 78.5205 131.585 78.5205 131.377 78.5205V80.6796H129.92Z" fill="#EC9024"/>
</g>
<defs>
<clipPath id="clip0_703_3050">
<rect width="134" height="64" fill="white" transform="translate(3 18)"/>
</clipPath>
</defs>
</svg>
