<svg width="140" height="100" viewBox="0 0 140 100" fill="none" xmlns="http://www.w3.org/2000/svg">
<g clip-path="url(#clip0_713_4252)">
<path d="M116 59.9011V60.1036C115.693 60.382 115.311 60.3546 114.937 60.3546H96.871C93.2994 60.3546 89.7268 60.3435 86.1552 60.3688C85.9524 60.3525 85.7482 60.3647 85.5489 60.4053C85.4743 60.4463 85.3904 60.4678 85.305 60.4678C85.2197 60.4678 85.1358 60.4463 85.0612 60.4053C82.9241 59.4152 80.7902 58.418 78.8843 57.0158C78.7469 56.9169 78.6219 56.802 78.5121 56.6736C77.9252 55.9781 77.9323 55.6987 78.5601 55.0326C79.5233 54.3918 80.5877 53.9757 81.6869 53.6254C83.5274 53.0372 85.4272 52.693 87.2994 52.2394C88.283 52.0005 89.2984 51.874 90.2933 51.6675C90.7882 51.5662 91.28 51.4538 91.7677 51.3212C92.4466 51.1451 93.1573 51.1279 93.8301 50.9163C94.3209 50.9932 94.7575 50.7887 95.2462 50.6703C95.1931 50.4678 95.0295 50.3969 94.8996 50.3088C92.8781 48.9401 90.7483 47.7546 88.5673 46.6582C88.3229 46.5357 88.0683 46.4365 87.7871 46.5448C87.1082 46.7281 86.4896 47.0561 85.8444 47.3274C85.1685 47.5714 84.4988 47.8336 83.8291 48.0958C82.8066 48.4896 81.7687 48.8449 80.734 49.2043C80.4514 49.3181 80.1512 49.3825 79.8464 49.3947C79.7953 49.3992 79.7439 49.392 79.6961 49.3734C79.0653 49.0049 78.4129 49.0049 77.7442 49.257C77.6958 49.2745 77.6438 49.2798 77.5929 49.2722C76.0898 49.0697 74.5959 49.4078 73.0939 49.3309C71.5918 49.2539 70.0683 49.2944 68.5561 49.3218C67.6768 49.3381 66.7974 49.3043 65.9221 49.2205C65.533 49.1671 65.1366 49.212 64.7698 49.3511C64.65 49.3984 64.5201 49.4147 64.3922 49.3986C64.2643 49.3825 64.1427 49.3344 64.0387 49.259C63.8634 49.1571 63.6797 49.0701 63.4896 48.9988C63.1828 48.8652 63.0192 48.9573 62.9293 49.2509C62.7503 49.3886 62.5683 49.3036 62.3965 49.2438C60.2943 48.5119 58.2043 47.7566 56.2319 46.7048C55.8894 46.5215 55.5509 46.4092 55.1644 46.5701C52.826 47.54 50.4088 48.2993 48.0315 49.1659C47.6409 49.3086 47.2667 49.5607 46.8127 49.4159C46.1113 49.2367 45.4272 49.3744 44.7677 49.587C44.3038 49.7461 43.8169 49.8291 43.326 49.833C40.915 49.8249 38.5029 49.833 36.0918 49.833C35.6828 49.833 35.2739 49.8482 34.9855 49.4686C34.8485 49.2904 34.6644 49.3117 34.509 49.4848C34.3536 49.6579 34.1215 49.751 33.8955 49.8351C33.6696 49.9191 33.464 49.8209 33.2544 49.7561C32.416 49.4959 31.597 49.18 30.7636 48.9016C29.2145 48.2952 27.6931 47.621 26.3516 46.6086C26.0315 46.3656 25.918 46.0923 25.9006 45.7096C25.8505 44.6294 26.0254 43.5593 26.0172 42.4812C26.0172 42.1997 26.0734 41.9345 26.4589 42.1855C28.8383 43.8873 31.4242 45.1548 34.2943 45.8301C36.6869 46.4476 39.1133 46.562 41.5704 46.3636C43.9743 46.1692 46.2923 45.6175 48.5581 44.8228C50.8181 44.0452 52.9944 43.0472 55.055 41.8434C55.5233 41.4728 55.9139 41.7573 56.3107 41.9891C58.2421 43.1382 60.2381 44.1576 62.3638 44.9129C63.6143 45.4363 64.9201 45.7693 66.235 46.0882C68.0456 46.4646 69.8934 46.6372 71.7432 46.6025C73.4214 46.5675 75.0929 46.3815 76.737 46.0467C76.8685 46.0149 77.0027 45.9956 77.1379 45.989C78.3751 45.6388 79.6327 45.3593 80.8587 44.9635C83.0704 44.2488 85.2064 43.3437 87.3475 42.4467C87.4712 42.3951 87.5837 42.3101 87.7299 42.3374C88.597 42.7798 89.374 43.3751 90.2565 43.7932C91.1912 44.3697 92.166 44.8799 93.1736 45.3199C93.5765 45.494 93.9599 45.7147 94.3853 45.8402C96.3303 46.6904 98.4026 47.2201 100.52 47.4084C103.201 47.6473 105.807 47.2221 108.37 46.473C110.824 45.7572 113.176 44.8005 115.487 43.7254C115.645 43.6515 115.799 43.4996 116.004 43.614V47.2586C115.48 47.7536 114.798 47.9763 114.172 48.2902C113.827 48.4623 113.467 48.6091 113.116 48.7721C109.853 50.0709 106.451 50.9112 103.055 51.7717C102.099 52.0137 101.149 52.2779 100.209 52.5735C99.9743 52.6484 99.5213 52.6171 99.6511 53.1101C99.7534 53.3034 99.7759 53.5403 99.9579 53.6922C100.98 54.9313 102.43 55.4436 103.877 55.9376C106.481 56.8265 109.172 57.4319 111.808 58.2206C113.043 58.5942 114.257 59.0356 115.444 59.5427C115.65 59.6259 115.839 59.7476 116 59.9011Z" fill="#F6EA91"/>
<path d="M33.8157 49.7713C34.0202 49.5496 34.3556 49.5334 34.5253 49.1912C34.6684 48.9007 35.0365 49.1548 35.1326 49.3482C35.2932 49.6924 35.5416 49.6802 35.831 49.6802C38.4459 49.6802 41.0604 49.6802 43.6746 49.6802C43.9455 49.6936 44.2155 49.6407 44.4609 49.5263C45.0795 49.2115 45.7676 49.2429 46.4353 49.174C46.6265 49.1538 46.8136 49.174 46.9026 49.3866C46.8678 49.6448 46.6275 49.6498 46.4588 49.7207C45.9834 49.9232 45.5038 50.1074 45.0273 50.2968C43.3443 50.9923 41.696 51.7546 40.1511 52.7265C39.8341 52.9289 39.693 53.1587 39.7656 53.5181C39.7865 53.5614 39.8133 53.6016 39.8453 53.6376C39.9793 54.1124 40.3371 54.4384 40.6572 54.7765C41.9067 56.0926 43.3525 57.1769 44.8566 58.1882C45.7809 58.8112 46.7012 59.4406 47.6173 60.0763C47.7332 60.1738 47.8387 60.2826 47.9322 60.4013C47.9017 60.4317 47.8625 60.452 47.8199 60.4596C47.7773 60.4672 47.7333 60.4617 47.694 60.4438C47.193 60.132 46.65 60.2606 46.1102 60.2606C39.2738 60.2606 32.4374 60.294 25.601 60.2464C25.2778 60.2464 24.9558 60.2768 24.6326 60.2656C24.4118 60.2586 24.1868 60.2656 24.0059 60.1057V57.271C24.4731 56.6697 25.1909 56.4318 25.8279 56.1058C26.9899 55.5146 28.1963 55.0133 29.4363 54.6064C30.8678 54.1347 32.287 53.6396 33.7308 53.2063C34.8331 52.8753 35.9404 52.5584 37.0253 52.1727C37.4615 52.0985 37.8815 51.9502 38.2666 51.7343C38.3688 51.6827 38.5222 51.6533 38.5099 51.5096C38.4977 51.3658 38.3484 51.3486 38.2421 51.3071C37.2543 50.9416 36.2461 50.6379 35.2277 50.3656C34.7625 50.152 34.2073 50.152 33.8157 49.7713Z" fill="#F9F29A"/>
<path d="M48.9418 61.119C50.634 62.2852 52.3651 63.3978 53.9848 64.6623C54.3938 64.9822 54.7803 65.3315 55.176 65.6676C55.2843 65.7465 55.4275 65.8174 55.3661 65.9804C55.3048 66.1434 55.1668 66.1363 55.0236 66.1393C47.1177 66.3418 39.2097 66.1758 31.3017 66.2355C30.8774 66.2355 30.4582 66.0887 30.0349 66.2112C29.7077 66.3043 29.4796 66.11 29.2567 65.9277C27.949 64.8769 26.6422 63.823 25.3856 62.7104C24.9295 62.3055 24.467 61.9076 23.998 61.5168V61.0106C24.1678 60.8608 24.3774 60.8861 24.5798 60.8811C27.3529 60.8082 30.1269 60.8568 32.8999 60.8507C37.3055 60.8419 41.7121 60.8419 46.1197 60.8507C46.9183 60.8507 47.7169 60.8719 48.5144 60.9033C48.6852 60.9246 48.8068 61.0339 48.9418 61.119Z" fill="#BF984C"/>
<path d="M115.999 61.0148V64.7605C115.878 64.9934 115.635 65.0521 115.419 65.1351C113.648 65.8144 111.813 66.274 109.955 66.6466C109.75 66.6871 109.555 66.7114 109.36 66.6142C109.161 66.4807 108.919 66.4235 108.679 66.4532C105.652 66.6132 102.621 66.5059 99.5925 66.5352C98.8768 66.5423 98.161 66.5352 97.4453 66.5454C97.3081 66.5437 97.1768 66.4901 97.0782 66.3955C95.3114 64.9782 93.2326 64.1005 91.2122 63.1347C90.021 62.5617 88.8257 61.9877 87.5987 61.4906C87.4136 61.4167 87.1365 61.3357 87.3287 61.0208C87.6426 60.7789 88.0138 60.8528 88.3635 60.8528C95.615 60.8474 102.867 60.8474 110.118 60.8528C111.821 60.8528 113.523 60.8528 115.225 60.8528C115.489 60.8518 115.77 60.8174 115.999 61.0148Z" fill="#BF984C"/>
<path d="M116 61.0148C106.661 61.0148 97.3199 61.0164 87.9764 61.0198C87.7412 61.0198 87.4518 60.9014 87.2913 61.2041C86.8619 61.2132 86.4672 61.1484 86.2412 60.7222C86.4007 60.3405 86.7525 60.3861 87.0592 60.384C96.2985 60.3304 105.537 60.3689 114.776 60.3587C115.199 60.3587 115.633 60.3233 116.003 60.6098L116 61.0148Z" fill="#D3B769"/>
<path d="M48.634 61.0157C47.9346 61.0765 47.2342 61.0218 46.5348 61.0208C39.4768 61.0113 32.4185 61.0097 25.3599 61.0157H24V60.5096C24.1205 60.4136 24.2731 60.3662 24.4274 60.3769C31.7065 60.3121 38.9867 60.3628 46.2669 60.3486C46.7086 60.3486 47.1472 60.4083 47.589 60.4296C48.0102 60.4488 48.4039 60.6138 48.634 61.0157Z" fill="#D3B668"/>
<path d="M48.6339 61.0158C48.2382 60.6807 47.8456 60.4327 47.2597 60.5866C46.9172 60.6767 46.5317 60.5025 46.1534 60.5025C39.4049 60.5113 32.6585 60.5153 25.9141 60.5147C25.2761 60.5147 24.638 60.5997 24 60.5086V60.1036H45.9049C46.2117 60.1036 46.5184 60.1259 46.8129 60.0216C47.2751 59.8617 47.5286 60.3456 47.9254 60.4003C48.2996 60.5916 48.683 60.7688 48.9417 61.1201L48.6339 61.0158Z" fill="#E6D684"/>
<path d="M116 60.6098C106.768 60.38 97.5349 60.5632 88.3027 60.5359C87.7138 60.5359 87.0993 60.4346 86.5021 60.5986C86.3457 60.6432 86.2976 60.6695 86.358 60.8163C85.9275 60.9519 85.6207 60.8163 85.4377 60.4063C85.4265 60.3324 85.3549 60.2291 85.4929 60.2119C85.6457 60.2009 85.799 60.1986 85.952 60.2048C95.5635 60.2048 105.175 60.2068 114.786 60.2109C115.195 60.2109 115.593 60.1248 115.998 60.1036L116 60.6098Z" fill="#E5D482"/>
<path d="M116 65.0632C115.741 65.0106 115.553 65.1857 115.335 65.2657C113.552 65.9065 111.724 66.4141 109.865 66.7843C107.945 67.1669 106.032 67.5861 104.108 67.9515C102.544 68.2472 100.994 68.5833 99.4603 69.0125C98.3877 69.3162 97.3356 69.6776 96.4736 70.4238C96.4437 70.3928 96.422 70.3549 96.4106 70.3135C96.3992 70.2722 96.3983 70.2286 96.4082 70.1869C96.5799 69.8204 96.9409 69.6807 97.265 69.5086C98.8724 68.647 100.644 68.2796 102.402 67.8888C104.576 67.4119 106.772 67.0394 108.955 66.601C109.12 66.5595 109.292 66.5526 109.459 66.5808C110.649 66.3996 111.811 66.1009 112.973 65.7921C114.002 65.5084 115.013 65.1619 115.999 64.7545L116 65.0632Z" fill="#D9C89D"/>
<path d="M102.426 26.0817C103.666 27.1386 104.777 28.3221 105.953 29.4478C108.066 31.4786 110.18 33.5091 112.293 35.5393C112.414 35.6557 112.521 35.7873 112.634 35.9118C112.969 36.3634 113.418 36.7055 113.793 37.1186C113.895 37.236 114.13 37.3332 114.04 37.5134C113.938 37.725 113.685 37.6673 113.487 37.6319C112.818 37.5144 112.158 37.3514 111.489 37.235C109.399 36.8716 107.309 36.5264 105.193 36.334C103.314 36.1489 101.424 36.0951 99.5381 36.173C97.0775 36.2823 94.6328 36.6213 92.2365 37.1854C91.8561 37.2765 91.4676 37.3231 91.0933 37.4365C90.2365 37.6511 89.3745 37.8556 88.5494 38.1684C87.8336 38.4387 87.1649 38.3709 86.4727 38.0976C83.2835 36.8306 79.9819 35.8613 76.6107 35.2022C75.3944 34.9691 74.1653 34.8075 72.9297 34.7183C71.9594 34.6443 70.9931 34.6504 70.0248 34.6403C68.6629 34.6261 67.3214 34.8337 65.9727 34.9946C63.7498 35.2589 61.6138 35.8643 59.4676 36.4464C59.124 36.5395 58.7876 36.657 58.4533 36.7825C58.401 36.8084 58.3462 36.8288 58.2897 36.8432C57.108 37.1544 55.9469 37.5378 54.8132 37.9913C54.1056 38.2676 53.4727 38.2646 52.7477 38.0156C50.0176 37.081 47.2185 36.357 44.3755 35.8501C41.5892 35.349 38.7835 35.1839 35.9573 35.2427C35.4124 35.2548 34.8776 35.3439 34.3398 35.4087C33.2426 35.5423 32.1516 35.7063 31.0852 36.009C30.8878 36.0647 30.6762 36.0748 30.5248 35.8946C30.5023 35.8466 30.4962 35.7926 30.5074 35.7408C31.0013 35.2346 31.5197 34.7476 32.0187 34.2424C34.3254 31.914 36.5453 29.4964 38.85 27.1619C39.1342 26.8744 39.3704 26.5403 39.668 26.2629C39.8449 26.0999 40.0279 26.0138 40.2672 26.1161C40.6976 26.2609 41.1424 26.2396 41.5841 26.2396C60.79 26.2396 79.9955 26.2396 99.2007 26.2396C99.7927 26.2396 100.376 26.2396 100.969 26.4046C101.45 26.5403 101.958 26.3064 102.426 26.0817Z" fill="#EBD477"/>
<path d="M69.3243 5.37757C69.6218 5.3391 69.7456 4.87139 70.0953 5.03337C70.3499 5.1508 70.5114 5.41098 70.7159 5.60435C70.8074 5.70088 70.9128 5.78345 71.0288 5.84934C71.3478 6.05182 71.5247 6.42538 71.8989 6.56307C73.1924 7.59468 74.4756 8.64451 75.7875 9.65689C78.4715 11.7312 81.2773 13.6375 84.0768 15.553C84.3284 15.7251 84.582 15.8931 84.8355 16.0592C85.1955 16.2616 85.5319 16.2151 85.8764 15.9994C86.8519 15.392 87.8427 14.8058 88.8192 14.1974C89.1259 14.004 89.4327 13.7712 89.8417 13.8269C91.6443 15.5945 93.4327 17.3773 95.2609 19.1226C96.4715 20.2808 97.6644 21.4571 98.8396 22.6517C98.9777 22.8542 99.0983 23.0699 99.3601 23.1387C99.6668 23.3999 99.9327 23.7046 100.239 23.9668L101.902 25.5947C102.048 25.785 102.168 26.0047 102.426 26.0756H102.431C102.403 26.4887 101.962 26.4978 101.781 26.5059C101.41 26.5231 100.997 26.8906 100.617 26.4482C100.525 26.3469 100.228 26.3955 100.026 26.3955C80.385 26.3955 60.7432 26.3955 41.1004 26.3955C40.7241 26.3955 40.3274 26.4542 40.0564 26.0918C39.993 25.9086 40.1269 25.8033 40.2343 25.7061C40.9132 25.0895 41.4746 24.3657 42.1229 23.7198C44.0043 21.8439 45.7752 19.8626 47.6863 18.0151C47.7937 17.9065 47.8893 17.787 47.9715 17.6587C49.082 16.5046 50.2364 15.394 51.3785 14.2703C51.5544 14.0972 51.7425 13.9139 52.0278 13.9291C53.6413 14.9982 55.311 15.9731 57.0175 16.8873C57.3243 17.0736 57.5574 16.9217 57.7793 16.7253C58.0012 16.5289 58.1627 16.3062 58.4255 16.1806C58.569 16.1251 58.696 16.0346 58.7946 15.9174C59.9777 14.5416 61.3447 13.345 62.6106 12.0501C62.8703 11.7839 63.0707 11.464 63.3652 11.2291C64.5533 9.98793 65.8018 8.80548 67.0135 7.58455" fill="#E1BE63"/>
<path d="M113.344 40.177C113.861 40.423 114.398 40.6316 114.87 40.9657C114.915 41.1125 115.056 41.1469 115.17 41.1995C115.483 41.3402 115.456 41.5144 115.241 41.7209C115.202 41.7537 115.159 41.7828 115.115 41.808C114.297 42.2008 113.416 42.3688 112.559 42.633C112.041 42.793 111.536 42.9854 111.034 43.1868C110.38 43.1483 109.868 42.7424 109.296 42.5014C106.758 41.4324 104.133 40.7956 101.364 40.9191C99.3358 41.0092 97.3532 41.403 95.4115 41.9932C94.9074 42.1471 94.3961 42.2767 93.9043 42.466C93.5976 42.6017 93.2908 42.6563 92.9841 42.4579C91.9289 41.7705 90.7571 41.3048 89.6466 40.7207C89.4486 40.6243 89.2591 40.5115 89.0802 40.3835C88.9166 40.259 88.8184 40.1153 88.9432 39.9087C89.0659 39.7447 89.2632 39.7295 89.435 39.6607C90.6068 39.1738 91.7929 38.7293 93.0403 38.4681C98.0362 37.3322 103.029 37.393 108.02 38.4924C109.678 38.8832 111.308 39.361 112.865 40.0576C113.017 40.1294 113.166 40.2044 113.344 40.177Z" fill="#F0DF86"/>
<path d="M50.3804 40.6852C50.5379 40.7379 50.5614 40.8361 50.4826 40.9707C50.317 41.2359 50.0614 41.3827 49.7771 41.4921C49.2311 41.7512 48.6687 41.9983 48.1728 42.3303C47.5706 42.7353 47.0164 42.796 46.3978 42.4427C44.4378 41.5446 42.3368 40.9858 40.1861 40.7905C37.7649 40.5617 35.4141 40.8674 33.0808 41.4556C32.5137 41.5699 31.9565 41.7276 31.4141 41.9274C31.0051 42.0833 30.6882 42.0539 30.3415 41.7573C29.8424 41.3455 29.3134 40.9706 28.7587 40.6356C28.5368 40.4797 28.3017 40.34 28.091 40.1689C27.6309 39.7953 27.6616 39.6 28.1933 39.3367C29.2352 38.8194 30.3538 38.5268 31.4653 38.2231C32.5062 38.0662 33.5348 37.8475 34.5859 37.7534C36.3323 37.5955 38.0736 37.5134 39.8252 37.6835C41.4479 37.8394 43.044 38.1401 44.6309 38.4712C46.452 38.9419 48.2229 39.5433 49.8579 40.4959C50.0195 40.583 50.1759 40.7075 50.3804 40.6852Z" fill="#F1E086"/>
<path d="M100.229 23.9749C99.8373 23.8008 99.5858 23.4819 99.3496 23.1468C99.729 23.3331 99.9887 23.6439 100.229 23.9749Z" fill="#EBD477"/>
<path d="M99.3486 23.1458C98.9641 23.2056 98.8905 22.9373 98.8281 22.6589C99.045 22.7687 99.2256 22.9377 99.3486 23.1458Z" fill="#EBD477"/>
<path d="M102.415 26.0837C102.038 26.1404 101.961 25.8812 101.892 25.6028C102.107 25.7135 102.288 25.8796 102.415 26.0837Z" fill="#EBD477"/>
<path d="M67.6493 74.9845C67.9561 76.0303 68.8017 76.6154 69.6197 77.2117C70.5399 77.8809 71.5624 78.3638 72.5573 78.9145C72.8068 79.1889 73.1923 79.2253 73.4775 79.4308H73.4724C74.952 80.1284 76.4377 80.8077 77.9581 81.4242C78.6585 81.7978 79.406 82.0742 80.1125 82.4366C81.3395 83.0268 82.5604 83.6322 83.6912 84.3895H83.6974C84.1514 84.7661 84.6739 85.0718 84.9673 85.6124C84.9653 85.6547 84.9483 85.6949 84.9193 85.726C84.8903 85.7571 84.8512 85.7771 84.8088 85.7825C84.5399 85.8108 84.3702 85.6246 84.1769 85.494C83.9019 85.3087 83.6411 85.2115 83.3589 85.494C83.1779 85.6701 82.9499 85.6863 82.7659 85.5041C82.4888 85.2368 82.1524 85.2611 81.8088 85.2611C77.6902 85.2611 73.5723 85.2611 69.455 85.2611C64.1963 85.2611 58.9387 85.2773 53.681 85.25C53.5637 85.2322 53.4438 85.257 53.3436 85.3198C53.4121 85.5385 53.6667 85.6964 53.6565 85.9576C53.5051 86.1662 53.361 86.0103 53.2147 85.9505C52.8108 85.6468 52.3967 85.3654 51.9877 85.0718C51.7594 84.8787 51.514 84.7063 51.2546 84.5565C50.8732 84.2882 50.5021 84.0078 50.1115 83.7527C49.4571 83.2597 48.7955 82.7757 48.0992 82.3354C47.7618 82.0873 47.3978 81.8757 47.0603 81.6267C46.8423 81.4231 46.5995 81.2472 46.3374 81.1033C45.6564 80.6295 45 80.1213 44.2924 79.686C43.5685 79.0623 42.7004 78.6149 42.0532 77.8961C41.7065 77.5104 41.7035 77.3636 42.045 76.9556C42.2965 76.8037 42.5215 76.6073 42.8047 76.5061C43.0977 76.4802 43.3737 76.3584 43.589 76.1599C44.2791 75.7488 45.0624 75.5717 45.8098 75.3196C47.7594 74.6622 49.7294 74.0673 51.7198 73.5348C52.1922 73.4082 52.6595 73.2614 53.138 73.1582C53.1686 73.1622 53.1995 73.1622 53.2301 73.1582C53.9458 72.8129 54.7331 72.6935 55.4969 72.5011C57.1984 71.995 58.9223 71.5698 60.635 71.103C60.865 71.0403 61.0839 70.9502 61.3129 70.8874C61.5419 70.8246 61.7413 70.773 61.9407 70.932C61.9162 71.1608 61.7106 71.1466 61.5624 71.2053C61.226 71.3379 60.8466 71.3774 60.5399 71.6224C60.9095 71.5305 61.2898 71.4879 61.6708 71.4959C63.7158 71.4959 65.7608 71.4311 67.7935 71.5232C68.9111 71.5738 70.0297 71.4493 71.1473 71.6062C71.5205 71.6588 71.9029 71.4503 72.272 71.3237C73.1074 71.0352 73.9336 70.7234 74.7628 70.4187C75.0471 70.3174 75.3354 70.1929 75.6534 70.2587C75.818 70.7062 75.3845 70.692 75.1902 70.7588C74.4376 71.02 73.6861 71.2843 72.9407 71.5687C71.3477 72.1883 69.7291 72.7593 68.2873 73.7018C67.8364 74.0005 67.4448 74.3548 67.6493 74.9845Z" fill="#EED07A"/>
<path d="M34.2253 70.0168C33.3391 69.2433 32.453 68.4702 31.5668 67.6974C30.984 67.1913 30.348 66.7468 29.8184 66.1789C30.0668 65.9764 30.3102 65.8499 30.6445 66.0422C30.7744 66.1171 30.9768 66.0716 31.1466 66.0726C38.5631 66.0726 45.9792 66.0726 53.395 66.0726C53.6831 66.0879 53.9716 66.0536 54.2478 65.9714C54.3653 65.9244 54.491 65.9013 54.6177 65.9034C54.7443 65.9055 54.8692 65.9327 54.985 65.9835C55.0873 66.0301 55.2161 66.1121 55.301 65.9703C55.3858 65.8286 55.1895 65.781 55.1762 65.6666C56.211 66.3884 57.0914 67.2429 57.621 68.4061C57.7928 68.8556 57.621 69.1542 57.2028 69.3466C56.7407 69.5612 56.255 69.7293 55.8081 69.9722C54.9901 70.4187 54.0863 70.3266 53.2325 70.3023C52.4247 70.28 51.6057 70.1919 50.7969 70.1869C46.0259 70.1585 41.256 70.1727 36.482 70.1727C36.1926 70.1727 35.8991 70.1616 35.62 70.2506C35.3863 70.3298 35.1362 70.3499 34.8927 70.309C34.6491 70.2682 34.4197 70.1677 34.2253 70.0168Z" fill="#D0AC5C"/>
<path d="M59.5995 48.8136C59.5473 48.7974 59.5136 48.7174 59.4717 48.6668L59.5995 48.8136Z" fill="#E3E2DF"/>
<path d="M104.137 74.0845C105.424 74.3882 106.673 74.8093 107.93 75.2062C109.736 75.7762 111.541 76.3603 113.247 77.1905C113.644 77.3798 114.028 77.5949 114.396 77.8343C114.773 78.0864 115.061 78.4185 114.981 78.9267C114.879 79.1919 114.742 79.4177 114.447 79.5068C113.566 79.8176 112.738 80.2549 111.854 80.5627C110.248 81.1235 108.612 81.5862 106.982 82.0701C103.185 83.1149 99.3676 84.0746 95.5299 84.9493C94.1894 85.253 92.853 85.579 91.5135 85.8858C90.7978 86.0487 90.7978 86.0518 90.4481 85.4211C90.1644 84.9403 89.7836 84.5226 89.3295 84.1941C88.3847 83.4348 87.2845 82.9468 86.1853 82.473C85.9235 82.3586 85.6485 82.2706 85.3847 82.1551C82.992 81.2309 80.5268 80.5111 78.125 79.611C77.5524 79.3964 76.9798 79.1848 76.4246 78.9267C75.8182 78.6604 75.2313 78.3567 74.6454 78.0459C73.8325 77.6146 73.1761 77.0103 72.5861 76.333C72.0677 75.7377 72.0585 75.0078 72.1546 74.2697C72.3346 73.9296 72.5391 73.6188 72.99 73.6188C73.2293 73.6309 73.4686 73.5965 73.6945 73.5176C73.8223 73.4679 73.9706 73.4163 74.0933 73.4619C74.7129 73.7129 75.3397 73.5014 75.9603 73.5014C83.7426 73.5115 91.5258 73.4882 99.308 73.5267C100.689 73.5338 102.089 73.635 103.438 74.0329C103.653 74.0987 103.897 74.1675 104.137 74.0845Z" fill="#F4D680"/>
<path d="M47.7151 55.7463C48.4778 55.0832 49.44 54.8564 50.3603 54.5234C51.2048 54.2197 52.0985 54.1073 52.9461 53.8066C53.349 53.6639 53.7938 53.5029 54.2539 53.5231C58.0372 52.6616 61.8562 51.9469 65.6353 51.058C66.0515 50.9325 66.4533 50.7604 66.9533 50.5609C66.1711 50.3038 65.4605 50.1722 64.7682 49.9748C64.2795 49.8361 63.7938 49.6852 63.3071 49.5404C63.1363 49.4898 62.9359 49.4544 62.847 49.258C62.8235 48.7518 62.9042 48.4187 63.4819 48.8642C63.5034 48.8814 63.5607 48.8541 63.5842 48.8713C64.4543 49.6022 65.4247 48.9593 66.3449 49.0505C69.3899 49.3542 72.4492 49.097 75.5014 49.1719C75.7907 49.18 76.075 49.1811 76.3439 49.0302C76.4411 48.9748 76.55 48.9425 76.6619 48.9358C76.7739 48.9292 76.8859 48.9483 76.9891 48.9917C77.4502 49.2317 77.8725 49.1031 78.3081 48.9705C78.7171 48.846 79.0985 48.848 79.4523 49.1365C79.5877 49.2432 79.7596 49.2936 79.9318 49.2772C79.7222 49.6822 79.3337 49.6174 78.9778 49.6397C78.8214 49.5192 78.6926 49.3359 78.437 49.4028C78.5689 49.5496 78.8725 49.3805 78.9104 49.665C78.5412 50.0092 78.0433 50.0294 77.5965 50.1529C75.5913 50.7067 73.5781 51.2271 71.5187 51.552C71.257 51.5925 70.9748 51.6259 70.7866 51.8557C70.7516 51.8925 70.7137 51.9263 70.6731 51.957C70.3388 52.1848 70.0208 52.4277 69.8643 52.8185C69.6915 53.3115 69.4298 53.7884 69.5975 54.3371C69.6721 54.9344 70.0198 55.3829 70.4155 55.802C71.847 57.3084 73.6752 58.2196 75.4686 59.1935C76.0985 59.5356 76.7928 59.7604 77.3715 60.1977C77.0055 60.4002 76.6067 60.299 76.2263 60.2939C75.802 60.2848 75.3776 60.2625 74.9523 60.2625C67.9441 60.2625 60.9356 60.2625 53.9267 60.2625C53.3991 60.2625 52.8725 60.2858 52.3449 60.2828C52.123 60.2828 51.9001 60.2899 51.7192 60.4458C51.5566 60.6179 51.4124 60.5025 51.2703 60.4124C50.0535 59.645 48.8654 58.8401 47.896 57.768C47.5965 57.439 47.3592 57.0695 47.3245 56.616C47.2887 56.2636 47.3838 55.9458 47.7151 55.7463Z" fill="#F8F199"/>
<path d="M78.7846 60.9166C81.0054 61.9289 83.2457 62.8968 85.3848 64.0701C86.2273 64.5318 87.0709 65.0086 87.7774 65.6767C87.9114 65.8792 87.76 66.0027 87.621 66.0817C86.6041 66.641 85.5312 67.094 84.4196 67.4332C83.3234 67.8797 82.1915 67.7845 81.0361 67.7693C76.6506 67.7137 72.2631 67.741 67.8756 67.7542C67.2846 67.7542 66.6629 67.5628 66.1108 67.9951C65.9165 68.147 65.6578 67.9111 65.4216 67.9293C65.1769 67.8899 64.9477 67.7849 64.759 67.6256C64.5975 67.413 64.3572 67.3107 64.1261 67.1984C64.0854 67.1776 64.0461 67.1543 64.0085 67.1285C63.8112 66.9862 63.5982 66.8667 63.3735 66.7721C63.3329 66.7514 63.2936 66.7281 63.256 66.7023C62.8153 66.4097 62.3234 66.2133 61.8521 65.9784C61.809 65.9591 61.767 65.9374 61.7263 65.9136C60.9969 65.4704 60.2294 65.0917 59.4329 64.7818C59.0665 64.6406 58.72 64.4531 58.4022 64.224C57.8712 63.8649 57.296 63.5747 56.6905 63.3604C56.5268 63.316 56.3772 63.231 56.256 63.1134C55.8265 62.752 55.2836 62.593 54.802 62.3248C54.7594 62.3029 54.7184 62.2782 54.6793 62.2509C54.1077 61.8803 53.4676 61.6262 52.9093 61.2314C52.8828 61.1803 52.8745 61.1218 52.8858 61.0654C52.9093 61.0085 52.9478 60.9588 52.9973 60.9216C53.1629 60.8062 53.3521 60.8204 53.5392 60.8204C61.7192 60.8831 69.9052 60.8204 78.0883 60.8507C78.3224 60.8568 78.5617 60.787 78.7846 60.9166Z" fill="#C7A051"/>
<path d="M104.137 74.0845C104.056 74.1485 103.959 74.1891 103.856 74.2018C103.754 74.2145 103.649 74.1988 103.555 74.1564C102.83 73.875 102.052 73.9043 101.306 73.8355C100.767 73.7849 100.226 73.6644 99.6778 73.6644C91.6444 73.6644 83.611 73.6644 75.5776 73.6644C75.3383 73.6644 75.0449 73.798 74.8864 73.7353C74.2023 73.468 73.5152 73.9165 72.8506 73.6644C72.9794 73.1653 73.4518 73.057 73.8271 72.8889C75.9539 71.9474 78.2013 71.3703 80.4406 70.7629C80.5878 70.7224 80.7473 70.7396 80.8905 70.6809C82.0391 70.4157 83.187 70.1524 84.3342 69.8913C84.7759 69.7907 85.2217 69.7073 85.6716 69.6412C85.8271 69.6189 85.9784 69.5946 86.0643 69.7677C85.8802 70.0482 85.5704 70.0127 85.2995 70.037C88.7361 69.95 92.1768 69.9763 95.6174 69.9793C95.9191 69.9793 96.2309 69.9905 96.4723 70.2263C96.4723 70.2932 96.4723 70.36 96.4723 70.4288C95.9825 71.1375 96.0346 71.34 96.779 71.6437C98.2309 72.3179 99.7442 72.811 101.285 73.2574C102.239 73.5237 103.187 73.8061 104.137 74.0845Z" fill="#E2C26F"/>
<path d="M78.7846 60.9165C77.6353 61.0967 76.4779 61.0076 75.3245 61.0096C68.4274 61.0177 61.531 61.0177 54.6353 61.0096C54.1987 61.0096 53.7611 60.9843 53.3255 60.9519C53.2506 60.9422 53.1743 60.9524 53.1047 60.9814C53.035 61.0104 52.9743 61.0571 52.9288 61.1169C52.5198 61.1169 52.1895 61.0015 52.0791 60.5581C52.1155 60.4998 52.1693 60.4541 52.233 60.4274C52.2968 60.4008 52.3674 60.3944 52.4349 60.4093C53.2192 60.4963 53.9953 60.3364 54.7785 60.3384C61.9963 60.3576 69.2141 60.3323 76.4319 60.3576C77.1814 60.3576 77.9278 60.3971 78.5924 60.8071C78.632 60.8032 78.6718 60.8116 78.7063 60.8312C78.7407 60.8508 78.7681 60.8806 78.7846 60.9165Z" fill="#D3B769"/>
<path d="M78.5929 60.8092C77.78 60.4842 76.9191 60.5176 76.0724 60.5166C68.8046 60.5045 61.536 60.5018 54.2667 60.5085C53.5949 60.5085 52.9273 60.711 52.2524 60.5298C52.1502 60.5035 52.1307 60.6209 52.1236 60.708C52.0882 60.7421 52.0427 60.7642 51.9937 60.7707C51.8148 60.7424 51.6512 60.6948 51.5949 60.4943C51.5162 60.2848 51.4927 60.1451 51.8148 60.1511C52.3199 60.1603 52.825 60.1056 53.3301 60.1056C60.7602 60.1056 68.188 60.1056 75.6133 60.1056C76.1972 60.1056 76.78 60.1643 77.3639 60.1957C77.7841 60.3769 78.234 60.5065 78.5929 60.8092Z" fill="#E4D382"/>
<path d="M96.5804 67.4828C96.6637 67.4835 96.7469 67.4764 96.8289 67.4616C97.5692 67.2723 97.6172 67.168 97.2982 66.4694C97.5027 66.3581 97.7256 66.3783 97.9465 66.3783C100.854 66.3783 103.763 66.3915 106.671 66.3682C107.303 66.3682 107.939 66.3824 108.572 66.2903C108.892 66.2437 109.272 66.1769 109.461 66.5859C108.496 66.9524 107.465 67.0587 106.463 67.252C104.641 67.6043 102.817 67.9384 101.012 68.3717C99.4966 68.7362 98.0047 69.1441 96.6919 70.0199C96.6147 70.0813 96.5429 70.149 96.4771 70.2223C92.5497 70.0128 88.6213 70.1484 84.6162 70.1545C85.0947 69.87 85.6387 69.9875 86.0477 69.7151C86.0744 69.7082 86.102 69.7058 86.1295 69.708C86.4148 69.5197 86.7675 69.6392 87.0661 69.5056C87.8412 69.294 88.6428 69.2019 89.4178 68.9994C89.9659 68.9062 90.5027 68.7574 91.0538 68.6957C91.3432 68.5458 91.6765 68.5944 91.9741 68.4932C92.3043 68.3666 92.6632 68.3828 92.9966 68.2907L96.5804 67.4828Z" fill="#D3AE5F"/>
<path d="M57.2317 69.2149C56.8074 69.7798 56.107 69.8537 55.5252 70.1109C53.8237 70.858 52.0569 71.4462 50.29 72.0182C48.1561 72.7086 46.0282 73.4244 43.8483 73.9852C43.0027 74.2039 42.1745 74.4914 41.336 74.7405C41.0477 74.8265 40.7552 74.9024 40.4649 74.9834C39.879 75.0978 39.3002 75.2466 38.7205 75.3884C38.2604 75.4562 38.019 75.3631 37.9372 74.8052C37.7818 73.7554 37.062 72.9759 36.3728 72.2196C35.6837 71.4634 34.9413 70.7497 34.2256 70.0187C34.8677 70.288 35.5109 70.04 36.155 70.037C41.1397 70.0137 46.1233 69.9995 51.107 70.0521C51.8227 70.0602 52.5845 69.9175 53.2982 70.2121C53.4884 70.2911 53.6959 70.1797 53.8953 70.1382C54.1653 70.0805 54.4066 70.0035 54.7133 70.1544C54.9965 70.2921 55.334 70.0046 55.6387 69.8881C56.1775 69.6796 56.699 69.4407 57.2317 69.2149Z" fill="#E4C471"/>
<path d="M57.2407 39.4592C58.6858 38.7557 60.2135 38.2327 61.7888 37.9022C62.7772 37.683 63.7785 37.5251 64.7868 37.4294C65.4064 37.3646 66.026 37.2543 66.6467 37.2421C68.1589 37.2148 69.6753 37.1622 71.1814 37.2502C73.2694 37.3727 75.3471 37.6329 77.3614 38.2393C79.5063 38.7421 81.5641 39.5568 83.4677 40.6569C83.7019 40.7895 83.661 40.8887 83.4974 41.0244C83.3951 41.1104 83.2929 41.1944 83.1906 41.2785C82.2336 41.8181 81.2745 42.3536 80.3225 42.8983C80.0935 43.0299 79.935 42.8983 79.7581 42.8102C78.0389 41.9667 76.2177 41.3448 74.3389 40.9596C72.0761 40.501 69.8011 40.4665 67.5107 40.6559C65.2009 40.8502 62.9851 41.4415 60.8031 42.1805C59.7499 41.323 58.5874 40.6174 57.479 39.8368C57.3634 39.7629 57.164 39.6799 57.2407 39.4592Z" fill="#F1E086"/>
<path d="M59.9922 93.9999C60.4391 93.1262 60.074 92.3973 59.571 91.6937C58.3573 90.0203 56.7816 88.7103 55.1814 87.4266C54.6947 87.0358 54.211 86.639 53.6947 86.2846C53.6037 86.2219 53.4738 86.1662 53.5423 86.0103C53.5873 85.5922 53.0515 85.5487 52.9912 85.1599C53.3777 84.9878 53.7806 85.1073 54.1691 85.1073C62.4936 85.1012 70.8177 85.1012 79.1415 85.1073C80.1968 85.1073 81.2533 85.1073 82.3113 85.1073C82.5362 85.1073 82.7407 85.086 82.8317 85.3786C82.889 85.5638 83.0669 85.6276 83.2336 85.4656C83.3726 85.33 83.4084 85.0293 83.6477 85.0728C83.9515 85.1287 84.2301 85.2774 84.4442 85.498C84.5812 85.6377 84.7244 85.744 84.933 85.7147C85.4831 86.4061 85.3491 87.1209 84.5689 87.5076C83.1528 88.2041 81.6313 88.6222 80.1109 89.0272C77.891 89.6184 75.6599 90.1681 73.4329 90.733C73.0301 90.8342 72.5904 90.817 72.2428 91.0944C71.4053 91.4163 70.5137 91.5287 69.6518 91.7565C68.2847 92.1179 66.891 92.3852 65.5158 92.7061C63.8522 93.0938 62.1906 93.4897 60.5495 93.9665C60.3767 94.0181 60.1814 93.9878 59.9922 93.9999Z" fill="#E9C565"/>
<path d="M84.5116 67.2864C84.1292 67.6742 83.5852 67.7076 83.1128 67.8756C81.3858 68.4831 79.6425 69.053 77.9104 69.6503C77.1946 69.8973 76.4942 70.2436 75.7222 70.3306C74.802 70.4319 73.984 70.8763 73.1241 71.179C72.5341 71.3886 71.9186 71.5283 71.35 71.8097C71.0433 71.9636 70.7539 71.6629 70.394 71.6771C68.894 71.7328 67.3899 71.6558 65.8869 71.6437C64.4237 71.6326 62.9594 71.6548 61.4963 71.6336C61.0576 71.6275 60.6374 71.8361 60.21 71.7227C60.6394 71.1709 61.3521 71.2013 61.9237 70.929C62.7877 70.6627 63.6435 70.358 64.5208 70.1454C65.032 70.0219 65.5024 69.787 66.0218 69.708C66.0511 69.6929 66.0815 69.68 66.1128 69.6696C66.7795 69.3426 66.8112 69.1867 66.2928 68.6865C66.0841 68.4932 65.8543 68.3234 65.6077 68.1804C65.4615 68.0923 65.2447 68.0417 65.301 67.7916C65.4687 67.8007 65.6507 67.7471 65.7979 67.8523C66.0586 68.0386 66.2652 67.8777 66.3419 67.6934C66.4615 67.4059 66.5934 67.4909 66.7999 67.5537C66.9822 67.593 67.1693 67.6052 67.3552 67.5901H81.3858C81.6568 67.5901 81.9278 67.576 82.1905 67.6772C82.7805 67.905 83.2856 67.5679 83.8204 67.4261C84.0484 67.3694 84.2642 67.255 84.5116 67.2864Z" fill="#D6B262"/>
<path d="M78.8934 49.5779C78.7914 49.5888 78.6883 49.5871 78.5867 49.5728C78.4313 49.5343 78.2288 49.7368 78.1307 49.5313C78.0468 49.3551 78.2718 49.3481 78.3689 49.2802C78.5928 49.1233 78.7442 49.2326 78.8566 49.4331C78.8748 49.4794 78.8855 49.5283 78.8883 49.5779H78.8934Z" fill="#F6EA91"/>
<path d="M70.6061 51.9085C70.3812 52.2199 70.1046 52.4914 69.7881 52.7113C69.8578 52.527 69.9671 52.3598 70.1083 52.2212C70.2495 52.0826 70.4193 51.9759 70.6061 51.9085Z" fill="#F6EA91"/>
<path d="M66.1107 49.5819C65.9205 49.7085 65.7906 49.6933 65.582 49.5728C65.8049 49.4595 65.9368 49.4433 66.1107 49.5819Z" fill="#F6EA91"/>
<path d="M52.0088 60.7181L52.1243 60.7079L52.928 61.119C52.9306 61.1503 52.9306 61.1818 52.928 61.2131" fill="#C6BA9E"/>
<path d="M89.4211 69.0065C88.6624 69.295 87.8669 69.4114 87.0693 69.5126C87.8178 69.1907 88.6215 69.1037 89.4211 69.0065Z" fill="#E2C26F"/>
<path d="M91.0559 68.7007C90.5222 68.8647 89.9884 69.0266 89.4199 69.0044C89.9506 68.8232 90.4823 68.6581 91.0559 68.7007Z" fill="#E2C26F"/>
<path d="M87.0694 69.5106C86.7805 69.658 86.4575 69.7278 86.1328 69.713C86.3823 69.3557 86.7596 69.5895 87.0694 69.5106Z" fill="#E2C26F"/>
<path d="M93.002 68.2978C92.6849 68.4527 92.3324 68.5225 91.9795 68.5003C92.2842 68.2644 92.6482 68.3049 93.002 68.2978Z" fill="#E2C26F"/>
<path d="M91.9779 68.5012C91.6924 68.642 91.3765 68.7115 91.0576 68.7037C91.3143 68.4233 91.6609 68.5275 91.9779 68.5012Z" fill="#E2C26F"/>
</g>
<defs>
<clipPath id="clip0_713_4252">
<rect width="92" height="89" fill="white" transform="translate(24 5)"/>
</clipPath>
</defs>
</svg>
