<svg width="140" height="100" viewBox="0 0 140 100" fill="none" xmlns="http://www.w3.org/2000/svg">
<path d="M116.17 39.9531C113.12 37.5882 109.829 35.5512 106.351 33.8758C98.9939 30.3536 91.2767 28.3765 83.0793 28.8477C72.2896 29.4649 63.5421 33.9046 57.527 43.0946C54.9676 47.0035 53.69 51.398 53.2367 56.029C53.1707 56.6976 52.9667 56.8519 52.3155 56.8519C38.4857 56.8286 24.6537 56.8225 10.8197 56.8334C9.83887 56.8334 9.84505 56.6277 10.2819 55.8624C17.3438 43.4937 27.5916 34.781 40.7613 29.4464C52.2393 24.7968 64.1912 23.3382 76.4769 24.264C88.6885 25.1856 100.049 28.8086 110.478 35.2459C112.287 36.3631 114.028 37.588 115.689 38.9142C115.976 39.1405 116.367 39.3133 116.17 39.9531ZM27.1362 49.3715C27.6165 49.3397 28.0983 49.3397 28.5786 49.3715C30.8042 49.6986 32.3188 48.9374 33.4233 46.8698C34.5567 44.7528 36.2011 42.9403 37.794 41.0414C35.418 40.774 33.3347 40.9509 31.9891 43.144C31.783 43.4896 31.4409 43.7612 31.1648 44.0636C29.693 45.7316 28.3465 47.5058 27.1362 49.3715ZM39.1396 36.5379C40.376 36.5379 41.4496 36.972 42.2162 36.505C43.6586 35.6224 44.928 34.4333 46.4447 33.2298C45.3546 33.2565 44.4623 32.8553 43.6463 33.345C42.0748 34.3084 40.5692 35.375 39.1396 36.5379ZM48.7691 30.5717C51.3841 31.3946 53.2037 29.2962 55.4931 28.8559C52.9502 28.2655 50.9699 29.7611 48.7691 30.5676V30.5717ZM63.573 26.9549C61.5618 26.4056 59.7031 27.1607 57.597 27.5001C59.8164 28.2058 61.6545 27.1627 63.573 26.9549Z" fill="#040404"/>
<path d="M60.1045 43.7365C67.9866 41.457 76.0438 41.1813 84.134 41.8396C99.383 43.074 113.414 47.6433 125.772 57.3498C122.887 57.3498 120.266 57.3745 117.647 57.3498C107.22 57.2284 96.7927 56.9651 86.3657 57.0433C85.3004 57.0433 84.7605 56.8704 84.4637 55.6916C83.4767 51.795 81.484 48.5259 77.8902 46.4563C75.0856 44.8372 72.0214 44.1212 68.8108 43.8044C65.9053 43.5184 63.0142 43.6048 60.1045 43.7365ZM105.829 54.3831C106.241 55.1053 106.628 55.7019 106.909 56.3499C107.115 56.8396 107.405 57.0247 107.916 56.9898C108.427 56.9548 108.947 56.9651 109.451 56.9671C109.901 56.9671 109.971 56.8211 109.767 56.4178C108.86 54.6177 108.034 54.1651 105.829 54.3831ZM99.6323 48.8284C100.864 49.4773 102.009 50.2777 103.041 51.2107C103.76 51.8835 104.543 51.6716 105.65 51.5543C103.649 50.3672 102.258 48.6123 99.6344 48.8345L99.6323 48.8284ZM91.979 45.765C93.7491 46.1127 95.3214 47.2051 97.1966 47.1866C95.5131 46.4954 93.8645 45.7794 91.979 45.7712V45.765ZM86.1102 44.3455C85.2674 44.1397 84.4431 43.8599 83.5405 43.9731C83.6931 44.0892 83.8751 44.1604 84.066 44.1788C84.7481 44.2282 85.4013 44.51 86.1102 44.3516V44.3455Z" fill="#D9050F"/>
<path d="M113.442 76.1743C115.01 73.8495 116.407 71.6605 117.936 69.5641C118.614 68.6342 118.579 67.9882 117.909 67.0788C116.654 65.3713 115.556 63.5505 114.361 61.7956C113.926 61.1599 114.113 60.9727 114.8 60.9953C115.795 61.0159 116.801 61.1064 117.781 60.9953C118.935 60.8719 119.519 61.3657 119.966 62.3593C120.481 63.5188 121.141 64.6088 121.93 65.6037C122.665 64.3117 123.372 63.1061 124.038 61.8738C124.359 61.2731 124.718 60.9645 125.48 61.0118C126.838 61.092 128.202 61.0344 129.84 61.0344C128.577 62.9683 127.481 64.6841 126.337 66.3835C124.915 68.4943 124.913 68.4758 126.352 70.5866C127.508 72.2859 128.619 74.0141 129.77 75.7134C130.145 76.2668 130.092 76.4623 129.383 76.4438C128.045 76.4067 126.707 76.4019 125.369 76.4294C124.87 76.4294 124.643 76.1969 124.417 75.8122C123.737 74.6642 122.985 73.5491 122.342 72.3867C121.878 71.5432 121.614 71.7428 121.217 72.4196C120.559 73.5409 119.807 74.6086 119.156 75.7381C118.855 76.2668 118.49 76.4047 117.919 76.3985C115.035 76.3635 112.15 76.3491 109.277 76.3738C108.618 76.3738 108.317 76.1948 108.135 75.5385C107.651 73.7692 107.618 73.7775 105.774 73.7898C104.915 73.7898 104.051 73.8659 103.202 73.7898C102.417 73.7199 102.157 74.049 101.951 74.7547C101.405 76.6063 101.867 76.2792 99.8412 76.3141C98.984 76.3286 98.1247 76.2895 97.2674 76.3286C96.6492 76.3553 96.5915 76.1516 96.7976 75.6188C98.6014 70.9555 100.387 66.2923 102.155 61.629C102.349 61.1208 102.619 60.9542 103.14 60.9665C104.307 60.9974 105.475 61.018 106.643 60.9665C107.424 60.9274 107.775 61.2237 108.043 61.954C109.675 66.3835 111.36 70.8005 113.03 75.2053C113.135 75.446 113.246 75.6928 113.442 76.1743ZM104.993 65.6469C104.327 66.3896 104.315 67.3195 104.047 68.1384C103.256 70.5536 103.276 70.5392 105.865 70.4755C106.507 70.459 106.613 70.2697 106.448 69.6957C106.057 68.3141 105.571 66.9612 104.993 65.6469Z" fill="#D9050F"/>
<path d="M86.5114 69.953C87.1914 67.3793 87.8117 65.0751 88.4051 62.7648C88.875 60.942 88.8626 60.9358 90.779 60.9379C91.9804 60.9379 93.1818 60.9646 94.3831 60.9379C94.9354 60.9255 95.1786 61.086 95.1744 61.6888C95.1456 66.3123 95.1367 70.9351 95.1477 75.5572C95.1477 76.232 94.8798 76.3698 94.2863 76.3307C93.6004 76.2781 92.9115 76.2781 92.2256 76.3307C91.422 76.4027 91.1706 76.125 91.1953 75.3021C91.2489 72.4609 91.2262 69.6177 91.2241 66.7765C91.2241 66.4782 91.3169 66.1593 90.9975 65.7479C90.8079 66.4556 90.6389 67.0646 90.4802 67.6776C89.8043 70.2596 89.1078 72.8353 88.4773 75.4276C88.3145 76.1044 88.0074 76.2772 87.3501 76.2752C84.7042 76.2752 84.7062 76.2937 84.053 73.7611C83.4499 71.4473 82.8454 69.1329 82.2396 66.8177C82.1572 66.5029 82.0335 66.2005 81.9078 65.824C81.609 66.2169 81.7244 66.5626 81.7224 66.8815C81.7059 69.7226 81.6832 72.5658 81.7121 75.4091C81.7121 76.0797 81.5287 76.3431 80.8487 76.2855C79.8637 76.2032 78.6211 76.6661 77.9637 76.0797C77.3064 75.4934 77.77 74.2693 77.7576 73.327C77.735 69.5272 77.7803 65.7252 77.7432 61.9233C77.7432 61.1004 77.9905 60.8741 78.7921 60.9091C80.2346 60.9728 81.677 60.9708 83.1195 60.9091C83.8758 60.8782 84.1972 61.1148 84.3745 61.8657C84.9205 64.1617 85.549 66.4371 86.1487 68.7207C86.2394 69.0396 86.3321 69.3544 86.5114 69.953Z" fill="#D9050F"/>
<path d="M21.1568 69.3892C23.8748 70.8951 24.3055 73.796 25.9808 76.1639H20.6663C20.2707 76.1639 20.1965 75.8142 20.0481 75.5467C19.2836 74.1704 18.5315 72.7879 17.7649 71.4136C17.6052 71.115 17.419 70.8313 17.2085 70.566C17.0399 70.3452 16.8126 70.1761 16.5525 70.0779C16.2924 69.9797 16.0099 69.9563 15.7372 70.0105C15.1314 70.1524 15.4631 70.7635 15.4508 71.1502C15.4054 72.5904 15.4054 74.0305 15.4302 75.4706C15.4302 75.987 15.3086 76.201 14.746 76.1824C13.5467 76.1434 12.3433 76.1413 11.144 76.1824C10.6123 76.1989 10.5361 75.9767 10.5381 75.522C10.5519 70.867 10.5519 66.2113 10.5381 61.5549C10.5381 61.0714 10.6741 60.9068 11.1728 60.913C14.2247 60.9459 17.2827 60.8389 20.3284 60.9932C23.6996 61.164 25.4265 63.7212 24.3467 66.7167C23.8336 68.1363 22.7105 68.9366 21.1568 69.3892ZM17.0354 63.999C16.6913 63.999 16.3472 63.9599 16.0051 63.999C15.5559 64.0401 15.5559 64.2459 15.4425 64.6902C15.3436 65.0688 14.8449 66.6262 15.8938 67.0068C16.7366 67.3113 17.7938 67.122 18.7252 66.8401C19.0307 66.7707 19.3007 66.5929 19.4848 66.3398C19.669 66.0866 19.755 65.7754 19.7267 65.4638C19.704 64.7705 19.3619 64.285 18.6634 64.1492" fill="#040404"/>
<path d="M61.1406 68.4223C61.1406 66.1592 61.1406 63.8962 61.1406 61.6454C61.1406 61.3368 60.9964 60.9069 61.5692 60.913C64.38 60.946 67.2011 60.7546 69.9974 61.0468C72.7525 61.3348 74.3063 63.0917 75.0151 65.6572C75.4805 67.4206 75.5306 69.2676 75.1614 71.0536C74.5968 74.0264 72.5444 75.915 69.4019 76.1187C66.8404 76.2833 64.2605 76.164 61.6888 76.2051C61.0335 76.2154 61.0932 75.8286 61.0932 75.4048C61.0932 73.0732 61.0932 70.7457 61.0932 68.4223H61.1406ZM65.9358 68.4737C65.9358 69.2267 65.9358 69.9776 65.9358 70.7368C65.9152 72.7941 65.9111 72.7941 68.0109 72.6583C69.3132 72.5698 70.0036 71.9855 70.3415 70.7409C70.5785 69.8665 70.5476 68.9777 70.527 68.091C70.4734 65.3589 69.3771 64.3549 66.6302 64.4146C66.1089 64.4249 65.9028 64.536 65.9234 65.0956C65.9647 66.2148 65.9358 67.3442 65.9358 68.4737Z" fill="#040404"/>
<path d="M34.0526 76.415C31.3346 76.415 28.6062 75.5695 27.2173 72.5267C25.9335 69.7061 25.9809 66.7909 27.479 64.0258C28.3157 62.4931 29.6902 61.5365 31.3778 61.0448C33.0999 60.5456 34.9181 60.4749 36.6738 60.8391C40.2861 61.5571 42.2974 63.9621 42.4787 67.6529C42.557 69.2412 42.4643 70.8068 41.844 72.2922C40.7003 75.0222 38.0936 76.4768 34.0526 76.415ZM37.6794 68.8029C37.6176 67.9512 37.6361 67.1571 37.3826 66.4041C36.9231 65.0319 35.9237 64.2789 34.475 64.2563C33.0264 64.2336 31.9837 64.9414 31.5365 66.3342C31.1036 67.7145 31.0835 69.191 31.4788 70.5825C31.891 72.1584 32.9213 72.8847 34.5698 72.862C36.0762 72.8394 37.0303 72.0947 37.4197 70.5537C37.5381 69.9732 37.6248 69.3867 37.6794 68.7968V68.8029Z" fill="#040404"/>
<path d="M51.2383 60.9008C53.8554 60.9234 53.8368 60.9296 54.7518 63.3696C56.2128 67.2785 57.7027 71.1689 59.1781 75.0696C59.5902 76.1702 59.5902 76.1723 58.4692 76.1743C57.9541 76.1743 57.4389 76.1743 56.9258 76.1743C56.1736 76.1743 55.3102 76.3801 54.6982 76.0777C54.0862 75.7752 54.1975 74.8103 53.9522 74.1499C53.8265 73.8105 53.6637 73.6624 53.2928 73.6644C51.8504 73.6768 50.4079 73.687 48.9654 73.648C48.3925 73.6336 48.3163 73.9627 48.1906 74.3845C47.6548 76.1702 47.6425 76.1661 45.7343 76.162C44.9801 76.162 44.2238 76.1394 43.4675 76.162C42.9173 76.1846 42.7216 76.0756 42.9503 75.479C44.7596 70.7965 46.5517 66.1065 48.3266 61.4089C48.4935 60.9728 48.7387 60.8617 49.1694 60.8802C49.8659 60.9214 50.5521 60.9008 51.2383 60.9008ZM51.1106 64.9928C50.5562 66.7827 50.1008 68.2845 49.6207 69.7946C49.5074 70.1464 49.5548 70.3069 49.9525 70.3027C50.7376 70.3027 51.5227 70.3027 52.3078 70.3027C52.5778 70.3027 52.7838 70.239 52.6705 69.8913C52.1739 68.3421 51.6876 66.8032 51.1106 64.9928Z" fill="#040404"/>
</svg>
