<svg width="140" height="100" viewBox="0 0 140 100" fill="none" xmlns="http://www.w3.org/2000/svg">
<path d="M82.4676 36.8806C82.6883 36.9335 82.8963 37.0295 83.0799 37.1632C84.093 37.7426 85.0908 38.3489 86.1205 38.8948C86.5547 39.1261 86.7187 39.3856 86.7136 39.8891C86.6867 42.6818 86.7007 45.4745 86.7007 48.2672C86.7007 52.2066 86.7007 56.1486 86.7007 60.0931C86.7007 60.8639 86.7853 60.7688 86.0053 60.7701H53.5172C52.7731 60.7701 52.8602 60.8639 52.8602 60.1188C52.8602 53.3644 52.8563 46.6092 52.8486 39.8532C52.8486 39.4113 52.9588 39.1569 53.361 38.9411C54.4253 38.372 55.4589 37.7464 56.5067 37.1427C56.6796 37.045 56.8422 36.9166 57.051 36.8858C57.1573 37.1427 57.1086 37.3932 57.1086 37.6347C57.1086 43.65 57.1086 49.6661 57.1086 55.6831C57.1086 55.827 57.1189 55.9709 57.1086 56.1135C57.0843 56.3986 57.1893 56.5412 57.4929 56.513C57.6146 56.5014 57.7375 56.513 57.8605 56.513H81.685C81.7465 56.513 81.8131 56.513 81.8695 56.513C82.4612 56.513 82.4638 56.513 82.4638 55.9028C82.4638 49.8053 82.4638 43.7073 82.4638 37.609L82.4676 36.8806Z" fill="#D11B2D"/>
<path d="M69.9378 26.5704C66.8408 28.3225 63.7446 30.079 60.6493 31.8397C57.127 33.8394 53.6052 35.8412 50.0838 37.8452C49.8955 37.9518 49.729 38.1278 49.4434 38.1021C49.4434 36.788 49.4434 35.4777 49.4434 34.1687C49.4434 33.9362 49.5817 33.8527 49.7456 33.7589C50.5295 33.3157 51.3095 32.8674 52.0921 32.423C57.872 29.1361 63.6528 25.8501 69.4344 22.565C69.6073 22.4674 69.7597 22.3081 69.9826 22.3158C69.9519 23.7353 70.0159 25.1535 69.9378 26.5704Z" fill="#D21D2F"/>
<path d="M22 75.3666C22 73.8251 22 72.2836 22 70.7485C22 70.245 22.009 70.2347 22.5123 70.2347C24.3337 70.2347 26.155 70.2347 27.9763 70.2347C28.6328 70.2317 29.2842 70.3506 29.8975 70.5854C30.9734 71.0016 31.6446 71.771 31.8879 72.8976C32.1057 73.9073 32.0813 74.8952 31.5882 75.8329C31.392 76.2192 31.1093 76.5547 30.7621 76.813C30.4983 77.0044 30.5136 77.1766 30.6584 77.4309C31.0951 78.2017 31.5114 78.9724 31.9392 79.7432C32.0083 79.8716 32.0826 79.9924 32.1403 80.1286C32.2286 80.329 32.1556 80.4471 31.9379 80.4574C31.7535 80.4664 31.569 80.4574 31.3846 80.4574C30.8121 80.4574 30.2318 80.4459 29.6657 80.4574C29.5554 80.47 29.444 80.4457 29.3488 80.3883C29.2537 80.331 29.18 80.2437 29.1393 80.1401C28.7884 79.4798 28.4041 78.8234 28.0698 78.1413C27.9046 77.806 27.7009 77.6467 27.3128 77.6686C26.7621 77.7007 26.2088 77.6686 25.6555 77.6776C25.0637 77.6776 25.0612 77.684 25.0586 78.307C25.0586 78.862 25.0586 79.4156 25.0586 79.977C25.0509 80.4484 25.0355 80.4638 24.577 80.469C23.8802 80.469 23.1848 80.469 22.4893 80.469C22.0154 80.4613 22 80.4536 22 79.986C22 78.4458 22 76.9068 22 75.3666ZM26.6033 75.3807C26.9491 75.3627 27.3718 75.4154 27.8047 75.3435C28.5988 75.215 28.9651 74.7821 28.9382 74.0101C28.9126 73.2997 28.4963 72.8539 27.7266 72.8193C26.9568 72.7846 26.1755 72.8077 25.4006 72.7961C25.1278 72.7961 25.0471 72.9246 25.0496 73.1751C25.0548 73.7891 25.0548 74.4032 25.0496 75.0172C25.0496 75.2741 25.1636 75.3872 25.4185 75.3833C25.7874 75.3769 26.155 75.3807 26.611 75.3807H26.6033Z" fill="#3F4147"/>
<path d="M87.8127 75.3345C87.8127 78.3212 85.9337 80.4125 82.9622 80.7516C82.0264 80.8702 81.0763 80.8008 80.1675 80.5474C77.2818 79.715 76.1431 77.2267 76.4019 74.7436C76.7016 71.8816 78.6869 70.0626 81.5918 69.8943C82.4303 69.8347 83.2728 69.9216 84.0817 70.1512C86.414 70.8423 87.8101 72.7872 87.8127 75.3345ZM79.4144 75.3692C79.4208 76.6538 80.1098 77.6635 81.2267 78.0129C82.8841 78.5267 84.918 77.5594 84.7656 75.1084C84.6952 73.9742 84.1675 73.0955 83.048 72.7165C81.2139 72.0948 79.39 73.2394 79.4144 75.3692Z" fill="#3F4147"/>
<path d="M76.142 75.3617C76.142 76.8801 76.142 78.3985 76.142 79.9169C76.142 80.459 76.1343 80.4628 75.6015 80.4667C74.906 80.4667 74.2105 80.4551 73.515 80.4667C73.1961 80.4744 73.0783 80.3575 73.0821 80.0402C73.0936 79.096 73.0898 78.1518 73.0821 77.2141C73.0821 76.6527 73.0731 76.6489 72.4942 76.6476C71.4516 76.6476 70.4086 76.6476 69.3652 76.6476C68.7747 76.6476 68.7721 76.6476 68.7696 77.2719C68.7696 78.1711 68.7696 79.078 68.7696 79.9811C68.7696 80.4538 68.7581 80.4615 68.2918 80.4654C67.5759 80.4654 66.8586 80.4551 66.1439 80.4654C65.8224 80.4731 65.7084 80.3472 65.711 80.035C65.7212 79.1114 65.711 78.1878 65.711 77.2655V70.9928C65.711 70.849 65.711 70.7051 65.711 70.5625C65.711 70.3326 65.8147 70.2324 66.0478 70.2337C66.8445 70.2401 67.6425 70.2439 68.4404 70.2337C68.7337 70.2337 68.7683 70.3942 68.7683 70.6255C68.7683 71.508 68.7683 72.3905 68.7683 73.2717C68.7683 73.4156 68.7683 73.5594 68.7683 73.7033C68.7683 73.9602 68.8874 74.072 69.1436 74.0681C69.6764 74.0681 70.2079 74.0681 70.7395 74.0681C71.353 74.0681 71.9678 74.0681 72.5813 74.0681C73.0475 74.0681 73.0731 74.0437 73.0783 73.5851C73.0872 72.7232 73.0783 71.8612 73.0783 70.9993C73.0783 70.8554 73.0783 70.7115 73.0783 70.5689C73.0783 70.3403 73.1743 70.2362 73.41 70.2375C74.2079 70.2439 75.0059 70.2465 75.8026 70.2375C76.092 70.2375 76.1369 70.3929 76.1356 70.6229C76.1356 71.4437 76.1356 72.2633 76.1356 73.0842L76.142 75.3617Z" fill="#404248"/>
<path d="M32.7858 75.327C32.7858 73.8489 32.7858 72.3708 32.7858 70.8926C32.7858 70.2388 32.7858 70.2362 33.407 70.2362H41.2034C41.781 70.2362 41.7823 70.2362 41.7862 70.8078C41.7862 71.2793 41.7938 71.752 41.7862 72.2209C41.7785 72.6898 41.7708 72.6975 41.293 72.6988C39.7996 72.6988 38.3062 72.6988 36.8102 72.6988C35.7343 72.6988 35.847 72.5498 35.8444 73.6956C35.8444 74.2904 35.8508 74.2942 36.4733 74.2955C37.9872 74.2955 39.5012 74.2955 41.0151 74.2955C41.5582 74.2955 41.5594 74.3045 41.5659 74.8389C41.5659 75.1883 41.5659 75.5364 41.5659 75.8858C41.5569 76.3573 41.5479 76.3753 41.083 76.3778C39.9366 76.3778 38.7916 76.3778 37.6453 76.3778C37.1944 76.3778 36.7487 76.3714 36.2953 76.3778C35.8752 76.3855 35.8457 76.4086 35.8457 76.839C35.8457 78.175 35.7176 77.9579 36.9331 77.9669C38.3856 77.9784 39.8393 77.9669 41.2879 77.9669C41.7695 77.9669 41.7759 77.9784 41.7823 78.4396C41.7823 78.9534 41.79 79.4673 41.7823 79.9811C41.7746 80.4243 41.758 80.4487 41.3404 80.4487C38.6387 80.4538 35.9375 80.4538 33.2367 80.4487C32.7973 80.4487 32.7858 80.4333 32.7845 79.9284C32.7833 78.4049 32.7858 76.866 32.7858 75.327Z" fill="#404248"/>
<path d="M100.056 77.1202C100.239 77.1202 100.425 77.1331 100.608 77.1202C101.057 77.0842 101.434 77.0932 101.588 77.6674C101.674 77.9847 102.041 78.1299 102.356 78.2211C103.147 78.4517 103.985 78.4632 104.782 78.2545C105.357 78.1055 105.679 77.7638 105.658 77.3643C105.64 76.9905 105.344 76.6809 104.762 76.5614C103.822 76.3662 102.87 76.2223 101.925 76.0476C101.422 75.9514 100.931 75.8037 100.459 75.607C98.3498 74.7476 98.5087 71.82 99.965 70.8206C100.402 70.5097 100.892 70.2816 101.411 70.1475C102.887 69.7756 104.433 69.7756 105.909 70.1475C107.398 70.5226 108.247 71.495 108.394 72.9209C108.457 73.5182 108.42 73.5632 107.838 73.5632C107.257 73.5632 106.692 73.5632 106.119 73.5632C105.876 73.5632 105.688 73.5362 105.59 73.2639C105.397 72.7218 104.94 72.4867 104.421 72.3801C103.876 72.2739 103.317 72.2704 102.771 72.3698C102.568 72.4015 102.375 72.4773 102.204 72.592C101.712 72.9312 101.709 73.5324 102.204 73.8663C102.501 74.0667 102.844 74.1233 103.191 74.1798C104.137 74.3506 105.084 74.5074 106.028 74.6846C106.513 74.7749 106.979 74.9446 107.408 75.1869C108.176 75.6211 108.611 76.2685 108.681 77.1626C108.809 78.7465 108.152 79.8037 106.66 80.3587C105.466 80.8031 104.22 80.8481 102.967 80.7877C102.273 80.7674 101.584 80.6564 100.918 80.4576C99.509 80.0093 98.7828 79.1023 98.6521 77.6418C98.6086 77.16 98.6355 77.1279 99.1401 77.1202C99.4411 77.1138 99.7459 77.1202 100.056 77.1202Z" fill="#3F4147"/>
<path d="M109.005 75.3656C109.005 73.8241 109.005 72.2826 109.005 70.7411C109.005 70.2414 109.014 70.2336 109.518 70.2336C112.159 70.2336 114.8 70.2336 117.441 70.2336C117.984 70.2336 117.988 70.2413 117.993 70.7745C117.993 71.2472 117.993 71.7199 117.993 72.1875C117.986 72.6846 117.981 72.6923 117.466 72.6936C115.91 72.6936 114.354 72.6936 112.798 72.6936C112.656 72.6936 112.512 72.6936 112.369 72.6936C112.166 72.6936 112.064 72.7823 112.065 72.9865C112.067 73.007 112.067 73.0276 112.065 73.0482C111.958 74.2904 111.958 74.2904 113.21 74.2904C114.5 74.2904 115.789 74.2904 117.078 74.2904C117.847 74.2904 117.758 74.2827 117.761 75.0059C117.761 75.2936 117.761 75.5814 117.761 75.8691C117.752 76.3637 117.75 76.3701 117.232 76.374C116.414 76.374 115.594 76.374 114.775 76.374C114.039 76.374 113.301 76.374 112.565 76.374C112.079 76.374 112.064 76.3842 112.068 76.839C112.077 78.1762 111.904 77.9579 113.145 77.9681C114.577 77.9797 116.01 77.9681 117.443 77.9681C117.988 77.9681 117.992 77.9771 117.997 78.5102C117.997 79.0035 118.004 79.4955 117.997 79.9888C117.988 80.4178 117.97 80.441 117.541 80.4448C116.599 80.4525 115.658 80.4448 114.715 80.4448C112.996 80.4448 111.276 80.4448 109.557 80.4448C109.017 80.4448 109.011 80.4384 109.009 79.9027C109.003 78.3985 109.005 76.8839 109.005 75.3656Z" fill="#3F4147"/>
<path d="M98.4271 73.7827C98.3938 74.6665 98.4834 75.734 98.372 76.8002C98.1389 79.0483 96.9977 80.3059 94.7857 80.6861C93.6537 80.8869 92.4933 80.8616 91.371 80.6116C89.4191 80.1697 88.2817 78.8697 88.1382 76.8709C88.0102 75.0262 88.1049 73.1764 88.0793 71.3292C88.0793 71.0838 88.0793 70.8372 88.0793 70.5905C88.0793 70.3439 88.1908 70.2283 88.4546 70.2321C89.2526 70.2424 90.0518 70.2399 90.8497 70.2321C91.0854 70.2321 91.1827 70.3375 91.1815 70.5661C91.1815 70.9772 91.1815 71.387 91.1815 71.7981C91.1815 73.0715 91.1815 74.3445 91.1815 75.6171C91.1815 75.8419 91.1815 76.068 91.1981 76.2941C91.2404 77.0353 91.4876 77.6815 92.2036 77.9975C92.9964 78.3482 93.8046 78.3263 94.5539 77.8562C94.974 77.5915 95.1815 77.1625 95.2686 76.6808C95.3281 76.3368 95.3564 75.9881 95.3531 75.639C95.348 74.017 95.348 72.395 95.3531 70.773C95.3531 70.2399 95.3621 70.236 95.8962 70.2334C96.5519 70.2334 97.2073 70.2334 97.8622 70.2334C98.4232 70.2334 98.4283 70.2399 98.4296 70.8256C98.4296 71.7518 98.4271 72.6754 98.4271 73.7827Z" fill="#404248"/>
<path d="M52.2071 80.4665C51.8229 80.4665 51.4297 80.4549 51.0416 80.4665C50.8021 80.4768 50.6484 80.3971 50.5805 80.1646C50.5574 80.0863 50.5344 80.0066 50.5075 79.9295C50.1758 78.9943 50.1758 78.9944 49.1537 78.9944C48.1316 78.9944 47.1044 79.0072 46.0797 78.9866C45.7454 78.9802 45.52 79.0483 45.4636 79.4106C45.4523 79.45 45.4373 79.4883 45.4188 79.5249C45.0102 80.6502 45.2984 80.4408 44.1277 80.4613C43.5753 80.4699 43.0228 80.4699 42.4703 80.4613C42.0092 80.4536 41.958 80.3933 42.1258 79.9475C42.7073 78.37 43.3003 76.799 43.8869 75.2241C44.4368 73.7451 44.9859 72.2661 45.5341 70.7871C45.7403 70.2322 45.7428 70.2309 46.3026 70.2296C47.3874 70.2296 48.4723 70.2386 49.5558 70.2296C49.8812 70.2296 50.0682 70.2964 50.1963 70.6381C51.3362 73.734 52.5017 76.8221 53.6545 79.9128C53.8428 80.4177 53.8069 80.4588 53.2523 80.4652C52.9026 80.4703 52.5555 80.4665 52.2071 80.4665ZM49.2958 76.6243C49.2956 76.5379 49.2861 76.4518 49.2677 76.3674C48.9389 75.3962 48.6068 74.4268 48.2712 73.4591C48.2097 73.2818 48.1521 73.1122 47.9113 73.1019C47.6346 73.0917 47.5757 73.2908 47.5078 73.4873C47.3605 73.9125 47.2196 74.3416 47.0736 74.7719C46.8943 75.2947 46.7124 75.8188 46.5305 76.3404C46.4473 76.5768 46.5305 76.6924 46.7765 76.6911C47.1248 76.6911 47.4732 76.7014 47.8203 76.6911C48.3058 76.6693 48.795 76.7463 49.2958 76.6243Z" fill="#3F4147"/>
<path d="M54.0205 75.3656C54.0205 73.8455 54.0205 72.3258 54.0205 70.8066C54.0205 70.2413 54.0282 70.2388 54.6084 70.2362C55.2642 70.2362 55.9187 70.2362 56.5745 70.2362C57.0689 70.2362 57.0765 70.2465 57.0778 70.75C57.0778 72.8456 57.0778 74.9399 57.0778 77.0329C57.0778 77.999 57.0099 77.8795 57.9411 77.8833C59.35 77.8833 60.7666 77.8833 62.1793 77.8833C62.6545 77.8833 62.6635 77.8962 62.6712 78.3625C62.6801 78.8545 62.6712 79.3478 62.6712 79.841C62.6712 80.4564 62.6712 80.4602 62.0692 80.4615H56.0493C55.578 80.4615 55.1079 80.4615 54.6404 80.4615C54.0269 80.4615 54.0218 80.4615 54.0205 79.8565C54.0205 78.3612 54.0205 76.8642 54.0205 75.3656Z" fill="#404248"/>
<path d="M80.0404 28.0092C80.2671 28.0528 80.4464 28.1941 80.6411 28.3046C83.7663 30.0799 86.8864 31.8642 90.0218 33.6241C90.4061 33.8425 90.5675 34.075 90.5547 34.5233C90.5214 35.709 90.5431 36.8959 90.5431 38.0598C90.4022 38.1548 90.3164 38.0867 90.2319 38.0379L80.221 32.3369C80.1524 32.2938 80.0861 32.247 80.0225 32.1969C80.0293 30.8018 80.0353 29.4059 80.0404 28.0092Z" fill="#D21D2F"/>
<path d="M70.0789 19.3383L62.1942 23.8549L59.9899 25.1176C59.9198 24.9561 59.8959 24.7782 59.9207 24.6038C59.9207 23.5568 59.9374 22.5086 59.9079 21.4617C59.8964 21.0416 60.0258 20.804 60.3972 20.5933C62.9588 19.1392 65.5115 17.6606 68.0668 16.191C68.5791 15.8939 69.094 15.5984 69.6114 15.3047C69.7485 15.2276 69.8778 15.0966 70.061 15.1942C70.0456 16.5726 70.0136 17.9561 70.0789 19.3383Z" fill="#3F4147"/>
<path d="M70.076 47.9035C68.8887 48.5034 67.7603 49.2074 66.6076 49.8664C64.5813 51.0225 62.5653 52.1928 60.5416 53.3515C60.37 53.4491 60.215 53.5994 59.9601 53.6084C59.8833 53.4671 59.9204 53.3026 59.9204 53.1498C59.9204 52.063 59.9294 50.975 59.9102 49.8869C59.9102 49.5619 59.9934 49.3667 60.2854 49.201C63.4115 47.4154 66.5337 45.6238 69.6521 43.8262C69.7802 43.7556 69.9082 43.5796 70.0773 43.7569C70.0222 45.1404 70.0312 46.5226 70.076 47.9035Z" fill="#3F4147"/>
<path d="M70.0782 12.1882L63.6382 15.8736C62.5738 16.4813 61.5133 17.0979 60.4477 17.7042C60.3081 17.7838 60.1851 17.9033 60.0007 17.9071C59.847 17.8108 59.9213 17.6502 59.9213 17.5218C59.9149 16.3939 59.9213 15.266 59.911 14.1369C59.8988 14.0074 59.9273 13.8773 59.9926 13.7649C60.0578 13.6525 60.1565 13.5633 60.2748 13.51C63.3812 11.733 66.4833 9.95084 69.5812 8.16355C69.7464 8.06849 69.9168 7.88351 70.123 8.10317C70.0889 8.17648 70.0656 8.25437 70.0538 8.3344C70.0564 9.62027 70.0065 10.9049 70.0782 12.1882Z" fill="#3F4147"/>
<path d="M70.0782 33.6305C67.9315 34.8585 65.7853 36.087 63.6395 37.316C62.5751 37.9249 61.5133 38.5402 60.4477 39.1478C60.3094 39.2274 60.1851 39.3469 60.0007 39.3495C59.847 39.2544 59.9213 39.0925 59.9213 38.9641C59.9149 37.8349 59.9213 36.7071 59.911 35.5792C59.8989 35.4496 59.9275 35.3193 59.9927 35.2067C60.0579 35.0941 60.1565 35.0048 60.2748 34.951C63.3812 33.1757 66.4833 31.3936 69.5812 29.6046C69.7464 29.5095 69.9168 29.3245 70.123 29.5442C70.0889 29.6175 70.0656 29.6954 70.0538 29.7754C70.0564 31.0626 70.0065 32.3472 70.0782 33.6305Z" fill="#3F4147"/>
<path d="M70.0544 40.7509C68.5456 41.6073 67.0363 42.4637 65.5267 43.3201C63.8616 44.2745 62.1965 45.2392 60.5315 46.1937C60.3611 46.29 60.2062 46.439 59.9769 46.4378C59.8667 46.2862 59.9205 46.1192 59.9192 45.965C59.9192 44.8783 59.9192 43.7915 59.9116 42.7048C59.9116 42.4144 59.9679 42.2192 60.2484 42.0625C63.389 40.2692 66.5257 38.4686 69.6586 36.6608C69.7803 36.5914 69.9148 36.4038 70.0813 36.6042C70.0044 37.9877 70.0557 39.37 70.0544 40.7509Z" fill="#3F4147"/>
<path d="M80.0403 28.0093C80.0352 29.4069 80.0292 30.8041 80.0224 32.2009C79.0656 31.7898 78.1985 31.2105 77.2942 30.7018C75.0016 29.4172 72.7217 28.1043 70.4342 26.8069C70.2753 26.717 70.105 26.6489 69.9385 26.5705C70.0166 25.1575 69.9526 23.7354 69.9756 22.3173C70.1549 22.2967 70.2817 22.4175 70.4201 22.4958C73.5675 24.2788 76.7123 26.0653 79.8546 27.8551C79.9214 27.9003 79.9836 27.9519 80.0403 28.0093Z" fill="#99989E"/>
<path d="M70.0765 47.9036C70.0253 46.5227 70.0227 45.1405 70.0765 43.7595C70.4748 43.8238 70.7758 44.0858 71.1088 44.2734C73.9151 45.8829 76.7124 47.5067 79.5264 49.1008C79.9235 49.3256 80.058 49.5838 80.0477 50.0257C80.0208 51.1934 80.0387 52.3637 80.0387 53.5237C79.7979 53.638 79.6545 53.4774 79.5123 53.3952C77.2222 52.0798 74.933 50.7639 72.6445 49.4477C71.917 49.0289 71.1912 48.6097 70.4672 48.1901C70.3237 48.1104 70.1598 48.0667 70.0765 47.9036Z" fill="#99989E"/>
<path d="M70.0538 40.751C70.0538 39.3701 70.0039 37.9879 70.082 36.6069C70.5943 36.72 70.9927 37.0565 71.432 37.307C74.1849 38.8751 76.9318 40.4534 79.6728 42.042C79.8483 42.1422 80.0417 42.2154 80.0404 42.4788C80.0404 43.7865 80.0404 45.0942 80.0404 46.3839C79.8316 46.47 79.7189 46.3582 79.6011 46.2902C76.5689 44.5483 73.5377 42.8046 70.5072 41.0593C70.351 40.9681 70.205 40.8538 70.0538 40.751Z" fill="#99989E"/>
<path d="M70.0775 19.3382C70.0122 17.956 70.0442 16.5725 70.0596 15.1903C70.9165 15.5333 71.6747 16.0587 72.4701 16.5121C74.8512 17.8661 77.2156 19.2483 79.5966 20.601C79.9232 20.7873 80.0539 20.9928 80.0462 21.3717C80.0244 22.4778 80.0398 23.5851 80.0372 24.6924C80.0372 24.8093 80.0218 24.9249 80.0065 25.1214C79.2982 24.7207 78.6437 24.3507 77.9943 23.9833C75.5667 22.5865 73.1404 21.1889 70.7154 19.7904C70.49 19.6594 70.2389 19.5643 70.0775 19.3382Z" fill="#99989E"/>
<path d="M70.0789 33.6305C70.0072 32.3459 70.0572 31.0614 70.0546 29.7768C70.0664 29.6967 70.0897 29.6189 70.1238 29.5455C70.3236 29.5301 70.4747 29.6496 70.6361 29.7395C73.652 31.4737 76.6679 33.2092 79.6838 34.946C79.8874 35.0628 80.0501 35.172 80.0475 35.4521C80.0373 36.7431 80.0475 38.0328 80.0475 39.3688C79.5775 39.2403 79.2355 38.9731 78.8705 38.7637C76.1466 37.212 73.4296 35.6508 70.7193 34.0801C70.4926 33.9517 70.2416 33.8541 70.0789 33.6305Z" fill="#99989E"/>
<path d="M70.0789 12.1883C70.0072 10.9037 70.0572 9.61914 70.0546 8.33455C70.0664 8.25452 70.0897 8.17663 70.1238 8.10332C70.3453 8.09305 70.508 8.23178 70.6848 8.32813C73.6827 10.052 76.6807 11.7772 79.6787 13.5037C79.8823 13.6206 80.0463 13.7272 80.0437 14.0086C80.0335 15.2932 80.0437 16.5893 80.0437 17.924C79.5724 17.7955 79.2304 17.5296 78.8666 17.3202C76.1479 15.7676 73.4334 14.2064 70.7232 12.6366C70.4926 12.5095 70.2416 12.4118 70.0789 12.1883Z" fill="#99989E"/>
<path d="M62.1306 89.5473C62.1306 89.1183 62.1408 88.6879 62.1306 88.2627C62.1203 87.9827 62.2907 87.9827 62.4867 87.9801C62.6826 87.9776 62.8363 87.9994 62.8325 88.2704C62.8197 89.0489 62.8325 89.8287 62.8248 90.6071C62.8248 90.7561 62.8978 90.9642 62.657 91.0041C62.4559 91.0362 62.2523 91.0439 62.1063 90.8396C61.8911 90.5399 61.6682 90.2466 61.4377 89.9597C61.266 89.7477 61.1392 89.487 60.7896 89.2557C60.7896 89.8017 60.7755 90.2423 60.7896 90.6816C60.8024 90.9681 60.6615 91.0208 60.4207 91.0208C60.1799 91.0208 60.1248 90.8795 60.1261 90.6688C60.1261 89.9109 60.1261 89.1517 60.1261 88.3938C60.1261 88.2653 60.0595 88.0675 60.2299 88.0187C60.4373 87.957 60.682 87.9108 60.8523 88.1214C61.0713 88.3925 61.275 88.6738 61.4927 88.9487C61.6631 89.1697 61.8347 89.3868 62.0051 89.6051L62.1306 89.5473Z" fill="#404248"/>
<path d="M67.8773 87.9788C68.5728 87.9788 69.2247 87.9788 69.8766 87.9788C70.0803 87.9788 70.1687 88.0507 70.1712 88.2639C70.1712 88.5003 70.0854 88.5992 69.8472 88.5928C69.5206 88.5825 69.194 88.5928 68.8674 88.5928C68.6663 88.5928 68.5651 88.6557 68.5715 88.8741C68.5715 89.0668 68.624 89.1875 68.8469 89.1824C69.1325 89.1824 69.4181 89.1927 69.7037 89.1824C69.9317 89.1734 69.974 89.2929 69.9753 89.4869C69.9766 89.6808 69.9202 89.7952 69.6986 89.7874C69.4335 89.7772 69.1671 89.7874 68.9019 89.7874C68.6804 89.7874 68.5676 89.853 68.5689 90.1035C68.5689 90.3732 68.7213 90.3963 68.925 90.3938C69.2516 90.3938 69.5782 90.3938 69.9048 90.3938C70.1072 90.3938 70.193 90.476 70.1981 90.6867C70.2033 90.8973 70.1315 91.0271 69.8882 91.0232C69.3156 91.0155 68.7444 91.0232 68.1719 91.0232C67.9746 91.0232 67.8747 90.95 67.876 90.7355C67.8811 89.8311 67.8773 88.9319 67.8773 87.9788Z" fill="#404248"/>
<path d="M79.081 89.4844C79.0861 89.8141 78.9997 90.1388 78.8312 90.4221C78.7215 90.6202 78.5597 90.7842 78.3635 90.8963C78.1672 91.0085 77.944 91.0644 77.7182 91.058C77.4811 91.0631 77.2478 90.9982 77.0472 90.8714C76.8466 90.7447 76.6876 90.5617 76.5898 90.345C76.3709 89.9234 76.3227 89.4333 76.4553 88.977C76.6384 88.3077 77.1444 87.8979 77.7745 87.9185C78.3752 87.9364 78.8645 88.3552 79.0195 88.9949C79.05 89.1567 79.0705 89.3201 79.081 89.4844ZM78.3688 89.4844C78.3522 89.2275 78.3291 88.986 78.1652 88.7843C78.1146 88.7137 78.0478 88.6564 77.9703 88.6173C77.8929 88.5782 77.8073 88.5585 77.7206 88.5598C77.6339 88.561 77.5489 88.5833 77.4726 88.6246C77.3964 88.6659 77.3312 88.7251 77.2827 88.7971C77.0265 89.1414 77.0201 89.8389 77.2827 90.1845C77.5453 90.53 77.9385 90.5275 78.1959 90.1729C78.3445 89.9597 78.3573 89.713 78.3688 89.478V89.4844Z" fill="#404248"/>
<path d="M56.8066 88.2974C56.5402 88.7689 56.5402 88.7676 56.0804 88.6186C56.0419 88.6057 56.001 88.5967 55.9625 88.5865C55.7371 88.5235 55.463 88.4734 55.3836 88.7367C55.2939 89.0399 55.6052 89.0605 55.8076 89.1311C56.0099 89.2018 56.2379 89.2596 56.4416 89.3534C56.5952 89.4141 56.7253 89.5228 56.8125 89.6635C56.8997 89.8042 56.9394 89.9693 56.9257 90.1344C56.9283 90.3101 56.8765 90.4824 56.7774 90.6273C56.6783 90.7723 56.5368 90.8828 56.3724 90.9437C55.8396 91.1762 55.2197 91.0516 54.6074 90.5956C54.8393 90.119 54.838 90.1215 55.317 90.3207C55.4823 90.4033 55.6652 90.4439 55.8498 90.4388C56.0202 90.4234 56.188 90.3862 56.2149 90.1819C56.2392 90.0085 56.0983 89.925 55.9587 89.8788C55.7025 89.7901 55.4464 89.7259 55.2004 89.6385C55.0434 89.5919 54.9058 89.4952 54.8085 89.363C54.7112 89.2309 54.6595 89.0706 54.6612 88.9063C54.6417 88.6991 54.6983 88.4919 54.8205 88.3236C54.9427 88.1554 55.122 88.0378 55.3247 87.993C55.5782 87.9236 55.8444 87.915 56.1018 87.9679C56.3593 88.0208 56.6007 88.1337 56.8066 88.2974Z" fill="#404248"/>
<path d="M83.6213 87.9789C83.8953 87.9789 84.1195 87.9892 84.3436 87.9789C84.5678 87.9686 84.5998 88.1074 84.5998 88.2885C84.5998 88.4696 84.5665 88.6096 84.3308 88.5942C84.1269 88.584 83.9225 88.584 83.7186 88.5942C83.5457 88.5942 83.3254 88.5403 83.3344 88.8383C83.3433 89.1363 83.5547 89.004 83.693 89.0181C84.4692 89.0952 84.8047 89.4626 84.7253 90.1588C84.6728 90.6239 84.4038 90.918 83.9107 91.0324C83.528 91.1222 83.1255 91.0561 82.7913 90.8487C82.6632 90.7754 82.4595 90.7292 82.5479 90.5018C82.6465 90.2449 82.854 90.1691 83.1115 90.2899C83.2688 90.3862 83.4498 90.4365 83.6341 90.435C83.8556 90.4106 84.0337 90.3066 84.0606 90.0715C84.0875 89.8364 83.9133 89.7067 83.7045 89.645C83.5639 89.6209 83.4199 89.627 83.2818 89.663C82.8271 89.7298 82.667 89.5692 82.6888 89.0926C82.6888 89.0323 82.6965 88.9642 82.7029 88.909C82.7349 88.6263 82.6209 88.2731 82.7964 88.0753C83.0026 87.8376 83.3741 88.0329 83.6213 87.9789Z" fill="#404248"/>
<path d="M66.7327 90.5377C66.1333 91.1286 65.3238 91.2326 64.6706 90.8074C64.382 90.609 64.1665 90.321 64.0573 89.9876C63.948 89.6543 63.9511 89.2941 64.0661 88.9627C64.385 87.9954 65.6889 87.5895 66.4894 88.2112C66.597 88.296 66.7622 88.3808 66.6175 88.5465C66.4996 88.675 66.4458 88.9088 66.1449 88.761C65.4186 88.4065 64.9089 88.5941 64.7359 89.2299C64.6836 89.3974 64.6799 89.5763 64.7252 89.7458C64.7706 89.9153 64.8632 90.0683 64.9921 90.187C65.27 90.4593 65.6325 90.5274 65.9489 90.3244C66.2998 90.0958 66.5253 90.1266 66.7327 90.5377Z" fill="#404248"/>
<path d="M74.2205 90.3284C74.5266 90.4569 74.7904 90.3991 75.044 90.4094C75.2323 90.4094 75.3463 90.4569 75.3489 90.6843C75.3514 90.9117 75.2707 91.0183 75.0325 91.0144C74.5202 91.0067 74.0078 91.0144 73.4955 91.0144C73.3444 91.0144 73.1394 91.0825 73.0921 90.8513C73.0628 90.7624 73.0606 90.6668 73.0857 90.5767C73.1108 90.4866 73.162 90.406 73.2329 90.3451C73.4891 90.1396 73.7419 89.9315 73.9912 89.7208C74.1348 89.6065 74.2713 89.4834 74.3998 89.3522C74.5765 89.1633 74.7149 88.9347 74.5112 88.6996C74.3076 88.4645 74.0719 88.5416 73.8529 88.6996C73.7953 88.7568 73.7332 88.8092 73.6672 88.8563C73.4673 88.9514 73.3802 88.76 73.2586 88.6713C73.1126 88.566 73.2035 88.4632 73.2829 88.3656C73.4759 88.1517 73.7335 88.0073 74.0162 87.9544C74.299 87.9015 74.5912 87.943 74.8481 88.0727C75.3796 88.3746 75.4667 89.1119 75.0082 89.6142C74.7828 89.857 74.5138 90.0664 74.2205 90.3284Z" fill="#404248"/>
<path d="M80.6346 88.792C80.5898 88.7547 80.5364 88.7294 80.4793 88.7184C80.4222 88.7074 80.3632 88.711 80.3079 88.729C80.0748 88.7547 80.0518 88.5903 80.0236 88.422C79.9954 88.2537 80.0876 88.1651 80.249 88.124C80.4104 88.0829 80.559 88.0238 80.7178 87.9955C81.2545 87.8928 81.2993 87.9326 81.3019 88.5004C81.3019 89.2159 81.2955 89.9314 81.3019 90.6469C81.3019 90.8923 81.2506 91.022 80.9676 91.022C80.6845 91.022 80.6217 90.909 80.6269 90.6546C80.6435 90.02 80.6346 89.388 80.6346 88.792Z" fill="#404248"/>
<path d="M58.7887 89.474C58.7887 89.8825 58.7798 90.291 58.7887 90.6982C58.7964 90.9474 58.6786 91.0117 58.457 91.0142C58.2354 91.0168 58.1176 90.9539 58.1202 90.7059C58.1291 89.8889 58.1278 89.0719 58.1202 88.2562C58.1202 88.0391 58.2188 87.9736 58.4186 87.98C58.6184 87.9865 58.79 87.9685 58.7836 88.2498C58.7747 88.657 58.7836 89.0655 58.7836 89.474H58.7887Z" fill="#3F4147"/>
</svg>
