<svg width="140" height="100" viewBox="0 0 140 100" fill="none" xmlns="http://www.w3.org/2000/svg">
<path d="M53.5363 61.631L69.8424 6H70.2454L86.4238 61.4181C87.0993 60.6092 86.8297 59.8258 86.8382 59.068C86.8723 56.0423 86.8382 53.0167 86.9149 49.9854C86.9489 48.8188 86.631 48.4129 85.4219 48.4527C83.1711 48.5293 83.1512 48.4527 83.1938 46.182C83.2109 44.953 83.2619 43.724 83.2506 42.4922C83.2506 41.6067 83.5344 41.2575 84.508 41.2831C87.1533 41.3512 89.8043 41.3739 92.4552 41.2831C93.6956 41.2348 93.9681 41.6833 93.9595 42.8214C93.9198 49.3496 93.9397 55.8777 93.9397 62.3888C93.9397 65.8856 93.8403 69.3881 93.9595 72.8905C94.2178 80.4575 90.5025 85.7226 84.1816 89.1512C74.2702 94.5298 64.2452 94.2602 54.6205 88.4104C49.0205 85.0187 45.9523 79.9267 46.0006 73.1346C46.0857 63.0671 46.0431 52.9996 46.0006 42.9321C46.0006 41.6975 46.3071 41.2973 47.556 41.3342C50.2467 41.4108 52.9488 41.3626 55.6281 41.3115C56.4966 41.2944 56.8145 41.5953 56.7918 42.4468C56.7493 43.9114 56.772 45.3759 56.7918 46.8433C56.7918 47.9787 56.4172 48.5889 55.1229 48.5861C53.156 48.5861 53.1673 48.6542 53.173 50.658C53.173 54.2854 53.173 57.9128 53.173 61.5401L53.5363 61.631ZM52.8778 66.8421C52.1739 66.2035 52.33 65.7068 52.3272 65.2526C52.3045 60.0983 52.347 54.9439 52.259 49.7923C52.2335 48.3505 52.5684 47.7119 54.121 47.8992C55.384 48.0525 56.0539 47.4365 55.9432 46.0628C55.8807 45.166 55.8807 44.266 55.9432 43.3692C55.9914 42.5007 55.6395 42.2027 54.7851 42.2197C52.7529 42.2623 50.7122 42.3247 48.6856 42.2197C47.2437 42.1261 46.8521 42.6143 46.8521 44.0334C46.906 53.8682 46.8861 63.7029 46.8719 73.5519C46.8719 78.1471 48.5096 82.0441 51.8276 85.189C56.0454 89.1967 61.1316 91.263 66.9019 91.7909C73.6117 92.4096 79.9127 91.2629 85.5156 87.3801C90.4315 83.9742 93.2528 79.3761 93.1279 73.1744C93.0314 68.2584 93.1137 63.3396 93.1109 58.4151C93.1081 53.4907 93.0797 48.5804 93.1109 43.6559C93.1109 42.5461 92.7447 42.1346 91.6293 42.1999C90.3095 42.2765 88.9811 42.2169 87.6557 42.2169C84.1617 42.2169 84.1617 42.2169 84.1844 45.725C84.1986 47.6352 84.2014 47.6977 86.0861 47.6523C87.3151 47.6239 87.7238 48.0411 87.7096 49.2928C87.6471 54.4954 87.6897 59.6952 87.6727 64.9035C87.6727 65.44 87.8231 66.0389 87.1589 66.8733L70.2483 9.09944L69.7941 9.17607L52.8778 66.8421Z" fill="#F4C300"/>
<path d="M52.8771 66.8478L69.7935 9.17612L70.2476 9.09949L87.1554 66.8819C87.8196 66.0304 87.6692 65.4485 87.6692 64.9121C87.6862 59.7123 87.6436 54.5125 87.7061 49.3014C87.7061 48.0497 87.3115 47.6324 86.0826 47.6608C84.1979 47.7062 84.1951 47.6438 84.1809 45.7336C84.1582 42.2283 84.1582 42.2254 87.6521 42.2254C88.9776 42.2254 90.306 42.2851 91.6258 42.2084C92.7412 42.1431 93.1159 42.5547 93.1074 43.6645C93.0676 48.5833 93.1074 53.4992 93.1074 58.4237C93.1074 63.3482 93.0279 68.2585 93.1244 73.1829C93.2493 79.3847 90.428 83.9685 85.5121 87.3887C79.9092 91.2715 73.6082 92.4182 66.8984 91.7994C61.1281 91.2715 56.0418 89.2052 51.8241 85.1975C48.5033 82.0413 46.8514 78.1443 46.8656 73.5519C46.8798 63.7172 46.8996 53.8824 46.8457 44.0335C46.8457 42.5944 47.2431 42.1148 48.6906 42.1999C50.7172 42.3191 52.7579 42.2567 54.7901 42.1999C55.6416 42.1829 55.9964 42.4837 55.9482 43.3494C55.8857 44.2462 55.8857 45.1462 55.9482 46.043C56.0589 47.4167 55.3805 48.0298 54.126 47.8794C52.5734 47.692 52.2385 48.3307 52.264 49.7725C52.352 54.9241 52.3095 60.0784 52.3322 65.2328C52.3293 65.704 52.1732 66.2092 52.8771 66.8478ZM81.0502 65.1448C80.9566 64.6794 80.8941 64.2082 80.7664 63.7569C77.3983 51.7111 74.0197 39.6681 70.6308 27.628C70.5144 27.2164 70.5598 26.5125 69.9723 26.5239C69.4813 26.5239 69.5551 27.1909 69.4444 27.5741C66.9372 36.3766 64.4395 45.1839 61.9512 53.9959C60.989 57.4019 60.024 60.8079 59.1129 64.2309C58.9908 64.7049 58.4005 65.4429 59.3173 65.8033C60.234 66.1638 60.6257 65.3549 60.8017 64.7617C61.0032 64.0861 61.4914 63.6717 61.8263 63.1353C64.781 58.401 71.434 57.2515 75.8561 60.6433C77.3731 61.7854 78.5377 63.3317 79.2167 65.1051C79.4806 65.7948 79.9603 65.8828 80.5649 65.8317C81.0133 65.792 81.1098 65.511 81.0502 65.1335V65.1448ZM69.9553 86.54C71.2041 86.6933 72.4189 86.4237 73.6195 86.2136C77.6811 85.5069 81.4731 84.1928 84.5186 81.2324C85.0494 80.7158 85.3559 80.2021 85.1573 79.4925C84.2064 76.0865 83.2329 72.6806 82.2735 69.2746C82.0436 68.4571 81.4618 68.3465 80.7323 68.4032C80.0029 68.46 79.8468 68.9198 79.7673 69.5385C79.0975 74.7781 75.1636 78.3373 70.0574 78.3912C65.0506 78.431 60.9294 74.8434 60.2198 69.794C60.1148 69.0447 60.0779 68.4004 59.0675 68.3748C58.057 68.3493 57.7704 68.8857 57.549 69.7003C56.7543 72.6096 55.9056 75.5047 55.1024 78.414C54.5035 80.5796 54.5546 80.6676 56.3597 82.0782C60.3589 85.2145 65.0166 86.2988 69.9553 86.54Z" fill="#F4C300"/>
<path d="M81.0544 65.1306C81.1112 65.511 81.0147 65.792 80.5776 65.8317C79.973 65.8828 79.4933 65.7948 79.2294 65.1051C78.5504 63.3317 77.3858 61.7854 75.8688 60.6433C71.4467 57.2373 64.7994 58.401 61.839 63.1353C61.5041 63.6717 61.0159 64.0861 60.8144 64.7617C60.6384 65.3549 60.2694 66.1808 59.33 65.8033C58.3905 65.4258 59.0036 64.7049 59.1256 64.2309C60.0254 60.8079 60.9904 57.4019 61.9639 53.9959C64.4484 45.1839 66.9423 36.3757 69.4457 27.5712C69.5564 27.1881 69.4826 26.5296 69.9736 26.5211C70.5612 26.5211 70.5158 27.2136 70.6321 27.6252C74.0249 39.6653 77.4034 51.7083 80.7677 63.7541C80.8955 64.1855 80.9579 64.668 81.0544 65.1306ZM60.5164 62.6499L60.8428 62.8685C63.0368 59.5988 66.0908 57.7964 69.9595 57.7595C73.8281 57.7226 76.8991 59.5988 79.4394 62.5648C76.3494 51.4254 73.2566 40.2821 70.161 29.1351L69.9197 29.1692C66.7862 40.3295 63.6518 51.4897 60.5164 62.6499Z" fill="#F4C300"/>
<path d="M69.9553 86.54C65.0224 86.2988 60.359 85.2145 56.3598 82.0895C54.5546 80.6704 54.5036 80.5909 55.1024 78.4253C55.9057 75.516 56.7543 72.6209 57.5491 69.7117C57.7705 68.8971 58.0884 68.3549 59.0676 68.3862C60.0468 68.4174 60.1149 69.0645 60.2199 69.8053C60.9295 74.8547 65.0451 78.4423 70.0575 78.4026C75.1665 78.3628 79.0975 74.7894 79.7674 69.5499C79.8469 68.9198 79.9916 68.4656 80.7324 68.4145C81.4732 68.3635 82.0437 68.4685 82.2736 69.2859C83.233 72.6919 84.2065 76.0979 85.1573 79.5038C85.356 80.2134 85.0495 80.7272 84.5187 81.2437C81.4732 84.2041 77.6812 85.5182 73.6196 86.225C72.419 86.4237 71.2042 86.6933 69.9553 86.54ZM70.523 85.6034C74.9366 85.4501 79.4722 84.312 83.3437 81.1302C84.0987 80.5114 84.3598 79.9523 84.0589 78.9561C83.2074 76.1177 82.4638 73.2312 81.6662 70.3701C81.5584 69.987 81.6009 69.3569 81.0759 69.3767C80.5082 69.3994 80.7012 70.0239 80.6217 70.4099C79.7333 74.6532 77.264 77.6362 73.1286 78.8567C66.714 80.7442 60.7535 76.9494 59.4082 70.3815C59.3315 70.004 59.4905 69.3654 58.9285 69.3512C58.4204 69.3512 58.4261 69.9501 58.3154 70.3446C57.5377 73.1148 56.8423 75.9134 55.9596 78.6495C55.5679 79.8671 55.883 80.5682 56.8111 81.3062C60.6911 84.3829 65.2239 85.4104 70.5116 85.6034H70.523Z" fill="#F4C300"/>
</svg>
