<svg width="140" height="100" viewBox="0 0 140 100" fill="none" xmlns="http://www.w3.org/2000/svg">
<g clip-path="url(#clip0_719_4704)">
<path d="M63.7893 15.3372C60.8123 18.61 57.8247 21.867 54.8793 25.1609C54.427 25.6879 54.0903 25.7406 53.6065 25.2979C53.1226 24.8552 52.9648 24.4652 53.3698 23.9435C55.6209 21.0659 57.8142 18.1463 60.1653 15.3478C60.9543 14.3833 62.306 15.1212 63.7893 15.3372Z" fill="#F9AD22"/>
<path d="M56.7962 27.3005C55.4234 26.4046 55.7442 25.7195 56.7383 24.7603C58.9106 22.6786 60.9461 20.4704 63.05 18.3149C64.1019 17.2608 67.3629 16.6442 68.6253 17.2977C68.7951 17.3743 68.9341 17.5062 69.0198 17.6719C69.3669 18.5415 68.0783 22.083 67.242 22.6364C64.67 24.3229 62.0927 26.0041 59.5365 27.7169C58.4319 28.4652 57.3853 29.0871 56.7962 27.3005Z" fill="#F9A91E"/>
<path d="M42.8192 3.52686C48.505 8.06976 45.5017 13.9566 45.2598 19.4165C45.2282 20.1069 45.002 20.7973 45.0073 21.4877C45.0073 23.2479 44.7127 24.4337 42.4668 24.4337C40.3156 24.4337 39.837 23.3797 39.6897 21.5878C39.3741 18.0252 39.1638 14.4362 38.5115 10.9367C38.0487 8.50719 38.906 6.94721 40.5365 5.46629C41.1561 4.8516 41.7426 4.2042 42.2933 3.52686L42.8192 3.52686Z" fill="#F9A91E"/>
<path d="M72.2522 18.0829L130.346 74.5635H14.4321C13.701 73.3988 14.6741 72.7822 15.2789 72.1182C16.3993 70.8849 17.6143 69.7466 18.7766 68.5608C20.5702 66.9797 22.064 65.0403 24.0364 63.6173C25.5406 62.7161 26.4401 61.035 28.1547 60.4078L29.2067 59.3538C30.5479 56.7187 33.0305 55.0849 34.9555 52.9663C36.1863 51.6066 37.538 50.3312 38.8214 49.0453C40.2521 47.7383 41.4513 46.2152 43.0713 45.0874C44.4335 44.1335 45.4592 42.8212 46.6847 41.725C47.3737 41.1084 48.0154 40.2651 49.1515 40.7974C49.6144 41.8884 48.8359 42.6841 48.5098 43.5906C48.0674 44.4444 48.8451 46.547 48.5098 47.4484C46.3218 50.3575 42.0824 51.2113 39.9786 54.2311C38.4006 55.965 36.9016 57.7411 34.7767 58.8215C30.4809 62.6095 26.4347 66.6726 22.6636 70.9851C22.558 71.1721 22.5225 71.3908 22.5636 71.6017C23.442 71.8968 24.3256 71.7545 25.1935 71.7545C43.045 71.7545 60.8982 71.7545 78.7532 71.7545C93.1385 71.802 107.529 71.7545 122.098 71.5121C119.174 68.1257 116.071 64.8975 112.805 61.8413C110.612 60.2373 108.573 58.4324 106.714 56.4499C103.353 52.3022 99.4659 48.6764 95.5264 45.0979C93.2285 43.5043 91.1398 41.6274 89.3094 39.5115C85.6276 35.074 81.4198 31.1582 77.2121 27.2372C75.4027 25.9724 73.7933 24.4546 72.026 23.1423C69.7854 23.6008 68.0233 28.0067 66.4717 29.2979C65.2252 30.3519 65.0095 28.6127 63.9681 26.8261C63.7663 26.5355 63.6703 26.1843 63.6962 25.8312C63.722 25.4781 63.8682 25.1447 64.1101 24.8867C66.1846 22.545 68.407 20.3393 70.7637 18.2832C70.9737 18.1244 71.221 18.0226 71.4817 17.9875C71.7424 17.9524 72.0078 17.9853 72.2522 18.0829Z" fill="#040404"/>
<path d="M29.1391 58.6266C24.5263 55.0587 22.8642 49.9941 23.2114 44.5658C24.2055 29.2401 39.3903 21.2926 52.7605 28.8764C53.0923 29.8957 53.0418 31.0012 52.6184 31.9858C52.214 32.6574 51.6433 33.2129 50.9616 33.5985C48.8577 34.9898 47.5376 34.4892 46.9537 32.0596C46.7802 31.3165 46.9537 30.3204 45.9018 30.1571C45.0392 30.0253 44.8498 30.9476 44.4711 31.4852C43.0195 33.4351 41.9044 33.4562 40.3475 31.5537C39.8584 30.9634 39.527 30.0253 38.554 30.3679C37.6809 30.6788 38.1227 31.5695 38.028 32.223C37.7703 34.4312 36.5974 34.9951 34.2831 34.0412C33.5993 33.7566 32.8893 32.9503 32.1792 33.7671C31.6217 34.4101 32.2949 35.0636 32.5579 35.6855C33.5362 38.0044 32.7998 39.1322 30.2541 39.1849C29.4967 39.1849 28.5553 38.8002 28.1923 39.7804C27.882 40.6289 28.7604 40.9241 29.2443 41.3615C31.2219 43.1007 31.1325 44.1758 28.8919 45.5777C28.3133 45.9413 27.4349 46.1047 27.5086 46.9637C27.598 48.0177 28.6184 47.8965 29.3337 48.1284C31.5848 48.8452 31.9635 49.5303 30.9116 51.2115C30.4488 51.9809 29.218 52.5923 29.928 53.6621C30.6381 54.732 31.7006 53.6621 32.6052 53.7464C32.7846 53.7572 32.9616 53.7926 33.1312 53.8519C33.9622 54.9744 32.7578 55.3328 32.2739 55.8124C31.3324 56.8084 30.5539 58.0944 29.1391 58.6266Z" fill="#F9A91C"/>
<path d="M15.1954 15.8642C17.9252 15.5375 19.5873 16.523 21.0074 18.4993C23.2533 21.6035 25.7149 24.5706 28.1975 27.485C29.2494 28.7077 28.9706 29.435 27.824 30.1728C26.8615 30.7894 26.5249 32.8079 24.6051 31.0582C21.3756 28.1438 17.8253 25.5983 14.4433 22.8578C13.2231 21.8723 12.2868 17.6298 12.9548 16.3386C13.5702 15.1633 14.6958 16.054 15.1954 15.8642Z" fill="#F8A91E"/>
<path d="M21.26 45.2298C21.9122 47.2641 20.9917 47.7015 19.235 47.8649C15.3375 48.1811 11.4611 48.7292 7.57421 49.1824C5.66493 49.3774 1.85164 47.301 1.11002 45.6145C1.00599 45.3946 0.97467 45.1472 1.0206 44.9083C1.37827 43.7436 5.58078 41.2192 6.87993 41.3562C10.8563 41.762 14.8379 42.1783 18.8195 42.5525C20.5604 42.7159 22.1278 42.9425 21.26 45.2298Z" fill="#F9A91E"/>
<path d="M66.2134 87.3649C63.3995 90.527 60.7643 93.4572 58.2397 96.4559C57.4402 97.4046 57.072 97.3993 56.2988 96.4559C53.8952 93.4836 51.3863 90.5955 48.667 87.3754L66.2134 87.3649Z" fill="#040303"/>
<path d="M106.488 79.8971C106.01 81.3253 105.505 82.743 105.063 84.1817C104.81 85.0197 104.453 85.5731 103.453 85.5204C102.454 85.4677 102.328 84.7351 102.096 83.9393C101.77 82.8168 102.017 81.4729 100.697 80.3081C100.539 81.7733 100.376 82.9801 100.292 84.1923C100.24 84.9143 100.024 85.3412 99.2403 85.3148C98.2988 85.2779 98.4145 84.6771 98.4618 84.0394C98.6091 82.0368 98.7669 80.0341 98.8353 78.0261C98.8721 77.0406 98.6354 76.0235 100.208 76.2237C101.323 76.366 102.738 75.7442 102.838 77.8048C102.88 78.8588 103.438 79.9129 103.89 81.4202C104.458 79.8707 104.984 78.8694 105.178 77.8101C105.578 75.6651 107.188 76.1605 108.455 76.287C109.109 76.408 109.123 77.8417 109.144 78.7007C109.198 80.1889 109.175 81.6788 109.076 83.1646C109.044 83.6479 109.076 85.2953 108.024 85.3043C106.795 85.3148 107.084 84.3604 106.972 83.2436C106.867 82.1896 106.946 81.0829 106.946 80.0025L106.488 79.8971Z" fill="#060606"/>
<path d="M24.3947 63.9335C22.8168 65.6094 21.3651 67.4435 19.4664 68.8084C16.9049 69.9363 15.732 72.7084 13.3178 74.0101C12.7129 71.1906 12.7602 68.6609 15.4637 66.7004C18.6459 64.4026 21.6597 61.8623 24.7261 59.4011C26.2304 58.1943 27.0246 58.6633 27.3559 60.4183C26.7669 61.9203 25.2731 62.6739 24.3947 63.9335Z" fill="#F9AA1E"/>
<path d="M93.5658 80.6824C93.6026 83.7602 91.5829 85.6206 88.1536 85.6522C84.9978 85.6838 82.8939 83.8498 82.8623 81.1198C82.8623 78.2054 84.9294 76.2449 88.122 76.1711C91.5987 76.0868 93.5658 77.7047 93.5658 80.6824Z" fill="#070707"/>
<path d="M24.516 76.1711C27.7665 76.1711 29.7389 77.8576 29.7757 80.6877C29.7757 83.6443 27.5298 85.6891 24.2635 85.6733C20.9972 85.6575 18.8776 83.6759 18.9459 80.8036C19.0038 78.0579 21.2497 76.187 24.516 76.1711Z" fill="#050505"/>
<path d="M43.8186 80.5295C44.0027 79.3174 43.0717 77.1197 44.1394 76.5769C45.6121 75.8285 47.6897 76.2817 49.5096 76.2396C49.768 76.2349 50.0233 76.2966 50.2512 76.4188C51.3032 76.9932 52.0658 78.2212 51.4399 78.9906C49.862 80.9406 53.8489 84.9459 48.8626 85.4993C43.8764 86.0527 43.7186 85.9789 43.8186 80.5295Z" fill="#070707"/>
<path d="M118.544 81.4412C118.486 82.4004 118.381 83.3543 118.381 84.3135C118.381 85.4571 117.676 85.5151 116.803 85.5309C115.751 85.5572 115.441 85.1251 115.593 84.0921C115.772 82.8852 115.746 81.6467 115.882 80.4346C116.035 79.0749 115.22 76.9141 116.293 76.5136C118.28 75.823 120.444 75.8397 122.42 76.561C124.119 77.1671 124.677 79.1065 123.341 80.3239C122.105 81.4465 121.989 82.3213 122.778 83.6494C123.104 84.1764 123.993 85.104 122.683 85.4624C121.863 85.6837 120.716 85.8629 120.327 84.5243C120.017 83.4702 119.801 82.3319 119.07 81.4254C118.339 80.5189 119.37 80.1395 119.664 79.5387L119.491 79.4438C118.812 79.9445 118.912 80.7982 118.544 81.4412Z" fill="#0A0A0A"/>
<path d="M53.4082 80.9988C53.566 75.8761 53.566 75.8709 59.2833 76.2187C59.7725 76.245 60.451 75.9868 60.6719 76.5718C60.9769 77.3781 60.9506 78.1529 59.7304 78.1529C59.0309 78.1529 58.3313 78.1529 57.6265 78.1529C57.1005 78.1529 56.5062 78.1212 56.4326 78.8327C56.3431 79.7181 56.9585 79.7708 57.6318 79.7655H58.9414C59.4674 79.7655 59.9934 79.6707 60.0933 80.4401C60.1932 81.2096 59.7567 81.4362 59.0414 81.5837C58.0157 81.7998 56.0959 80.6825 56.1643 82.5745C56.2274 84.2663 58.0999 83.2386 59.1518 83.4494C59.7567 83.5653 60.4878 83.4494 60.5562 84.2505C60.6245 85.0515 60.0828 85.4995 59.2307 85.4679C58.7994 85.4679 58.3629 85.4679 57.9263 85.4679C53.2662 85.5364 53.2662 85.5364 53.4082 80.9988Z" fill="#090909"/>
<path d="M38.548 78.511C37.4698 77.8733 36.5125 78.3213 35.6026 78.2106C34.8872 78.1263 34.4507 77.7995 34.5191 77.0354C34.5822 76.366 35.0871 76.2343 35.6499 76.2343C37.3014 76.2343 38.9635 76.2027 40.6151 76.2343C41.1726 76.2343 41.9668 75.897 42.2298 76.6348C42.3667 77.0009 42.3969 77.3984 42.3168 77.781C42.2367 78.1636 42.0496 78.5155 41.7775 78.7956C40.5467 80.2238 39.0003 81.3991 37.859 83.5388C39.0056 83.5388 39.8945 83.5388 40.7886 83.5388C41.3672 83.5388 41.8406 83.6178 41.8406 84.3504C41.8406 85.083 41.6828 85.5309 40.8465 85.5256C38.9319 85.5256 36.9911 85.7206 35.1029 85.4729C33.2146 85.2252 33.8037 83.8919 34.5296 82.9749C35.7498 81.4202 37.1594 80.0236 38.548 78.511Z" fill="#0A0A0A"/>
<path d="M22.1895 15.8747C24.5879 15.7008 26.0659 16.1488 27.0547 18.1409C28.3433 20.7128 29.9212 23.1212 31.3834 25.6035C31.7516 26.2201 32.1461 26.8367 31.3256 27.4112C30.4051 28.0541 30.1001 27.2425 29.7214 26.7155C27.2914 23.2161 24.8614 19.7167 22.1895 15.8747Z" fill="#F9AD20"/>
<path d="M7.45801 38.8371C8.89917 36.9978 10.1194 36.1335 12.3127 36.924C15.011 37.899 17.8617 38.4365 20.6441 39.1796C21.2753 39.3483 22.222 39.3272 22.0642 40.318C21.9064 41.4089 21.1543 41.2245 20.2812 41.0611C16.1102 40.26 11.9182 39.5802 7.45801 38.8371Z" fill="#F8AE24"/>
<path d="M13.406 25.0923C17.0036 27.6747 20.6013 30.2553 24.1989 32.8342C24.6302 33.1451 25.0668 33.4824 24.646 34.1043C24.5762 34.2432 24.4755 34.3643 24.3518 34.4581C24.228 34.5519 24.0844 34.6161 23.932 34.6456C23.7796 34.6751 23.6225 34.6692 23.4727 34.6284C23.3229 34.5875 23.1845 34.5128 23.0681 34.41C20.0806 32.6023 17.0562 30.8631 14.095 29.0133C12.7959 28.1912 13.3955 26.6575 13.406 25.0923Z" fill="#F9AD20"/>
<path d="M48.8573 10.3146C50.9612 11.8324 51.4345 13.3344 50.6561 15.5057C49.7409 18.0407 49.257 20.7337 48.5522 23.3425C48.3892 23.9433 48.4365 24.8708 47.3793 24.7233C46.1538 24.5494 46.4904 23.6692 46.6219 22.9051C47.3372 18.8101 48.0736 14.7099 48.8573 10.3146Z" fill="#F9AB1F"/>
<path d="M7.02734 51.5911C12.0872 50.7478 16.3581 50.01 20.629 49.3249C21.2864 49.2142 21.9229 49.3249 22.0859 50.0785C22.2753 50.9428 21.481 51.0904 20.9498 51.2327C17.6572 52.0917 14.3436 52.8823 11.0458 53.7149C9.23642 54.1735 8.78935 52.5397 7.02734 51.5911Z" fill="#F9AC21"/>
<path d="M13.0913 65.3829C12.9703 62.9217 13.5068 61.4092 15.5739 60.4131C18.1564 59.1694 20.5601 57.5619 23.0374 56.0968C23.5949 55.7701 24.0893 55.4697 24.6153 56.197C24.7073 56.2903 24.776 56.404 24.8158 56.529C24.8556 56.6539 24.8654 56.7865 24.8444 56.9159C24.8234 57.0454 24.7721 57.168 24.6949 57.2739C24.6176 57.3797 24.5164 57.4658 24.3997 57.5251L13.0913 65.3829Z" fill="#F9AC20"/>
<path d="M36.0971 10.515C36.844 14.8735 37.5751 19.2372 38.364 23.5904C38.485 24.2597 38.364 24.5653 37.6908 24.676C37.0175 24.7867 36.6388 24.676 36.4758 24.0331C35.5921 20.4862 34.6559 16.9552 33.8775 13.382C33.604 12.1488 35.0031 11.5427 36.0971 10.515Z" fill="#F9AD22"/>
<path d="M76.3822 80.1658C77.7708 78.4109 78.2337 75.3752 82.1679 76.5136C77.9602 79.349 79.3382 82.3108 82.089 85.2252C77.9286 86.4479 77.7182 83.1171 76.3928 81.1724C76.3074 81.0188 76.2617 80.8463 76.2598 80.6705C76.258 80.4947 76.3001 80.3212 76.3822 80.1658Z" fill="#0A0A0A"/>
<path d="M65.8679 80.1501C67.3512 78.4953 67.7667 75.3279 71.6536 76.5453C67.8508 79.3438 68.4978 82.2424 71.6063 85.0356C68.6135 85.7892 68.624 85.784 67.3512 83.5231C66.8831 82.7009 66.3729 81.9051 65.8837 81.0935C65.7862 80.9563 65.7324 80.7927 65.7296 80.6243C65.7268 80.4559 65.775 80.2905 65.8679 80.1501Z" fill="#0A0A0A"/>
<path d="M76.383 80.166V81.1726C74.9734 81.8419 75.6624 83.1489 75.5941 84.145C75.5099 85.373 74.9366 85.5258 73.9215 85.5469C72.7222 85.5732 72.7012 84.867 72.7328 84.0238C72.8117 82.0211 72.9379 80.0184 72.9431 78.0158C72.9431 76.7615 73.2009 76.1501 74.6841 76.1765C76.3304 76.2081 75.857 77.1989 75.9412 78.0948C75.9885 78.7905 75.3311 79.6812 76.383 80.166Z" fill="#0F0F0F"/>
<path d="M65.8672 80.1501V81.0934C64.7364 81.8945 65.1571 83.1224 65.1151 84.1607C65.0625 85.4097 64.4471 85.5678 63.432 85.5362C62.2959 85.494 62.238 84.8774 62.3064 83.9551C62.4694 81.7838 62.6009 79.6072 62.643 77.4306C62.643 76.3239 63.169 76.1921 64.1052 76.1921C65.0414 76.1921 65.4727 76.4135 65.4885 77.4991C65.5201 78.3635 64.81 79.4175 65.8672 80.1501Z" fill="#0E0E0E"/>
<path d="M113.857 80.7984C113.857 81.9315 113.815 83.0698 113.857 84.2029C113.915 85.4888 113.136 85.5205 112.169 85.5363C111.012 85.5363 110.943 84.9144 110.985 84.0237C111.09 81.9157 111.227 79.8076 111.169 77.7311C111.133 76.3292 111.795 76.208 112.916 76.2028C114.288 76.2028 114.215 76.9564 114.094 77.9156C113.973 78.8747 113.962 79.8339 113.904 80.7984H113.857Z" fill="#0A0A0A"/>
<path d="M29.1396 58.6264C30.4178 56.9769 32.2955 55.9017 33.379 54.0519C33.5631 53.1085 34.3152 52.571 34.878 51.8964C36.3875 50.874 37.0608 48.3443 39.6117 49.2244L29.1922 59.3484C29.1712 59.106 29.1554 58.8636 29.1396 58.6264Z" fill="#EDE6C9"/>
<path d="M54.0078 33.0398C53.7554 32.9397 53.95 31.6116 53.2452 32.7552C53.0716 33.0451 52.9454 33.3666 52.7928 33.6722C52.2143 33.2295 52.2669 32.6182 52.2669 31.97C52.2984 30.9159 52.1354 29.8619 52.7508 28.9027C52.9976 28.9544 53.229 29.0633 53.4263 29.2207C53.6235 29.3782 53.7813 29.5797 53.8869 29.8092C53.9605 30.8579 56.0907 31.8646 54.0078 33.0398Z" fill="#F9A91C"/>
<path d="M118.544 81.4412C118.544 80.6665 118.518 79.8918 118.502 79.1118C118.502 78.2475 119.075 78.1737 119.722 78.1895C120.369 78.2053 121.016 78.1473 121.174 78.9326C121.213 79.0813 121.221 79.2368 121.195 79.3886C121.17 79.5404 121.112 79.685 121.027 79.8127C120.941 79.9404 120.829 80.0484 120.699 80.1293C120.568 80.2102 120.422 80.2622 120.269 80.2818C119.564 80.4083 118.854 80.3872 119.081 81.4254L118.544 81.4412Z" fill="#F9F9F8"/>
<path d="M54.0061 33.0398C55.4683 31.912 52.8963 30.9318 53.8956 29.8092L55.9627 31.4535C56.3414 32.9133 55.8575 33.6881 54.2743 33.5985L54.0061 33.0398Z" fill="#F8A616"/>
<path d="M13.1455 78.7112C13.6347 77.6572 13.966 76.6031 15.3809 76.1868C15.444 77.8363 15.4756 79.2066 13.1455 78.7112Z" fill="#2D2C2C"/>
<path d="M18.3506 76.092C18.0876 77.7311 18.2822 79.3437 15.9521 78.627C16.4834 77.6204 16.7306 76.5137 18.3506 76.092Z" fill="#1C1C1C"/>
<path d="M95.1063 79.27C95.1063 77.7417 94.9959 76.7087 96.1583 76.1975C96.4476 76.0658 97.2418 76.0868 97.2102 76.4926C97.0735 77.5203 96.4949 78.3636 95.1063 79.27Z" fill="#313030"/>
<path d="M127.575 76.4504C127.049 77.3991 126.985 78.7061 125.534 78.7798C125.076 78.8062 125.066 78.3635 125.229 78.0104C125.649 77.0565 125.786 75.623 127.575 76.4504Z" fill="#282626"/>
<path d="M127.706 79.0014C128.232 77.3939 128.058 75.8392 130.289 76.3135C129.857 77.473 129.547 78.5639 127.706 79.0014Z" fill="#2B2A2A"/>
<path d="M30.8643 79.1382C31.5059 77.4781 31.143 75.8391 33.4415 76.2712C32.9944 77.399 32.642 78.4162 30.8643 79.1382Z" fill="#1F1F1F"/>
<path d="M54.2754 33.567C55.1643 33.1085 56.09 32.6816 55.9638 31.422H56.9C56.7632 32.1229 56.6212 32.8239 56.4792 33.5301C55.8638 34.0044 55.6534 35.3746 54.4069 34.4787L54.2754 33.567Z" fill="#F9A91C"/>
<path d="M24.3945 63.9337C24.6996 62.1892 26.3248 61.5516 27.3557 60.4185H28.1394C27.0982 61.7937 25.832 62.9823 24.3945 63.9337Z" fill="#CCCAC5"/>
<path d="M68.0924 35.4166C68.3659 33.2611 67.2719 31.659 65.9885 30.1464C65.7624 29.6721 65.4626 28.9817 65.7308 28.6708C67.7979 26.3888 69.3285 23.4849 72.5684 22.5046C74.0792 24.1164 75.776 25.5423 77.623 26.7524C80.2897 30.1359 83.6191 32.8711 86.5645 36.0069C87.5744 37.0925 88.7999 37.9832 89.5573 39.2955C91.9084 40.8765 93.5231 43.3061 96.0531 44.65C98.4883 47.8121 101.613 50.3365 104.316 53.2562C105.194 54.2048 106.262 54.9848 106.909 56.1443L112.805 60.9718C115.803 64.8243 119.785 67.7756 122.799 71.5754C122.157 72.5925 121.294 72.2289 120.59 72.2289C107.823 72.257 95.0555 72.257 82.2884 72.2289C79.5533 72.2289 79.4587 72.1182 80.6474 69.6992C81.126 68.7295 81.0313 68.1972 80.0109 67.9653C77.4389 67.3909 75.6822 65.794 74.362 63.6174C71.0484 62.9007 70.3699 58.8742 67.2509 57.9203C66.6092 57.7675 65.9728 57.6041 65.673 56.8979C65.552 55.9651 66.1989 55.475 66.8038 54.9901C69.3285 52.998 71.9899 51.1956 74.4514 49.1297C75.9031 47.907 76.8025 48.9715 77.7966 49.8042C80.742 52.6132 83.9768 55.1061 86.8012 58.0574C87.8151 59.011 88.5947 60.1872 89.0787 61.4935C89.2891 62.0205 89.5257 62.5476 90.2831 62.3051C91.7367 61.6542 93.2571 61.1646 94.817 60.8453C95.218 60.7926 95.6225 60.7714 96.0268 60.7821C96.596 60.7705 97.1599 60.8932 97.673 61.1404C97.798 61.2083 97.9079 61.3009 97.9962 61.4125C98.0845 61.5242 98.1492 61.6526 98.1866 61.79C98.224 61.9274 98.2331 62.071 98.2136 62.2121C98.194 62.3532 98.1461 62.4888 98.0728 62.6108C96.3739 64.2498 93.9334 64.1919 91.556 65.3829C96.2424 65.52 100.498 65.4409 104.768 65.4409C106.073 65.4409 106.683 64.819 106.672 63.5015C106.662 62.1839 106.262 61.3038 104.789 61.1668C102.97 60.9929 101.108 61.3987 99.3193 60.7926C98.3936 60.2656 98.462 59.3433 98.3568 58.4895C98.2779 57.8255 98.1254 57.2826 97.3049 57.3248C96.8262 57.3248 96.3476 57.3617 95.8742 57.3722C95.5008 57.3722 95.1273 57.3722 94.7539 57.3722C93.3817 57.2506 91.9996 57.4304 90.7039 57.8993C90.514 57.9094 90.3245 57.8718 90.1527 57.7899C89.9809 57.708 89.8323 57.5843 89.7204 57.4302C87.8006 54.1943 84.8183 52.0915 81.7309 50.1732C80.3002 49.2878 77.9649 50.0519 77.2233 47.7805C76.6973 47.1691 77.2811 45.8147 76.0872 45.7356C75.1562 45.6724 74.7197 46.6474 74.1358 47.264C73.0523 48.4076 72.316 50.0572 70.3594 50.0203C70.1791 49.925 70.0237 49.7885 69.9059 49.6219C69.788 49.4552 69.7109 49.2631 69.6808 49.0611C70.4488 44.3812 70.596 39.7434 68.0924 35.4166Z" fill="#040404"/>
<path d="M49.6458 54.8742C50.1343 55.8072 50.86 56.5944 51.7497 57.1562C51.8157 57.2039 51.8686 57.2676 51.9036 57.3413C51.9385 57.415 51.9543 57.4963 51.9495 57.5778C51.9495 57.7412 51.9127 57.8202 51.8759 57.8202C50.7035 58.5832 49.3288 58.9744 47.9311 58.9428C45.8272 58.8374 44.4597 59.7122 43.2394 61.1773C41.6615 62.3051 40.4255 63.96 38.2375 64.0232C37.0645 64.0548 37.7115 65.3144 37.1434 65.7887C36.0915 66.4159 34.9396 66.906 34.6346 68.2763C34.2769 69.0194 34.5714 69.6254 34.9764 70.2368C35.8495 71.5701 35.7128 72.2764 33.8877 72.2395C30.2953 72.1709 26.7082 72.2395 23.1158 72.2395C22.1112 72.2395 21.1855 72.1709 22.3794 70.9166L22.3321 70.9641C25.3354 67.3487 28.9015 64.2815 32.1257 60.8822C32.8988 60.0653 33.8351 59.396 34.34 58.3472C36.5123 57.5251 37.7536 55.5804 39.3999 54.1311C41.3512 52.1969 43.2447 50.1995 45.2487 48.3339C45.7746 47.849 46.106 46.6369 47.2526 47.4116C47.4649 50.0508 48.284 52.605 49.6458 54.8742Z" fill="#040404"/>
<path d="M39.6382 49.2244C37.4344 49.2929 36.8768 51.791 35.0202 52.3865C32.9584 51.8595 32.627 49.9728 32.101 48.3812C30.4863 43.5063 32.627 38.1834 37.1188 35.4798C41.3949 32.9184 46.2023 33.6246 49.7421 37.3243C50.5048 38.7209 49.3266 39.4324 48.6007 40.165C46.8335 41.9516 44.9978 43.6696 43.3042 45.5247L39.6382 49.2244Z" fill="#F8A91E"/>
<path d="M43.293 45.5143C43.9504 43.285 46.1437 42.3891 47.4481 40.7237C48.2213 39.7329 49.6362 39.2322 49.7677 37.7355C50.1569 37.2085 50.6145 36.8606 51.3035 37.2401C51.2246 38.8633 49.3837 39.3956 49.0681 40.8713C47.2588 41.0821 46.6907 42.8792 45.3863 43.7593C44.65 44.2758 44.2555 45.2402 43.293 45.5143Z" fill="#D9D8C4"/>
<path d="M51.3032 37.2559L49.7673 37.7513C44.5865 33.7038 39.4635 33.6669 35.3925 37.6459C31.4109 41.5459 31.2637 47.3641 35.0191 52.4025C34.6688 53.1253 34.0926 53.7137 33.3781 54.0784C31.9527 53.9835 30.6693 56.3604 29.1703 54.4157C27.6713 52.471 30.0066 51.9703 30.6903 50.8741C31.3741 49.7779 31.1006 49.0928 29.8803 48.7976C29.3544 48.6712 28.8284 48.687 28.3024 48.6079C27.3609 48.4551 26.4037 48.4182 26.3721 47.0269C26.3406 45.8358 27.0401 45.5354 27.9027 45.2613C27.9869 45.2613 28.0763 45.2192 28.1552 45.1876C28.9915 44.8292 30.1749 44.8713 30.2275 43.5538C30.2748 42.4365 29.265 42.2046 28.5759 41.7303C27.7291 41.1506 26.6351 40.8133 27.2189 39.3429C27.8028 37.8725 28.8442 38.3205 29.8488 38.4891C30.6903 38.6367 31.5056 39.0689 32.2472 38.1677C33.1677 37.0451 32.0105 36.439 31.7212 35.6274C31.3741 34.7262 30.4274 34.0095 31.6476 32.908C32.8679 31.8065 33.5096 32.8131 34.2775 33.3349C35.0454 33.8566 35.6134 34.5629 36.6075 33.9884C37.6016 33.4139 37.4596 32.5549 37.3176 31.6695C37.1598 30.6945 36.9178 29.7248 38.2749 29.3612C39.4478 29.0397 40.0526 29.5667 40.505 30.5891C40.8732 31.4271 41.0835 32.518 42.3985 32.4284C43.6292 32.3441 43.8922 31.3217 44.2288 30.4521C44.5655 29.5825 44.9705 28.9659 46.1381 29.2505C47.0638 29.4771 47.4741 29.8566 47.4583 30.8316C47.4583 31.8856 46.9955 33.1715 48.4524 33.7829C49.9093 34.3942 50.4143 33.0029 51.3505 32.5233C51.6608 32.3599 51.9501 32.1649 52.2499 31.9963C52.8863 32.4232 52.6391 33.1188 52.7759 33.6985C52.579 34.9861 52.0736 36.2067 51.3032 37.2559Z" fill="white"/>
<path d="M71.4621 17.041L130.817 74.9599H12.1071L71.4621 17.041Z" fill="#0A0A0A"/>
<path d="M21.6339 71.564L70.9806 23.5308L120.327 71.564H21.6339Z" stroke="white"/>
<path fill-rule="evenodd" clip-rule="evenodd" d="M57.604 16.5528C57.6045 16.5393 57.6049 16.5259 57.6053 16.5125L57.604 16.5061C57.1574 14.4001 56.7106 12.2938 56.1852 9.82458C54.7914 13.6929 54.865 17.2608 55.512 20.8656C55.9513 21.029 56.1207 20.74 56.29 20.4509C56.4255 20.2196 56.5611 19.9882 56.8352 19.989C56.9104 20.9288 57.2527 21.7945 57.5945 22.659C57.7238 22.9858 57.8529 23.3125 57.9676 23.643C58.6686 25.544 59.7598 27.2766 61.1708 28.7287C65.5206 32.8711 65.1313 42.1413 60.7658 46.5051C59.0676 48.1654 57.7441 50.1709 56.8841 52.3866C56.2792 54.0098 55.8322 55.691 57.5521 57.8044C58.2159 54.4676 60.2913 52.1998 62.3711 49.9271C64.312 47.8061 66.2568 45.681 67.0617 42.6789C67.4107 44.7382 67.4444 46.8388 67.1616 48.9083C67.1241 49.1743 67.028 49.4712 66.9284 49.7788C66.6788 50.5497 66.4075 51.3878 66.9828 51.9755C68.1557 51.9755 69.1761 50.8846 69.6126 49.9149C69.7388 49.8427 69.8428 49.7372 69.9132 49.6099C69.9837 49.4826 70.018 49.3383 70.0124 49.1929C70.9481 45.2812 70.7658 41.1846 69.4864 37.3718C69.3925 36.9197 69.2533 36.4783 69.0709 36.0543C68.6816 33.7459 68.0189 31.5535 66.4831 29.73C66.247 29.3113 65.9134 28.9722 65.5807 28.6341C65.1724 28.219 64.7654 27.8054 64.5422 27.2478C63.9878 26.7549 63.7053 26.1029 63.4229 25.4511C63.2071 24.9528 62.9913 24.4546 62.654 24.0277C62.5222 23.8403 62.4954 23.7798 62.4554 23.7298C62.3773 23.6321 62.2493 23.5744 61.1918 22.6891C60.2099 21.7336 59.486 20.544 59.0879 19.2318C58.8751 18.8765 58.6988 18.5003 58.5619 18.1093L57.604 16.5528Z" fill="#FA0703"/>
<path d="M58.4887 23.6115C58.01 23.3111 57.5314 22.9738 57.0107 23.543C56.4847 21.9198 56.4847 20.8657 57.0107 19.5535L57.4893 19.9118C57.8312 21.1451 58.1573 22.3783 58.4887 23.6115Z" fill="#FDF403"/>
<path d="M69.1074 49.9362L70.0384 49.1772L70.6853 49.8624C70.3382 51.9125 69.2547 53.1615 67.0508 53.1826C66.9112 53.05 66.8183 52.8755 66.786 52.6854C66.7538 52.4954 66.7839 52.3 66.872 52.1286C66.951 52.0739 67.0234 52.0102 67.0876 51.9388L69.1074 49.9362Z" fill="#271307"/>
<path d="M54.4064 34.4786C55.3899 34.8001 55.574 33.3824 56.4787 33.53C56.5208 34.6789 56.1578 35.7645 54.9691 35.9226C54.1539 36.0281 54.4169 35.0531 54.4064 34.4786Z" fill="#FA0803"/>
<path d="M57.5518 26.1252C58.9614 27.759 58.5511 29.7195 58.5406 31.6062C58.211 29.7828 57.8814 27.9558 57.5518 26.1252Z" fill="#FDF403"/>
<path d="M90.851 80.7403C90.7142 82.411 90.0463 83.6073 88.1896 83.602C86.6537 83.602 85.7491 82.7325 85.7175 81.1988C85.6912 79.544 86.3802 78.3213 88.2317 78.2106C89.9831 78.1105 90.6564 79.1909 90.851 80.7403Z" fill="#FCFCFC"/>
<path d="M21.7914 80.3133C22.0228 79.001 22.9801 78.0155 24.7684 78.2052C26.2937 78.3686 27.1668 79.3225 26.988 80.8877C26.7986 82.532 25.936 83.7442 24.0951 83.5861C22.4383 83.4385 21.6178 82.4214 21.7914 80.3133Z" fill="#F9F9F9"/>
<path d="M47.39 83.8498C46.5484 83.8498 45.9961 83.6812 46.0172 82.6851C46.0435 81.5415 46.722 81.473 47.5951 81.494C48.4682 81.5151 49.2256 81.6785 49.1204 82.7642C49.0152 83.8498 48.058 83.7233 47.39 83.8498Z" fill="#E4E4E4"/>
<path d="M49.0938 78.922C48.9991 79.8443 48.3048 79.9761 47.6 80.0235C46.8952 80.0709 46.1063 80.1658 46.1641 79.0696C46.2115 78.2475 46.6165 77.7573 47.5001 77.8891C48.1734 77.9892 48.915 78.0261 49.0938 78.922Z" fill="#D7D7D6"/>
<path d="M99.0995 60.3078C101.203 60.3394 103.307 60.429 105.38 60.3816C106.658 60.3816 107.247 60.6978 107.347 62.1155C107.636 66.2684 107.699 66.2684 103.486 66.2631C99.3783 66.2631 95.2757 66.2631 91.1731 66.2157C90.6471 66.2157 89.7688 66.5055 89.6741 65.6518C89.5794 64.798 90.4525 64.8665 90.9943 64.6821C93.3033 63.8863 95.6228 63.101 97.9371 62.3368C98.7787 61.9205 97.469 60.2656 99.0995 60.3078Z" fill="#F7A61C"/>
<path d="M77.4912 47.7964C78.5747 49.4934 80.6471 48.4868 82.0093 49.4881C83.5873 50.6739 85.2809 51.7596 86.822 53.0139C88.2 54.1417 89.7096 55.2432 90.083 57.1879C89.9147 58.8164 90.7194 60.7452 88.6681 61.794C87.0218 58.0311 83.4926 55.9968 80.7786 53.23C79.7529 52.1759 78.6063 51.2431 77.5123 50.2523C76.8548 49.4565 76.4393 48.6449 77.4912 47.7964Z" fill="#F6A81D"/>
<path d="M77.4909 47.7964C77.2542 48.5979 77.2542 49.4509 77.4909 50.2524C76.3496 48.9453 75.4344 49.0086 74.0616 50.2524C71.4738 52.5396 68.623 54.5318 65.8669 56.6504C65.0727 56.8506 64.815 56.3869 64.7256 55.7175C65.4214 54.8095 66.1958 53.9647 67.0399 53.1931C68.6441 52.508 69.696 51.2221 70.6848 49.8624C71.7105 48.8083 72.815 47.8123 73.7407 46.7002C74.6664 45.5882 75.8446 44.3603 77.1332 44.7872C78.1957 45.1192 77.1964 46.7793 77.4909 47.7964Z" fill="#F5A91C"/>
<path d="M90.5938 57.7307C91.6457 55.9599 93.4025 56.9138 94.8542 56.6767C96.2953 58.2577 95.6273 59.8388 94.8542 61.4198L90.1204 63.0536C88.8739 62.8902 89.221 61.8889 89.3841 61.2828C89.7102 60.0917 89.5208 58.6846 90.5938 57.7307Z" fill="#BCBAB9"/>
<path d="M95.3266 68.1236C96.4627 68.1236 97.5988 68.1236 98.7296 68.1236C99.303 68.1236 100.108 67.9708 100.123 68.8667C100.139 69.7626 99.3818 70.6269 98.7822 70.5163C96.6205 70.1447 94.4114 70.1447 92.2497 70.5163C91.4607 70.6375 90.5087 69.7468 90.4351 68.9352C90.3246 67.6651 91.487 68.1658 92.1866 68.1183C93.2332 68.0762 94.2799 68.1289 95.3266 68.1236Z" fill="#E5A21A"/>
<path d="M102.992 70.806C102.04 70.5635 101.414 70.0365 101.493 68.993C101.551 68.155 101.803 67.4752 102.887 67.5542C103.97 67.6333 104.58 68.1814 104.638 69.1353C104.696 70.0892 103.944 70.6373 102.992 70.806Z" fill="#E5A01B"/>
<path d="M87.9206 70.7744C86.9528 70.5899 86.3006 70.0893 86.3795 69.051C86.4584 68.0128 87.2263 67.6492 88.1783 67.5806C89.2723 67.5016 89.4564 68.2763 89.488 69.0774C89.5301 70.1156 88.8568 70.5899 87.9206 70.7744Z" fill="#EDA61B"/>
<rect x="76.2891" y="47.4456" width="1.93063" height="3.86126" rx="0.3" transform="rotate(-48.4515 76.2891 47.4456)" fill="#696969"/>
<path d="M99.0988 60.3078C98.0942 60.6293 99.0252 62.068 97.9364 62.3368C97.9364 61.9205 97.9364 61.5094 97.4894 61.2828C96.4374 59.7597 96.3848 58.2629 97.5998 56.7926C98.3099 56.2234 98.9779 55.8439 99.0462 57.2511C99.0936 58.2682 99.083 59.2906 99.0988 60.3078Z" fill="#5B3A02"/>
<path d="M97.599 56.7924L97.4885 61.2879L96.0316 61.3459C94.927 59.828 95.3215 58.2733 95.9422 56.7186L97.599 56.7924Z" fill="#A6A5A8"/>
<path d="M95.9423 56.7187C95.9738 58.2629 96.0001 59.8071 96.0317 61.346L94.8535 61.4356C95.1697 59.8704 95.1697 58.2576 94.8535 56.6924L95.9423 56.7187Z" fill="#342F2D"/>
<path d="M90.594 57.7307C90.4625 59.5121 88.8267 61.1616 90.1259 63.0694C88.7268 63.7124 88.9687 62.4476 88.6689 61.8151C89.8103 60.487 89.0424 58.5687 90.0838 57.209L90.594 57.7307Z" fill="#3B2925"/>
<path d="M37.0127 65.3408V65.8678C36.8181 67.5543 36.3026 67.9074 34.3828 67.7019H34.4459C34.1303 65.657 36.0554 66.0312 37.0127 65.3408Z" fill="#D0CECD"/>
<path d="M64.8315 55.7016L63.4482 55.4908C65.3312 55.106 65.8414 53.3405 66.8723 52.1073C66.9302 52.4709 66.9828 52.8346 67.0406 53.1982C66.7408 54.3998 65.7678 55.0428 64.8315 55.7016Z" fill="#DFAF62"/>
<path d="M55.2273 43.3271C58.2464 39.9753 59.7191 36.1281 59.0669 31.5799C58.6093 29.9514 58.6514 28.2228 58.015 26.6417C57.9094 26.4379 57.7625 26.2584 57.5837 26.1147C57.0209 24.0066 57.2734 24.3913 57.0209 23.4796C56.4529 22.2358 56.4949 21.3715 57.0209 19.5322C57.063 19.0526 56.8684 18.5941 56.4266 18.5467C55.7901 18.4782 55.9637 19.0737 55.9321 19.4479C55.8901 19.9486 56.0005 20.5019 55.5114 20.8445C55.6323 21.7141 55.7533 22.5889 55.869 23.4796L56.3319 25.0606C56.395 25.419 56.4371 26.6786 56.5738 27.4059C56.5738 28.4599 57.0998 30.3361 56.8999 31.427C56.7001 32.518 56.3319 32.821 55.9216 33.3349C55.6271 33.7038 55.9216 33.9341 54.9959 34.4205C54.9118 34.1096 54.8381 33.7881 54.7329 33.4719C54.6203 33.1365 54.4777 32.8119 54.3069 32.5022C52.7868 30.9211 52.9446 32.9449 52.3871 33.4139C51.8296 34.6208 51.5245 35.9331 50.8092 37.103C50.157 39.3323 50.157 38.8053 49.0577 40.8923C48.7106 41.7619 48.3582 42.6367 48.0058 43.5274C47.394 44.9032 47.0748 46.3916 47.0685 47.8978C47.0621 49.404 47.3688 50.895 47.9689 52.2759C48.3634 53.0344 48.6857 53.8284 48.9315 54.6475C49.4154 56.081 50.1465 57.2826 51.7717 57.6199C54.1386 56.9717 52.5133 55.6436 52.0663 54.8794C50.2254 51.7173 50.8407 48.8819 52.8289 46.1045C53.5741 45.133 54.3749 44.2056 55.2273 43.3271Z" fill="#FA0803"/>
<path d="M57.5051 26.1886C57.342 25.3085 57.179 24.4231 57.0107 23.5535C57.5366 22.6365 58.0626 22.6155 58.4886 23.6221C60.0666 25.6616 61.4183 27.8909 63.0015 29.9463C66.252 34.1941 65.6313 41.6883 61.9495 46.1574C60.383 47.9317 58.9865 49.8497 57.7786 51.8861C56.9265 53.4145 56.5951 54.9639 57.3841 57.5199C57.7944 53.0297 60.4979 50.8584 62.8963 48.4657C65.2081 46.308 66.6019 43.3412 66.7885 40.181C68.5925 44.5236 68.2664 48.2075 67.1041 51.9124C67.2355 51.786 67.3776 51.728 67.3881 51.7649C67.4223 51.9781 67.3854 52.1967 67.2829 52.3868C66.5758 54.013 65.339 55.3508 63.7747 56.1813C62.9489 57.2353 62.6123 58.5687 61.8601 59.6754C58.6044 62.3105 55.7431 60.5239 52.866 58.8796C52.4028 58.5823 52.0743 58.115 51.9508 57.5779C51.8877 57.4356 51.8193 57.2986 51.7457 57.1563C52.4873 57.2933 52.7976 57.0614 52.2717 56.3921C48.5899 51.5435 50.3308 47.3168 54.0074 43.6119C55.6042 42.0722 56.8405 40.1969 57.6272 38.1209C58.414 36.045 58.7315 33.8201 58.557 31.6064" fill="#FDF403"/>
<path d="M64.832 55.7017L65.884 56.6556C66.2679 57.3565 66.9727 57.1826 67.5671 57.2616C67.9458 58.3157 69.429 58.5739 69.3764 59.8967C67.2147 61.3618 63.3488 61.072 61.7656 59.3275C61.8445 57.8255 62.6124 56.6345 63.4698 55.4803C63.9326 55.4065 64.4323 55.2273 64.832 55.7017Z" fill="#595351"/>
<path d="M69.1136 59.3485C68.8454 58.4579 66.6521 59.0165 67.5357 57.2404C67.7987 57.2404 68.1248 57.135 68.3141 57.2404C70.7178 58.7372 71.5752 61.8571 74.3102 63.0377L74.3681 62.9691C72.0222 63.9072 70.7389 63.4224 69.7869 61.288C69.5186 60.6661 69.587 59.9177 69.1136 59.3485Z" fill="#CECDCC"/>
<path d="M51.929 57.5778L52.7653 58.2102C52.3918 58.7899 51.7554 58.8004 51.1873 58.9585C48.5154 59.6964 45.6436 59.8545 43.3451 61.6832C42.9243 61.562 42.614 61.3723 42.7928 60.8505C44.8547 57.0138 48.8573 58.5475 51.929 57.5778Z" fill="#D8D6D3"/>
<path d="M42.788 60.8505L43.3561 61.4407C43.5717 62.226 42.93 62.4948 42.4619 62.7952C40.6578 63.9862 39.0115 65.4566 36.855 66.0311C36.8344 65.9112 36.8377 65.7885 36.8647 65.67C36.8918 65.5515 36.9422 65.4395 37.0128 65.3407C36.7814 64.6292 35.8715 63.2642 37.2495 63.4434C39.8426 63.7807 40.9681 61.72 42.788 60.8505Z" fill="#BEBDBC"/>
</g>
<defs>
<clipPath id="clip0_719_4704">
<rect width="140" height="100" fill="white"/>
</clipPath>
</defs>
</svg>
