<svg width="140" height="100" viewBox="0 0 140 100" fill="none" xmlns="http://www.w3.org/2000/svg">
<path fill-rule="evenodd" clip-rule="evenodd" d="M93.8164 42.3666L86.8408 49.3422V64.6081H86.8422C86.8422 73.9073 79.2995 81.4501 70.0002 81.4501C60.7701 81.4501 53.272 74.0192 53.1606 64.8151H53.1592V64.7237C53.1587 64.6851 53.1578 64.6466 53.1578 64.6081H53.1592V49.3422L46.1836 42.3666L53.1592 35.391V25.5255H63.0246L70.0002 18.5499L76.9758 25.5255H86.8408V35.391L93.8164 42.3666ZM70.0002 13C80.2165 13 89.467 17.1415 96.1623 23.8377C102.859 30.533 107 39.7835 107 49.9998C107 60.2165 102.859 69.467 96.1623 76.1623C89.467 82.8576 80.2165 87 70.0002 87C59.784 87 50.533 82.8576 43.8377 76.1623C37.1424 69.467 33 60.2165 33 49.9998C33 39.7835 37.1424 30.533 43.8377 23.8377C50.533 17.1415 59.784 13 70.0002 13ZM94.3798 25.6202C88.1411 19.3811 79.5208 15.5218 70.0002 15.5218C60.4791 15.5218 51.8588 19.3811 45.6202 25.6202C39.3816 31.8589 35.5218 40.4792 35.5218 49.9998C35.5218 59.5208 39.3816 68.1411 45.6202 74.3798C51.8588 80.6184 60.4791 84.4782 70.0002 84.4782C79.5208 84.4782 88.1411 80.6184 94.3798 74.3798C100.619 68.1411 104.478 59.5208 104.478 49.9998C104.478 40.4792 100.619 31.8589 94.3798 25.6202ZM72.9778 29.6999L73.7649 31.1794C72.5202 31.4811 72.7671 33.608 74.2856 33.608C75.0369 33.608 75.6198 33.032 75.6198 32.2737C75.6198 32.1048 75.6151 31.9823 75.6063 31.9067C75.5975 31.831 75.5618 31.7043 75.4973 31.5261C75.2439 30.8017 74.4526 30.2304 73.9055 29.6999H72.9778ZM53.4646 48.731H61.7995C60.4907 47.0477 59.6893 44.952 59.6234 42.6719H47.4051L53.4646 48.731ZM86.5336 48.731H78.1991C79.5074 47.0477 80.3089 44.952 80.3748 42.6719H92.5935L86.5336 48.731ZM78.5495 64.357C78.5467 68.6605 75.3618 72.2209 71.2217 72.8135V78.9561C78.601 78.3356 84.4002 72.1476 84.4002 64.6081V49.3422H76.8398C78.5806 47.6353 79.6861 45.2824 79.7659 42.6719H78.5435C78.3825 47.251 74.6183 50.9163 70.0002 50.9163C65.3817 50.9163 61.6175 47.251 61.4565 42.6719H60.2341C60.236 42.7346 60.2388 42.7968 60.2415 42.8585L60.242 42.8696L60.2425 42.8757C60.2462 42.9536 60.2513 43.0311 60.2569 43.1082L60.2578 43.1184L60.2582 43.1281C60.2643 43.2019 60.2708 43.2757 60.2782 43.3495L60.2805 43.3727C60.2879 43.446 60.2968 43.5189 60.3056 43.5917L60.3093 43.621C60.3186 43.6934 60.3288 43.7653 60.3395 43.8372L60.3432 43.8632C60.3543 43.9347 60.3664 44.0057 60.3784 44.0762L60.3835 44.1055C60.3961 44.1742 60.4091 44.2424 60.423 44.3106L60.4309 44.3491C60.4439 44.4132 60.4578 44.4772 60.4727 44.5413L60.4838 44.5914C60.4982 44.6526 60.513 44.713 60.5283 44.7738L60.5427 44.8299C60.5585 44.8898 60.5747 44.9501 60.5915 45.01L60.6054 45.0582C60.623 45.1209 60.6416 45.1835 60.6611 45.2457L60.6745 45.2898C60.6936 45.3506 60.7135 45.4114 60.7339 45.4722L60.7502 45.5209C60.7697 45.578 60.7896 45.6351 60.8105 45.6917L60.8332 45.7544C60.8532 45.8077 60.8732 45.8611 60.894 45.914L60.9191 45.978C60.9391 46.0277 60.959 46.0769 60.9794 46.1256L61.0138 46.2073C61.0337 46.2542 61.0541 46.3006 61.075 46.347L61.108 46.4198C61.1293 46.4672 61.1511 46.5141 61.1734 46.5605L61.2105 46.638L61.276 46.7698L61.3228 46.8607L61.3252 46.8654L61.3809 46.9712L61.3855 46.9795L61.4333 47.0672L61.5029 47.1921L61.5502 47.2738L61.6185 47.3893L61.6742 47.4803L61.6793 47.4891L61.7424 47.5903L61.8046 47.6868L61.8069 47.6905L61.8728 47.7898L61.9378 47.8859L61.9489 47.9017C61.9897 47.9611 62.031 48.02 62.0728 48.078L62.0765 48.0831L62.1466 48.1792L62.2139 48.2683L62.2431 48.3068C62.3313 48.4214 62.4218 48.5342 62.5146 48.6451L62.5169 48.6474C62.6682 48.828 62.8265 49.0025 62.9903 49.1718L62.9982 49.1793C63.0511 49.234 63.1049 49.2879 63.1597 49.3417L63.1601 49.3422H55.6017V64.7223C55.6601 72.2097 61.4365 78.3384 68.7788 78.9561V72.8135C64.6382 72.2209 61.4537 68.6605 61.4509 64.357H61.4505V64.351V58.2442H63.8934V64.351C63.8934 67.723 66.6282 70.4578 70.0002 70.4578C73.3718 70.4578 76.1071 67.723 76.1071 64.351V58.2442H78.5495V64.351V64.357ZM71.2217 54.5802V68.0154H68.7788V54.5802H62.0612V52.1378H77.9388V54.5802H71.2217ZM55.5993 36.0708L62.2222 38.8145C62.6065 37.9754 63.1221 37.2088 63.7435 36.5419L55.5993 28.3977V36.0708ZM64.4809 39.7501L67.3095 40.9219C67.4028 40.7488 67.5123 40.5854 67.6357 40.4346L65.4713 38.2701C65.0731 38.7096 64.7385 39.208 64.4809 39.7501ZM67.0756 41.4857L64.2466 40.3139C64.0502 40.8643 63.9305 41.4509 63.9004 42.0612H66.9619C66.9814 41.8635 67.0204 41.6709 67.0756 41.4857ZM61.9883 39.3784L55.3654 36.6352L49.9394 42.0612H61.4565C61.4895 41.1205 61.6751 40.2183 61.9883 39.3784ZM64.2688 27.7318L67.012 34.3547C67.8515 34.0414 68.7537 33.8558 69.6949 33.8228V22.3057L64.2688 27.7318ZM67.9471 36.6134L69.1194 39.4424C69.3041 39.3867 69.4967 39.3482 69.6949 39.3287V36.2672C69.0846 36.2969 68.4975 36.4171 67.9471 36.6134ZM68.5551 39.6763L67.3833 36.8473C66.8412 37.1048 66.3433 37.4399 65.9033 37.8381L68.0678 40.0025C68.2186 39.8791 68.382 39.7696 68.5551 39.6763ZM66.4477 34.5886L63.7045 27.9657H56.0309L64.1751 36.1103C64.8424 35.4889 65.6086 34.9728 66.4477 34.5886ZM70.3056 22.3057V33.8224C71.2463 33.8558 72.1485 34.0414 72.988 34.3547L73.3458 33.4915C73.505 33.6307 73.6957 33.7119 73.898 33.7542L73.5523 34.5886C74.3914 34.9728 75.158 35.4889 75.8249 36.1103L83.9691 27.9657H76.2955L75.177 30.6657C75.0336 30.5 74.8745 30.3436 74.7125 30.1919L75.7316 27.7318L70.3056 22.3057ZM70.3056 36.2667V39.3287C70.5033 39.3482 70.6959 39.3867 70.8806 39.4424L72.0524 36.6134C71.5025 36.4171 70.9154 36.2969 70.3056 36.2667ZM71.4449 39.6763C71.618 39.7696 71.7814 39.8791 71.9327 40.0025L74.0967 37.8381C73.6572 37.4399 73.1588 37.1048 72.6167 36.8473L71.4449 39.6763ZM72.3643 40.4341C72.4877 40.5854 72.5972 40.7483 72.6905 40.9214L75.5191 39.7501C75.262 39.208 74.9269 38.7096 74.5287 38.2697L72.3643 40.4341ZM72.9244 41.4857C72.9801 41.6709 73.0186 41.8635 73.0386 42.0612H76.0996C76.0699 41.4514 75.9497 40.8643 75.753 40.3139L72.9244 41.4857ZM78.5435 42.0612C78.5105 41.1205 78.3254 40.2183 78.0121 39.3784L84.635 36.6352L90.061 42.0612H78.5435ZM77.7782 38.8145C77.394 37.975 76.8779 37.2088 76.2565 36.5419L84.4011 28.3977V36.0713L77.7782 38.8145ZM76.0996 42.6719C75.9405 45.9024 73.2697 48.4739 70.0002 48.4739C66.7303 48.4739 64.0595 45.9024 63.9004 42.6719H76.0996Z" fill="#9A8452"/>
<path fill-rule="evenodd" clip-rule="evenodd" d="M60.5697 46.7113C60.2741 46.0709 60.0416 45.3947 59.8805 44.6917H49.4248L51.4445 46.7113H60.5697ZM79.4286 46.7113C79.7246 46.0709 79.9567 45.3947 80.1177 44.6917H90.5739L88.5538 46.7113H79.4286Z" fill="#FEFEFE"/>
<path fill-rule="evenodd" clip-rule="evenodd" d="M53.4645 48.7312H61.7994C61.3167 48.1103 60.9028 47.4337 60.5696 46.7115H51.4443L53.4645 48.7312ZM86.5335 48.7312H78.1991C78.6817 48.1103 79.0952 47.4337 79.4284 46.7115H88.5536L86.5335 48.7312Z" fill="#3FAB3C"/>
<path fill-rule="evenodd" clip-rule="evenodd" d="M80.1179 44.6917C80.2673 44.0396 80.355 43.3644 80.375 42.672H92.5937L90.5741 44.6917H80.1179ZM59.8807 44.6917C59.7317 44.0396 59.6435 43.3644 59.6236 42.672H47.4053L49.4249 44.6917H59.8807Z" fill="#00B6ED"/>
<path fill-rule="evenodd" clip-rule="evenodd" d="M90.696 44.5697H80.1451L80.0889 44.8138H90.4514L90.696 44.5697ZM49.3027 44.5697H59.8536L59.9098 44.8138H49.5468L49.3027 44.5697ZM51.322 46.5894H60.5149L60.6296 46.8335H51.5698L51.322 46.5894ZM88.6763 46.5894H79.4833L79.3691 46.8335H88.4285L88.6763 46.5894Z" fill="#E31E24"/>
</svg>
