<svg width="140" height="100" viewBox="0 0 140 100" fill="none" xmlns="http://www.w3.org/2000/svg">
<g clip-path="url(#clip0_709_3870)">
<rect x="100.062" y="-14.294" width="7.75816" height="153.698" transform="rotate(41.7561 100.062 -14.294)" fill="#E4E4E5" stroke="#C7C9CB"/>
<rect x="120.255" y="-14.294" width="7.75816" height="153.698" transform="rotate(41.7561 120.255 -14.294)" fill="#E4E4E5" stroke="#C7C9CB"/>
<rect x="139.255" y="-14.294" width="7.75816" height="153.698" transform="rotate(41.7561 139.255 -14.294)" fill="#E4E4E5" stroke="#C7C9CB"/>
<path d="M50.4572 40.4274C50.4811 39.3517 51.3518 38.4877 52.4277 38.4721L83.0592 38.0281C84.1403 38.0125 85.0382 38.8589 85.0862 39.9391L85.9084 58.44C85.9585 59.5674 85.0666 60.513 83.9382 60.5286L52.0733 60.9712C50.9406 60.9869 50.0209 60.0596 50.0461 58.927L50.4572 40.4274Z" fill="white"/>
<path d="M69.2956 84.4571H68.1692C68.1665 84.4525 68.1649 84.4473 68.1643 84.442C68.1637 84.4367 68.1642 84.4314 68.1658 84.4263C68.1675 84.4212 68.1701 84.4165 68.1736 84.4125C68.1771 84.4085 68.1814 84.4053 68.1863 84.403C68.448 84.3348 68.7139 84.3831 68.9784 84.3718C69.0795 84.3565 69.1828 84.3673 69.2785 84.403C69.2833 84.4053 69.2876 84.4085 69.2912 84.4125C69.2947 84.4165 69.2973 84.4212 69.2989 84.4263C69.3005 84.4314 69.3011 84.4367 69.3005 84.442C69.2999 84.4473 69.2982 84.4525 69.2956 84.4571Z" fill="#A2C2E0"/>
<path d="M68.1675 84.4286C68.1682 84.4381 68.1682 84.4476 68.1675 84.4571H67.8604C67.861 84.4476 67.861 84.4381 67.8604 84.4286C67.9024 84.3906 67.9572 84.3695 68.0139 84.3695C68.0707 84.3695 68.1254 84.3906 68.1675 84.4286Z" fill="#C4D8EB"/>
<path d="M69.2945 84.4572C69.2938 84.4477 69.2938 84.4382 69.2945 84.4287C69.3365 84.3911 69.3909 84.3702 69.4473 84.3702C69.5038 84.3702 69.5582 84.3911 69.6002 84.4287V84.4572H69.2945Z" fill="#D8E5F1"/>
<path d="M69.6012 84.4287H67.8605C66.3775 84.3947 64.8982 84.2651 63.4319 84.0406C61.0625 83.6805 58.738 83.0699 56.4975 82.2192C51.321 80.2565 46.6913 77.0802 42.9975 72.9573C39.3038 68.8344 36.6538 63.8853 35.2704 58.5258C34.4095 55.152 34.061 51.668 34.2365 48.1906C34.5949 41.6004 36.6286 35.5718 40.4329 30.176C44.8671 23.8877 50.7501 19.5374 58.0818 17.125C60.209 16.4324 62.4008 15.9561 64.6236 15.7032C66.5871 15.4645 68.5677 15.3993 70.5426 15.5084C77.7245 15.9221 84.1868 18.298 89.8583 22.7256C95.7887 27.3508 99.792 33.3054 101.885 40.534C102.432 42.4446 102.807 44.4003 103.005 46.3777C103.204 48.2668 103.244 50.1693 103.124 52.065C102.662 59.1353 100.269 65.4795 95.9437 71.0976C95.3748 71.8413 94.759 72.5522 94.1319 73.2489C94.1046 73.2646 94.0737 73.2729 94.0423 73.2729C94.0108 73.2729 93.9799 73.2646 93.9527 73.2489C93.5746 73.107 93.21 72.9314 92.8633 72.7242C92.6912 72.6233 92.6784 72.5607 92.7936 72.3972C93.4094 71.5299 93.7024 70.5488 93.8133 69.5052C93.9493 68.3687 93.8525 67.2164 93.5289 66.1184C93.2952 65.3123 92.8669 64.576 92.2817 63.9743C92.2105 63.9032 92.1195 63.8449 92.1167 63.7269C92.2433 63.4603 92.3833 63.2002 92.5362 62.9477C93.171 61.7788 93.7218 60.5663 94.1845 59.3192C94.7783 57.701 95.2164 56.0299 95.4929 54.3286C95.6123 53.6006 95.6977 52.8684 95.7531 52.1304C95.8171 51.293 95.8669 50.4541 95.8484 49.6138C95.8256 48.6612 95.7702 47.71 95.6564 46.7616C95.5084 45.503 95.2741 44.2559 94.9553 43.0293C94.5525 41.5006 94.0167 40.0101 93.354 38.5747C92.5651 36.8692 91.6029 35.2493 90.4826 33.7405C89.955 33.0296 89.3876 32.3471 88.7917 31.6888C88.5073 31.3817 88.2328 31.076 87.9384 30.7859C86.1863 29.0288 84.2043 27.5169 82.0464 26.2915C79.5084 24.8604 76.7564 23.8474 73.8961 23.2915C72.9932 23.1155 72.0818 22.9869 71.1655 22.9062C70.4545 22.845 69.7434 22.8166 69.0408 22.8024C68.5061 22.791 67.9728 22.8024 67.4424 22.818C66.4944 22.8602 65.5496 22.9551 64.6123 23.1024C62.9641 23.3495 61.3425 23.7493 59.7684 24.2967C58.824 24.6252 57.8983 25.0049 56.9952 25.4342C55.8864 25.9624 54.8149 26.5657 53.7883 27.2399C52.8052 27.8867 51.8642 28.5952 50.971 29.3613C50.3068 29.93 49.6911 30.5343 49.0795 31.157C48.396 31.8633 47.754 32.6087 47.1568 33.3893C44.1238 37.3188 42.2314 42.0072 41.6872 46.9408C41.6303 47.4356 41.6033 47.9361 41.5649 48.4323C41.5265 48.9285 41.5322 49.4275 41.5322 49.9309C41.5322 50.4342 41.5322 50.9404 41.5635 51.4451C41.6147 52.1774 41.6787 52.9053 41.7725 53.6319C41.9224 54.7583 42.1447 55.8739 42.4381 56.9718C43.138 59.5898 44.2282 62.0875 45.6721 64.3809C46.414 65.5603 47.2446 66.6816 48.1566 67.735C48.4495 68.0748 48.7567 68.4004 49.0667 68.7303C50.071 69.7827 51.1587 70.7522 52.3192 71.6294C53.2995 72.3695 54.3286 73.0426 55.3996 73.6441C58.4259 75.3465 61.7543 76.4445 65.1996 76.8774C66.0614 76.9845 66.9266 77.0537 67.795 77.085C68.2146 77.0992 68.6355 77.1177 69.0551 77.1049C69.8941 77.0807 70.7332 77.0381 71.5694 76.9499C72.9094 76.8074 74.237 76.5664 75.5415 76.229C78.2861 75.5141 80.9011 74.3722 83.2908 72.8451C83.3589 72.7935 83.4354 72.7541 83.5169 72.7285C83.6435 72.7285 83.7061 72.8237 83.7758 72.9034C84.2992 73.4914 84.9575 73.9437 85.6942 74.2214C87.2031 74.7618 88.8492 74.7833 90.3717 74.2825C90.4315 74.2579 90.4967 74.249 90.5609 74.2567C90.6251 74.2645 90.6863 74.2885 90.7386 74.3266C91.1653 74.611 91.5919 74.9167 92.0356 75.1797C92.0712 75.1996 92.1238 75.2167 92.1039 75.2793C87.7035 79.3602 82.3095 82.2159 76.4602 83.5614C74.4415 84.0315 72.3832 84.3114 70.3123 84.3974L69.6012 84.4287Z" fill="#0B5FAF"/>
<path d="M92.1031 75.2792C91.6068 74.9835 91.1304 74.655 90.654 74.328C90.6184 74.3064 90.5775 74.295 90.5359 74.295C90.4943 74.295 90.4535 74.3064 90.4179 74.328C88.9066 74.8496 87.2626 74.8401 85.7575 74.301C84.9496 74.0185 84.2305 73.5281 83.6726 72.8792C83.6314 72.8308 83.6072 72.7526 83.5204 72.7612C82.9061 71.9858 82.5068 71.0624 82.3628 70.0839C82.1523 68.7573 82.1594 67.4321 82.5576 66.1354C82.9985 64.7008 83.8589 63.596 85.21 62.9107C85.8829 62.5728 86.6162 62.3713 87.3674 62.3178C88.1602 62.2426 88.9599 62.2906 89.7381 62.46C90.59 62.6552 91.3819 63.0538 92.0462 63.6216C92.0871 63.6527 92.121 63.6919 92.1458 63.7368C92.1482 63.7563 92.1546 63.7751 92.1647 63.792C92.1747 63.8089 92.1881 63.8235 92.2041 63.8349C93.0408 64.6574 93.5895 65.7281 93.7685 66.8876C94.0324 68.2594 93.9567 69.675 93.548 71.0109C93.3792 71.5412 93.1246 72.0402 92.7943 72.4882C92.726 72.5806 92.7346 72.6204 92.8341 72.6758C93.2396 72.9257 93.6755 73.1226 94.1311 73.2616L94.1425 73.273C94.2492 73.3441 94.4468 73.3327 94.4667 73.4451C94.4867 73.5574 94.3615 73.6711 94.3032 73.7877C94.0017 74.3778 93.6988 74.9678 93.4015 75.5607C93.3927 75.5887 93.3778 75.6143 93.3579 75.6359C93.338 75.6574 93.3136 75.6742 93.2864 75.6852C93.2593 75.6962 93.23 75.7011 93.2007 75.6995C93.1715 75.6979 93.1429 75.6898 93.1171 75.6759C92.7701 75.5565 92.4402 75.4086 92.1031 75.2792Z" fill="#F4F4F4"/>
<path d="M93.1072 68.5213C93.0958 69.5308 92.965 70.5118 92.4971 71.4261C92.2598 71.8666 91.9674 72.2751 91.6267 72.6417C91.5528 72.7242 91.5513 72.7597 91.6452 72.8294C92.1395 73.203 92.6737 73.5206 93.238 73.7763C93.3376 73.819 93.366 73.856 93.3077 73.9598C93.1854 74.1773 93.073 74.4005 92.9635 74.6252C92.9209 74.7133 92.8796 74.7403 92.7844 74.6948C92.5656 74.6 92.3541 74.4893 92.1515 74.3636C91.6993 74.0593 91.2427 73.7607 90.7948 73.4507C90.7519 73.4159 90.6996 73.3947 90.6446 73.3898C90.5896 73.385 90.5344 73.3968 90.4862 73.4237C89.0641 74.0318 87.4626 74.0695 86.0135 73.5289C85.412 73.3229 84.8675 72.978 84.4242 72.5222C83.9809 72.0664 83.6513 71.5126 83.4622 70.9057C82.9186 69.3697 82.9136 67.6945 83.4479 66.1553C84.0267 64.4705 85.2541 63.5036 87.0033 63.2036C87.9911 63.0153 89.0104 63.0789 89.9671 63.3885C91.5471 63.9202 92.4857 65.0506 92.8967 66.6416C93.0488 67.2562 93.1196 67.8882 93.1072 68.5213Z" fill="#0B60B0"/>
<path d="M74.6413 30.0253L72.6119 32.4822C72.4697 32.6486 72.4697 32.6486 72.3531 32.4822C72.2611 32.3664 72.1752 32.2458 72.0957 32.1211C72.0303 32.0101 71.9705 32.0173 71.8909 32.0955C71.8705 32.1156 71.8469 32.1324 71.8212 32.1452C71.7089 32.2049 71.679 32.2661 71.7771 32.377C71.908 32.5334 72.0189 32.7068 72.1369 32.8732C72.1639 32.9116 72.2166 32.9457 72.1796 33.0069C72.1657 33.0315 72.1447 33.0515 72.1194 33.0641C72.094 33.0768 72.0655 33.0816 72.0374 33.0779C71.8952 33.0779 71.7416 33.0865 71.5951 33.0779C71.4714 33.0694 71.4301 33.1178 71.4529 33.2329C71.4557 33.2499 71.4557 33.2672 71.4529 33.2841C71.4216 33.4505 71.4913 33.5116 71.6534 33.4832C71.6875 33.4803 71.7217 33.4803 71.7558 33.4832C71.7714 33.5514 71.7174 33.5784 71.6875 33.6154C68.9684 36.914 66.2464 40.2141 63.5215 43.5156C63.503 43.5369 63.4803 43.554 63.4604 43.5739C63.0977 43.7559 62.4649 43.7161 62.1947 43.3535C61.9315 42.9829 61.6375 42.6352 61.3158 42.3141C61.2682 42.2761 61.2301 42.2274 61.2048 42.172C61.0825 41.808 60.7711 41.6288 60.4938 41.4227C60.2719 41.2591 60.2591 41.2549 60.3629 40.9961C60.554 40.5342 60.5601 40.0164 60.38 39.5501C60.2113 39.1155 60.222 38.6317 60.4099 38.2051C60.5672 37.8713 60.5857 37.4888 60.4611 37.1415C60.3857 36.9411 60.4355 36.8899 60.6531 36.8828C60.8706 36.8756 60.8877 36.8742 60.8934 36.6467C60.8934 36.5202 60.9361 36.4391 61.0769 36.4363C61.1247 36.4323 61.1722 36.4251 61.2191 36.415C61.4352 36.3823 61.5035 36.287 61.4665 36.068C61.4276 35.8998 61.3259 35.7528 61.1821 35.6571C61.1487 35.6344 61.1099 35.6211 61.0696 35.6186C61.0293 35.6161 60.9891 35.6245 60.9531 35.6429C60.8331 35.6883 60.7032 35.7008 60.5767 35.6793C60.4503 35.6578 60.3318 35.6031 60.2335 35.5206C60.1539 35.4633 60.057 35.4352 59.959 35.441C59.6806 35.449 59.4023 35.4203 59.1314 35.3557C59.0362 35.3332 58.9366 35.3392 58.8448 35.3728C58.7531 35.4064 58.6732 35.4662 58.6151 35.5448C58.5629 35.5998 58.5263 35.6677 58.509 35.7415C58.4918 35.8153 58.4945 35.8924 58.517 35.9649C58.5394 36.0373 58.5808 36.1024 58.6368 36.1535C58.6928 36.2046 58.7614 36.2399 58.8355 36.2557C58.967 36.2943 59.1039 36.3111 59.2409 36.3055C59.3095 36.299 59.3783 36.315 59.4371 36.351C59.4604 36.3654 59.4795 36.3856 59.4924 36.4097C59.5054 36.4337 59.5119 36.4608 59.5112 36.4881C59.5105 36.5154 59.5026 36.5421 59.4883 36.5655C59.4741 36.5888 59.454 36.608 59.43 36.6211C59.3021 36.7063 59.1675 36.781 59.0275 36.8444C58.93 36.8784 58.8233 36.8759 58.7275 36.8373C58.5619 36.7792 58.3928 36.7317 58.2212 36.6951C58.1745 36.6813 58.1246 36.6836 58.0794 36.7016C58.0343 36.7197 57.9965 36.7524 57.9723 36.7946C57.9042 36.9034 57.81 36.9934 57.6982 37.0565C57.5865 37.1196 57.4607 37.1537 57.3323 37.1557C57.1734 37.1685 57.0156 37.1927 56.8602 37.2283C56.7973 37.2349 56.7389 37.2638 56.6953 37.3096C56.6518 37.3555 56.626 37.4154 56.6227 37.4785C56.6151 37.5349 56.6047 37.5909 56.5914 37.6463C56.5863 37.7093 56.5572 37.7679 56.5101 37.8099C56.4629 37.852 56.4014 37.8744 56.3382 37.8723C56.0808 37.8908 56.078 37.8965 56.0439 38.1439C56.0348 38.1973 56.0115 38.2472 55.9765 38.2885C55.9415 38.3298 55.896 38.3609 55.8448 38.3785C55.6201 38.488 55.384 38.5733 55.1536 38.6629C53.7954 39.2188 52.4401 39.7776 51.082 40.3293C51.0036 40.3525 50.9356 40.4018 50.8893 40.4691C50.843 40.5364 50.8211 40.6175 50.8274 40.6989C50.8274 41.0231 50.8573 41.3459 50.8743 41.6686C50.8857 41.8819 50.9085 42.0952 50.9199 42.3127C50.9341 42.6127 50.9597 42.9127 50.9668 43.2142C50.9855 44.2016 51.0562 45.1873 51.1787 46.1673C51.3209 47.2195 51.483 48.2702 51.6053 49.3252C51.6238 49.5015 51.5911 49.5555 51.4162 49.5825C51.1915 49.6152 50.9654 49.6309 50.7378 49.6479C50.7008 49.6482 50.6641 49.6403 50.6304 49.6248C50.5968 49.6093 50.5669 49.5866 50.543 49.5584C50.3688 49.4037 50.2141 49.2285 50.0822 49.0366C49.7976 48.5696 49.4639 48.1344 49.0867 47.7384C48.9925 47.6319 48.91 47.5156 48.8407 47.3915C48.784 47.2916 48.7009 47.2093 48.6006 47.1533C48.5003 47.0974 48.3866 47.0701 48.2718 47.0744C48.1751 47.0744 48.0784 47.0744 47.9874 47.0744C47.811 47.0673 47.7911 47.0446 47.8039 46.8725C47.8288 46.6176 47.8672 46.3641 47.9191 46.1133C48.5747 42.4496 50.2063 39.0305 52.6421 36.2159C53.0061 35.7894 53.3787 35.3799 53.7798 34.9931C55.1744 33.6275 56.7502 32.4602 58.4629 31.5239C60.9062 30.1911 63.5949 29.3687 66.3658 29.1068C67.2701 29.0154 68.1795 28.985 69.0878 29.0158C70.4291 29.0601 71.7629 29.2358 73.0699 29.5404C73.5463 29.6528 74.0199 29.7722 74.492 29.9229C74.5318 29.9257 74.6342 29.913 74.6413 30.0253Z" fill="#0B60B0"/>
<path d="M70.6656 45.2061C71.1235 44.6558 71.5815 44.1084 72.0366 43.5567L78.294 35.9556C78.3182 35.9258 78.3438 35.8973 78.3922 35.8419C78.4533 36.2841 78.5116 36.695 78.5671 37.1073C78.734 38.3102 78.8994 39.5131 79.0634 40.7159C79.116 41.1041 79.1644 41.4922 79.2241 41.879C79.2341 41.9458 79.1857 42.0994 79.3521 42.0468C79.4645 42.0112 79.6693 42.115 79.628 41.8378C79.4659 40.7259 79.3194 39.6126 79.1672 38.4993C79.025 37.504 78.8928 36.4988 78.7505 35.4978C78.7477 35.4616 78.7535 35.4252 78.7673 35.3916C78.7811 35.3581 78.8027 35.3282 78.8302 35.3044L80.6477 33.0935C80.733 33.0523 80.7899 33.1148 80.844 33.1575C81.8107 33.8793 82.712 34.6848 83.5375 35.5646C85.8339 38.0127 87.5023 40.981 88.3998 44.2151C88.424 44.3032 88.4937 44.4155 88.4141 44.4866C88.3344 44.5577 88.2434 44.471 88.1581 44.4482C88.0324 44.423 87.9131 44.3729 87.8071 44.3008C87.7011 44.2288 87.6106 44.1363 87.5409 44.0288C87.5017 43.9659 87.4455 43.9154 87.3788 43.8832C87.3121 43.8509 87.2376 43.8383 87.164 43.8468C86.8227 43.8568 86.4814 43.8539 86.14 43.8468C86.0807 43.8435 86.0217 43.857 85.9696 43.8856C85.9176 43.9143 85.8746 43.957 85.8457 44.0089C85.7263 44.2044 85.6689 44.4314 85.6807 44.6601C85.6977 44.8996 85.6485 45.1391 85.5385 45.3525C85.4933 45.4541 85.4259 45.5443 85.3412 45.6164C85.2565 45.6885 85.1568 45.7407 85.0493 45.7691C85.0028 45.7851 84.9523 45.7848 84.906 45.7683C84.8597 45.7518 84.8205 45.72 84.7947 45.6781C84.6397 45.4094 84.368 45.3013 84.1078 45.2046C83.4466 44.9617 82.7256 44.9329 82.0471 45.1222C81.99 45.1477 81.9273 45.1579 81.8651 45.152C81.7996 45.0625 81.912 45.0511 81.9319 44.9999C81.9426 44.9892 81.954 44.9792 81.966 44.97C81.9547 44.97 81.9546 44.9814 81.9447 44.9828C81.8779 45.0482 81.8181 45.125 81.7456 45.1805C81.7112 45.2184 81.6708 45.2506 81.6261 45.2757C81.0573 45.553 80.6975 46.0649 80.2922 46.5227C79.7899 47.1077 79.2166 47.6279 78.5856 48.0711C78.3477 48.2274 78.0917 48.3544 77.8233 48.4493C77.7093 48.4853 77.6045 48.5455 77.5159 48.6258C77.4273 48.706 77.357 48.8044 77.3099 48.9142C77.2374 49.0891 77.1577 49.1204 76.97 49.0834C76.6856 49.0279 76.4012 48.9512 76.0997 48.9213C75.7264 48.8967 75.3515 48.9215 74.9847 48.9952C74.5353 49.0678 74.0973 49.1943 73.6464 49.254C73.4202 49.2784 73.1922 49.2822 72.9652 49.2654C72.7974 49.2554 72.658 49.0763 72.6367 48.8644C72.6234 48.6995 72.6457 48.5337 72.7021 48.3782C72.7619 48.1948 72.833 48.0142 72.8771 47.8265C72.9866 47.3616 72.7633 47.0118 72.2997 46.9165C72.1367 46.8947 71.9752 46.8628 71.8161 46.8213C71.7435 46.8039 71.6769 46.7672 71.6233 46.7152C71.5698 46.6632 71.5312 46.5976 71.5118 46.5255C71.4094 46.0748 71.1065 45.762 70.8007 45.452C70.7225 45.3881 70.6144 45.3326 70.6656 45.2061Z" fill="#0B60B0"/>
<path d="M75.6349 69.3132C74.9593 69.5407 74.2838 69.7696 73.5912 69.9474C71.4663 70.493 69.269 70.7027 67.0792 70.5687C66.6824 70.5445 66.2885 70.5033 65.8917 70.4706C65.8092 70.445 65.8021 70.3739 65.7993 70.3057C65.7907 70.118 65.7993 69.9303 65.7993 69.7369C65.7962 69.7084 65.7997 69.6796 65.8094 69.6526C65.8191 69.6257 65.8349 69.6012 65.8554 69.5812C65.876 69.5612 65.9008 69.5462 65.928 69.5372C65.9552 69.5282 65.9842 69.5255 66.0126 69.5293H71.0413C71.1039 69.5293 71.1665 69.5293 71.229 69.5293C71.3442 69.5293 71.3897 69.4739 71.3912 69.3616V67.1151C71.3912 67.0013 71.3414 66.9473 71.2262 66.9501C71.165 66.9501 71.1025 66.9501 71.0399 66.9501H66.1434C65.8419 66.9501 65.7964 66.9047 65.795 66.6061C65.795 66.2762 65.795 65.9463 65.795 65.6179C65.7937 65.5571 65.8086 65.497 65.838 65.4438C65.8675 65.3906 65.9106 65.3462 65.9628 65.315C66.1333 65.203 66.3371 65.1528 66.5402 65.1729H71.5689C71.8164 65.1729 71.832 65.1572 71.8335 64.9141C71.8335 64.2202 71.8335 63.5273 71.8335 62.8354C71.8335 62.6008 71.8192 62.5908 71.5775 62.5894H70.0586C69.9678 62.6008 69.8756 62.588 69.7912 62.5524C69.74 62.5069 69.7656 62.4572 69.7912 62.4102C70.1055 61.9083 70.1795 61.3368 70.2677 60.7695C70.2904 60.6273 70.3231 60.4851 70.3573 60.3529C70.4127 60.1339 70.5322 60.0159 70.7583 60.0358C70.9418 60.0535 71.1269 60.029 71.2994 59.9641C71.4719 59.8993 71.6274 59.7959 71.7538 59.6619C72.2117 59.2168 72.7877 59.1884 73.3779 59.214C73.4289 59.2127 73.4788 59.2282 73.5201 59.258C73.7733 59.4642 74.0819 59.5239 74.3876 59.5893C74.6276 59.6317 74.8616 59.7028 75.0845 59.8012C75.2026 59.8529 75.3302 59.8796 75.4592 59.8796C75.5882 59.8796 75.7158 59.8529 75.834 59.8012C75.9318 59.7563 76.0414 59.7438 76.1468 59.7655C76.2522 59.7872 76.3479 59.8421 76.4199 59.922C76.5621 60.0642 76.7669 60.1382 76.865 60.333C76.8791 60.3546 76.8986 60.3722 76.9215 60.3842C76.9444 60.3961 76.97 60.402 76.9959 60.4012C77.2931 60.424 77.5775 60.4012 77.8164 60.1965C77.8819 60.1424 77.9587 60.0941 78.0141 60.0344C78.1157 59.9383 78.2376 59.8665 78.3708 59.8241C78.5041 59.7818 78.6451 59.7701 78.7835 59.7898C78.8352 59.7857 78.8866 59.7998 78.929 59.8297C78.9713 59.8596 79.0019 59.9033 79.0153 59.9533C79.0992 60.2775 79.5486 60.2818 79.7491 60.1581C79.8107 60.1208 79.8592 60.0654 79.888 59.9994C79.9167 59.9335 79.9244 59.8603 79.9098 59.7898C79.8871 59.6206 79.8458 59.4557 79.8117 59.2879C79.7957 59.2217 79.7866 59.1541 79.7847 59.086C79.7847 58.8016 79.9426 58.6907 80.2113 58.7775C80.729 58.9481 81.0774 58.6922 81.086 58.1419C81.086 57.8504 81.0134 57.5732 81.0134 57.2774C81.0026 57.2071 81.0153 57.1351 81.0495 57.0727C81.0837 57.0102 81.1375 56.9608 81.2026 56.9319C81.2853 56.8913 81.3527 56.825 81.3946 56.7428C81.4482 56.6492 81.5273 56.5728 81.6228 56.5224C81.7182 56.4721 81.826 56.4499 81.9336 56.4585C82.042 56.4556 82.1503 56.4657 82.2564 56.4883C82.3419 56.498 82.4217 56.5355 82.4837 56.5952C82.5457 56.6548 82.5862 56.7332 82.5991 56.8182C82.6155 56.931 82.6752 57.033 82.7655 57.1026C82.8257 57.1464 82.8706 57.2079 82.8941 57.2785C82.9176 57.3491 82.9183 57.4253 82.8964 57.4964C82.8509 57.7296 82.858 57.731 83.077 57.8106C83.4453 57.9429 83.542 58.0836 83.4638 58.4647C83.3358 59.0761 83.4226 59.686 83.4524 60.2974C83.4524 60.4282 83.461 60.559 83.4652 60.6884C83.4617 60.7346 83.4738 60.7805 83.4996 60.819C83.5254 60.8574 83.5634 60.886 83.6074 60.9003C83.7374 60.9598 83.8802 60.9857 84.0227 60.9756C84.7907 60.8334 85.5259 60.6031 86.0891 60.0173C86.2988 59.7695 86.4682 59.4902 86.5911 59.1898C86.6524 59.0495 86.7507 58.9286 86.8755 58.84C86.9566 58.786 87.0462 58.7149 87.16 58.7903C85.3736 62.5112 82.5233 65.6186 78.9698 67.7194L78.8119 67.816C78.7152 67.799 78.728 67.7179 78.728 67.6568C78.7209 66.9018 78.7195 66.1454 78.728 65.3904C78.728 65.2269 78.7807 65.1842 78.9527 65.1785C79.2016 65.1686 79.4519 65.1785 79.7022 65.1785H81.7814C82.0203 65.1785 82.0317 65.1658 82.0317 64.9283C82.0317 64.2307 82.0317 63.5321 82.0317 62.8325C82.0317 62.6107 82.0189 62.5965 81.8042 62.5965H72.6654C72.4692 62.5965 72.4549 62.6107 72.4549 62.8126C72.4549 63.5235 72.4549 64.2345 72.4549 64.9454C72.4549 65.1558 72.4791 65.1785 72.6924 65.18H75.3348C75.4087 65.18 75.4827 65.18 75.5566 65.18C75.5837 65.1772 75.611 65.1803 75.6366 65.1893C75.6623 65.1982 75.6857 65.2127 75.7051 65.2317C75.7245 65.2507 75.7395 65.2738 75.749 65.2993C75.7585 65.3247 75.7622 65.352 75.76 65.379C75.76 65.4188 75.76 65.4586 75.76 65.4985C75.76 66.6795 75.76 67.8611 75.76 69.0431C75.7614 69.1426 75.7899 69.272 75.6349 69.3132Z" fill="#0B60B0"/>
<path d="M58.9854 59.3887L63.9117 53.4171C64.1606 53.1142 64.4052 52.8099 64.6527 52.5057C64.7209 52.4644 64.7479 52.5199 64.765 52.5654C64.9271 52.9621 65.2613 53.1938 65.597 53.4185C66.2952 53.882 67.0589 54.2218 67.8084 54.5901C68.6034 54.9811 69.4154 55.3408 70.1493 55.8441C70.2944 55.9437 70.4322 56.0534 70.5617 56.1726C70.7069 56.3034 70.8028 56.48 70.8333 56.6731C70.8333 56.7058 70.8433 56.7399 70.8504 56.774C70.9187 57.0584 70.9926 57.1195 71.277 57.1408C71.4945 57.1642 71.7129 57.1048 71.8886 56.9745C72.1559 56.774 72.3266 56.6773 72.7419 56.9972C73.0846 57.2588 73.443 57.5006 73.7857 57.7622C73.9791 57.9044 73.9905 57.9484 73.9123 58.1802C73.7916 58.462 73.6544 58.7364 73.5013 59.002C73.4804 59.0399 73.4476 59.0698 73.4081 59.0873C73.3685 59.1047 73.3243 59.1087 73.2823 59.0987C73.0551 59.098 72.8281 59.1108 72.6025 59.1371C72.3175 59.164 72.0478 59.2782 71.8303 59.4641C71.7611 59.5141 71.6946 59.5677 71.6312 59.6248C71.5251 59.7315 71.3969 59.8137 71.2556 59.8655C71.1143 59.9173 70.9634 59.9376 70.8134 59.9248C70.4764 59.9049 70.3299 60.0314 70.2446 60.3513C70.1592 60.6712 70.1151 61.0324 70.054 61.3722C69.9993 61.7213 69.873 62.0554 69.6828 62.3533C69.6394 62.4337 69.5757 62.5014 69.4979 62.5495C69.4115 62.5787 69.32 62.5898 69.2291 62.5822H63.2945C63.2413 62.592 63.1867 62.591 63.134 62.5793C63.0812 62.5676 63.0313 62.5453 62.9873 62.5139C62.9326 62.441 62.9036 62.352 62.9048 62.2608C62.8707 61.6722 62.5792 61.3935 61.9861 61.3793H61.6107C61.5217 61.3866 61.4327 61.3659 61.3562 61.32C61.2796 61.274 61.2194 61.2053 61.184 61.1234C61.0953 60.9519 60.995 60.7866 60.884 60.6286C60.8313 60.5398 60.752 60.4698 60.6572 60.4287C60.5625 60.3876 60.4572 60.3775 60.3563 60.3997C60.2056 60.4238 60.052 60.4295 59.9013 60.4551C59.8288 60.4727 59.7526 60.4654 59.6847 60.4345C59.6169 60.4035 59.5614 60.3507 59.5272 60.2845C59.4628 60.1842 59.4035 60.0808 59.3495 59.9745C59.2793 59.8128 59.18 59.6653 59.0565 59.5395C59.0338 59.5215 59.0156 59.4986 59.0033 59.4724C58.991 59.4463 58.9848 59.4176 58.9854 59.3887Z" fill="#0B60B0"/>
<path d="M60.1044 47.6317C59.8774 47.9502 59.6329 48.2559 59.372 48.5473C56.9354 51.5095 54.4968 54.4697 52.0564 57.4281C52.0351 57.4551 52.0123 57.4792 51.9796 57.5162C51.8801 57.374 51.7805 57.2503 51.6952 57.1167C51.644 57.0413 51.607 57.0214 51.5231 57.0826C51.2927 57.2489 51.2885 57.2446 51.4563 57.4764C51.5245 57.5731 51.59 57.6726 51.6653 57.7608C51.7407 57.8489 51.6995 57.8816 51.6284 57.9214C51.4861 57.9954 51.3169 57.9755 51.1633 58.011C50.6314 58.1333 50.246 58.4162 50.0555 58.9423C50.0228 59.0305 50.0142 59.1783 49.8948 59.1741C49.7753 59.1698 49.7625 59.0319 49.7184 58.9423C48.7165 56.916 48.0553 54.7384 47.7615 52.4972C47.6805 51.8829 47.6392 51.2659 47.5951 50.6488C47.5809 50.4611 47.6278 50.4099 47.8184 50.3786C47.8639 50.3786 47.9094 50.3701 47.9606 50.3644C48.0502 50.3545 48.0929 50.3075 48.0772 50.2222C48.0232 49.9165 47.9464 49.6194 47.716 49.3933C47.6759 49.358 47.6444 49.3141 47.6237 49.2648C47.603 49.2156 47.5937 49.1623 47.5966 49.1089C47.6165 48.6724 47.6392 48.2359 47.6819 47.8023C47.6961 47.6601 47.7018 47.508 47.7288 47.3615C47.7306 47.3346 47.7378 47.3083 47.7499 47.2842C47.762 47.2601 47.7788 47.2386 47.7994 47.2211C47.8199 47.2036 47.8438 47.1904 47.8695 47.1823C47.8953 47.1742 47.9224 47.1713 47.9493 47.1738C48.046 47.1738 48.1427 47.1738 48.2337 47.1738C48.3338 47.1668 48.4339 47.1881 48.5225 47.2354C48.6111 47.2827 48.6845 47.354 48.7343 47.4411C48.8885 47.6797 49.0699 47.8997 49.2747 48.0966C49.4716 48.325 49.6477 48.5706 49.8009 48.8303C49.9745 49.0964 50.1695 49.348 50.384 49.5824C50.4471 49.6559 50.529 49.7109 50.6209 49.7417C50.7127 49.7725 50.8112 49.7779 50.9059 49.7573C51.5302 49.6364 52.1503 49.7019 52.7718 49.7801C52.9293 49.8001 53.0883 49.8054 53.2468 49.7957C53.3707 49.7961 53.4914 49.7561 53.5905 49.6817C53.6896 49.6072 53.7616 49.5025 53.7957 49.3834C53.8156 49.3425 53.8193 49.2956 53.8061 49.2521C53.7929 49.2087 53.7638 49.1717 53.7246 49.1488C53.4231 48.927 53.4103 48.8729 53.5212 48.5089C53.6174 48.2024 53.8125 47.9364 54.0759 47.7525C54.2276 47.6393 54.4128 47.5798 54.6021 47.5833C54.8126 47.5833 55.0287 47.5833 55.2321 47.5833C55.3011 47.5898 55.3702 47.5708 55.4262 47.53C55.4823 47.4891 55.5215 47.4292 55.5364 47.3615C55.5538 47.3052 55.5854 47.2543 55.6283 47.2138C55.6711 47.1733 55.7236 47.1445 55.7808 47.1302C55.838 47.1159 55.8979 47.1166 55.9547 47.1322C56.0116 47.1478 56.0634 47.1778 56.1053 47.2193C56.1435 47.265 56.1937 47.2992 56.2501 47.3183C56.3065 47.3374 56.3672 47.3405 56.4253 47.3274C56.4702 47.3206 56.5115 47.2985 56.5421 47.2648C56.5726 47.2311 56.5907 47.188 56.5931 47.1426C56.6172 46.9891 56.5799 46.8323 56.4893 46.7061C56.4352 46.6335 56.3727 46.5639 56.3243 46.4899C56.3 46.4612 56.2827 46.4273 56.2737 46.3907C56.2647 46.3542 56.2642 46.3161 56.2723 46.2794C56.2804 46.2426 56.2969 46.2083 56.3205 46.179C56.3441 46.1496 56.3741 46.1261 56.4082 46.1103C56.6014 45.9964 56.8298 45.9579 57.0496 46.0023C57.1386 46.024 57.2165 46.0776 57.2686 46.153C57.4628 46.3979 57.6365 46.6585 57.7877 46.9321C57.8381 47.0409 57.9263 47.1277 58.0359 47.1763C58.1455 47.225 58.2691 47.2322 58.3836 47.1966C58.8121 47.0903 59.2635 47.1252 59.6706 47.2961C59.8342 47.3658 60.0219 47.434 60.1044 47.6317Z" fill="#0B60B0"/>
<path d="M62.7879 62.4613C62.7879 63.3542 62.7879 64.2462 62.7879 65.1372C62.7879 66.6425 62.7879 68.1477 62.7879 69.6529C62.7879 69.7169 62.849 69.825 62.7097 69.8349C59.6121 68.9569 56.7584 67.3771 54.3702 65.2183C54.2863 65.1415 54.2891 65.0974 54.3574 65.0149C55.5415 63.5827 56.7234 62.149 57.9028 60.7139C57.9158 60.695 57.9273 60.675 57.9369 60.6542L57.9767 60.6698C58.0194 60.9684 58.0635 61.2684 58.1047 61.5684L58.6736 65.7344C58.7276 66.1282 58.7817 66.5221 58.8286 66.9159C58.8443 67.0439 58.8855 67.088 59.0192 67.0581C59.2553 67.0098 59.2567 67.0169 59.224 66.7737C58.932 64.659 58.6399 62.5447 58.3479 60.431C58.3303 60.3577 58.3319 60.2811 58.3526 60.2086C58.3733 60.1361 58.4123 60.0702 58.466 60.0172C58.6082 59.875 58.7248 59.7158 58.8528 59.5636C58.9395 59.5551 58.9879 59.6134 59.0348 59.6689C59.112 59.7598 59.1775 59.8601 59.2297 59.9674C59.2929 60.0942 59.3627 60.2176 59.4387 60.3371C59.4833 60.4264 59.5579 60.4972 59.6494 60.5372C59.7408 60.5772 59.8434 60.5839 59.9393 60.5561C60.0943 60.522 60.255 60.5248 60.4129 60.5035C60.489 60.4913 60.5671 60.5027 60.6365 60.5363C60.7059 60.5699 60.7634 60.6239 60.8011 60.6912C60.9206 60.8774 61.0358 61.0665 61.1439 61.2599C61.173 61.3179 61.2163 61.3675 61.2697 61.4043C61.3232 61.4411 61.3851 61.4638 61.4496 61.4703C61.6472 61.4888 61.8457 61.4959 62.0441 61.4916C62.1869 61.4874 62.3279 61.5248 62.4499 61.5993C62.5719 61.6738 62.6695 61.7821 62.731 61.9111C62.8 62.0858 62.8197 62.2762 62.7879 62.4613Z" fill="#0B60B0"/>
<path d="M75.7068 69.5123C75.7068 69.4441 75.7566 69.3445 75.6357 69.3133C75.6628 69.3012 75.6854 69.2811 75.7005 69.2556C75.7155 69.2301 75.7222 69.2006 75.7196 69.1711" fill="#F4F4F4"/>
<path d="M78.7814 74.2953C78.7814 74.4589 78.7387 74.5044 78.5752 74.5029L78.7814 74.2953Z" fill="#F4F4F4"/>
<path d="M75.7159 65.3293C75.7159 65.1871 75.6306 65.2113 75.5495 65.2113C74.5711 65.2113 73.5941 65.2113 72.6156 65.2113C72.4435 65.2113 72.398 65.1715 72.3994 64.9966C72.4108 64.2302 72.408 63.4625 72.3994 62.6961C72.3994 62.5539 72.4236 62.5098 72.5744 62.5098C75.6889 62.5155 78.8039 62.5155 81.9193 62.5098C82.0402 62.5098 82.0843 62.5326 82.0843 62.6662C82.0777 63.4624 82.0777 64.2582 82.0843 65.0535C82.0843 65.1957 82.0359 65.2085 81.9179 65.2085C80.9338 65.2085 79.9496 65.2085 78.9669 65.2085C78.8176 65.2085 78.7764 65.244 78.7778 65.3961C78.7863 66.1454 78.7778 66.8962 78.7778 67.6469C78.7778 67.7009 78.7565 67.7606 78.802 67.809C78.7707 67.8884 78.7595 67.9744 78.7693 68.0592" fill="#F4F4F4"/>
<path d="M52.2728 57.9272C52.196 57.8405 52.2728 57.7936 52.3225 57.7424C53.0715 56.8296 53.822 55.9177 54.5738 55.0068L60.2809 48.0825C60.3022 48.0569 60.3278 48.0356 60.352 48.0114C60.3781 48.0225 60.4017 48.0386 60.4215 48.0588C60.4412 48.0791 60.4568 48.1031 60.4672 48.1294C60.5904 48.3754 60.8023 48.5654 61.0602 48.6612C61.1769 48.7044 61.2835 48.7709 61.3734 48.8567C61.4634 48.9425 61.535 49.0458 61.5836 49.1603C61.6379 49.273 61.7203 49.3699 61.8229 49.4417C61.9256 49.5134 62.0449 49.5575 62.1695 49.5697C62.3188 49.5925 62.4938 49.5697 62.6033 49.7119L57.5191 55.8812L55.8594 57.8931C55.788 57.9896 55.6852 58.0582 55.5687 58.0873C55.4522 58.1163 55.3293 58.104 55.2209 58.0524C55.1256 58.0083 55.0886 57.9102 55.0374 57.8348C54.9841 57.7435 54.9079 57.6676 54.8164 57.6146C54.7249 57.5615 54.6213 57.533 54.5155 57.532C54.204 57.532 53.8954 57.4879 53.584 57.4879C53.5104 57.484 53.4367 57.4954 53.3677 57.5214C53.2987 57.5473 53.2358 57.5872 53.1829 57.6386C52.9959 57.8146 52.7569 57.9254 52.5017 57.9543C52.4247 57.9742 52.343 57.9645 52.2728 57.9272Z" fill="#0B60B0"/>
<path d="M68.5441 43.1233C69.1499 42.3943 69.7553 41.6645 70.3601 40.9336L71.7482 39.2502C71.7482 39.3241 71.7482 39.3654 71.7482 39.4052C71.6287 40.2711 71.5078 41.137 71.3912 42.0029C71.3827 42.0654 71.3329 42.1593 71.4097 42.1863C71.5189 42.2163 71.6321 42.2293 71.7453 42.2247C71.7837 42.2247 71.7766 42.1593 71.7823 42.1209C71.933 41.0194 72.0828 39.917 72.2317 38.8137C72.2492 38.6848 72.3046 38.564 72.391 38.4668C73.7287 36.8478 75.0651 35.2255 76.4 33.5998C76.4282 33.5584 76.4669 33.5251 76.5121 33.5034C76.5573 33.4816 76.6074 33.4722 76.6574 33.4761C77.0841 33.4761 77.5107 33.4761 77.9374 33.4761C78.027 33.4761 78.0796 33.4761 78.0981 33.5942C78.1621 34.1188 78.2332 34.6406 78.3085 35.1582C78.3165 35.1991 78.3145 35.2413 78.3029 35.2814C78.2913 35.3214 78.2703 35.3582 78.2417 35.3885C76.4915 37.5146 74.7423 39.6379 72.994 41.7583C72.135 42.801 71.277 43.8436 70.4199 44.8863C70.3246 44.902 70.2961 44.8223 70.2563 44.7655C69.8943 44.2706 69.4682 43.826 68.9892 43.4432C68.8894 43.3583 68.7777 43.2884 68.6578 43.2356C68.6052 43.2214 68.5284 43.2143 68.5441 43.1233Z" fill="#0B60B0"/>
<path d="M69.7803 62.4969C69.6993 62.524 69.6182 62.5595 69.5357 62.4969C69.8856 62.0434 70.0022 61.5102 70.0804 60.9599C70.1151 60.73 70.1626 60.5021 70.2226 60.2775C70.2937 60.0002 70.4658 59.8509 70.7517 59.8751C70.9208 59.8935 71.0919 59.8722 71.2514 59.813C71.4108 59.7537 71.5543 59.6582 71.6704 59.5339C72.08 59.1386 72.5877 59.0291 73.1324 59.0575C73.2269 59.0763 73.3251 59.059 73.4075 59.009C73.4899 58.959 73.5505 58.8799 73.5775 58.7874C73.6785 58.5372 73.8406 58.3139 73.9174 58.0495C73.9344 58.0144 73.9374 57.9741 73.9257 57.9369C73.9141 57.8996 73.8888 57.8682 73.8548 57.849C73.4367 57.5461 73.0243 57.2362 72.6047 56.9362C72.3715 56.7698 72.2421 56.7741 72.0018 56.9475C71.8947 57.036 71.7708 57.1018 71.6376 57.1409C71.5044 57.18 71.3645 57.1916 71.2267 57.175C70.975 57.1395 70.8683 57.0968 70.8441 56.8523C70.7943 56.3433 70.4502 56.0845 70.0776 55.8357C69.3068 55.3224 68.4634 54.947 67.6343 54.5432C66.8962 54.1835 66.1482 53.8437 65.4712 53.3731C65.1527 53.1513 64.8483 52.9138 64.7161 52.52C64.7075 52.4944 64.6819 52.4944 64.6592 52.4944C64.6668 52.4793 64.6759 52.4651 64.6862 52.4517C64.8526 52.2697 64.8554 52.2683 64.9265 52.493C65.0105 52.7107 65.1595 52.8973 65.3532 53.0276C66.0102 53.5394 66.7611 53.8878 67.5063 54.2503C68.4279 54.6996 69.375 55.1034 70.2255 55.6906C70.4069 55.8067 70.5753 55.9421 70.7275 56.0944C70.8813 56.2468 70.9773 56.4478 70.9991 56.6632C71.0247 56.9163 71.0788 56.9475 71.3333 56.9646C71.5028 56.9729 71.6701 56.9227 71.8069 56.8224C72.2336 56.5381 72.4128 56.5381 72.8223 56.8366C73.1892 57.1011 73.5519 57.3727 73.9131 57.6442C74.1691 57.8362 74.1862 57.9286 74.0724 58.213C73.9615 58.4802 73.8308 58.7387 73.6813 58.9865C73.6145 59.1073 73.6415 59.167 73.7567 59.2253C74.0532 59.3524 74.3656 59.4385 74.6854 59.4812C74.8237 59.5095 74.9573 59.5574 75.0821 59.6234C75.2864 59.7126 75.5158 59.7263 75.7292 59.6618C75.8401 59.6391 75.9468 59.5978 76.0549 59.568C76.0967 59.5493 76.1434 59.5444 76.1882 59.5541C76.233 59.5639 76.2735 59.5876 76.3038 59.622C76.3251 59.6476 76.3507 59.6831 76.3862 59.6718C76.4218 59.6604 76.4147 59.6064 76.4218 59.5708C76.5043 59.1272 76.5484 58.6665 76.8684 58.3111C77.0407 58.1297 77.161 57.9052 77.2168 57.6613C77.2893 57.3158 77.2538 57.0087 76.9779 56.7442C76.8345 56.6145 76.7306 56.4469 76.678 56.2609C76.6254 56.0748 76.6263 55.8777 76.6806 55.6921C76.7022 55.5988 76.7051 55.5021 76.6892 55.4077C76.6536 55.1717 76.5469 55.0977 76.2625 55.0522C75.9361 55.0205 75.6155 54.9445 75.3097 54.8262C74.7906 54.5873 74.7749 54.2276 74.8304 53.801C74.8562 53.6911 74.8914 53.5836 74.9357 53.4797C75.021 53.2081 75.2627 53.2238 75.4647 53.2195C75.8429 53.2205 76.2207 53.2471 76.5953 53.2991C76.8582 53.34 77.1244 53.3562 77.3903 53.3475C77.4565 53.3501 77.5219 53.332 77.5774 53.2959C77.633 53.2597 77.6759 53.2072 77.7003 53.1456C77.7558 52.9707 77.8098 52.7802 77.6477 52.6195C77.5211 52.493 77.3775 52.3806 77.3462 52.1802C77.3334 52.1319 77.3369 52.0808 77.3562 52.0347C77.3755 51.9887 77.4095 51.9503 77.4529 51.9256C77.6648 51.7749 77.9151 51.7835 78.1526 51.7493C78.1988 51.7458 78.2437 51.7322 78.2841 51.7094C78.3246 51.6867 78.3596 51.6554 78.3867 51.6178C78.4137 51.5801 78.4323 51.537 78.441 51.4915C78.4497 51.4459 78.4483 51.399 78.437 51.3541C78.4062 51.1986 78.3909 51.0405 78.3915 50.882C78.3986 50.6304 78.5337 50.4427 78.7783 50.4256C79.0886 50.4128 79.3871 50.3029 79.6316 50.1114C79.7255 50.0375 79.8407 50.0801 79.9459 50.0773C80.1137 50.0773 80.2588 50.0602 80.3128 49.8555C80.3202 49.826 80.3337 49.7983 80.3523 49.7743C80.371 49.7502 80.3944 49.7303 80.4211 49.7157C80.4478 49.7012 80.4773 49.6923 80.5076 49.6897C80.5379 49.6871 80.5684 49.6907 80.5972 49.7005C81.1391 49.7844 81.3197 50.0687 81.1889 50.6005C81.1348 50.8209 81.0466 51.0271 81.0026 51.2531C80.9755 51.3797 81.0239 51.4778 81.122 51.5005C81.341 51.5531 81.5629 51.6583 81.7933 51.5389C81.8231 51.5233 81.8615 51.5076 81.8743 51.482C81.9838 51.2375 82.1815 51.3399 82.3536 51.3598C82.5826 51.3896 82.7802 51.5218 82.985 51.6072C83.2695 51.7237 83.4359 51.7024 83.6577 51.4763C83.8387 51.2642 84.0686 51.0993 84.3275 50.9958C84.3432 50.9958 84.3588 50.9759 84.3745 50.9759C84.5027 50.9821 84.6281 50.9372 84.7232 50.8511C84.8184 50.765 84.8756 50.6447 84.8822 50.5166C84.891 50.4795 84.9109 50.4459 84.9394 50.4204C84.9679 50.395 85.0035 50.379 85.0415 50.3744C85.2221 50.3389 85.2221 50.2067 85.2164 50.0631C85.2201 49.9975 85.2024 49.9325 85.166 49.8779C85.1296 49.8233 85.0764 49.782 85.0144 49.7602C84.8016 49.7021 84.5823 49.6705 84.3617 49.6664C83.945 49.6194 83.561 49.5156 83.278 49.1772C83.2253 49.1186 83.1698 49.0627 83.1116 49.0095C82.8627 48.7678 82.5427 48.8005 82.4005 49.1133C82.3628 49.2071 82.3002 49.289 82.2196 49.3501C82.1389 49.4112 82.0432 49.4492 81.9426 49.4602C81.6838 49.5028 81.4278 49.5555 81.1874 49.3934C81.0907 49.3054 81.009 49.2021 80.9457 49.0877C80.8435 48.9514 80.6964 48.8557 80.5304 48.8175C80.3985 48.7837 80.2696 48.739 80.145 48.6839C79.7582 48.5061 79.6828 48.0768 80.0028 47.7995C80.3228 47.5222 80.6371 47.2905 80.957 47.0374C81.0576 46.9526 81.1806 46.8988 81.3112 46.8824C81.479 46.8654 81.5188 46.7729 81.4761 46.6322C81.4491 46.544 81.4761 46.4217 81.3339 46.3905C81.3026 46.3796 81.2693 46.3758 81.2364 46.3792C81.2035 46.3827 81.1717 46.3933 81.1433 46.4104C81.0675 46.4651 80.9806 46.5027 80.8888 46.5206C80.797 46.5385 80.7024 46.5363 80.6115 46.5142C80.5332 46.4928 80.4948 46.5483 80.4564 46.5938C80.2448 46.8388 80.0208 47.0727 79.7852 47.2947C79.3386 47.7213 78.8807 48.1351 78.3218 48.4152C78.1671 48.4983 78.0059 48.5687 77.8397 48.6256C77.7482 48.6561 77.665 48.7072 77.5964 48.775C77.5278 48.8428 77.4758 48.9255 77.4443 49.0166C77.4301 49.0641 77.4063 49.1082 77.3744 49.1463C77.3425 49.1843 77.3032 49.2154 77.2589 49.2378C77.2146 49.2601 77.1662 49.2732 77.1166 49.2763C77.0671 49.2793 77.0175 49.2722 76.9708 49.2555C76.6455 49.1619 76.3122 49.0991 75.9752 49.0678C75.6809 49.0541 75.3859 49.0785 75.0978 49.1403C74.6086 49.2256 74.1264 49.3479 73.6372 49.4246C73.3888 49.4546 73.1376 49.4546 72.8892 49.4246C72.6716 49.4047 72.4938 49.1218 72.4753 48.8445C72.4719 48.6291 72.5111 48.415 72.5905 48.2147C72.6753 48.0226 72.7286 47.818 72.7484 47.609C72.7565 47.4837 72.7171 47.36 72.638 47.2625C72.5589 47.165 72.446 47.1009 72.3217 47.0829C72.1795 47.0573 72.0373 47.0402 71.905 47.0118C71.632 46.9521 71.4172 46.8199 71.3504 46.5284C71.2622 46.1331 70.9892 45.8701 70.7161 45.6042C70.5369 45.4293 70.5384 45.4279 70.6806 45.2075C70.6735 45.3156 70.7645 45.3611 70.8228 45.4222C71.0014 45.5884 71.166 45.7691 71.3148 45.9625C71.4083 46.0702 71.4729 46.1998 71.5026 46.3393C71.5481 46.7018 71.787 46.8099 72.1041 46.8426C72.1824 46.8511 72.2606 46.8654 72.3388 46.8782C72.4401 46.8935 72.5371 46.9298 72.6235 46.9849C72.71 47.0399 72.7839 47.1124 72.8407 47.1976C72.8975 47.2829 72.9358 47.3791 72.9532 47.4801C72.9706 47.581 72.9667 47.6845 72.9418 47.7839C72.8934 48.017 72.7996 48.2346 72.7299 48.4621C72.6871 48.5643 72.6687 48.6752 72.6764 48.7858C72.684 48.8964 72.7175 49.0037 72.774 49.0991C72.7981 49.1408 72.8323 49.1758 72.8736 49.2006C72.9149 49.2255 72.9619 49.2395 73.0101 49.2412C73.4695 49.2532 73.9282 49.1995 74.3725 49.082C74.8069 48.9759 75.2492 48.9051 75.6951 48.8701C76.1207 48.8589 76.5453 48.917 76.9523 49.0422C77.1243 49.0905 77.2367 49.0621 77.2922 48.8801C77.3157 48.7944 77.3589 48.7155 77.4184 48.6496C77.478 48.5837 77.5521 48.5326 77.6349 48.5005C78.7456 48.1052 79.5434 47.3019 80.3057 46.4544C80.4806 46.2597 80.647 46.0592 80.8191 45.863C81.0069 45.6495 81.2289 45.4688 81.4761 45.3284C81.5743 45.2715 81.6653 45.2061 81.7606 45.1435C81.7933 45.1236 81.826 45.1435 81.8587 45.1435C82.6335 44.8786 83.4779 44.9023 84.2365 45.2103C84.4769 45.307 84.7243 45.4009 84.8452 45.6668C84.8621 45.6969 84.8888 45.7205 84.9208 45.7337C84.9528 45.7468 84.9883 45.7488 85.0216 45.7393C85.1172 45.7233 85.208 45.6857 85.2869 45.6292C85.3657 45.5728 85.4307 45.4991 85.4766 45.4137C85.6006 45.2089 85.6605 44.9717 85.6487 44.7326C85.6259 44.4714 85.6861 44.2097 85.8208 43.9847C85.8507 43.931 85.8954 43.8869 85.9496 43.8576C86.0038 43.8284 86.0652 43.8153 86.1266 43.8198C86.4906 43.8302 86.8547 43.8302 87.2188 43.8198C87.2821 43.8071 87.3478 43.814 87.4072 43.8393C87.4666 43.8647 87.5169 43.9075 87.5516 43.962C87.7379 44.3032 88.0749 44.3885 88.4219 44.4852C88.3809 44.2631 88.3229 44.0444 88.2484 43.8312C86.9272 39.5017 84.4555 35.9713 80.8646 33.2201C80.8105 33.1621 80.7417 33.1198 80.6655 33.0978C80.8418 32.8987 80.7892 32.9158 80.9897 33.0679C81.6442 33.5622 82.2691 34.0944 82.8613 34.6618C83.6921 35.4631 84.4582 36.3288 85.1524 37.2509C85.7979 38.1178 86.3792 39.0307 86.8917 39.9823C87.1889 40.5325 87.452 41.097 87.6938 41.6714C88.1888 42.8437 88.574 44.0593 88.8443 45.3028C88.9954 45.98 89.1098 46.6649 89.187 47.3545C89.2482 47.909 89.2852 48.4678 89.3037 49.028C89.3165 49.4019 89.3349 49.7758 89.3264 50.1498C89.3179 50.5763 89.2866 51.0029 89.2596 51.4294C89.2596 51.5375 89.1415 51.6043 89.1316 51.7138C89.1055 51.7025 89.0775 51.6967 89.0491 51.6967C89.0207 51.6967 88.9926 51.7025 88.9666 51.7138C88.772 51.7777 88.5696 51.815 88.365 51.8247C88.2334 51.8309 88.1088 51.8856 88.0152 51.9783C87.8612 52.1027 87.6864 52.1989 87.4989 52.2626C87.2686 52.3735 87.2543 52.4446 87.415 52.6479C87.6355 52.9238 87.6184 53.1726 87.3596 53.42C87.3212 53.4537 87.2938 53.4981 87.2808 53.5475C87.2679 53.5969 87.2701 53.6491 87.287 53.6972C87.3151 53.8395 87.374 53.9739 87.4595 54.0911C87.545 54.2082 87.655 54.3053 87.7819 54.3755C87.8596 54.423 87.9296 54.4819 87.9896 54.5503C88.0397 54.5973 88.0759 54.6572 88.0942 54.7234C88.1125 54.7897 88.1123 54.8596 88.0934 54.9257C88.0607 55.0579 88.0251 55.1902 87.9953 55.3238C87.9714 55.4003 87.975 55.4828 88.0052 55.557C88.014 55.5885 88.031 55.617 88.0545 55.6397C88.078 55.6624 88.1071 55.6784 88.1388 55.6861C88.1706 55.6938 88.2038 55.6929 88.2351 55.6834C88.2663 55.674 88.2945 55.6563 88.3167 55.6324C88.3437 55.6124 88.365 55.584 88.4034 55.5826C88.4289 55.6033 88.4473 55.6313 88.4562 55.6629C88.4651 55.6944 88.4641 55.728 88.4532 55.7589C88.1569 56.7231 87.7978 57.6668 87.3781 58.5841C87.3615 58.6319 87.3336 58.675 87.2966 58.7097C87.2597 58.7444 87.215 58.7696 87.1662 58.7831C87.0726 58.7883 86.982 58.817 86.9026 58.8668C86.8233 58.9165 86.7579 58.9856 86.7125 59.0675C86.6426 59.1781 86.5817 59.2941 86.5305 59.4144C86.408 59.7 86.2284 59.9574 86.0026 60.1709C85.7769 60.3844 85.5098 60.5494 85.2178 60.6557C84.8669 60.8162 84.4978 60.9331 84.1185 61.004C84.0789 61.0101 84.039 61.0135 83.999 61.014C83.5454 61.014 83.4415 60.9102 83.4202 60.4652C83.406 60.1637 83.3889 59.8637 83.3662 59.5637C83.3346 59.1725 83.3566 58.7788 83.4316 58.3935C83.4927 58.0836 83.4245 57.9826 83.1272 57.8604C83.0248 57.8191 82.8684 57.839 82.83 57.7352C82.8173 57.6228 82.831 57.5089 82.8698 57.4025C82.8872 57.3575 82.8873 57.3077 82.8703 57.2626C82.8532 57.2175 82.8202 57.1803 82.7774 57.158C82.7121 57.1171 82.6574 57.0612 82.6181 56.9949C82.5788 56.9286 82.5559 56.8539 82.5513 56.7769C82.5453 56.7173 82.52 56.6612 82.4792 56.6173C82.4383 56.5734 82.3842 56.5441 82.3252 56.5338C82.1452 56.4802 81.9549 56.4709 81.7705 56.5068C81.7056 56.5159 81.644 56.5407 81.5909 56.5791C81.5379 56.6175 81.495 56.6684 81.4662 56.7272C81.4029 56.8501 81.2988 56.9471 81.1718 57.0016C81.1294 57.0171 81.0943 57.0478 81.0733 57.0877C81.0522 57.1277 81.0468 57.174 81.058 57.2177C81.0836 57.4267 81.1049 57.6357 81.1249 57.8447C81.1524 58.0305 81.1471 58.2196 81.1092 58.4035C81.0869 58.4926 81.0454 58.5758 80.9877 58.6472C80.93 58.7187 80.8574 58.7767 80.775 58.8173C80.6926 58.8579 80.6023 58.8801 80.5105 58.8823C80.4186 58.8845 80.3274 58.8667 80.2431 58.8301C79.9701 58.6879 79.8165 58.8087 79.8478 59.1144C79.8705 59.3163 79.926 59.5154 79.9601 59.7158C80.0085 60.0002 79.9061 60.1751 79.6757 60.2348C79.3372 60.323 79.0841 60.2348 78.9959 59.9689C78.986 59.9208 78.9589 59.8779 78.9196 59.8483C78.8803 59.8187 78.8316 59.8045 78.7826 59.8083C78.6407 59.7943 78.4976 59.8127 78.3638 59.8619C78.2301 59.9112 78.1093 59.99 78.0103 60.0926C77.8828 60.2279 77.7241 60.3298 77.5481 60.3896C77.3721 60.4493 77.1841 60.465 77.0006 60.4353C76.9612 60.4351 76.9227 60.424 76.8893 60.4032C76.8559 60.3823 76.8289 60.3526 76.8115 60.3173C76.6764 60.05 76.3734 59.9732 76.1772 59.7727C76.1231 59.7159 76.035 59.7727 75.9681 59.8026C75.7608 59.8822 75.538 59.9133 75.3168 59.8936C75.2487 59.8955 75.1811 59.8819 75.1191 59.8538C74.8503 59.6817 74.5403 59.6618 74.2431 59.5936C73.9728 59.5538 73.7175 59.4445 73.5021 59.2765C73.484 59.263 73.4633 59.2533 73.4413 59.2479C73.4193 59.2425 73.3965 59.2416 73.3741 59.2452C73.2547 59.2452 73.1352 59.2523 73.0157 59.2452C72.791 59.2319 72.5659 59.2645 72.3542 59.341C72.1424 59.4176 71.9485 59.5364 71.7842 59.6903C71.7102 59.7599 71.6235 59.8168 71.5438 59.8808C71.3857 60.0142 71.1813 60.0801 70.975 60.0642C70.9067 60.0606 70.8384 60.0606 70.7702 60.0642C70.7292 60.058 70.6873 60.0601 70.6472 60.0705C70.607 60.0808 70.5693 60.0991 70.5364 60.1244C70.5035 60.1496 70.476 60.1812 70.4556 60.2172C70.4351 60.2533 70.4222 60.2931 70.4175 60.3343C70.3094 60.7126 70.2753 61.1036 70.1985 61.4875C70.1305 61.8492 69.9881 62.193 69.7803 62.4969Z" fill="#F9F9F9"/>
<path d="M64.1309 43.399C64.8192 42.5667 65.507 41.7349 66.1944 40.9036L72.2215 33.5926C72.2627 33.5414 72.294 33.4774 72.3779 33.476C72.4888 33.476 72.5656 33.4661 72.5415 33.6338C72.3907 34.6718 72.257 35.714 72.1148 36.7533C72.0423 37.2822 71.9726 37.8097 71.8972 38.3387C71.888 38.4174 71.8564 38.4919 71.8062 38.5534C70.5215 40.1088 69.2383 41.6648 67.9564 43.2212C67.9181 43.2681 67.8725 43.3122 67.8299 43.3634C67.6166 43.5397 67.3748 43.5056 67.1344 43.453C67.0563 43.4361 66.9815 43.4068 66.9126 43.3663C66.5883 43.1757 66.2399 43.2042 65.8872 43.2326C65.3724 43.2724 64.8661 43.3748 64.357 43.4572C64.2759 43.4644 64.1835 43.5084 64.1309 43.399Z" fill="#0B60B0"/>
<path d="M64.593 51.9555C62.6276 54.3414 60.6626 56.7277 58.6982 59.1145C58.6752 59.1475 58.6421 59.1721 58.6038 59.1844C58.5655 59.1967 58.5242 59.1961 58.4863 59.1827C58.4339 59.182 58.3822 59.1704 58.3346 59.1486C58.287 59.1268 58.2445 59.0952 58.2098 59.056C58.1751 59.0167 58.149 58.9707 58.1332 58.9208C58.1174 58.8708 58.1122 58.8182 58.1179 58.7661C58.1094 58.4917 58.0824 58.4931 58.3583 58.4931C58.4777 58.4931 58.5972 58.4931 58.7152 58.4931C58.8048 58.4931 58.8418 58.4647 58.8333 58.3751C58.8283 58.3354 58.8283 58.2953 58.8333 58.2557C58.8518 58.1249 58.8063 58.0737 58.6683 58.0865C58.5304 58.0993 58.3839 58.0865 58.2417 58.0865C58.2218 58.0196 58.273 57.9884 58.3 57.9443C58.4849 57.6855 58.6683 57.4253 58.8603 57.1722C58.9215 57.0898 58.9229 57.05 58.8333 56.9874C58.6072 56.8282 58.6114 56.8239 58.445 57.0528C58.226 57.3557 58.0056 57.6585 57.7894 57.9656C57.7669 58.004 57.734 58.0353 57.6945 58.0559C57.655 58.0766 57.6106 58.0857 57.5661 58.0822C57.131 58.0822 56.6958 58.0822 56.2236 58.0822L56.9873 57.1509L62.875 50.0091C62.8978 49.9844 62.922 49.9611 62.9476 49.9394C63.114 49.9693 63.2704 50.0389 63.4354 50.0816C63.5122 50.1001 63.5506 50.1697 63.5875 50.2351C63.6767 50.4144 63.7381 50.6061 63.7696 50.8039C63.7909 50.8991 63.8122 50.993 63.835 51.0882C63.8538 51.2243 63.9143 51.3511 64.0084 51.4512C64.1024 51.5513 64.2252 51.6197 64.3598 51.647C64.5589 51.6897 64.6101 51.7792 64.593 51.9555Z" fill="#0B60B0"/>
<path d="M60.104 47.6317C59.6063 47.1739 59.0175 47.1142 58.3861 47.2294C58.3633 47.2294 58.342 47.2379 58.3192 47.2422C58.2134 47.2739 58.0997 47.2667 57.9987 47.2218C57.8978 47.1769 57.8162 47.0974 57.7688 46.9976C57.6083 46.7101 57.4272 46.4345 57.227 46.1729C57.1908 46.1223 57.1423 46.0818 57.0861 46.0552C57.0298 46.0285 56.9677 46.0167 56.9056 46.0208C56.7466 46.0169 56.589 46.0515 56.4462 46.1218C56.2699 46.217 56.2471 46.318 56.3652 46.4772C56.4093 46.5355 56.4562 46.5924 56.5074 46.6493C56.5636 46.7137 56.6046 46.79 56.6272 46.8725C56.6499 46.9549 56.6537 47.0414 56.6382 47.1256C56.6254 47.208 56.6382 47.3246 56.5188 47.3445C56.3993 47.3644 56.2187 47.454 56.1263 47.3005C56.0068 47.1071 55.8418 47.1881 55.6897 47.1867C55.5986 47.1867 55.6001 47.2734 55.5844 47.3374C55.5304 47.5621 55.4692 47.6218 55.2346 47.6218C55.0924 47.6218 54.9402 47.6218 54.7923 47.6218C54.519 47.6049 54.2482 47.6826 54.0254 47.8418C53.8027 48.0011 53.6416 48.2322 53.5692 48.4962C53.555 48.539 53.5436 48.5827 53.5351 48.627C53.4754 48.9313 53.4683 48.9427 53.7285 49.082C53.7587 49.0924 53.7862 49.1093 53.8091 49.1316C53.8319 49.1539 53.8496 49.181 53.8607 49.2109C53.8719 49.2408 53.8762 49.2728 53.8736 49.3046C53.8709 49.3364 53.8612 49.3672 53.8451 49.3948C53.8029 49.5253 53.7198 49.6389 53.6082 49.7187C53.4966 49.7986 53.3623 49.8405 53.2251 49.8384C52.8847 49.8326 52.545 49.8045 52.2082 49.7545C51.8191 49.7052 51.4248 49.7128 51.0378 49.7773C50.9025 49.8187 50.7578 49.8181 50.6227 49.7758C50.4877 49.7334 50.3686 49.6511 50.2812 49.5398C50.0788 49.3018 49.8926 49.0506 49.7237 48.7877C49.5264 48.4605 49.2873 48.1604 49.0127 47.8948C48.9074 47.798 48.8206 47.6829 48.7567 47.555C48.7018 47.4354 48.61 47.3367 48.4948 47.2732C48.3796 47.2097 48.2471 47.1849 48.1167 47.2023C47.7768 47.2166 47.774 47.2023 47.7413 47.5322C47.6882 48.064 47.6517 48.5967 47.6318 49.1303C47.6294 49.1686 47.6362 49.2068 47.6515 49.2419C47.6668 49.277 47.6903 49.308 47.7199 49.3322C47.9873 49.5967 48.0783 49.9408 48.1267 50.3005C48.1366 50.3801 48.0854 50.3929 48.0257 50.4072C47.8977 50.4399 47.7114 50.373 47.6502 50.491C47.5891 50.609 47.6502 50.7569 47.6588 50.8934C47.803 53.7243 48.5343 56.4944 49.8062 59.0277C49.8242 59.0898 49.8628 59.144 49.9157 59.1813C50.1518 58.3097 50.7448 57.9201 51.6223 57.9229C51.5805 57.9902 51.5186 58.0427 51.4454 58.0728C51.3721 58.1029 51.2912 58.1092 51.2142 58.0907C51.0947 58.0808 51.0151 58.0907 51.0719 58.2514C51.0841 58.3234 51.0841 58.3969 51.0719 58.4689C51.0649 58.4706 51.0577 58.4707 51.0506 58.4693C51.0436 58.4678 51.037 58.4648 51.0312 58.4604C51.0255 58.456 51.0208 58.4505 51.0175 58.4441C51.0143 58.4377 51.0124 58.4306 51.0122 58.4234C50.9951 58.2471 50.897 58.2955 50.8003 58.3452C50.5716 58.4641 50.3901 58.6571 50.2855 58.8926C50.1802 59.1173 50.1148 59.3618 49.9484 59.5566C49.8702 59.6092 49.8418 59.5566 49.8062 59.4941C49.4163 58.7326 49.0683 57.9504 48.7638 57.1509C48.4366 56.2819 48.1653 55.3929 47.9517 54.4892C47.7918 53.8025 47.6693 53.1077 47.5848 52.4077C47.5032 51.8371 47.4557 51.2621 47.4426 50.6858C47.4383 50.6016 47.4269 50.5179 47.4085 50.4356C47.3995 50.3972 47.405 50.3569 47.4239 50.3222C47.4428 50.2876 47.4737 50.2612 47.5109 50.2479C47.5692 50.1896 47.6531 50.2081 47.7185 50.1939C47.7839 50.1797 47.8408 50.137 47.8124 50.0517C47.7684 49.8728 47.688 49.7048 47.5763 49.5583C47.5582 49.6959 47.5515 49.8348 47.5564 49.9735C47.5564 50.0545 47.5806 50.1441 47.5066 50.2124C47.4615 50.0363 47.4537 49.8527 47.4839 49.6735C47.4952 49.5043 47.3943 49.3621 47.4085 49.1943C47.4583 48.61 47.4753 48.0227 47.5393 47.4384C47.6315 46.6082 47.774 45.7844 47.966 44.9715C48.1532 44.1902 48.3835 43.4198 48.6557 42.6639C49.0011 41.7034 49.4155 40.7692 49.8958 39.8686C50.4636 38.8038 51.1252 37.7917 51.8726 36.8443C52.2466 36.368 52.6434 35.9116 53.0601 35.4694C53.2933 35.222 53.5251 34.9718 53.7712 34.7372C54.5646 33.9834 55.4121 33.2886 56.3069 32.6585C58.1515 31.3514 60.1988 30.357 62.3667 29.7153C63.0701 29.5038 63.7846 29.3311 64.507 29.1977C65.0232 29.1039 65.5409 29.02 66.0628 28.9688C66.5592 28.9219 67.0583 28.8935 67.5504 28.8607C67.992 28.8295 68.435 28.8238 68.8773 28.8437C69.4575 28.8721 70.0378 28.9006 70.618 28.9631C71.6896 29.0808 72.7511 29.2775 73.7936 29.5518C74.0567 29.6214 74.317 29.6939 74.5787 29.7736C74.7778 29.8304 74.7835 29.8546 74.6413 30.0266C74.291 29.8831 73.9282 29.7722 73.5576 29.6954C71.6695 29.2017 69.72 28.9833 67.7694 29.047C63.3522 29.1892 59.3574 30.5712 55.8418 33.2528C51.8228 36.3168 49.263 40.3363 48.1252 45.2601C48.0001 45.8018 47.9048 46.3507 47.8309 46.9023C47.8166 47.0019 47.8422 47.0175 47.9304 47.0132C48.0726 47.0132 48.202 47.0061 48.3386 47.0132C48.4209 47.0103 48.5028 47.0274 48.5771 47.063C48.6514 47.0987 48.716 47.1519 48.7652 47.218C49.0496 47.6943 49.5005 48.0384 49.7877 48.5119C49.9561 48.7815 50.1379 49.0425 50.3324 49.2939C50.4055 49.408 50.5128 49.4962 50.6389 49.5457C50.7651 49.5953 50.9037 49.6036 51.035 49.5697C51.1756 49.5405 51.3182 49.5219 51.4616 49.5142C51.5626 49.5142 51.5697 49.4602 51.5597 49.3849C51.4758 48.7379 51.3948 48.0924 51.3109 47.4455C51.2042 46.6436 51.0762 45.8431 51.0136 45.0284C50.9439 44.1397 50.934 43.2468 50.8714 42.3582C50.8373 41.8193 50.7889 41.2818 50.7804 40.743C50.7804 40.3833 50.7804 40.3833 51.1132 40.2468C52.6557 39.6126 54.1993 38.9794 55.7437 38.3472C55.9087 38.2804 56.0196 38.205 55.9926 38.006C55.9656 37.8069 56.122 37.7998 56.2358 37.8069C56.4519 37.8183 56.5387 37.7344 56.5572 37.5225C56.5828 37.2495 56.587 37.1984 56.9468 37.133C57.0638 37.1097 57.1821 37.0935 57.301 37.0846C57.4291 37.0902 57.5561 37.0596 57.6676 36.9962C57.779 36.9328 57.8703 36.8393 57.931 36.7263C57.9528 36.6772 57.993 36.6386 58.043 36.6186C58.0929 36.5987 58.1487 36.5991 58.1983 36.6197C58.3811 36.6594 58.5604 36.7136 58.7345 36.7818C58.7881 36.8073 58.8475 36.8183 58.9066 36.8136C58.9658 36.8088 59.0227 36.7885 59.0715 36.7547C59.1654 36.6922 59.2706 36.6481 59.3702 36.5927C59.4228 36.5642 59.4939 36.55 59.4712 36.4618C59.4637 36.4254 59.4434 36.3928 59.4139 36.3701C59.3843 36.3474 59.3476 36.336 59.3105 36.3382C59.1744 36.3386 59.0384 36.3291 58.9037 36.3097C58.5781 36.24 58.4003 36.0253 58.4501 35.741C58.4787 35.5999 58.5598 35.4749 58.677 35.3913C58.7942 35.3077 58.9387 35.2715 59.0815 35.2903C59.386 35.3565 59.6971 35.3875 60.0087 35.3827C60.1133 35.3901 60.2129 35.4304 60.2932 35.4978C60.3761 35.5594 60.4723 35.6007 60.5741 35.6182C60.6759 35.6357 60.7804 35.6291 60.8791 35.5988C61.2261 35.4964 61.5717 35.849 61.512 36.2059C61.4878 36.3481 61.448 36.4746 61.2588 36.4419C61.2418 36.4393 61.2246 36.4393 61.2076 36.4419C60.9374 36.4889 60.9232 36.4889 60.9417 36.7633C60.9417 36.887 60.909 36.914 60.7909 36.9126C60.4411 36.9126 60.4325 36.9126 60.5406 37.251C60.6288 37.5413 60.6055 37.8542 60.4752 38.1282C60.3711 38.3677 60.3163 38.6258 60.3142 38.8869C60.312 39.148 60.3624 39.4069 60.4624 39.6482C60.6108 40.0511 60.6026 40.495 60.4396 40.8923C60.3188 41.2164 60.323 41.2179 60.6032 41.4297C60.6843 41.4909 60.7667 41.5506 60.8492 41.6103C61.0062 41.7121 61.1264 41.8616 61.192 42.0368C61.2515 42.1729 61.3427 42.2929 61.4579 42.3866C61.7097 42.6252 61.9339 42.8913 62.1263 43.18C62.4363 43.6535 62.8914 43.6677 63.3807 43.5753C63.4077 43.5753 63.4361 43.5667 63.4646 43.5625C63.3551 43.7914 63.1602 43.8397 62.9284 43.8298C62.7432 43.8336 62.5601 43.7902 62.3964 43.7036C62.2326 43.6171 62.0937 43.4902 61.9926 43.335C61.7622 42.9795 61.4437 42.7037 61.1792 42.3781C61.1302 42.3309 61.0898 42.2756 61.0597 42.2146C60.9459 41.8506 60.6103 41.707 60.3486 41.4894C60.3186 41.4624 60.2796 41.4474 60.2391 41.4474C60.1987 41.4474 60.1597 41.4624 60.1296 41.4894C59.8708 41.6814 59.592 41.8449 59.3474 42.0582C59.2542 42.1326 59.1793 42.2275 59.1284 42.3354C59.0965 42.4203 59.0383 42.4928 58.9624 42.5424C58.8864 42.592 58.7966 42.6162 58.706 42.6113C58.1599 42.6113 57.6138 42.6297 57.0691 42.6113C56.1348 42.5786 55.3939 42.0041 55.1848 41.1112C55.0824 40.6733 55.1848 40.2581 55.2815 39.8415C55.3684 39.4417 55.5406 39.0654 55.7864 38.7382C55.8497 38.6791 55.8888 38.5985 55.8959 38.5121L55.0426 38.8605L51.6806 40.234C51.4858 40.3136 51.2938 40.396 51.099 40.4714C51.0581 40.4836 51.023 40.5102 51.0003 40.5463C50.9775 40.5824 50.9686 40.6255 50.9752 40.6676C50.9966 41.198 51.0193 41.7283 51.0748 42.2572C51.0975 42.4819 51.1018 42.7108 51.1046 42.934C51.1046 43.3606 51.1345 43.7871 51.1558 44.2137C51.1786 44.6971 51.217 45.1805 51.2739 45.6639C51.3393 46.2241 51.4232 46.7815 51.4915 47.3403C51.5597 47.899 51.6465 48.445 51.7204 48.9967C51.7403 49.1389 51.7503 49.2896 51.7617 49.436C51.7617 49.4915 51.7716 49.5413 51.8427 49.5398C52.3078 49.5299 52.7615 49.665 53.2279 49.6422C53.3051 49.644 53.3812 49.6249 53.4484 49.5868C53.5155 49.5487 53.571 49.4932 53.6091 49.4261C53.6432 49.3607 53.6617 49.2839 53.5763 49.254C53.2436 49.1119 53.2578 48.8531 53.3346 48.5758C53.4882 48.0071 53.821 47.6033 54.3969 47.4469C54.6373 47.3815 54.8947 47.4242 55.1436 47.4298C55.2858 47.4298 55.3683 47.4042 55.4052 47.245C55.4579 47.0104 55.5105 46.9862 55.7494 46.9834C55.8005 46.9879 55.8519 46.9835 55.9016 46.9706C55.9287 46.9578 55.9581 46.9507 55.9881 46.9498C56.0181 46.9489 56.0479 46.9541 56.0758 46.9651C56.1036 46.9762 56.1289 46.9929 56.1501 47.0141C56.1713 47.0353 56.1878 47.0607 56.1988 47.0886C56.2343 47.1469 56.2727 47.2052 56.3609 47.1725C56.4491 47.1398 56.4391 47.0701 56.4334 47.0019C56.4226 46.8996 56.3769 46.8043 56.304 46.7317C55.9201 46.3052 56.0793 46.0208 56.5728 45.8644C56.6767 45.8361 56.7837 45.8213 56.8914 45.8203C56.9961 45.812 57.1011 45.8328 57.1948 45.8805C57.2884 45.9282 57.367 46.0009 57.4218 46.0905C57.601 46.3592 57.793 46.6208 57.9551 46.8981C57.9875 46.9602 58.0409 47.0086 58.1059 47.0347C58.1708 47.0608 58.243 47.0628 58.3093 47.0403C58.5371 46.9974 58.7686 46.9765 59.0004 46.9777C59.3878 46.9899 59.7631 47.1155 60.0798 47.3388C60.2505 47.454 60.2491 47.5066 60.104 47.6317Z" fill="#F9F9F9"/>
<path d="M57.7969 59.295C57.8253 59.5139 57.8467 59.7343 57.8822 59.9533C57.8913 59.991 57.8912 60.0303 57.8818 60.068C57.8723 60.1056 57.854 60.1404 57.8282 60.1694C56.5719 61.686 55.3186 63.2078 54.068 64.7349C53.9955 64.8245 53.9528 64.8245 53.8732 64.7448C53.3204 64.2045 52.7957 63.6358 52.2988 63.0387C52.2334 62.959 52.242 62.9135 52.2988 62.8396C53.4423 61.4547 54.5842 60.0694 55.7248 58.6836C55.7519 58.6554 55.7814 58.6297 55.813 58.6068C55.889 58.6145 55.9625 58.6378 56.0291 58.6752C56.0957 58.7126 56.1538 58.7634 56.1998 58.8244C56.2838 58.9169 56.3485 59.0251 56.3904 59.1428C56.4128 59.225 56.4663 59.2952 56.5395 59.3387C56.6127 59.3822 56.7 59.3956 56.7829 59.376C57.0161 59.3561 57.238 59.2921 57.4669 59.2566C57.5836 59.2466 57.6959 59.2125 57.7969 59.295Z" fill="#0B60B0"/>
<path d="M77.7669 31.3206C77.3218 31.8594 76.8738 32.394 76.4315 32.9357C76.3976 32.9832 76.3521 33.0212 76.2993 33.0461C76.2466 33.071 76.1883 33.082 76.1301 33.0779C75.0677 33.0779 74.0054 33.0779 72.943 33.0779C72.8719 33.0779 72.7823 33.1049 72.7467 33.0168C72.7112 32.9286 72.7965 32.8988 72.8378 32.849C73.5375 31.9959 74.2376 31.1452 74.9383 30.2968C74.9696 30.257 74.998 30.2144 75.0279 30.1731C75.1075 30.1134 75.1886 30.1461 75.2696 30.1731C75.8827 30.3801 76.483 30.6232 77.0672 30.9011C77.2578 30.9907 77.4541 31.0675 77.6361 31.1684C77.6987 31.1997 77.7826 31.2196 77.7669 31.3206Z" fill="#0B60B0"/>
<path d="M72.3652 37.8666C72.5643 36.4078 72.7563 35.0073 72.9455 33.6082C72.9568 33.5229 72.9753 33.476 73.0777 33.476C74.032 33.476 74.9863 33.476 75.9803 33.476L72.3652 37.8666Z" fill="#0B60B0"/>
<path d="M55.3698 58.4932L52.0576 62.5169L52.0234 62.5056L52.1514 61.5416C52.2823 60.5875 52.4174 59.632 52.5425 58.6766C52.5596 58.5458 52.5909 58.4932 52.7345 58.4946C53.5978 58.496 54.461 58.4932 55.3698 58.4932Z" fill="#0B60B0"/>
<path d="M88.3913 55.5939C88.3429 55.6963 88.2761 55.7916 88.1509 55.7631C88.0855 55.7501 88.0266 55.7145 87.9848 55.6625C87.9429 55.6105 87.9207 55.5455 87.922 55.4788C87.928 55.337 87.9558 55.1969 88.0045 55.0636C88.0912 54.7309 88.0642 54.647 87.784 54.4437C87.7226 54.3916 87.6575 54.3441 87.5892 54.3015C87.3161 54.1508 87.2962 53.8565 87.2024 53.6076C87.1682 53.5166 87.2649 53.4342 87.3446 53.373C87.3945 53.3346 87.4357 53.286 87.4655 53.2304C87.4953 53.1749 87.513 53.1137 87.5174 53.0509C87.5218 52.988 87.5129 52.9249 87.4912 52.8658C87.4695 52.8066 87.4355 52.7527 87.3915 52.7076C87.3619 52.6813 87.3343 52.6528 87.309 52.6223C87.2821 52.5965 87.2624 52.5641 87.2517 52.5284C87.2411 52.4927 87.2398 52.4548 87.2481 52.4184C87.2564 52.3821 87.274 52.3485 87.2991 52.3209C87.3242 52.2934 87.3561 52.2728 87.3915 52.2612C87.647 52.1693 87.8832 52.0309 88.0884 51.8531C88.1628 51.799 88.2541 51.7733 88.3458 51.7806C88.5792 51.7758 88.8097 51.7276 89.0256 51.6384C89.1322 51.5872 89.1208 51.6512 89.1237 51.7152C89.0015 52.998 88.7635 54.2672 88.4126 55.5072C88.403 55.5354 88.3959 55.5645 88.3913 55.5939Z" fill="#0B60B0"/>
<path d="M51.6521 62.2125C51.5753 62.1087 51.5099 62.0334 51.4615 61.9566C51.0823 61.4239 50.7225 60.8736 50.3821 60.3059C50.3544 60.2716 50.3408 60.2281 50.3443 60.1842C50.3477 60.1403 50.3679 60.0993 50.4006 60.0698C50.8002 59.5921 51.1956 59.1073 51.5923 58.6253C51.6638 58.5645 51.7484 58.5211 51.8395 58.4987C51.9305 58.4762 52.0256 58.4752 52.1171 58.4959C52.1868 58.5243 52.1484 58.5712 52.1427 58.6096C52.0479 59.3385 51.9493 60.0689 51.8469 60.8007C51.7843 61.2585 51.7203 61.7163 51.6521 62.2125Z" fill="#0B60B0"/>
<path d="M80.3408 32.8362L78.6769 34.868C78.6272 34.5239 78.5845 34.2182 78.5418 33.9139C78.5262 33.8059 78.5191 33.6992 78.4992 33.5926C78.4793 33.486 78.5191 33.4746 78.6073 33.476C78.7722 33.476 78.9372 33.476 79.1022 33.476C79.1932 33.476 79.2444 33.4575 79.2287 33.3551C79.223 33.3041 79.223 33.2526 79.2287 33.2016C79.243 33.0935 79.1946 33.0594 79.0936 33.0694C78.9415 33.0694 78.7907 33.0694 78.6101 33.0694L79.2586 32.1466C79.2899 32.0997 79.3311 32.121 79.3624 32.1466C79.6844 32.3362 79.9958 32.5431 80.2953 32.7665C80.3171 32.7847 80.333 32.8089 80.3408 32.8362Z" fill="#0B60B0"/>
<path d="M78.9129 31.9717L78.1819 32.967C78.1407 33.0238 78.1065 33.075 78.0226 33.0736C77.6443 33.0736 77.2646 33.0736 76.8408 33.0736L78.1336 31.4954C78.1584 31.482 78.1868 31.4764 78.2149 31.4791C78.243 31.4819 78.2696 31.493 78.2914 31.511C78.4791 31.6091 78.6654 31.7143 78.8446 31.8295C78.8873 31.8594 78.9556 31.8892 78.9129 31.9717Z" fill="#0B60B0"/>
<path d="M62.7867 62.4614C62.7587 62.3869 62.7447 62.3079 62.7455 62.2282C62.7522 62.1386 62.7399 62.0485 62.7092 61.964C62.6786 61.8795 62.6303 61.8025 62.5677 61.738C62.5051 61.6735 62.4294 61.623 62.3459 61.5899C62.2623 61.5567 62.1726 61.5417 62.0828 61.5458C61.8495 61.5344 61.6177 61.5458 61.3859 61.5102C61.3355 61.5082 61.2865 61.4927 61.244 61.4655C61.2015 61.4382 61.1671 61.4002 61.1442 61.3552C61.0361 61.1562 60.9095 60.9671 60.8 60.768C60.7616 60.6852 60.6952 60.6185 60.6125 60.5798C60.5297 60.541 60.436 60.5327 60.3478 60.5562C60.1515 60.5875 59.9524 60.5931 59.7561 60.6187C59.7087 60.6258 59.6602 60.6195 59.6162 60.6004C59.5722 60.5813 59.5344 60.5502 59.5073 60.5107C59.3815 60.3498 59.275 60.1746 59.1901 59.9889C59.1154 59.821 59.0001 59.6744 58.8545 59.5623L58.9853 59.3889C59.2159 59.6158 59.3986 59.8865 59.5229 60.1851C59.5539 60.2703 59.6166 60.3402 59.698 60.3802C59.7794 60.4203 59.8731 60.4273 59.9595 60.3998C60.1017 60.3699 60.2439 60.3671 60.3861 60.3472C60.4929 60.3251 60.6039 60.3377 60.7029 60.3833C60.802 60.4288 60.8838 60.5049 60.9365 60.6003C61.0517 60.7894 61.1712 60.9756 61.2764 61.169C61.2964 61.2116 61.3282 61.2476 61.368 61.2728C61.4078 61.298 61.454 61.3113 61.5011 61.3112C61.7443 61.3225 61.9889 61.3254 62.2307 61.3538C62.4303 61.3754 62.6147 61.4705 62.748 61.6205C62.8813 61.7706 62.9539 61.965 62.9517 62.1657C62.9557 62.2613 62.9676 62.3564 62.9873 62.4501C62.9162 62.5979 62.8522 62.5283 62.7867 62.4614Z" fill="#F9F9F9"/>
<path d="M57.6948 58.5159C57.7161 58.7022 57.7389 58.887 57.7602 59.0733C57.4104 59.2005 57.0403 59.2631 56.668 59.2581C56.6336 59.2541 56.6009 59.2407 56.5736 59.2194C56.5462 59.1981 56.5253 59.1697 56.513 59.1372C56.4163 58.912 56.2665 58.7134 56.0764 58.5586C56.0688 58.5541 56.0632 58.5469 56.0608 58.5384C56.0585 58.5299 56.0594 58.5208 56.0636 58.5131C56.0864 58.4761 56.1233 58.4889 56.1546 58.4889H57.6038C57.6365 58.4889 57.6735 58.4761 57.6948 58.5159Z" fill="#0B60B0"/>
<path d="M64.1304 43.399C64.3111 43.4701 64.4775 43.372 64.6481 43.3449C65.2031 43.241 65.7649 43.1773 66.3291 43.1544C66.4986 43.1484 66.6667 43.1867 66.8169 43.2653C66.9656 43.3589 67.1344 43.416 67.3094 43.4318C67.4844 43.4476 67.6607 43.4218 67.8238 43.3563C67.6019 43.7288 67.4597 43.6663 67.0459 43.5838C66.9845 43.5705 66.9258 43.547 66.8724 43.5141C66.5353 43.3066 66.1712 43.3563 65.8029 43.389C65.2328 43.4487 64.6663 43.5398 64.1063 43.662C64.0593 43.672 63.9953 43.6947 63.9641 43.6449C63.9328 43.5952 63.9911 43.5653 64.0195 43.5298C64.048 43.4942 64.0949 43.443 64.1304 43.399Z" fill="#F9F9F9"/>
<path d="M54.993 58.0921H52.7275C52.7175 58.0097 52.7901 58.0082 52.837 57.9898C52.981 57.9359 53.1119 57.8521 53.221 57.7438C53.2694 57.6958 53.3273 57.6584 53.391 57.634C53.4546 57.6095 53.5226 57.5985 53.5907 57.6016C53.9022 57.6016 54.2122 57.6428 54.5237 57.6457C54.7484 57.6457 54.892 57.8021 55.0001 57.9855C55.02 58.0196 55.0356 58.0608 54.993 58.0921Z" fill="#0C61B1"/>
<path d="M49.9541 59.5609C50.0751 59.2584 50.2123 58.9628 50.3651 58.6751C50.4918 58.4859 50.6749 58.3416 50.8885 58.2627C51.0065 58.2115 51.0691 58.213 51.0506 58.3665C51.0506 58.4021 51.0335 58.4461 51.0776 58.4732C51.1217 58.5002 51.1686 58.5087 51.1132 58.577C50.7761 58.9793 50.4433 59.386 50.1034 59.7983L49.9541 59.5609Z" fill="#0B60B0"/>
<path d="M54.993 58.092C54.9604 57.9715 54.8881 57.8654 54.7877 57.7911C54.6872 57.7168 54.5647 57.6785 54.4398 57.6826C54.1739 57.6826 53.9079 57.6612 53.642 57.6442C53.5664 57.6335 53.4893 57.6421 53.418 57.6692C53.3466 57.6963 53.2833 57.741 53.2338 57.7991C53.1016 57.957 52.9025 58.0053 52.7275 58.0935C52.5711 58.048 52.3734 58.1191 52.2725 57.9285C52.4371 57.9382 52.6019 57.9129 52.7561 57.8543C52.9103 57.7958 53.0503 57.7052 53.167 57.5887C53.2193 57.5362 53.2828 57.4962 53.3527 57.4716C53.4226 57.4469 53.4972 57.4384 53.5709 57.4465C53.8937 57.4593 54.2165 57.4693 54.5394 57.4906C54.9006 57.5162 55.0769 57.775 55.2206 58.0593C55.1433 58.0553 55.066 58.0664 54.993 58.092Z" fill="#F8F8F9"/>
<path d="M62.6038 49.7204C62.46 49.6551 62.3051 49.6179 62.1473 49.611C62.0171 49.6021 61.8918 49.5577 61.7852 49.4825C61.6786 49.4072 61.5948 49.3041 61.5429 49.1844C61.5013 49.0746 61.4356 48.9754 61.3507 48.8943C61.2658 48.8131 61.1638 48.7519 61.0522 48.7152C60.7081 48.6 60.509 48.327 60.3525 48.0171C60.4791 47.8465 60.4948 47.8422 60.5829 48.0171C60.6529 48.153 60.7495 48.2734 60.867 48.3711C60.9846 48.4688 61.1206 48.5418 61.267 48.5858C61.3565 48.6135 61.4382 48.6621 61.5052 48.7276C61.5722 48.7932 61.6227 48.8737 61.6524 48.9626C61.769 49.2854 62.0093 49.4091 62.3279 49.4332C62.3898 49.4402 62.4511 49.4516 62.5114 49.4673C62.7332 49.52 62.7361 49.5313 62.6038 49.7204Z" fill="#F9F9F9"/>
<path d="M77.7674 31.3205C77.7546 31.2594 77.6977 31.2494 77.655 31.2281C76.8572 30.8275 76.0339 30.4798 75.1904 30.1873C75.1659 30.1737 75.139 30.1652 75.1111 30.1623C75.0833 30.1594 75.0551 30.1621 75.0283 30.1702C75.1634 29.9598 75.3255 30.0195 75.5204 30.0906C76.2585 30.3593 76.9738 30.6778 77.6821 31.0148C77.9039 31.1214 77.9025 31.1243 77.7674 31.3205Z" fill="#F8F9F9"/>
<path d="M64.5932 51.9555C64.5892 51.887 64.5615 51.8219 64.5148 51.7716C64.4681 51.7213 64.4053 51.6888 64.3372 51.6797C64.1998 51.6556 64.0736 51.5883 63.9772 51.4875C63.8807 51.3868 63.819 51.2578 63.8011 51.1195C63.7456 50.8721 63.6788 50.6275 63.6119 50.3829C63.5978 50.3015 63.5562 50.2274 63.4941 50.1729C63.432 50.1183 63.3532 50.0866 63.2706 50.0829C63.1512 50.0707 63.0387 50.0209 62.9492 49.9408C63.0047 49.827 63.0815 49.8227 63.2095 49.8384C63.683 49.8967 63.8167 50.2308 63.9006 50.6218C63.9348 50.7811 63.9675 50.9403 64.0087 51.0995C64.0228 51.1926 64.0661 51.2788 64.1323 51.3457C64.1984 51.4127 64.2842 51.4569 64.3771 51.4721C64.4049 51.4761 64.4322 51.4838 64.4581 51.4948C64.7312 51.61 64.7653 51.7237 64.5932 51.9555Z" fill="#F8F9F9"/>
<path d="M68.5446 43.1231C68.5574 43.1416 68.5659 43.1714 68.5816 43.1757C68.8828 43.2971 69.1519 43.4864 69.368 43.7288C69.7221 44.0729 70.0933 44.4013 70.345 44.8364C70.351 44.8522 70.3612 44.8661 70.3745 44.8767C70.3877 44.8872 70.4036 44.8939 70.4204 44.8961C70.2412 45.0525 70.2355 45.0568 70.1118 44.8549C69.7776 44.3146 69.2813 43.9321 68.8134 43.5241C68.6952 43.4194 68.5445 43.3586 68.3867 43.352L68.5446 43.1231Z" fill="#F9F9F9"/>
<path d="M57.6941 58.5159C57.5614 58.4873 57.425 58.4805 57.2902 58.4959C56.8906 58.4959 56.4924 58.4959 56.0871 58.5087C56.3029 58.6589 56.4673 58.8719 56.5578 59.1187C56.5696 59.1558 56.5943 59.1874 56.6275 59.2078C56.6606 59.2281 56.7 59.2359 56.7384 59.2296C56.969 59.2065 57.198 59.169 57.4239 59.1173C57.5362 59.1002 57.6486 59.0874 57.7595 59.0732C57.7567 59.1489 57.7693 59.2243 57.7965 59.295C57.5846 59.2566 57.3855 59.3405 57.1793 59.3689C57.0854 59.3832 56.9915 59.4102 56.8948 59.4216C56.5052 59.4642 56.4981 59.4656 56.3345 59.1187C56.2313 58.8907 56.046 58.71 55.8154 58.6125C55.8384 58.5667 55.8744 58.5288 55.919 58.5034C55.9635 58.4781 56.0146 58.4666 56.0657 58.4704C56.5692 58.4704 57.0712 58.4704 57.5746 58.4704C57.6216 58.4704 57.6713 58.4618 57.6941 58.5159Z" fill="#F8F8F9"/>
<path d="M78.9135 31.9717C78.9135 31.9504 78.9135 31.9191 78.8978 31.912C78.6543 31.7513 78.3974 31.6119 78.1299 31.4954C78.2181 31.3532 78.3133 31.3276 78.4712 31.4214C79.0813 31.7883 79.6928 32.1494 80.2816 32.5504C80.4039 32.6328 80.4835 32.7054 80.3413 32.8347C80.0313 32.6286 79.7213 32.421 79.4098 32.2177C79.3643 32.1878 79.3231 32.1423 79.2591 32.1508C79.3017 32.0954 79.3487 32.0442 79.2463 31.9973C79.2128 31.9773 79.1822 31.9529 79.1553 31.9248C79.0543 31.8338 78.9675 31.8167 78.9135 31.9717Z" fill="#F9F9F9"/>
<path d="M47.5254 50.2179V49.4587C47.5699 49.4765 47.6102 49.5032 47.644 49.5372C47.6777 49.5712 47.7041 49.6117 47.7216 49.6563C47.7548 49.7155 47.7828 49.7773 47.8056 49.8412C47.9563 50.2805 47.9947 50.2236 47.5297 50.2521L47.5254 50.2179Z" fill="#0C60B1"/>
<path d="M58.2615 59.6234C58.2615 59.5182 58.1491 59.4115 58.2472 59.3277C58.2789 59.3211 58.3117 59.3219 58.343 59.33C58.3744 59.3381 58.4034 59.3534 58.4278 59.3746C58.4534 59.494 58.3198 59.531 58.2615 59.6234Z" fill="#1969B5"/>
<path d="M89.8458 72.3644C89.341 72.5322 88.8958 72.7469 88.3952 72.8024C87.699 72.8885 86.9937 72.746 86.3855 72.3965C85.7773 72.0469 85.2992 71.5092 85.0233 70.8644C84.7895 70.3211 84.6546 69.7404 84.6251 69.1497C84.5654 68.2042 84.6009 67.2658 84.9494 66.3643C85.4926 64.9624 86.8266 64.1548 88.3227 64.2472C89.6823 64.3311 91.0931 65.1643 91.46 67.1222C91.6876 68.223 91.6338 69.3634 91.3035 70.4379C91.1213 70.972 90.8308 71.4628 90.4502 71.8796C90.3663 71.9763 90.318 71.918 90.2582 71.8711C89.7388 71.4559 89.1704 71.1059 88.5659 70.8289C88.435 70.7691 88.3668 70.772 88.3156 70.9213C88.2644 71.0706 88.1236 71.2128 88.1492 71.3336C88.1677 71.4232 88.3867 71.4758 88.5161 71.5398C88.9732 71.7916 89.4171 72.0669 89.8458 72.3644Z" fill="#F4F4F4"/>
<path d="M81.8471 45.1364C81.8159 45.199 81.7817 45.1364 81.749 45.1364L81.951 44.9587C81.9545 44.961 81.9574 44.9642 81.9594 44.9679C81.9614 44.9716 81.9624 44.9758 81.9624 44.98C81.9624 44.9842 81.9614 44.9884 81.9594 44.9921C81.9574 44.9958 81.9545 44.999 81.951 45.0013L81.8471 45.1364Z" fill="#B9D0E6"/>
<path d="M81.9531 45.0027V44.9601C81.9745 44.9132 82.0129 44.889 82.0953 44.8492C82.0628 44.9124 82.0137 44.9655 81.9531 45.0027Z" fill="#77A5D2"/>
<path d="M63.5996 68.4999C63.5996 66.8355 63.5996 65.17 63.5996 63.5036C63.5996 63.3615 63.6252 63.3131 63.7816 63.3131C66.1519 63.3197 68.5221 63.3197 70.8924 63.3131C71.0275 63.3131 71.0815 63.3373 71.0744 63.4866C71.0602 63.7354 71.0631 63.9871 71.0744 64.2359C71.0744 64.3667 71.0474 64.4065 70.9095 64.4065C69.8059 64.3994 68.7037 64.4065 67.6001 64.4065C66.8051 64.4065 66.0087 64.4065 65.2138 64.4065C65.0957 64.4065 65.0602 64.4335 65.0616 64.5558C65.0616 65.5511 65.0616 66.5464 65.0616 67.5416C65.0616 67.6753 65.1057 67.6966 65.2266 67.6966C66.9715 67.6966 68.7165 67.6966 70.4615 67.6966C70.6208 67.6966 70.6663 67.7393 70.6577 67.8942C70.6451 68.1311 70.6451 68.3684 70.6577 68.6052C70.6649 68.7473 70.6193 68.7829 70.4786 68.7815C68.745 68.7815 67.0114 68.7815 65.2777 68.7744C65.1142 68.7744 65.0587 68.8014 65.0602 68.9819C65.0706 70.1308 65.0706 71.2792 65.0602 72.427C65.0602 72.5891 65.1085 72.619 65.2593 72.619C67.2033 72.619 69.1474 72.619 71.0901 72.6119C71.2408 72.6119 71.2991 72.6432 71.2892 72.8067C71.2764 73.0506 71.2764 73.295 71.2892 73.5389C71.2892 73.6726 71.2465 73.6967 71.1242 73.6953C69.6186 73.6953 68.1126 73.6953 66.606 73.6953C65.656 73.6953 64.7075 73.6953 63.7617 73.6953C63.6337 73.6953 63.6025 73.6626 63.6025 73.5346C63.6034 71.855 63.6025 70.1768 63.5996 68.4999Z" fill="#0B60B0"/>
<path d="M76.5264 69.0331C76.5264 67.5501 76.5264 66.0671 76.5264 64.5827C76.5264 64.4278 76.4837 64.3993 76.3386 64.4007C75.3431 64.4079 74.3604 64.4007 73.3706 64.4007C73.2469 64.4007 73.2028 64.3766 73.2085 64.2443C73.2199 63.9785 73.217 63.7097 73.2085 63.4439C73.2085 63.3386 73.2369 63.3017 73.3422 63.3102C73.7233 63.3102 74.1044 63.3102 74.4799 63.3102C76.68 63.3102 78.88 63.3102 81.0801 63.3102C81.2323 63.3102 81.2735 63.3486 81.2664 63.4979C81.2522 63.7418 81.2522 63.9863 81.2664 64.2301C81.2749 64.3808 81.2181 64.4036 81.0844 64.4022C80.1116 64.4022 79.1403 64.4022 78.1675 64.4022C78.0168 64.4022 77.9713 64.4334 77.9713 64.5941C77.9713 67.5544 77.9713 70.516 77.9784 73.4777C77.9784 73.6469 77.9428 73.6995 77.7665 73.6924C77.4038 73.6768 77.0398 73.6796 76.6757 73.6924C76.5335 73.6924 76.5122 73.6469 76.5122 73.5204C76.5235 72.0246 76.5283 70.5288 76.5264 69.0331Z" fill="#0B60B0"/>
<path d="M83.5746 59.8041C83.5255 59.3348 83.5428 58.8609 83.6258 58.3965C83.6983 58.0183 83.5775 57.8277 83.2077 57.6927C83.0555 57.6386 83.0114 57.569 83.0655 57.4225C83.084 57.3858 83.0948 57.3457 83.097 57.3047C83.0993 57.2636 83.093 57.2226 83.0785 57.1841C83.0641 57.1456 83.0418 57.1105 83.0132 57.0811C82.9845 57.0516 82.95 57.0285 82.9119 57.013C82.8617 56.9842 82.8198 56.9429 82.7904 56.893C82.761 56.8432 82.745 56.7865 82.7441 56.7287C82.733 56.635 82.6924 56.5472 82.6283 56.478C82.5641 56.4087 82.4797 56.3616 82.3871 56.3433C82.1568 56.2702 81.9106 56.2623 81.6761 56.3206C81.6027 56.3333 81.5329 56.3619 81.4717 56.4044C81.4106 56.4469 81.3594 56.5022 81.3219 56.5666C81.2535 56.706 81.1337 56.8135 80.9877 56.8666C80.9397 56.882 80.8989 56.9142 80.8727 56.9573C80.8466 57.0004 80.8369 57.0515 80.8455 57.1012C80.8506 57.3393 80.872 57.5769 80.9095 57.8121C80.9305 57.9533 80.9357 58.0963 80.9252 58.2386C80.9288 58.3145 80.9122 58.39 80.8769 58.4573C80.8416 58.5247 80.789 58.5813 80.7245 58.6215C80.66 58.6616 80.5859 58.6838 80.5099 58.6858C80.4339 58.6877 80.3588 58.6693 80.2923 58.6325C79.887 58.4732 79.5926 58.6879 79.6353 59.123C79.6566 59.3249 79.7121 59.524 79.749 59.7244C79.786 59.9249 79.749 60.0088 79.6068 60.0515C79.3835 60.1126 79.2058 60.0515 79.1674 59.8723C79.1247 59.6647 79.0095 59.6263 78.8218 59.615C78.6402 59.5966 78.4568 59.6199 78.2856 59.6829C78.1143 59.746 77.9597 59.8472 77.8334 59.979C77.7415 60.0765 77.628 60.1512 77.5021 60.1971C77.3762 60.243 77.2412 60.2589 77.1081 60.2434C77.091 60.2434 77.074 60.2434 77.0569 60.2434C76.8976 60.2079 76.9076 59.996 76.7725 59.9591C76.5876 59.9008 76.5776 59.7927 76.6189 59.6349C76.6715 59.4316 76.7071 59.224 76.7526 59.0192C76.8073 58.7808 76.9241 58.5611 77.091 58.3822C77.2381 58.2188 77.3466 58.0246 77.4086 57.8137C77.4707 57.6028 77.4846 57.3807 77.4494 57.1637C77.4263 57.0169 77.3617 56.8798 77.2631 56.7685C77.2133 56.7073 77.1607 56.6462 77.1067 56.5893C76.9967 56.4851 76.9175 56.3526 76.8779 56.2064C76.8382 56.0602 76.8397 55.9059 76.882 55.7604C76.9207 55.6208 76.9207 55.4734 76.882 55.3338C76.8151 55.0751 76.6971 54.8888 76.3885 54.8646C76.1171 54.8416 75.8488 54.7906 75.5878 54.7125C75.019 54.5476 74.8341 54.0115 75.1612 53.5139C75.1789 53.4886 75.2029 53.4685 75.2309 53.4555C75.2588 53.4425 75.2897 53.4372 75.3205 53.44C75.7482 53.423 76.1766 53.4449 76.6004 53.5054C76.8538 53.5421 77.1095 53.5597 77.3655 53.558C77.6499 53.5452 77.8362 53.4286 77.9159 53.2068C78.0311 52.8911 77.9756 52.6139 77.7566 52.4276C77.6627 52.3494 77.5447 52.2584 77.5788 52.1433C77.613 52.0281 77.7765 52.0125 77.8974 51.9925C77.9927 51.9783 78.0908 51.9812 78.1818 51.9641C78.2728 51.947 78.4079 51.9982 78.4819 51.8873C78.6096 51.7324 78.6732 51.5345 78.6597 51.3342C78.6251 51.1946 78.6065 51.0515 78.6042 50.9077C78.6184 50.7186 78.6838 50.6233 78.8687 50.6233C79.1719 50.6222 79.4654 50.5162 79.6993 50.3233C79.7217 50.3057 79.7478 50.2935 79.7756 50.2876C79.8035 50.2817 79.8324 50.2822 79.86 50.2892C80.0019 50.301 80.1448 50.2831 80.2795 50.2366C80.3336 50.2296 80.3837 50.2046 80.4219 50.1657C80.4601 50.1267 80.4841 50.0761 80.49 50.0219C80.5014 49.9195 80.5611 49.8996 80.6592 49.9209C81.0048 49.9963 81.1072 50.1641 81.0162 50.5167C80.9375 50.7475 80.8715 50.9825 80.8185 51.2205C80.7773 51.5191 80.9138 51.7338 81.2124 51.738C81.558 51.738 81.7088 52.0224 81.9491 52.1731C81.9647 52.1841 81.9779 52.1981 81.9879 52.2143C81.9979 52.2306 82.0046 52.2486 82.0075 52.2674C82.0105 52.2863 82.0096 52.3055 82.0049 52.324C82.0002 52.3425 81.9919 52.3598 81.9804 52.375C81.942 52.4333 81.8652 52.4006 81.8097 52.375C81.7144 52.3388 81.6225 52.2941 81.5353 52.2414C81.3774 52.139 81.2665 52.2101 81.1669 52.3267C80.982 52.5471 80.8242 52.5471 80.6791 52.2954C80.6503 52.2411 80.6067 52.1961 80.5533 52.1656C80.5 52.1352 80.439 52.1205 80.3776 52.1234C80.1515 52.1091 79.9254 52.0707 79.6993 52.0651C79.1034 52.0494 78.8019 52.1888 78.5502 52.9068C78.4079 53.3333 78.6298 53.6333 79.0849 53.6603C79.2551 53.6758 79.4266 53.6662 79.594 53.6319C80.0605 53.521 80.5312 53.5736 81.002 53.5878C81.2778 53.6005 81.5536 53.562 81.8154 53.4741C82.2496 53.3485 82.7112 53.3539 83.1423 53.4897C83.1936 53.5081 83.2395 53.5389 83.276 53.5793C83.3124 53.6198 83.3383 53.6686 83.3513 53.7215C83.4751 54.0371 83.7126 54.1694 84.0397 54.0499C84.3572 53.9417 84.6946 53.9043 85.0281 53.9404C85.4163 53.9703 85.779 53.8352 86.1544 53.7798C86.3949 53.7381 86.6375 53.7092 86.8811 53.6931C86.9736 53.6931 87.0418 53.713 87.0589 53.8068C87.1286 54.1992 87.386 54.4424 87.7074 54.6343C87.7383 54.6487 87.766 54.6692 87.7888 54.6946C87.8115 54.72 87.8289 54.7497 87.8398 54.7821C87.8507 54.8144 87.8549 54.8486 87.8522 54.8826C87.8495 54.9165 87.8399 54.9496 87.824 54.9798C87.7837 55.0979 87.7532 55.2192 87.733 55.3424C87.7015 55.4624 87.7165 55.5899 87.775 55.6993C87.8336 55.8088 87.9313 55.892 88.0487 55.9324C88.1568 55.9751 88.1525 56.0192 88.1241 56.1045C87.8624 56.9082 87.5547 57.6963 87.2025 58.4647C87.1912 58.4954 87.1721 58.5226 87.1472 58.5437C87.1223 58.5649 87.0924 58.5793 87.0603 58.5856C86.9377 58.6136 86.8229 58.6687 86.7245 58.747C86.626 58.8252 86.5464 58.9246 86.4915 59.0377C86.4488 59.1187 86.4019 59.1969 86.3677 59.2808C86.2517 59.5661 86.0756 59.823 85.8513 60.034C85.627 60.2451 85.3597 60.4052 85.0679 60.5036C84.7702 60.6311 84.4612 60.7301 84.1449 60.7994C84.1059 60.8063 84.0664 60.811 84.0269 60.8136C83.7026 60.8235 83.6386 60.7652 83.6201 60.4467C83.6016 60.242 83.5888 60.0188 83.5746 59.8041Z" fill="#0B60B0"/>
<path d="M80.7186 46.3081C81.6345 44.9545 83.3183 44.963 84.3195 45.4664C84.4613 45.5253 84.5797 45.6292 84.6566 45.7621C84.692 45.8314 84.7502 45.8865 84.8214 45.9181C84.8926 45.9496 84.9725 45.9558 85.0477 45.9356C85.4345 45.863 85.635 45.5957 85.7588 45.2559C85.8184 45.0773 85.8459 44.8896 85.8398 44.7014C85.8405 44.5882 85.8491 44.4751 85.8654 44.363C85.9067 44.0943 85.9863 44.0289 86.2522 44.0275C86.5651 44.0275 86.878 44.0275 87.1894 44.0275C87.2662 44.0275 87.343 44.0275 87.3843 44.1028C87.5748 44.4611 87.9247 44.5692 88.2788 44.663C88.3464 44.6765 88.4079 44.7115 88.454 44.7627C88.5001 44.814 88.5285 44.8787 88.5348 44.9474C89.002 46.9241 89.1811 48.958 89.0667 50.9859C89.0667 51.047 89.0553 51.1096 89.0496 51.1722C89.024 51.4565 89.0254 51.4565 88.7495 51.5262C88.6955 51.5434 88.6397 51.5543 88.5831 51.5589C88.266 51.5788 87.9716 51.6328 87.7299 51.8788C87.6106 51.9659 87.4767 52.031 87.3345 52.0708C86.9278 52.2456 86.9704 52.557 87.2037 52.8314C87.3373 52.9893 87.3459 53.1158 87.1909 53.2438C87.0085 53.3627 86.809 53.4528 86.5992 53.5111C86.1882 53.5651 85.7858 53.6533 85.379 53.7272C85.1533 53.7523 84.9255 53.7547 84.6993 53.7343C84.4779 53.7215 84.2564 53.758 84.0507 53.8409C83.9432 53.8791 83.8277 53.8893 83.7151 53.8708C83.6782 53.8717 83.6422 53.8592 83.6138 53.8357C83.5853 53.8122 83.5662 53.7792 83.5601 53.7428C83.4776 53.376 83.2017 53.2594 82.8689 53.2281C82.5696 53.1897 82.2666 53.1897 81.9673 53.2281C81.8882 53.231 81.8102 53.2479 81.7369 53.2779C81.4525 53.457 81.1325 53.4044 80.8253 53.386C80.3726 53.3463 79.9166 53.3688 79.47 53.4528C79.292 53.4947 79.106 53.4888 78.931 53.4357C78.8916 53.4286 78.8542 53.4132 78.8212 53.3907C78.7882 53.3681 78.7603 53.3388 78.7393 53.3047C78.7184 53.2706 78.7049 53.2325 78.6997 53.1929C78.6945 53.1532 78.6977 53.1129 78.7091 53.0746C78.7575 52.8339 78.878 52.6137 79.0547 52.4433C79.241 52.267 79.4814 52.2783 79.7146 52.2855C79.9237 52.2855 80.1313 52.3253 80.3404 52.3409C80.3709 52.3424 80.4008 52.351 80.4274 52.366C80.4541 52.3811 80.4769 52.4022 80.4939 52.4276C80.7684 52.7916 81.0201 52.8058 81.3245 52.4703C81.3885 52.3992 81.4326 52.4447 81.4852 52.4703C81.6336 52.5652 81.8054 52.6169 81.9815 52.6196C82.0322 52.6223 82.0819 52.6048 82.1198 52.571C82.1576 52.5371 82.1805 52.4897 82.1835 52.439C82.2089 52.3328 82.1963 52.2211 82.148 52.1232C82.0997 52.0254 82.0187 51.9474 81.9189 51.903C81.8009 51.8376 81.7483 51.7807 81.9189 51.7238C81.93 51.7206 81.9399 51.7142 81.9474 51.7053C82.1223 51.4594 82.3342 51.5717 82.5362 51.6485C82.6784 51.6997 82.8064 51.7679 82.9386 51.8319C83.0491 51.8921 83.175 51.9181 83.3003 51.9067C83.4256 51.8953 83.5448 51.847 83.6426 51.7679C83.745 51.6957 83.8403 51.6138 83.927 51.5234C84.1181 51.3088 84.3812 51.1717 84.6665 51.138C84.7438 51.1369 84.8183 51.1085 84.8766 51.0577C84.9349 51.0069 84.9733 50.9372 84.9851 50.8608C84.9965 50.7741 85.033 50.6926 85.0901 50.6265C85.1472 50.5603 85.2224 50.5122 85.3065 50.4883C85.3444 50.4772 85.3772 50.4532 85.3993 50.4205C85.4214 50.3878 85.4313 50.3484 85.4274 50.3091C85.4573 49.7717 85.2781 49.5612 84.7348 49.5172C84.4907 49.5046 84.248 49.4713 84.0095 49.4176C83.7977 49.37 83.6062 49.2571 83.462 49.0949C83.3839 49.0049 83.2998 48.9204 83.2103 48.8418C82.8519 48.5304 82.4238 48.6072 82.1948 49.0195C82.1407 49.1043 82.067 49.175 81.9799 49.2255C81.8928 49.276 81.7949 49.3049 81.6943 49.3097C81.5938 49.3146 81.4935 49.2953 81.4019 49.2535C81.3104 49.2116 81.2302 49.1485 81.168 49.0693C81.0197 48.8369 80.7865 48.6716 80.5181 48.6086C80.3844 48.5862 80.2564 48.5379 80.1413 48.4664C79.9592 48.3328 79.9322 48.1394 80.1029 47.9929C80.4271 47.7171 80.7642 47.4569 81.0984 47.191C81.2065 47.1284 81.325 47.0856 81.4482 47.0645C81.68 46.9906 81.717 46.9308 81.6729 46.7019C81.6644 46.6507 81.6544 46.601 81.6445 46.5512C81.6174 46.409 81.6345 46.2427 81.4183 46.2114C81.2633 46.1901 81.1197 46.1503 80.9917 46.274C80.9511 46.2984 80.9058 46.3141 80.8588 46.32C80.8118 46.3259 80.764 46.3218 80.7186 46.3081Z" fill="#0B60B0"/>
<path d="M57.7112 42.4038C57.3786 42.4205 57.0453 42.4052 56.7157 42.3583C55.75 42.1606 55.1911 41.2919 55.3774 40.3179C55.4898 39.7307 55.6618 39.1691 56.0558 38.707C56.1146 38.635 56.1565 38.5508 56.1784 38.4605C56.2003 38.3702 56.2016 38.2761 56.1824 38.1852C56.1667 38.0544 56.2151 38.006 56.3502 38.0032C56.6204 37.9961 56.6815 37.935 56.7327 37.6691C56.7939 37.3591 56.7939 37.3605 57.1096 37.325C57.2447 37.3093 57.3784 37.2823 57.5135 37.2653C57.616 37.2566 57.7149 37.2237 57.8022 37.1693C57.8894 37.1149 57.9625 37.0406 58.0155 36.9525C58.0386 36.9039 58.08 36.8665 58.1306 36.8483C58.1813 36.8302 58.237 36.8329 58.2857 36.8558C58.4279 36.9013 58.5701 36.9397 58.7124 36.9909C58.7776 37.0188 58.8486 37.0306 58.9194 37.0254C58.9901 37.0202 59.0586 36.9981 59.1191 36.961C59.2457 36.8856 59.3822 36.8273 59.5073 36.7506C59.5913 36.698 59.7292 36.6866 59.7008 36.5316C59.6723 36.3766 59.6268 36.2216 59.4519 36.1562C59.3812 36.1358 59.3079 36.1257 59.2343 36.1264C59.1376 36.1264 59.0409 36.1264 58.9499 36.1036C58.7436 36.0695 58.6356 35.9515 58.6555 35.7965C58.6685 35.7082 58.7148 35.6281 58.7848 35.5727C58.8548 35.5172 58.9433 35.4905 59.0323 35.4979C59.3506 35.5555 59.6731 35.5869 59.9966 35.5918C60.0858 35.609 60.1694 35.6481 60.2398 35.7055C60.3332 35.7748 60.4422 35.8201 60.5573 35.8375C60.6723 35.8548 60.7899 35.8437 60.8996 35.8051C60.9467 35.7902 60.9967 35.7868 61.0454 35.795C61.0941 35.8032 61.1401 35.8227 61.1798 35.8521C61.2195 35.8815 61.2516 35.9199 61.2736 35.9641C61.2956 36.0083 61.3068 36.0571 61.3064 36.1065C61.3064 36.1847 61.2964 36.2416 61.2011 36.2487C61.1499 36.2521 61.099 36.2597 61.049 36.2714C60.9423 36.2871 60.8115 36.2714 60.7375 36.3283C60.6636 36.3852 60.7247 36.5202 60.7261 36.6212C60.7261 36.6951 60.7048 36.725 60.6308 36.7179C60.591 36.7179 60.5512 36.7179 60.5114 36.7179C60.2127 36.7179 60.2127 36.7179 60.2582 37.0164C60.2627 37.0559 60.2722 37.0946 60.2867 37.1316C60.3529 37.3014 60.3831 37.4831 60.3756 37.6652C60.368 37.8472 60.3227 38.0258 60.2426 38.1895C60.1478 38.4062 60.097 38.6396 60.0931 38.8761C60.0892 39.1126 60.1323 39.3475 60.2198 39.5672C60.3942 40.0266 60.3866 40.5351 60.1985 40.989C60.1343 41.1919 59.9983 41.3643 59.816 41.4739C59.6467 41.5763 59.4889 41.6985 59.3267 41.8123C59.1624 41.9161 59.0304 42.0639 58.9456 42.2388C58.9264 42.2922 58.8896 42.3374 58.8412 42.3671C58.7929 42.3968 58.736 42.4092 58.6797 42.4023L57.7112 42.4038Z" fill="#0B60B0"/>
<path d="M86.0086 70.9185C85.8664 70.8459 85.8252 70.6938 85.7683 70.5644C85.5632 70.0796 85.4466 69.5619 85.4241 69.036C85.4028 68.8048 85.3943 68.5727 85.3985 68.3407C85.4383 67.6582 85.4967 66.9743 85.8365 66.3572C86.0149 66.0043 86.2793 65.702 86.6055 65.4784C86.9316 65.2547 87.3089 65.1169 87.7024 65.0776C88.2825 64.9847 88.877 65.0846 89.3948 65.362C89.8238 65.5895 90.1672 65.9503 90.3732 66.3899C90.357 66.4569 90.3231 66.5183 90.2751 66.5677C89.8612 67.108 89.4218 67.6269 88.9681 68.1317C88.5415 68.6066 88.1148 69.0743 87.6512 69.5094C87.1648 69.9687 86.6785 70.4279 86.1537 70.8445C86.1124 70.8858 86.0783 70.944 86.0086 70.9185Z" fill="#FEFEFE"/>
<path d="M86.0087 70.9184C86.8549 70.2311 87.6545 69.4882 88.4022 68.6947C89.0687 67.9971 89.6968 67.2638 90.2837 66.498C90.3107 66.4624 90.3434 66.4312 90.3733 66.397C90.5712 66.7941 90.6928 67.2248 90.7317 67.6667C90.8485 68.5022 90.7854 69.3529 90.5468 70.162C90.4796 70.3611 90.3959 70.5542 90.2965 70.7393C90.2467 70.8374 90.2055 70.836 90.1216 70.7777C89.5088 70.365 88.8428 70.0373 88.1419 69.8037C88.0168 69.7611 87.9698 69.7838 87.9158 69.9004C87.6314 70.5018 87.3469 71.0962 87.0625 71.6962C87.0198 71.7886 86.9886 71.8128 86.8919 71.7602C86.5668 71.5818 86.2829 71.3372 86.0585 71.0421C86.0229 71.0052 85.9916 70.9696 86.0087 70.9184Z" fill="#0B60B0"/>
</g>
<defs>
<clipPath id="clip0_709_3870">
<rect width="140" height="100" fill="white"/>
</clipPath>
</defs>
</svg>
