<svg width="140" height="100" viewBox="0 0 140 100" fill="none" xmlns="http://www.w3.org/2000/svg">
<path d="M77.4001 8.59875C77.972 8.91826 78.6206 8.8927 79.2277 8.8911C80.0184 8.8911 80.1686 9.19303 80.159 9.92948C80.1159 13.7331 80.1319 17.5384 80.1271 21.342C80.1271 22.3884 80.1366 22.3533 79.1845 22.029C75.1285 20.6455 71.1491 20.8788 67.371 22.8884C64.6169 24.3549 62.9491 26.8422 61.842 29.6826C59.7924 34.9384 59.2301 40.3012 61.4602 45.6209C65.2942 54.7778 74.515 56.4296 80.8523 53.3368C83.3812 52.1036 84.9819 50.1418 85.672 47.4261C85.7454 47.1979 85.7989 46.9638 85.8317 46.7264C85.8781 46.0874 86.1401 45.9596 86.7583 46.1481C90.9778 47.4389 95.207 48.7089 99.4457 49.9581C100.104 50.1514 100.121 50.4374 99.8866 50.9789C98.3035 54.6212 96.1133 57.8115 93.0029 60.3259C90.0843 62.687 86.9564 64.6903 83.2757 65.6185C77.357 67.1073 71.4398 66.9843 65.5051 65.5673C60.1886 64.2893 55.7923 61.5608 52.2458 57.484C49.2601 54.0509 47.3207 50.0108 46.3111 45.6001C44.6912 38.5136 45.0091 31.4574 48.0684 24.823C52.3289 15.5367 59.7078 10.2202 69.8919 8.88471C70.427 8.81442 71.0005 8.91985 71.4894 8.59875H72.6076C73.764 8.86475 74.9657 8.86475 76.1221 8.59875H77.4001Z" fill="#1271C5"/>
<path d="M9.04056 44.5044C9.02671 41.2327 9.01287 37.9615 8.99902 34.6909C9.02671 27.2359 9.0544 19.7857 9.08209 12.3402C9.09328 10.1804 9.11404 10.1804 11.2835 10.1804C14.929 10.1804 18.5761 10.2188 22.22 10.1549C23.0922 10.1405 23.2488 10.4744 23.2248 11.1932C23.1817 12.4712 23.1657 13.7492 23.1609 15.0273C23.1343 23.7603 23.1098 32.4885 23.0874 41.2119C23.0874 43.4484 23.1865 45.6849 23.8638 47.84C25.0044 51.4903 27.209 53.2715 31.011 53.6629C32.3619 53.8036 33.725 53.7746 35.0687 53.5766C38.7637 53.0239 40.783 50.6867 41.7574 47.2585C41.9763 46.4917 42.1313 45.7089 42.3166 44.9293C42.5322 45.014 42.5386 45.2121 42.5722 45.3798C43.6121 50.4359 45.9685 54.8562 49.0756 58.9251C50.1028 60.2686 50.2434 59.973 48.7785 61.1696C44.994 64.2591 40.6152 65.8694 35.7636 66.2656C30.9855 66.657 26.268 66.3327 21.7775 64.5946C15.8427 62.2974 11.8522 58.0448 9.9735 51.9392C9.44313 50.2139 9.3345 48.3831 9.17475 46.5811" fill="#1271C5"/>
<path d="M55.9952 90.6786C56.155 90.0635 55.9617 89.8111 55.2891 89.8543C54.4409 89.9086 53.5878 89.8543 52.7331 89.8734C52.321 89.8846 52.166 89.7392 52.1772 89.3223C52.198 88.4181 52.1772 87.5139 52.1772 86.6065C52.1772 86.4053 52.1229 86.1273 52.4504 86.1401C52.7779 86.1528 52.7219 86.4148 52.7235 86.6193C52.7235 87.3638 52.7491 88.1098 52.7235 88.8558C52.7028 89.3734 52.9967 89.3862 53.3801 89.3926C53.7635 89.399 53.9712 89.2999 53.9568 88.8606C53.9313 88.1162 53.9472 87.3717 53.9568 86.6241C53.9568 86.4196 53.9169 86.1449 54.23 86.1449C54.5431 86.1449 54.4936 86.426 54.4952 86.6241C54.4952 87.3685 54.5223 88.113 54.4952 88.8606C54.4744 89.3926 54.7923 89.3686 55.1613 89.383C55.5687 89.399 55.7396 89.2664 55.7253 88.8414C55.7029 88.097 55.7253 87.3526 55.7253 86.6049C55.7253 86.3973 55.6965 86.1337 56.0096 86.1369C56.3227 86.1401 56.2748 86.4053 56.286 86.6161C56.2884 86.6427 56.2884 86.6694 56.286 86.696C56.171 88.0411 56.409 89.3558 56.639 90.669L55.9952 90.6786Z" fill="#828281"/>
<path d="M96.0918 90.6785C96.2036 90.0635 96.2515 89.4916 96.7132 88.9213C97.1749 88.3509 96.9752 87.442 97.0104 86.6847C97.0327 86.2263 97.1957 86.0953 97.6286 86.1049C99.7884 86.1544 99.3986 85.8253 99.3619 87.7631C99.3427 88.7759 99.7613 89.6913 99.7645 90.6785H99.1255C99.266 90.0763 99.0919 89.7695 98.413 89.8606C98.0948 89.9024 97.7726 89.9024 97.4545 89.8606C96.7787 89.7679 96.603 90.0794 96.7276 90.6785H96.0918ZM97.2995 89.3382C98.8315 89.4708 98.8315 89.4708 98.8299 87.9739C98.8299 87.6832 98.8076 87.3892 98.8299 87.0985C98.8794 86.5617 98.5344 86.5825 98.1686 86.5825C97.8027 86.5825 97.4992 86.5569 97.488 87.0905C97.4704 87.8286 97.3698 88.5634 97.2947 89.3382H97.2995Z" fill="#828281"/>
<path d="M18.1514 90.6787C18.3527 90.0477 18.129 89.8464 17.4677 89.8544C15.728 89.8751 15.728 89.8544 15.728 88.1179C15.728 87.6115 15.728 87.1067 15.728 86.6019C15.728 86.4006 15.6801 86.1226 16.0123 86.1514C16.2775 86.1737 16.228 86.4149 16.2296 86.5907C16.2636 87.2826 16.2598 87.9759 16.2184 88.6674C16.1449 89.4071 16.5507 89.3847 17.0779 89.4055C17.6769 89.4294 17.9613 89.2936 17.9022 88.6227C17.8431 87.9517 17.8862 87.2936 17.8926 86.629C17.8926 86.4261 17.8527 86.1498 18.1706 86.1498C18.4885 86.1498 18.4453 86.4165 18.4485 86.629C18.4782 86.9478 18.4782 87.2687 18.4485 87.5875C18.26 88.6578 18.8367 89.6339 18.7936 90.6819L18.1514 90.6787Z" fill="#828281"/>
<path d="M96.7286 90.6786C96.604 90.0796 96.7797 89.7681 97.4554 89.8607C97.7736 89.9026 98.0958 89.9026 98.4139 89.8607C99.0929 89.7697 99.267 90.0764 99.1264 90.6786H96.7286Z" fill="#FCFDFD"/>
<path d="M76.1229 8.59875C74.9665 8.86475 73.7648 8.86475 72.6084 8.59875H76.1229Z" fill="#1877CB"/>
<path d="M110.178 10.2554C115.049 10.2554 119.923 10.2666 124.791 10.241C125.442 10.241 125.648 10.4008 125.642 11.0733C125.603 14.5069 125.598 17.9399 125.628 21.3724C125.628 22.0625 125.409 22.1935 124.77 22.1903C119.714 22.1664 114.656 22.1903 109.593 22.1632C108.875 22.1632 108.707 22.3597 108.72 23.0514C108.756 25.2607 108.7 27.4701 108.72 29.6778C108.72 30.2881 108.581 30.3616 108.001 30.2018C103.771 29.0442 99.5319 27.9126 95.2847 26.8071C94.7687 26.6729 94.6297 26.4461 94.6329 25.9349C94.66 20.9587 94.676 15.9808 94.6552 11.0046C94.6552 10.3353 94.8853 10.2218 95.4795 10.225C100.377 10.2442 105.275 10.2362 110.177 10.2362L110.178 10.2554Z" fill="#1372C6"/>
<path d="M130.962 40.9771C121.44 40.8887 111.917 40.8008 102.394 40.7135C101.386 40.7039 101.392 40.7135 101.626 41.6992C102.067 43.5778 102.498 45.4581 102.969 47.4981L65.4805 34.8203L65.5028 34.6781L93.8649 35.9673C93.269 33.8698 92.7051 31.8873 92.0885 29.7211L130.999 40.8525C130.986 40.8892 130.975 40.9324 130.962 40.9771Z" fill="#609421"/>
<path d="M110.091 65.2463C105.224 65.2463 100.346 65.2304 95.4868 65.2655C94.7599 65.2655 94.6161 65.0514 94.6113 64.3709C94.6113 63.6488 94.8334 63.1584 95.3302 62.6328C97.923 59.8835 100.442 57.0735 101.896 53.4983C102.086 53.0302 102.45 53.1692 102.767 53.1692C109.689 53.1692 116.606 53.1729 123.517 53.1804C123.969 53.1804 124.424 53.2139 124.873 53.1804C125.429 53.1309 125.605 53.3273 125.597 53.8913C125.568 56.206 125.584 58.524 125.584 60.834C125.584 62.0321 125.534 63.2303 125.6 64.4236C125.641 65.1633 125.371 65.2927 124.696 65.2895C119.828 65.2607 114.96 65.2735 110.091 65.2735V65.2463Z" fill="#1372C6"/>
<path d="M42.4512 29.6027C42.4512 23.3309 42.4512 17.0586 42.4512 10.7858C42.4512 10.3832 42.4991 10.1467 42.9991 10.1547C46.9929 10.1723 50.9739 10.1659 54.9612 10.1691C55.1009 10.2012 55.2372 10.2461 55.3686 10.3033C48.9003 15.3738 44.726 21.8245 42.7212 29.6698L42.4512 29.6027Z" fill="#1372C6"/>
<path d="M91.0991 77.5041C91.0991 78.9323 91.0544 80.3636 91.1183 81.7902C91.1518 82.533 90.8259 82.589 90.2301 82.589C89.6662 82.589 89.3786 82.5219 89.393 81.8254C89.4409 79.5409 89.401 77.2517 89.4217 74.9657C89.4217 74.6685 89.1837 74.1541 89.6933 74.111C90.2029 74.0679 90.8004 73.8282 91.2061 74.4609C92.1247 75.8986 93.0752 77.3044 94.0146 78.723C94.1152 78.8827 94.227 79.0217 94.366 79.2166C94.6376 78.8812 94.513 78.5313 94.5162 78.2166C94.5338 77.0201 94.5497 75.8203 94.5162 74.627C94.4938 73.8762 95.0098 74.0918 95.3852 74.0854C95.7606 74.0791 96.2495 73.9017 96.2383 74.6414C96.2063 76.9817 96.2383 79.3221 96.2159 81.6624C96.2159 81.9627 96.4539 82.4867 95.9699 82.5314C95.4459 82.581 94.8149 82.843 94.39 82.1656C93.5689 80.8605 92.6998 79.5857 91.8515 78.2997L91.2892 77.453L91.0991 77.5041Z" fill="#1877CB"/>
<path d="M26.7229 78.341C26.7229 77.1461 26.7421 75.9448 26.7134 74.7578C26.7022 74.2642 26.8108 74.039 27.3651 74.0613C28.4259 74.1029 29.4898 74.0693 30.5506 74.0757C31.4931 74.0757 32.2934 74.3952 32.704 75.301C33.1146 76.2068 33.0666 77.1221 32.2886 77.857C32.0378 78.095 32.0985 78.1989 32.3142 78.4001C33.1832 79.2133 33.2871 80.1973 32.8302 81.2405C32.3925 82.2374 31.5602 82.5968 30.5058 82.5712C29.5234 82.5457 28.5393 82.5265 27.56 82.5712C26.921 82.6064 26.6702 82.4482 26.7054 81.7549C26.7597 80.6303 26.7229 79.4817 26.7229 78.341ZM29.5521 81.0999C29.8894 81.0873 30.2259 81.0574 30.5601 81.0105C30.7463 80.9846 30.9181 80.8962 31.0473 80.7598C31.1765 80.6233 31.2554 80.4469 31.271 80.2596C31.3253 79.8523 31.2982 79.4609 30.9515 79.1685C30.6911 78.9433 28.862 78.7548 28.5553 78.9273C28.493 78.9625 28.4083 79.0344 28.4083 79.0871C28.3987 79.6925 28.2821 80.3347 28.4482 80.8923C28.5792 81.3028 29.1703 80.9833 29.5521 81.0999ZM29.5521 77.4464V77.4592C29.869 77.4646 30.1857 77.4448 30.4994 77.4001C30.6431 77.3721 30.7778 77.3095 30.8918 77.2177C31.0058 77.1259 31.0957 77.0076 31.1536 76.8732C31.2115 76.7388 31.2358 76.5922 31.2242 76.4463C31.2127 76.3004 31.1657 76.1595 31.0873 76.0358C30.8557 75.6476 28.8109 75.3601 28.4786 75.6716C28.439 75.7045 28.4124 75.7503 28.4035 75.801C28.4035 76.301 28.2981 76.8378 28.4482 77.2899C28.5585 77.627 29.0665 77.3905 29.394 77.4496C29.4483 77.4528 29.5028 77.4518 29.5569 77.4464H29.5521Z" fill="#1877CB"/>
<path d="M104.621 78.3235C104.621 77.1014 104.635 75.8809 104.621 74.6588C104.613 74.2163 104.758 74.0502 105.215 74.0645C106.198 74.0933 107.181 74.0933 108.162 74.0645C109.295 74.0342 110.121 74.4831 110.579 75.5263C111.038 76.5694 110.867 77.8954 110.022 78.6174C109.492 79.0711 109.543 79.4258 109.806 79.9514C110.139 80.6143 110.391 81.3172 110.701 81.993C110.872 82.3652 110.888 82.5377 110.381 82.5792C109.52 82.6495 108.918 82.4898 108.699 81.5169C108.567 80.9306 108.247 80.3859 108.023 79.8172C107.983 79.6785 107.897 79.5575 107.779 79.4739C107.662 79.3904 107.519 79.3492 107.375 79.3571C106.321 79.3092 106.321 79.29 106.321 80.3555C106.295 80.8063 106.298 81.2583 106.332 81.7086C106.426 82.4243 106.15 82.576 105.459 82.5952C104.689 82.6144 104.595 82.3077 104.621 81.6671C104.653 80.5568 104.621 79.4402 104.621 78.3235ZM107.434 75.6237C106.384 75.6237 106.384 75.6237 106.316 75.9736C105.996 77.595 106.316 77.9641 107.952 77.8666C108.004 77.8666 108.057 77.8666 108.111 77.8586C108.785 77.7724 109.186 77.4081 109.166 76.71C109.145 76.0119 108.769 75.6429 108.065 75.6237C107.853 75.6189 107.642 75.6237 107.434 75.6237Z" fill="#1877CB"/>
<path d="M67.4123 78.2787C67.4123 77.0838 67.4299 75.8824 67.4027 74.6923C67.3931 74.2051 67.5625 74.0453 68.0417 74.0629C69.0002 74.0964 69.9587 74.0964 70.9172 74.0629C72.0435 74.0293 72.887 74.4479 73.3566 75.4927C73.8455 76.5822 73.6506 77.8889 72.7831 78.6525C72.3278 79.0519 72.3039 79.3474 72.5499 79.8443C72.8981 80.5296 73.1505 81.2628 73.4764 81.9594C73.6745 82.3811 73.6586 82.5345 73.117 82.5808C72.2655 82.6559 71.716 82.4658 71.4971 81.544C71.3565 80.9577 71.037 80.4146 70.8198 79.8443C70.778 79.6923 70.684 79.56 70.5542 79.4706C70.4245 79.3812 70.2673 79.3404 70.1105 79.3554C69.1041 79.3347 69.1041 79.3139 69.1041 80.3139C69.1041 80.7133 69.1041 81.1127 69.1041 81.5105C69.1041 82.5456 68.7494 82.7996 67.7174 82.56C67.3085 82.4642 67.4251 82.1718 67.4219 81.937C67.4059 80.7245 67.4123 79.5008 67.4123 78.2787ZM69.0673 76.7227C69.251 77.087 68.8005 77.7036 69.3629 77.8218C69.9891 77.9528 70.6856 77.9896 71.3198 77.7483C71.954 77.5071 72.1681 76.6732 71.7719 76.0742C71.4971 75.6572 70.1616 75.3824 69.3916 75.6348C68.7894 75.8377 69.2542 76.3745 69.0673 76.7227Z" fill="#1877CB"/>
<path d="M81.058 78.3202V79.9177C81.0616 80.5346 80.8466 81.1329 80.4509 81.6063C79.633 82.6095 77.8725 82.9689 76.4044 82.4434C75.1727 82.0008 74.5689 81.0695 74.5625 79.5918C74.5625 78.849 74.5625 78.1061 74.5625 77.3553C74.5625 74.7993 76.4539 73.4127 78.9461 74.1443C80.3183 74.5469 81.0436 75.5118 81.0595 76.9623C81.0627 77.4176 81.0595 77.8681 81.058 78.3202ZM76.2654 78.2914C76.2654 78.7435 76.2479 79.1956 76.2654 79.6445C76.3102 80.5711 76.8773 81.0983 77.8054 81.0998C78.7336 81.1014 79.3087 80.5886 79.3422 79.6477C79.3742 78.7739 79.3726 77.8905 79.3422 77.0214C79.3103 76.0933 78.7176 75.5501 77.8086 75.5517C76.8996 75.5533 76.3086 76.1029 76.2654 77.0182C76.2511 77.4352 76.2686 77.8681 76.267 78.2914H76.2654Z" fill="#1877CB"/>
<path d="M125.624 78.3523C125.624 78.8571 125.634 79.3603 125.624 79.8651C125.597 81.2342 124.794 82.2119 123.456 82.5425C122.732 82.7213 121.974 82.7153 121.252 82.525C119.99 82.2055 119.194 81.2597 119.151 79.953C119.116 78.8667 119.119 77.7772 119.151 76.6893C119.186 75.4672 119.836 74.6509 120.969 74.2371C121.874 73.8975 122.871 73.8975 123.776 74.2371C124.961 74.67 125.603 75.587 125.626 76.8395C125.632 77.3443 125.624 77.8475 125.624 78.3523ZM123.917 78.3715C123.917 77.921 123.934 77.4689 123.917 77.0184C123.873 76.0982 123.289 75.5503 122.383 75.5519C121.477 75.5535 120.888 76.0711 120.848 76.9417C120.805 77.8682 120.806 78.8012 120.848 79.7277C120.888 80.6 121.487 81.1 122.385 81.1C123.282 81.1 123.854 80.6032 123.91 79.7245C123.94 79.2756 123.917 78.822 123.917 78.3715Z" fill="#1877CB"/>
<path d="M59.9406 78.3028C59.9406 77.0775 59.9502 75.8538 59.9406 74.6285C59.9406 74.2275 60.0509 74.0534 60.4806 74.0646C61.4391 74.0902 62.3976 74.0454 63.3561 74.0838C65.083 74.1556 66.0942 75.2228 66.1086 76.9449C66.1166 77.9034 66.1198 78.8619 66.1086 79.8204C66.0878 81.2789 65.2156 82.3588 63.789 82.5026C62.6564 82.6176 61.5046 82.5425 60.3608 82.5681C59.8927 82.5793 59.9502 82.263 59.9502 81.9738C59.9428 80.7501 59.9396 79.5265 59.9406 78.3028ZM61.594 78.3747C61.594 79.0919 61.594 79.8124 61.594 80.5281C61.594 80.7214 61.519 80.9466 61.7953 81.0696C62.9455 81.5792 64.3657 80.7294 64.4184 79.4721C64.4408 78.9146 64.4184 78.3539 64.4184 77.798C64.4184 75.9624 63.8737 75.4704 62.0669 75.603C61.6771 75.6317 61.5717 75.7755 61.5797 76.135C61.6068 76.8858 61.594 77.6302 61.594 78.3747Z" fill="#1877CB"/>
<path d="M9.17871 78.317V77.3585C9.17871 74.8025 10.9823 73.4446 13.4728 74.1268C14.8594 74.507 15.6103 75.4719 15.623 76.916C15.6326 77.9272 15.623 78.9384 15.623 79.9513C15.6321 80.3801 15.5296 80.804 15.3258 81.1815C15.1219 81.5589 14.8236 81.877 14.4601 82.1047C13.3418 82.8667 11.4887 82.8667 10.3673 82.1287C9.63719 81.6494 9.20427 80.9705 9.1867 80.0727C9.17392 79.488 9.1867 78.9017 9.1867 78.3154L9.17871 78.317ZM10.8337 78.2835C10.8337 78.7356 10.8114 79.1877 10.8337 79.6381C10.8944 80.5759 11.4568 81.0919 12.3833 81.0983C13.3099 81.1047 13.8977 80.603 13.9457 79.6605C13.9888 78.7851 13.9856 77.9033 13.9457 77.031C13.9041 76.0933 13.3067 75.5549 12.4025 75.5517C11.4695 75.5517 10.8769 76.1188 10.8289 77.0885C10.8162 77.4847 10.8321 77.8841 10.8337 78.2835Z" fill="#1877CB"/>
<path d="M43.1928 77.5774C43.8606 76.7611 44.6146 75.9991 45.1706 75.114C45.8383 74.0517 46.7265 73.9207 47.9518 74.1555C47.2122 75.0693 46.5556 75.9527 45.8175 76.7643C45.3543 77.2739 45.268 77.6589 45.6706 78.2707C46.4438 79.4449 47.1083 80.6925 47.8384 81.897C48.1195 82.3635 48.1419 82.536 47.4821 82.584C46.562 82.6606 46.006 82.3827 45.6354 81.5168C45.3159 80.7644 44.8367 80.0791 44.4389 79.3554C44.2408 78.9896 44.1194 78.948 43.7536 79.2564C42.9277 79.9625 42.8861 80.8635 42.9932 81.7996C43.081 82.568 42.6737 82.5664 42.1017 82.576C41.5298 82.5856 41.271 82.4721 41.2838 81.8028C41.3286 79.4624 41.3349 77.1205 41.2838 74.7738C41.2663 74.0325 41.6241 74.0565 42.1481 74.0453C42.6992 74.0357 43.0491 74.0821 42.9995 74.7913C42.9356 75.6875 42.9836 76.5901 42.9836 77.4895L43.1928 77.5774Z" fill="#1877CB"/>
<path d="M34.3033 78.2659C34.3033 77.0965 34.3225 75.9255 34.2937 74.7514C34.281 74.2545 34.3928 74.0421 34.9471 74.0548C36.4615 74.0916 37.9824 74.1012 39.4936 74.0548C40.1614 74.0325 40.1326 74.3855 40.1326 74.8424C40.1326 75.2993 40.1326 75.6635 39.476 75.6284C38.5479 75.5773 37.6149 75.638 36.6852 75.606C36.1916 75.59 35.9711 75.7019 35.9903 76.2562C36.0414 77.8345 35.8481 77.515 37.2347 77.547C37.8194 77.5598 38.4073 77.5805 38.992 77.547C39.5767 77.5134 39.5495 77.8793 39.5272 78.2611C39.5048 78.6429 39.6965 79.103 39.0032 79.0678C38.2603 79.0311 37.5127 79.0934 36.7667 79.0502C36.1996 79.0167 35.9679 79.1493 35.9855 79.7835C36.0222 81.0791 35.9855 81.0791 37.3098 81.0791C38.0814 81.0791 38.853 81.1046 39.623 81.0791C40.262 81.0519 40.1166 81.488 40.1198 81.8331C40.123 82.1781 40.254 82.5967 39.6214 82.5855C38.0239 82.5584 36.4264 82.5647 34.8289 82.5855C34.4056 82.5855 34.281 82.4369 34.2873 82.028C34.3161 80.766 34.3033 79.5119 34.3033 78.2659Z" fill="#1877CB"/>
<path d="M82.3874 78.2229C82.3874 77.0535 82.4049 75.8842 82.3794 74.7084C82.3682 74.2467 82.4752 74.0454 82.9912 74.055C84.5312 74.087 86.0744 74.095 87.6144 74.055C88.2278 74.0391 88.2422 74.3522 88.2246 74.7915C88.2071 75.2308 88.3253 75.6589 87.6224 75.627C86.6639 75.5822 85.7054 75.6429 84.7469 75.6046C84.2261 75.5838 84.004 75.7484 84.0855 76.2724C84.0871 76.299 84.0871 76.3256 84.0855 76.3522C84.1079 77.7756 83.9162 77.5232 85.2437 77.5472C85.8556 77.5584 86.469 77.5807 87.0776 77.5392C87.6863 77.4976 87.624 77.8842 87.6048 78.2581C87.5856 78.6319 87.7726 79.0952 87.0808 79.0568C86.2821 79.0185 85.4833 79.0664 84.6846 79.0424C84.2628 79.0297 84.0791 79.1239 84.0663 79.6048C84.0328 81.0697 84.0088 81.0681 85.4514 81.0681C86.1703 81.0681 86.8891 81.1064 87.6032 81.0569C88.2183 81.0138 88.2278 81.3572 88.2119 81.7949C88.1975 82.1895 88.3029 82.5937 87.6464 82.5713C86.0792 82.5346 84.5105 82.5442 82.9417 82.5713C82.4704 82.5793 82.3586 82.3988 82.3666 81.9659C82.4017 80.7214 82.3874 79.4722 82.3874 78.2229Z" fill="#1877CB"/>
<path d="M111.823 78.3715C111.823 77.8667 111.806 77.3619 111.823 76.8571C111.881 75.4497 112.622 74.496 113.973 74.1413C115.06 73.8347 116.224 73.9588 117.221 74.488C117.541 74.6477 117.823 74.8714 117.456 75.1941C117.168 75.4449 117.296 76.3123 116.514 75.8778C116.11 75.6712 115.663 75.5618 115.21 75.5583C114.172 75.5104 113.542 76.0871 113.51 77.1255C113.485 77.9482 113.48 78.7725 113.51 79.5952C113.552 80.6208 114.243 81.1927 115.258 81.0937C116.079 81.0154 116.491 80.2949 116.154 79.5409C115.994 79.1974 115.689 79.3284 115.459 79.3444C114.843 79.3907 114.935 78.9802 114.937 78.6143C114.938 78.2485 114.841 77.9034 115.451 77.8731C117.828 77.7517 117.827 77.7293 117.827 80.1016C117.827 81.8253 117.188 82.4979 115.382 82.6656C113.649 82.8253 112.079 81.8237 111.881 80.3588C111.794 79.707 111.866 79.0345 111.866 78.3715H111.823Z" fill="#1877CB"/>
<path d="M97.6322 78.3092C97.6322 77.1654 97.6593 76.0216 97.621 74.8794C97.6002 74.2883 97.7248 74.0311 98.3942 74.0567C99.8319 74.111 101.27 74.1046 102.707 74.0567C103.329 74.0359 103.471 74.2484 103.453 74.8283C103.436 75.3506 103.412 75.6781 102.739 75.627C101.866 75.5663 100.982 75.659 100.108 75.5983C99.415 75.5487 99.1993 75.8123 99.2968 76.4529C99.3193 76.6119 99.3193 76.7732 99.2968 76.9322C99.2281 77.4338 99.4565 77.5712 99.9358 77.5568C100.735 77.5232 101.533 77.5728 102.332 77.5392C102.971 77.5137 102.834 77.9434 102.826 78.2884C102.818 78.6335 102.997 79.0776 102.346 79.0568C101.548 79.0329 100.749 79.0712 99.9502 79.0457C99.4949 79.0297 99.2904 79.1351 99.284 79.6543C99.2664 81.0713 99.2409 81.0713 100.643 81.0713C101.361 81.0713 102.081 81.1144 102.795 81.0585C103.455 81.009 103.445 81.378 103.434 81.8397C103.434 82.2726 103.446 82.5937 102.829 82.5761C101.287 82.5346 99.7441 82.5474 98.1961 82.5761C97.7328 82.5841 97.6066 82.4164 97.6146 81.9787C97.6482 80.755 97.6322 79.5329 97.6322 78.3092Z" fill="#1877CB"/>
<path d="M48.9466 78.3154C48.9466 77.8362 48.9466 77.3569 48.9466 76.8777C48.9673 75.5214 49.6159 74.6012 50.9083 74.2019C51.4777 74.0111 52.0805 73.941 52.6784 73.996C53.2764 74.051 53.8563 74.2299 54.3813 74.5214C54.6912 74.6923 54.8605 74.9096 54.5714 75.1955C54.2822 75.4815 54.3589 76.2003 53.6704 75.9048C53.3563 75.7629 53.0257 75.661 52.6863 75.6013C51.3668 75.3888 50.6304 75.9863 50.6096 77.3106C50.5968 78.0806 50.5776 78.8538 50.6224 79.6222C50.6767 80.5807 51.2422 81.0871 52.1624 81.0967C53.1496 81.1063 53.5761 80.5072 53.2678 79.5759C53.1384 79.1877 52.8253 79.3235 52.6033 79.3426C51.9467 79.4017 52.0457 78.9704 52.033 78.5726C52.0202 78.1748 52.033 77.8889 52.5953 77.8697C54.9372 77.7851 54.9356 77.7643 54.9356 80.0599C54.9356 81.8475 54.1481 82.6239 52.2838 82.6718C50.4195 82.7197 49.0041 81.5999 48.9514 79.988C48.9322 79.4337 48.9466 78.873 48.9466 78.3154Z" fill="#1877CB"/>
<path d="M23.5943 75.6045C22.4569 75.6045 21.5287 75.5678 20.6053 75.6173C19.9536 75.6524 19.9663 75.2978 19.952 74.8265C19.9376 74.3553 19.9775 74.0278 20.6165 74.0581C21.9185 74.1077 23.2237 74.0581 24.5272 74.0853C24.8898 74.0933 25.4458 73.8329 25.588 74.293C25.7301 74.7531 25.7621 75.3329 25.4154 75.8234C24.5863 76.9959 23.7812 78.1861 22.9665 79.3698C22.6805 79.7852 22.3977 80.2037 22.1102 80.6207C21.8802 80.9562 21.9728 81.0856 22.3706 81.0792C23.1422 81.068 23.9138 81.0872 24.6854 81.0792C25.2333 81.0696 25.6838 80.9929 25.6774 81.8492C25.6774 82.6703 25.2397 82.5792 24.7189 82.576C23.4681 82.568 22.2172 82.5904 20.968 82.5632C20.5926 82.5553 20.0095 82.7933 19.8785 82.3907C19.7731 82.1162 19.7371 81.82 19.7736 81.5282C19.8101 81.2365 19.918 80.9582 20.0878 80.7181C20.7188 79.8603 21.3003 78.9689 21.9009 78.0902C22.4297 77.3202 22.9473 76.555 23.5943 75.6045Z" fill="#1877CB"/>
<path d="M58.244 78.3059C58.244 79.5264 58.2024 80.7485 58.26 81.9658C58.2935 82.6783 57.8638 82.5745 57.4484 82.5649C57.0331 82.5553 56.549 82.7342 56.5618 81.9594C56.6023 79.5472 56.6023 77.1339 56.5618 74.7195C56.549 73.9879 56.9628 74.0726 57.4197 74.0694C57.8766 74.0662 58.2983 73.9991 58.2616 74.7259C58.2009 75.9177 58.244 77.1158 58.244 78.3059Z" fill="#1877CB"/>
<path d="M19.8906 88.6002C20.3236 87.9228 20.7549 87.2423 21.1926 86.5665C21.3332 86.3477 21.461 86.0489 21.7901 86.1512C22.1192 86.2534 21.9674 86.5569 21.9674 86.7742C21.9802 87.6496 21.9674 88.5315 21.9674 89.4021C21.9674 89.5794 22.0009 89.8159 21.7421 89.835C21.4019 89.8622 21.469 89.5762 21.4658 89.3829C21.4546 88.6944 21.4658 88.0059 21.4658 87.2151C20.9737 87.5442 20.8268 88.0378 20.5488 88.4164C20.2708 88.795 20.028 89.2152 19.7756 89.621C19.7379 89.7068 19.6704 89.7762 19.5855 89.8161C19.5006 89.856 19.4042 89.8639 19.3139 89.8382C19.1174 89.7839 19.127 89.6034 19.127 89.4468C19.127 88.4883 19.127 87.533 19.127 86.5809C19.127 86.3924 19.127 86.1751 19.3714 86.1544C19.6909 86.1272 19.6782 86.3812 19.6798 86.5937C19.6798 87.2423 19.6798 87.8909 19.6798 88.5378L19.8906 88.6002Z" fill="#828281"/>
<path d="M49.1687 87.9467V87.6272C49.1687 86.0089 49.3492 85.8604 51.001 86.1096C51.1927 86.1399 51.3972 86.1463 51.3684 86.4099C51.3445 86.6208 51.1575 86.6192 50.9994 86.624C50.7342 86.6335 50.4674 86.6447 50.2006 86.624C49.7885 86.6 49.7214 86.8316 49.7214 87.1735C49.7214 87.5154 49.846 87.6224 50.1863 87.6528C51.3796 87.7518 51.8397 88.1128 51.7838 88.8381C51.7279 89.5634 51.2278 89.8078 50.1016 89.8813C49.3028 89.9324 49.0552 89.6496 49.1623 88.8988C49.1866 88.582 49.1887 88.2638 49.1687 87.9467ZM50.2869 89.3844C50.8077 89.3844 51.2454 89.3158 51.2198 88.7247C51.1991 88.1863 50.7821 88.1608 50.3572 88.1288C49.8779 88.0937 49.7038 88.2614 49.7182 88.755C49.7214 89.2231 49.8348 89.4771 50.2885 89.3844H50.2869Z" fill="#828281"/>
<path d="M65.5503 87.9788C65.5351 87.7933 65.5351 87.6068 65.5503 87.4213C65.6238 86.9964 65.2899 86.3638 65.7532 86.1832C66.3408 85.9841 66.9814 86.0109 67.5504 86.2583C67.8906 86.3973 68.2165 86.7376 68.0887 87.0571C67.8411 87.6865 68.0759 88.236 68.1319 88.8271C68.1878 89.4182 67.7964 89.7569 67.2245 89.8559C65.6461 90.1259 65.5503 90.0156 65.5503 87.9788ZM66.6094 89.3894C67.1398 89.3894 67.6542 89.4166 67.643 88.7584C67.6334 88.1817 67.1829 88.1498 66.734 88.1338C66.3219 88.1194 66.0215 88.1338 66.0471 88.6993C66.0679 89.1562 66.0902 89.506 66.6094 89.3894ZM66.6749 87.6593C67.1382 87.6593 67.6063 87.6593 67.5919 87.113C67.5775 86.5666 67.0871 86.613 66.6941 86.5858C66.3011 86.5587 66.0551 86.5858 66.0455 87.1034C66.0375 87.6593 66.3091 87.7105 66.6749 87.6593Z" fill="#828281"/>
<path d="M41.6744 87.9501C41.6744 86.0331 41.6744 86.0331 43.5771 86.1146C43.7911 86.1242 44.1362 86.0091 44.1314 86.3718C44.1266 86.7344 43.7847 86.6066 43.5707 86.6226C43.3048 86.6426 43.0378 86.6426 42.7719 86.6226C42.3518 86.589 42.2192 86.7728 42.2208 87.1817C42.2224 87.5907 42.3678 87.7281 42.7783 87.7504C43.1362 87.7696 43.8055 87.5364 43.7911 87.9661C43.7752 88.5268 43.109 88.2041 42.74 88.2265C42.2927 88.2552 42.2256 88.4517 42.2208 88.8255C42.216 89.1994 42.323 89.423 42.7576 89.3911C43.1282 89.3655 43.502 89.3911 43.8758 89.3911C44.018 89.3911 44.1426 89.4566 44.1426 89.6195C44.1426 89.7825 44.0244 89.8495 43.8806 89.8511C43.2416 89.8511 42.6026 89.8639 41.9636 89.8511C41.6617 89.8511 41.6744 89.5939 41.6729 89.3799C41.6729 88.907 41.6744 88.4294 41.6744 87.9501Z" fill="#828281"/>
<path d="M25.3026 88.0347C25.3026 89.4437 24.7067 90.0763 23.5821 89.8638C22.6954 89.6961 22.3999 88.9788 22.5533 87.3653C22.6283 86.5762 23.1316 86.0873 23.892 86.0873C24.8601 86.0714 25.3026 86.6848 25.3026 88.0347ZM24.7227 88.0459H24.7434C24.7434 87.859 24.7434 87.6737 24.7434 87.4868C24.7434 86.9484 24.4783 86.6017 23.9447 86.5874C23.3632 86.5714 23.082 86.9244 23.0932 87.5043C23.0819 87.9306 23.0931 88.3572 23.1268 88.7823C23.1811 89.22 23.507 89.4022 23.9255 89.3942C24.3441 89.3862 24.654 89.2073 24.7243 88.7648C24.7407 88.5254 24.7401 88.2852 24.7227 88.0459Z" fill="#828281"/>
<path d="M41.1163 88.0508C41.1163 89.423 40.5588 90.0317 39.4565 89.8703C38.5395 89.7345 38.2392 89.0716 38.3606 87.4261C38.4229 86.5906 38.9357 86.0826 39.7201 86.0842C40.685 86.0842 41.1163 86.7009 41.1163 88.0508ZM40.5396 88.0667C40.5606 87.8009 40.5606 87.5338 40.5396 87.268C40.5214 87.1359 40.4709 87.0104 40.3926 86.9026C40.3143 86.7947 40.2106 86.7079 40.0906 86.6497C39.9707 86.5916 39.8382 86.5639 39.7051 86.5692C39.5719 86.5745 39.442 86.6126 39.3271 86.6801C38.752 86.9996 38.7105 88.9166 39.2696 89.2712C39.3858 89.3492 39.5198 89.3964 39.6592 89.4083C39.7985 89.4203 39.9386 89.3967 40.0664 89.3397C40.1941 89.2827 40.3053 89.1941 40.3895 89.0824C40.4736 88.9707 40.528 88.8394 40.5476 88.7009C40.56 88.4896 40.5573 88.2777 40.5396 88.0667Z" fill="#828281"/>
<path d="M87.1806 87.9581C87.1806 87.4788 87.1806 86.9996 87.1806 86.5203C87.1806 86.3286 87.1806 86.1225 87.4554 86.1369C87.7301 86.1513 87.7285 86.3446 87.7317 86.5395C87.722 86.6991 87.722 86.8591 87.7317 87.0187C87.7637 87.2775 87.5928 87.6481 88.064 87.6865C88.441 87.7184 88.7525 87.621 88.8915 87.228C88.9906 86.9548 89.0784 86.6769 89.1727 86.4005C89.227 86.2407 89.3181 86.1018 89.5114 86.1433C89.7382 86.1928 89.7126 86.3909 89.6376 86.5203C89.072 87.4948 89.2526 88.4469 89.6839 89.4038C89.7478 89.5476 89.8676 89.784 89.5705 89.8495C89.3436 89.8974 89.2398 89.7425 89.1839 89.5428C89.104 89.2638 89.0215 88.9847 88.9363 88.7057C88.8005 88.268 88.4682 88.1562 88.0608 88.1993C87.6071 88.2488 87.7861 88.6226 87.7237 88.8782C87.6455 89.1977 87.9474 89.8096 87.4666 89.8016C86.909 89.7936 87.2509 89.1722 87.1838 88.8287C87.1548 88.5393 87.1537 88.2477 87.1806 87.9581Z" fill="#828281"/>
<path d="M71.4316 87.9899C71.4316 89.3797 70.97 89.9532 69.9092 89.8797C68.9076 89.811 68.6104 89.2567 68.668 87.5666C68.6999 86.6272 69.2175 86.0761 70.0562 86.0841C71.0003 86.0921 71.43 86.6879 71.4316 87.9899ZM70.8837 88.0091H70.8677C70.8677 87.7982 70.8773 87.5873 70.8677 87.3701C70.839 86.8605 70.5338 86.5953 70.0546 86.5713C69.5753 86.5473 69.2558 86.8333 69.2383 87.3381C69.212 87.8177 69.2168 88.2985 69.2526 88.7775C69.2926 89.22 69.6089 89.4021 70.029 89.3989C70.4492 89.3957 70.7623 89.2391 70.8406 88.803C70.8729 88.5396 70.8873 88.2744 70.8837 88.0091Z" fill="#828281"/>
<path d="M95.1492 87.2759L93.7306 89.4645C93.6028 89.6626 93.5006 89.9278 93.1986 89.8335C92.8967 89.7393 93.0261 89.4789 93.0229 89.2856C93.0117 88.4086 93.0133 87.5283 93.0229 86.6561C93.0229 86.4628 92.9351 86.1641 93.2482 86.1529C93.6316 86.1385 93.5165 86.4724 93.5213 86.6881C93.5058 87.3606 93.5593 88.0329 93.6811 88.6945C94.1476 87.9741 94.6092 87.2568 95.0821 86.5331C95.2083 86.343 95.3105 86.0538 95.6109 86.1497C95.9112 86.2455 95.7978 86.5539 95.801 86.7695C95.8154 87.6466 95.8106 88.5268 95.801 89.399C95.801 89.5716 95.8537 89.816 95.5853 89.8351C95.2562 89.8591 95.301 89.5875 95.2994 89.3846C95.2994 88.6961 95.2994 88.0076 95.2994 87.3191L95.1492 87.2759Z" fill="#828281"/>
<path d="M28.5562 88.0189C28.5562 88.4981 28.5562 88.9774 28.5562 89.4566C28.5562 89.6419 28.5562 89.8576 28.2814 89.8432C28.0673 89.8304 28.0561 89.6563 28.0498 89.4934C28.0362 89.3611 28.0362 89.2278 28.0498 89.0956C28.1712 88.3831 27.8724 88.193 27.1743 88.2058C26.5353 88.2185 26.3005 88.4166 26.3836 89.0333C26.4012 89.1925 26.4012 89.3533 26.3836 89.5125C26.3708 89.6723 26.3292 89.832 26.1232 89.8464C25.9171 89.8608 25.8468 89.717 25.8468 89.5445C25.8468 88.5061 25.8468 87.4688 25.8468 86.4325C25.8431 86.3923 25.8488 86.3518 25.8635 86.3142C25.8781 86.2766 25.9013 86.2429 25.9312 86.2158C25.9611 86.1887 25.9969 86.1689 26.0357 86.158C26.0746 86.1471 26.1155 86.1454 26.1551 86.153C26.3149 86.1673 26.3708 86.292 26.3804 86.4325C26.3972 86.5918 26.3972 86.7525 26.3804 86.9118C26.2957 87.5316 26.5401 87.7233 27.1791 87.7377C27.8836 87.7537 28.1728 87.5492 28.0514 86.8447C28.0402 86.7385 28.0402 86.6314 28.0514 86.5252C28.0514 86.3351 28.0609 86.1258 28.3341 86.1514C28.545 86.1705 28.5594 86.3447 28.5594 86.5076C28.5578 87.0092 28.5562 87.514 28.5562 88.0189Z" fill="#828281"/>
<path d="M81.2031 88.0045V87.6051C81.2031 86.0475 81.4811 85.8239 83.0419 86.1146C83.2016 86.145 83.3789 86.1562 83.3837 86.3638C83.3885 86.5715 83.224 86.6178 83.0642 86.6242C82.7982 86.6394 82.5315 86.6394 82.2655 86.6242C81.8533 86.5939 81.7079 86.76 81.7079 87.177C81.7079 87.5939 81.914 87.6658 82.2543 87.6482C82.4674 87.6291 82.682 87.6366 82.8933 87.6706C83.1482 87.7063 83.3802 87.8372 83.5425 88.037C83.7049 88.2367 83.7857 88.4905 83.7687 88.7473C83.7871 89.0034 83.7097 89.2572 83.5515 89.4595C83.3932 89.6617 83.1655 89.7979 82.9125 89.8416C82.8596 89.8508 82.8063 89.8567 82.7527 89.8592C81.2031 90.0381 81.2031 90.0381 81.2031 88.0045ZM82.2159 88.1419C82.0865 88.1419 81.6536 88.0252 81.7095 88.6467C81.7415 88.9965 81.5881 89.431 82.2175 89.3895C82.6776 89.3592 83.1984 89.4231 83.2463 88.792C83.2863 88.2745 82.9013 88.1291 82.2159 88.1387V88.1419Z" fill="#828281"/>
<path d="M56.9668 88.0012C56.9668 87.9485 56.9668 87.8958 56.9668 87.8415C56.9668 85.9772 57.1489 85.827 59.0436 86.1114C59.2353 86.1401 59.4446 86.1481 59.4142 86.4069C59.3918 86.6034 59.2081 86.621 59.0436 86.6242C58.7241 86.6242 58.4046 86.6433 58.0851 86.6242C57.6617 86.5954 57.4557 86.7152 57.4605 87.1961C57.4653 87.6769 57.6442 87.7728 58.0755 87.7903C58.4333 87.8047 59.0883 87.5603 59.0899 88.0028C59.0899 88.4741 58.4429 88.2105 58.0883 88.2328C57.6825 88.2584 57.4493 88.3095 57.4605 88.8032C57.47 89.2536 57.6202 89.4278 58.0675 89.3942C58.411 89.3687 58.7576 89.3942 59.1027 89.3942C59.2752 89.3942 59.4334 89.4374 59.4222 89.6514C59.4142 89.8112 59.2896 89.8671 59.1426 89.8671H57.3071C57.018 89.8671 56.9652 89.6786 56.9668 89.4422C56.9684 88.9581 56.9668 88.4805 56.9668 88.0012Z" fill="#828281"/>
<path d="M29.1718 87.9916C29.1718 87.9389 29.1718 87.8861 29.1718 87.8318C29.1718 85.9771 29.3523 85.8286 31.2485 86.1113C31.4386 86.1401 31.6479 86.1449 31.6208 86.4053C31.6 86.6033 31.4163 86.6209 31.2533 86.6225C30.9338 86.6225 30.6143 86.6417 30.2948 86.6225C29.8843 86.5986 29.6558 86.696 29.6558 87.1848C29.6558 87.6353 29.8156 87.7711 30.2613 87.7887C30.6175 87.8031 31.2725 87.5507 31.2757 88.0012C31.2757 88.4804 30.6287 88.2088 30.2757 88.2296C29.8619 88.2552 29.6462 88.3255 29.6542 88.8079C29.6622 89.2632 29.8284 89.4229 30.2677 89.3926C30.6383 89.3686 31.0105 89.3926 31.3859 89.3926C31.4914 89.3926 31.5984 89.4309 31.6096 89.5667C31.6208 89.7025 31.5569 89.8399 31.4003 89.8431C30.7389 89.8511 30.076 89.8559 29.4146 89.8431C29.1606 89.8351 29.1686 89.6067 29.167 89.4213C29.1702 88.9453 29.1718 88.4692 29.1718 87.9916Z" fill="#828281"/>
<path d="M103.091 87.9403C103.091 86.3972 104.004 85.6575 105.149 86.2741C105.308 86.3447 105.446 86.4529 105.554 86.5893C105.661 86.7257 105.733 86.8862 105.764 87.0569C105.85 87.6847 105.901 88.3349 105.748 88.95C105.568 89.6768 104.991 89.9324 104.282 89.8749C103.572 89.8174 103.146 89.466 103.095 88.7343C103.077 88.4707 103.091 88.2055 103.091 87.9403ZM103.598 87.9403C103.598 88.1257 103.598 88.311 103.598 88.4963C103.598 89.0234 103.818 89.3669 104.377 89.3973C104.977 89.4292 105.251 89.0778 105.29 88.5314C105.314 88.1616 105.31 87.7905 105.28 87.4212C105.237 86.9052 104.961 86.5649 104.414 86.5873C103.868 86.6096 103.599 86.9195 103.599 87.4643C103.599 87.616 103.599 87.7758 103.599 87.934L103.598 87.9403Z" fill="#828281"/>
<path d="M48.6445 88.0426C48.6445 89.3988 48.1477 89.9819 47.0822 89.8765C46.1237 89.7838 45.8457 89.1991 45.9208 87.4259C45.9559 86.592 46.4671 86.0792 47.2611 86.084C48.2356 86.0888 48.6445 86.6591 48.6445 88.0426ZM46.4416 87.9164H46.4304V88.4723C46.4304 89.0394 46.678 89.3845 47.2739 89.3924C47.8394 89.3924 48.0918 89.0538 48.1142 88.5426C48.1333 88.0941 48.1157 87.6447 48.0614 87.1991C48.0055 86.763 47.678 86.5713 47.2627 86.5792C46.8154 86.5792 46.5087 86.8189 46.4416 87.2821C46.4251 87.4932 46.4229 87.705 46.4352 87.9164H46.4416Z" fill="#828281"/>
<path d="M32.1023 88.0443C32.0838 87.8317 32.0838 87.6179 32.1023 87.4053C32.1773 86.9851 31.8291 86.3621 32.3307 86.18C32.9173 85.9751 33.5605 86.006 34.1247 86.2662C34.5912 86.4835 34.7301 86.926 34.6631 87.4085C34.5848 87.9756 34.2349 88.4005 33.6614 88.3542C32.8004 88.2855 32.5192 88.6162 32.6422 89.4245C32.6694 89.6018 32.663 89.8287 32.401 89.8446C32.0815 89.8654 32.1023 89.6066 32.0991 89.3989C32.0991 88.9484 32.1039 88.4964 32.1023 88.0443ZM32.663 87.1928C32.6294 87.5986 32.6135 87.9612 33.1917 87.9117C33.6534 87.8717 34.1503 87.8813 34.1503 87.2487C34.1503 86.6784 33.7221 86.6177 33.2716 86.5809C32.786 86.541 32.5703 86.7167 32.671 87.1928H32.663Z" fill="#828281"/>
<path d="M123.705 87.9788C123.705 89.399 123.21 89.9901 122.117 89.8687C121.159 89.7632 120.855 89.0811 120.983 87.3126C120.986 87.1403 121.024 86.9705 121.095 86.8135C121.167 86.6566 121.269 86.5157 121.396 86.3997C121.524 86.2837 121.674 86.1948 121.836 86.1387C121.999 86.0825 122.172 86.0601 122.344 86.073C123.306 86.1033 123.705 86.6609 123.705 87.9788ZM121.507 87.9788H121.492V88.4581C121.492 89.014 121.713 89.3862 122.32 89.3958C122.927 89.4054 123.168 89.0284 123.184 88.4836C123.213 88.061 123.199 87.6366 123.143 87.2168C123.066 86.7679 122.724 86.549 122.269 86.5778C122.08 86.5777 121.898 86.6478 121.759 86.7745C121.619 86.9012 121.531 87.0754 121.513 87.2631C121.494 87.5012 121.492 87.7404 121.507 87.9788Z" fill="#828281"/>
<path d="M84.2433 88.0171V87.8574C84.2433 85.9931 84.4542 85.8142 86.3073 86.1129C86.4671 86.1385 86.646 86.1321 86.6636 86.3414C86.6859 86.6161 86.4703 86.6161 86.2833 86.6225C85.9912 86.6377 85.6985 86.6377 85.4063 86.6225C84.9574 86.5874 84.7274 86.6992 84.737 87.2248C84.745 87.7232 84.9878 87.7584 85.376 87.7871C85.7114 87.8111 86.3345 87.5635 86.3345 87.9708C86.3345 88.5044 85.6955 88.2025 85.3536 88.228C84.943 88.26 84.7258 88.3175 84.7322 88.8047C84.7322 89.2536 84.8712 89.4325 85.3264 89.3942C85.6712 89.375 86.0168 89.375 86.3616 89.3942C86.4958 89.3942 86.6364 89.4198 86.6524 89.5923C86.6715 89.808 86.5214 89.8607 86.3504 89.8623C85.7658 89.8623 85.1811 89.8623 84.5932 89.8623C84.2481 89.8623 84.2354 89.6226 84.2354 89.3702C84.2428 88.9197 84.2455 88.4687 84.2433 88.0171Z" fill="#828281"/>
<path d="M112.507 87.9787V87.8989C112.507 85.918 112.561 85.87 114.52 86.1097C114.7 86.132 114.925 86.1001 114.922 86.3701C114.919 86.64 114.692 86.6129 114.513 86.6193C114.248 86.6289 113.981 86.6305 113.715 86.6193C113.32 86.6065 112.991 86.5921 112.996 87.172C112.996 87.7056 113.246 87.7567 113.679 87.7823C113.999 87.803 114.609 87.5283 114.611 87.9979C114.612 88.4676 114 88.2136 113.671 88.2248C113.235 88.2407 112.996 88.2935 112.994 88.827C112.994 89.4021 113.301 89.4005 113.702 89.3846C114.021 89.3718 114.341 89.3846 114.66 89.3846C114.804 89.3846 114.924 89.4485 114.924 89.613C114.924 89.7775 114.807 89.843 114.66 89.8446C114.052 89.8446 113.441 89.8526 112.831 89.8446C112.532 89.8446 112.512 89.6242 112.512 89.3989C112.507 88.9373 112.508 88.458 112.507 87.9787Z" fill="#828281"/>
<path d="M111.89 88.0844C111.89 88.5636 111.89 89.0429 111.89 89.5221C111.89 89.6899 111.845 89.8512 111.633 89.8416C111.42 89.832 111.391 89.6723 111.383 89.5077C111.371 89.376 111.371 89.2433 111.383 89.1116C111.49 88.4326 111.252 88.1994 110.527 88.1978C109.802 88.1962 109.569 88.4342 109.676 89.11C109.693 89.2693 109.693 89.4299 109.676 89.5892C109.666 89.7346 109.596 89.8432 109.436 89.8448C109.403 89.8468 109.37 89.8416 109.339 89.8296C109.308 89.8176 109.28 89.799 109.257 89.7752C109.234 89.7514 109.216 89.7228 109.205 89.6916C109.194 89.6603 109.19 89.627 109.193 89.594C109.187 88.529 109.187 87.4683 109.193 86.4118C109.189 86.3786 109.192 86.345 109.201 86.313C109.211 86.281 109.227 86.2513 109.249 86.2259C109.27 86.2005 109.297 86.1799 109.327 86.1654C109.357 86.1509 109.39 86.1429 109.423 86.1418C109.456 86.1395 109.488 86.1441 109.519 86.1553C109.549 86.1664 109.577 86.1838 109.601 86.2064C109.624 86.229 109.642 86.2563 109.654 86.2864C109.666 86.3166 109.672 86.3489 109.671 86.3814C109.682 86.4869 109.671 86.5923 109.682 86.7009C109.725 87.6946 110.051 87.9294 111.04 87.7121C111.257 87.6642 111.375 87.5764 111.379 87.3543C111.382 87.1322 111.367 86.9278 111.388 86.7153C111.409 86.5028 111.273 86.1546 111.644 86.1658C111.986 86.1769 111.891 86.5124 111.898 86.7345C111.909 87.185 111.898 87.6355 111.898 88.086L111.89 88.0844Z" fill="#828281"/>
<path d="M37.8048 88.1147C37.8048 88.5652 37.8048 89.0173 37.8048 89.4677C37.8048 89.6594 37.792 89.8623 37.5204 89.84C37.3048 89.824 37.308 89.6451 37.2968 89.4869C37.2968 89.407 37.2968 89.3272 37.2968 89.2473C37.2617 88.1418 37.2585 88.153 36.1035 88.2217C35.7376 88.2425 35.5587 88.3479 35.5891 88.7329C35.6044 88.9456 35.6044 89.1592 35.5891 89.3719C35.5763 89.5668 35.653 89.8591 35.3255 89.84C34.998 89.8208 35.0906 89.538 35.089 89.3415C35.0811 88.4406 35.089 87.538 35.089 86.6354C35.089 86.4293 35.0523 86.1561 35.3606 86.1641C35.6689 86.1721 35.5907 86.4708 35.5875 86.6577C35.5795 87.252 35.4788 87.7984 36.4357 87.744C37.1307 87.7041 37.3942 87.5444 37.3128 86.8399C37.2872 86.6194 37.1386 86.2009 37.5109 86.1801C37.9901 86.1481 37.7888 86.5954 37.8064 86.8446C37.8272 87.2632 37.8064 87.6897 37.8048 88.1147Z" fill="#828281"/>
<path d="M12.0149 89.8511C11.8344 89.8431 11.7705 89.7329 11.6954 89.6195C11.1554 88.8095 10.3567 88.7951 9.87583 89.5955C9.7656 89.7792 9.65857 89.915 9.44451 89.8383C9.23044 89.7616 9.33268 89.5715 9.37741 89.4389C9.70969 88.4581 10.0473 87.4783 10.3902 86.4995C10.4509 86.327 10.5132 86.1337 10.7497 86.1273C11.018 86.1193 11.1043 86.3158 11.1762 86.5251C11.5085 87.4836 11.8424 88.4309 12.1683 89.3862C12.2353 89.5763 12.3472 89.8128 12.0149 89.8511ZM10.7864 86.9069C10.6267 87.3989 10.51 87.6913 10.4206 87.9884C10.3663 88.1753 10.1969 88.4309 10.4861 88.5268C10.7119 88.5982 10.9556 88.588 11.1746 88.498C11.3903 88.3974 11.2097 88.1785 11.1586 88.0108C11.0596 87.7136 10.9462 87.4197 10.7864 86.9069Z" fill="#828281"/>
<path d="M100.108 88.0011C100.108 87.8141 100.108 87.6288 100.108 87.4435C100.108 86.0138 100.203 85.9291 101.638 86.1208C102.277 86.2071 102.662 86.5393 102.668 87.2135C102.668 87.9116 102.314 88.394 101.628 88.3509C100.779 88.2982 100.548 88.6337 100.657 89.3973C100.684 89.5954 100.689 89.8669 100.366 89.843C100.044 89.819 100.116 89.5522 100.111 89.3525C100.101 88.902 100.108 88.4579 100.108 88.0011ZM100.635 87.2726C100.534 87.7167 100.702 87.9499 101.216 87.9116C101.652 87.878 102.125 87.8924 102.152 87.2982C102.183 86.6591 101.716 86.6176 101.231 86.5825C100.745 86.5473 100.55 86.7646 100.635 87.2726Z" fill="#828281"/>
<path d="M12.6882 88.0108C12.6882 87.5315 12.6882 87.0523 12.6882 86.573C12.6882 86.3957 12.6467 86.1577 12.9135 86.1417C13.2473 86.1241 13.1754 86.4005 13.1898 86.5986C13.1818 86.7311 13.1818 86.8639 13.1898 86.9964C13.2361 87.2456 13.0205 87.6274 13.4933 87.6801C13.8943 87.7248 14.2378 87.645 14.3832 87.2009C14.4742 86.9245 14.5621 86.6465 14.6643 86.3733C14.725 86.2136 14.8448 86.0842 15.0269 86.1609C15.0568 86.1768 15.0829 86.199 15.1035 86.2258C15.1241 86.2527 15.1388 86.2836 15.1465 86.3166C15.1542 86.3495 15.1548 86.3837 15.1482 86.417C15.1417 86.4502 15.1281 86.4816 15.1084 86.5091C14.4598 87.5156 14.8017 88.4868 15.1915 89.4613C15.2506 89.6099 15.2921 89.7808 15.0637 89.8367C15.025 89.8476 14.9846 89.8504 14.9448 89.8449C14.905 89.8394 14.8668 89.8257 14.8326 89.8047C14.7984 89.7837 14.7689 89.7558 14.746 89.7228C14.7231 89.6898 14.7072 89.6525 14.6995 89.6131C14.586 89.2936 14.495 88.9549 14.38 88.6322C14.2202 88.2057 13.864 88.1146 13.471 88.1625C13.0029 88.2201 13.2601 88.6146 13.1882 88.8575C13.0908 89.177 13.4167 89.7824 12.9438 89.7904C12.4709 89.7984 12.7425 89.2025 12.6898 88.8766C12.6665 88.5885 12.666 88.299 12.6882 88.0108Z" fill="#828281"/>
<path d="M116.441 86.1113C116.952 86.1034 117.465 86.097 117.802 86.5778C117.924 86.7445 117.998 86.9419 118.015 87.1479C118.032 87.3539 117.991 87.5606 117.897 87.745C117.804 87.9294 117.661 88.0842 117.485 88.1923C117.309 88.3005 117.106 88.3576 116.899 88.3574C116.201 88.3686 115.856 88.5172 115.966 89.2824C115.997 89.4885 116.054 89.8239 115.7 89.8351C115.316 89.8479 115.434 89.5156 115.43 89.3016C115.417 88.5859 115.43 87.8638 115.43 87.1545C115.422 86.1066 115.422 86.1066 116.441 86.1113ZM115.947 87.2296C115.853 87.7328 116.048 87.9581 116.586 87.9117C117.027 87.875 117.474 87.8462 117.482 87.2727C117.482 86.6545 117.027 86.613 116.551 86.581C116.075 86.5491 115.864 86.7472 115.947 87.2296Z" fill="#828281"/>
<path d="M79.2039 89.8815C79.0599 89.8657 78.9177 89.8368 78.779 89.7952C78.5937 89.7297 78.2997 89.6977 78.37 89.415C78.4515 89.0955 78.7023 89.2808 78.8972 89.3191C79.1022 89.3696 79.3123 89.3959 79.5234 89.3974C79.6038 89.4023 79.6843 89.3905 79.7599 89.3627C79.8355 89.335 79.9045 89.292 79.9627 89.2364C80.0209 89.1807 80.067 89.1137 80.098 89.0394C80.1291 88.9651 80.1445 88.8852 80.1432 88.8047C80.1656 88.4277 79.9835 88.2073 79.6081 88.1418C79.4244 88.1098 79.1177 88.2328 79.1192 87.8989C79.1192 87.6481 79.3733 87.6881 79.5522 87.6609C79.918 87.6082 80.1672 87.4101 80.1033 87.0219C80.0298 86.5794 79.6656 86.5427 79.3046 86.5794C79.1997 86.5962 79.0972 86.6257 78.9994 86.6673C78.8045 86.7376 78.5633 86.8925 78.4786 86.5746C78.394 86.2567 78.7071 86.2647 78.8876 86.1976C79.4196 86.0011 79.9531 86.0043 80.3781 86.4149C80.7583 86.7807 80.6976 87.2376 80.4468 87.6577C80.3206 87.8638 80.4324 87.9852 80.5059 88.1577C80.9372 89.1658 80.4276 89.8958 79.2039 89.8815Z" fill="#828281"/>
<path d="M108.572 87.9515C108.572 89.4452 108.064 90.0491 106.952 89.8685C106.795 89.8382 106.643 89.7882 106.5 89.72C106.375 89.6657 106.266 89.5746 106.329 89.4133C106.339 89.3819 106.355 89.3531 106.378 89.3289C106.4 89.3047 106.427 89.2857 106.458 89.2732C106.488 89.2607 106.521 89.255 106.554 89.2566C106.587 89.2582 106.619 89.2669 106.648 89.2823C106.892 89.3947 107.164 89.4293 107.428 89.3813C107.897 89.2791 108.067 88.9484 108.049 88.4963C108.022 88.017 107.643 88.1928 107.385 88.1576C107.225 88.1384 107.065 88.1576 106.905 88.14C106.802 88.1289 106.693 88.0953 106.683 87.9579C106.677 87.9254 106.679 87.892 106.687 87.86C106.696 87.8281 106.711 87.7985 106.733 87.7733C106.754 87.7481 106.781 87.7279 106.811 87.7143C106.841 87.7006 106.874 87.6938 106.907 87.6943C107.067 87.6784 107.226 87.7023 107.386 87.6736C107.632 87.6288 108.035 87.8461 108.043 87.3541C108.043 86.9132 107.798 86.6639 107.365 86.6208C107.204 86.6155 107.043 86.6316 106.886 86.6687C106.683 86.7023 106.425 86.8285 106.37 86.5186C106.335 86.3045 106.581 86.247 106.752 86.1831C107.71 85.8205 108.524 86.3732 108.557 87.4004C108.576 87.5777 108.572 87.7646 108.572 87.9515Z" fill="#828281"/>
<path d="M76.8346 88.3637C77.1126 87.6193 77.3347 87.0234 77.5599 86.4307C77.6302 86.2454 77.7468 86.0665 77.9673 86.1751C78.1478 86.2646 78.0615 86.4595 78.0088 86.6032C77.6749 87.4978 77.3411 88.3956 76.9896 89.2839C76.9511 89.4123 76.8835 89.5301 76.7921 89.6282C76.7007 89.7263 76.5878 89.802 76.4624 89.8494C76.2611 89.9085 75.9832 89.9788 75.8761 89.7679C75.726 89.4883 75.9832 89.4484 76.1956 89.3733C76.5918 89.2375 76.496 88.934 76.3889 88.648C76.1397 87.9755 75.8793 87.3077 75.6397 86.6304C75.587 86.4802 75.3905 86.2678 75.6573 86.1511C75.9241 86.0345 76.0375 86.2358 76.119 86.4579C76.3378 87.0505 76.5615 87.6368 76.8346 88.3637Z" fill="#828281"/>
<path d="M59.8877 87.918C59.8877 86.5074 60.7104 85.7582 61.7951 86.1784C61.9629 86.2439 62.2073 86.2902 62.1673 86.5154C62.1114 86.8349 61.8574 86.6928 61.6577 86.6592C60.7807 86.509 60.4756 86.7503 60.4532 87.6177C60.4532 87.8813 60.4436 88.1465 60.4532 88.4165C60.4836 89.2376 60.8079 89.4964 61.6242 89.3526C61.8191 89.3175 62.0731 89.1226 62.1673 89.4165C62.2728 89.7504 61.9229 89.7775 61.7232 89.8366C60.5475 90.1785 59.8861 89.482 59.8877 87.918Z" fill="#828281"/>
<path d="M63.843 86.1146C64.1625 86.1146 64.482 86.1146 64.8015 86.1146C64.9613 86.1146 65.1354 86.1418 65.1498 86.3495C65.1558 86.3895 65.1517 86.4304 65.1378 86.4685C65.124 86.5065 65.1009 86.5405 65.0705 86.5673C65.0402 86.5942 65.0037 86.613 64.9642 86.6221C64.9247 86.6312 64.8836 86.6303 64.8446 86.6194C64.1066 86.5044 64.1034 86.9581 64.1242 87.4821C64.1481 88.0364 64.1497 88.6004 64.1242 89.1483C64.113 89.3959 64.2983 89.8416 63.8478 89.8208C63.434 89.8017 63.6018 89.3672 63.5906 89.1084C63.5666 88.5269 63.5682 87.9438 63.5906 87.3623C63.605 86.9182 63.5746 86.5635 62.9787 86.6226C62.8014 86.6434 62.5746 86.6354 62.5762 86.3686C62.5778 86.1019 62.8014 86.1178 62.9819 86.113C63.2615 86.1082 63.5523 86.113 63.843 86.1146Z" fill="#828281"/>
<path d="M90.249 87.9787V87.819C90.249 86.033 90.5685 85.771 92.3593 86.1128C92.5191 86.1432 92.6996 86.1496 92.7092 86.3557C92.7252 86.64 92.4935 86.6017 92.3162 86.6192C91.8369 86.6656 91.2219 86.4084 90.9375 86.7359C90.5829 87.1448 90.8369 87.8046 90.805 88.3557C90.7842 88.7264 90.805 89.1002 90.805 89.474C90.805 89.6673 90.7858 89.8638 90.5142 89.8398C90.3065 89.8222 90.2682 89.6577 90.265 89.4948C90.265 88.9899 90.265 88.4851 90.265 87.9787H90.249Z" fill="#828281"/>
<path d="M18.4911 75.3489C18.4767 75.5862 18.4767 75.8241 18.4911 76.0614C18.5598 76.6094 18.2467 76.6381 17.8233 76.6445C17.4 76.6509 17.1843 76.5327 17.2227 76.0662C17.2554 75.6179 17.2554 75.1678 17.2227 74.7195C17.1827 74.2035 17.3057 73.9671 17.9 73.9607C18.5294 73.9607 18.5055 74.2962 18.4879 74.7147C18.4847 74.9256 18.4927 75.1365 18.4911 75.3489Z" fill="#1877CB"/>
<path d="M118.433 87.9788C118.428 87.8995 118.428 87.82 118.433 87.7407C118.494 87.2264 118.176 86.5139 118.593 86.2391C119.122 85.886 119.871 86.1129 120.531 86.1385C120.691 86.1385 120.866 86.1832 120.842 86.4036C120.825 86.5634 120.683 86.5889 120.545 86.6049C120.441 86.6177 120.334 86.6177 120.226 86.6209C118.948 86.6752 118.948 86.6752 118.948 87.942C118.948 88.3382 118.975 88.7408 118.938 89.1322C118.916 89.3782 119.131 89.8223 118.673 89.8159C118.297 89.8159 118.464 89.4022 118.448 89.1769C118.414 88.7775 118.433 88.3797 118.433 87.9788Z" fill="#828281"/>
<path d="M75.0882 87.6273C74.5802 88.2935 74.5898 88.9053 75.2 89.5236C74.7367 89.4724 74.1696 89.0203 74.1952 88.6849C74.2351 88.1737 74.553 87.8094 75.0882 87.6273Z" fill="#828281"/>
<path d="M74.2356 87.6338C73.6558 88.284 73.6494 88.9118 74.3762 89.6019C73.5775 89.5396 73.341 89.0124 73.3107 88.6562C73.2724 88.2121 73.5934 87.7648 74.2356 87.6338Z" fill="#828281"/>
<path d="M124.375 89.5332C124.781 88.8942 124.966 88.2983 124.271 87.6801C124.506 87.6758 124.733 87.7615 124.906 87.9196C125.08 88.0776 125.186 88.2961 125.203 88.53C125.256 88.9805 124.92 89.3718 124.375 89.5332Z" fill="#828281"/>
<path d="M125.146 89.6562C125.661 88.9117 125.817 88.3143 125.183 87.7152C125.645 87.7903 126.188 88.2392 126.142 88.5267C126.087 88.9916 125.848 89.375 125.146 89.6562Z" fill="#828281"/>
</svg>
