<svg width="140" height="100" viewBox="0 0 140 100" fill="none" xmlns="http://www.w3.org/2000/svg">
<g clip-path="url(#clip0_725_4887)">
<path d="M63.1034 60.8692C63.0131 58.1071 63.0846 55.3696 63.0386 52.6337C63.0284 51.9629 63.2465 51.8018 63.9077 51.8215C65.4414 51.8643 65.4414 51.8314 65.4414 53.2782C65.4414 56.7309 65.426 60.1836 65.4516 63.6363C65.4516 64.243 65.3289 64.4452 64.6353 64.4995C63.4306 64.5948 62.6927 64.2282 62.0094 63.2236C60.2047 60.5765 58.1616 58.084 56.4813 55.3449C56.1985 55.4863 56.3501 55.6935 56.3518 55.8562C56.3689 58.5395 56.3876 61.2227 56.4251 63.9125C56.4251 64.3252 56.3194 64.4748 55.8576 64.4896C54.0036 64.5488 54.0053 64.5669 54.0036 62.755C54.0036 59.3862 54.0223 56.0141 53.9866 52.6502C53.978 51.9925 54.1996 51.884 54.8386 51.8166C56.0928 51.6834 56.8358 52.129 57.5276 53.1319C59.3203 55.7444 61.2919 58.2386 63.1034 60.8692Z" fill="#010101"/>
<path d="M81.2487 58.1316C81.2487 56.2705 81.264 54.4093 81.2401 52.5416C81.2401 52.0483 81.3202 51.8083 81.9218 51.8165C84.3075 51.8472 86.6898 51.8472 89.0687 51.8165C89.6566 51.8165 89.7793 52.0121 89.7622 52.5268C89.7162 53.9835 89.9326 53.7352 88.508 53.7483C87.1192 53.7631 85.7287 53.7697 84.3399 53.7483C83.8389 53.7385 83.6207 53.8585 83.6582 54.3863C83.7179 55.2264 83.3856 56.3231 83.8286 56.8525C84.2904 57.4065 85.4731 56.9873 86.3405 57.03C86.8773 57.0769 87.4174 57.0769 87.9542 57.03C88.7602 56.9314 88.9545 57.2405 88.9204 57.9754C88.8642 59.1855 88.9835 58.9981 87.7991 59.0079C86.6148 59.0178 85.4731 59.0244 84.3109 59.0079C83.861 59.0079 83.619 59.0836 83.6668 59.5867C83.7571 60.5304 83.2646 61.7405 83.8712 62.3488C84.4029 62.8832 85.6486 62.4721 86.5773 62.4951C87.506 62.5182 88.4518 62.5363 89.3856 62.4853C90.0127 62.4508 90.1559 62.6842 90.1337 63.2383C90.0758 64.6638 90.3041 64.4665 88.8761 64.4747C86.6353 64.4878 84.3944 64.4533 82.1535 64.4928C81.4719 64.5059 81.218 64.3547 81.2384 63.6444C81.2913 61.8128 81.2555 59.978 81.2555 58.1448L81.2487 58.1316Z" fill="#030303"/>
<path d="M118.188 40.8978C118.188 39.0087 118.201 37.1163 118.188 35.2321C118.188 34.7521 118.3 34.5613 118.847 34.5745C121.233 34.6024 123.618 34.5942 126.004 34.5745C126.466 34.5745 126.699 34.6698 126.64 35.1598C126.609 35.433 126.609 35.7086 126.64 35.9819C126.686 36.4307 126.469 36.5277 126.045 36.5211C124.457 36.4998 122.867 36.5343 121.274 36.4998C120.703 36.4866 120.536 36.6642 120.572 37.1985C120.626 38.0206 120.297 39.0876 120.721 39.5825C121.146 40.0774 122.316 39.7124 123.158 39.7469C123.84 39.7732 124.522 39.7765 125.203 39.7469C125.641 39.7289 125.841 39.8604 125.784 40.2977C125.76 40.4613 125.76 40.6274 125.784 40.791C125.905 41.4864 125.672 41.7413 124.89 41.6936C123.676 41.6196 122.451 41.6936 121.233 41.664C120.694 41.6492 120.551 41.8366 120.573 42.3217C120.618 43.0592 120.618 43.7987 120.573 44.5363C120.527 45.1529 120.802 45.263 121.364 45.2531C123.008 45.2252 124.654 45.2745 126.306 45.2268C126.887 45.2104 127.064 45.3913 127.008 45.9042C126.985 46.0677 126.981 46.2332 126.998 46.3975C127.079 47.0058 126.885 47.2376 126.181 47.2195C123.743 47.1719 121.303 47.1867 118.864 47.2195C118.341 47.2195 118.182 47.0814 118.193 46.5767C118.22 44.6892 118.205 42.7952 118.205 40.9126L118.188 40.8978Z" fill="#010101"/>
<path d="M92.1796 61.9691C93.3947 62.3818 94.4819 62.663 95.6236 62.7172C96.3606 62.7597 97.0989 62.6561 97.7929 62.413C98.587 62.1335 98.9704 61.6337 99.0028 60.8232C99.0351 59.9879 98.4677 59.646 97.7946 59.4437C96.9323 59.1823 96.0377 59.0196 95.1652 58.7861C93.1203 58.2271 92.2597 57.2357 92.2683 55.4633C92.2802 53.6547 93.3418 52.3033 95.2112 51.8199C97.0005 51.3579 98.7574 51.6308 100.479 52.175C101.211 52.4052 100.766 53.0201 100.859 53.4525C100.998 54.1102 100.784 54.3354 100.063 54.0444C98.8981 53.5903 97.6269 53.4527 96.387 53.6465C95.4055 53.7797 94.8073 54.2483 94.7255 55.0079C94.642 55.8003 95.0664 56.3972 96.0172 56.7063C96.767 56.9463 97.5509 57.1091 98.3143 57.2949C100.448 57.8095 101.443 58.842 101.491 60.5963C101.544 62.5166 100.501 63.8155 98.4234 64.3926C96.7193 64.8694 95.0152 64.7313 93.2941 64.3712C92.4421 64.1904 91.999 63.7925 92.1609 62.9014C92.1919 62.5915 92.1981 62.2799 92.1796 61.9691Z" fill="#020202"/>
<path d="M71.2926 47.407C70.1616 47.4304 69.0357 47.2526 67.9714 46.8826C67.4755 46.705 67.087 45.222 67.4227 44.8307C67.6101 44.6104 67.784 44.8044 67.9493 44.8636C69.1141 45.3011 70.361 45.4982 71.6096 45.4423C72.2622 45.4165 72.8958 45.223 73.4449 44.8817C73.6931 44.7445 73.8959 44.5422 74.0298 44.2984C74.1637 44.0545 74.2232 43.779 74.2015 43.5039C74.1606 42.8873 73.7925 42.5174 73.2353 42.2691C72.2998 41.84 71.2603 41.8038 70.2855 41.5161C68.2134 40.9045 67.4091 39.9279 67.4619 37.9829C67.4837 37.1393 67.8036 36.3283 68.3686 35.6842C68.9336 35.0401 69.7097 34.6016 70.5684 34.4414C72.2163 34.1011 73.8419 34.2918 75.4284 34.7916C75.9124 34.9445 76.2958 36.4949 75.9516 36.8402C75.7692 37.0243 75.5886 36.8616 75.4131 36.804C74.164 36.3946 72.8928 36.1694 71.5687 36.3338C70.5701 36.4587 69.9993 36.9224 69.9175 37.6918C69.8186 38.6224 70.2191 39.1962 71.2688 39.4774C72.3185 39.7585 73.4449 39.9196 74.4673 40.3405C76.001 40.9735 76.6826 41.9666 76.6486 43.5187C76.6162 45.1201 75.7556 46.3811 74.3037 46.9171C73.345 47.2763 72.3204 47.443 71.2926 47.407Z" fill="#020202"/>
<path d="M110.274 44.0201C111.447 40.9472 112.59 38.0058 113.704 35.0562C113.831 34.7274 113.977 34.586 114.359 34.563C116.492 34.4397 116.487 34.4282 115.722 36.3107C114.359 39.6927 112.975 43.0698 111.632 46.4633C111.402 47.0453 111.109 47.2853 110.47 47.1965C109.831 47.1078 109.195 47.4218 108.839 46.4961C107.379 42.7146 105.828 38.9561 104.293 35.196C104.083 34.6814 104.189 34.5581 104.765 34.5564C106.614 34.5564 106.631 34.5219 107.26 36.171C108.2 38.6372 109.112 41.1034 110.039 43.5696C110.097 43.6912 110.167 43.8063 110.274 44.0201Z" fill="#020202"/>
<path d="M73.3776 61.2885C74.0985 59.4256 74.7648 57.7223 75.4225 56.0141C75.8929 54.7843 76.3717 53.5577 76.8011 52.3148C76.9715 51.8215 77.3277 51.838 77.735 51.833C79.5617 51.8133 79.5617 51.8084 78.904 53.441C77.5151 56.8756 76.1144 60.3053 74.7545 63.7514C74.5347 64.3104 74.2433 64.5438 73.635 64.4682C73.0266 64.3926 72.3467 64.6951 71.9922 63.7826C70.5267 60.0011 68.9845 56.2377 67.4474 52.4775C67.2498 51.9843 67.2549 51.8199 67.8752 51.8199C69.6968 51.7985 69.6934 51.7738 70.3359 53.4328C71.3208 55.9894 72.3143 58.5444 73.3776 61.2885Z" fill="#020202"/>
<path d="M85.3146 47.402C80.0746 47.4629 77.8354 43.2917 79.0402 38.9512C80.245 34.6107 84.3637 33.7228 88.0462 34.6123C88.6273 34.752 88.416 35.219 88.4245 35.5643C88.4518 36.6379 88.445 36.6033 87.3902 36.4241C85.3453 36.0772 83.4009 36.1676 82.0479 38.0107C80.4495 40.1892 81.0578 43.7208 83.2407 44.9358C84.6807 45.7365 86.2263 45.5195 87.7156 45.1824C88.5677 44.9901 88.5847 45.2729 88.5677 45.9042C88.5336 47.0716 88.5574 47.0551 87.3458 47.2442C86.6738 47.346 85.9948 47.3988 85.3146 47.402Z" fill="#020202"/>
<path d="M107.112 59.0985C107.112 57.6188 107.058 56.139 107.136 54.6593C107.177 53.857 106.874 53.6893 106.134 53.7386C105.282 53.7929 104.43 53.7255 103.578 53.7666C103.017 53.7929 102.786 53.6137 102.859 53.0678C102.884 52.8492 102.884 52.6287 102.859 52.4101C102.821 52.0008 102.966 51.8199 103.428 51.8215C106.662 51.8336 109.897 51.8336 113.133 51.8215C113.603 51.8215 113.738 51.9975 113.698 52.4052C113.676 52.5959 113.676 52.7883 113.698 52.979C113.78 53.5693 113.583 53.8175 112.913 53.7715C112.037 53.7139 111.151 53.7978 110.275 53.7452C109.633 53.7057 109.457 53.9096 109.464 54.5229C109.496 57.507 109.454 60.4927 109.501 63.4768C109.513 64.2479 109.331 64.5274 108.479 64.4814C107.105 64.4074 107.102 64.4633 107.102 63.1217L107.112 59.0985Z" fill="#020202"/>
<path d="M50.92 58.1678C50.92 60.0306 50.9064 61.8934 50.9302 63.7578C50.9302 64.2511 50.8825 64.4862 50.2588 64.4796C48.5019 64.4632 48.5036 64.4961 48.5036 62.8075C48.5036 59.4387 48.5207 56.0666 48.4883 52.6994C48.4883 52.0417 48.6161 51.7902 49.3625 51.8181C50.9183 51.879 50.92 51.8362 50.92 53.3225V58.1678Z" fill="#020202"/>
<path d="M64.666 40.9751C64.666 42.8363 64.6489 44.6991 64.6796 46.5652C64.6881 47.0683 64.5399 47.2229 64.0167 47.2229C62.2922 47.2409 62.2905 47.2623 62.2905 45.6379C62.2905 42.2428 62.3041 38.8476 62.2734 35.4525C62.2734 34.7948 62.4064 34.5433 63.1527 34.5729C64.6625 34.6354 64.6643 34.5926 64.6643 36.0526C64.6643 37.6967 64.6643 39.3409 64.6643 40.985L64.666 40.9751Z" fill="#020202"/>
<path fill-rule="evenodd" clip-rule="evenodd" d="M35.9527 46.2118C35.9535 45.0301 35.9543 43.8484 35.9543 42.6668L35.9441 42.6635V28.1951C35.9441 27.0113 35.9441 26.9998 34.7513 26.9998H17.8042C17.4925 26.9998 17.1804 27.0022 16.8682 27.0046C16.2434 27.0093 15.618 27.0141 14.9942 26.9998C14.4489 26.9883 14.2444 27.2086 14.2547 27.7364C14.2706 28.3381 14.2653 28.9405 14.26 29.5432C14.2573 29.8446 14.2547 30.1461 14.2547 30.4476C14.2547 31.0042 14.2547 31.2873 14.1131 31.4313C13.9666 31.5804 13.6685 31.5804 13.0618 31.5804C12.2812 31.5807 11.5006 31.5813 10.72 31.5819C7.4415 31.5845 4.16298 31.5871 0.884474 31.5672C0.211365 31.5623 -0.0425425 31.7678 -0.00164474 32.4156C0.0648142 33.2607 0.104008 34.1091 0.104008 34.9558C0.127865 45.6657 0.119345 56.3778 0.0784468 67.0921C0.0759923 67.752 0.0597887 68.4104 0.0436045 69.068C0.0260807 69.7801 0.00857971 70.4913 0.00857971 71.2024C0.00857971 71.5756 0.015396 71.9275 0.565812 71.9275C0.979948 71.9325 1.39334 71.9523 1.8058 71.9721C2.47444 72.0043 3.14063 72.0363 3.80356 72.0047C6.28627 71.8833 8.76986 71.9056 11.2524 71.9279C12.2307 71.9367 13.2087 71.9455 14.1865 71.9455C15.6531 71.9444 17.1203 71.9406 18.5881 71.934C19.6601 71.929 20.731 71.9406 21.8017 71.9522C22.1165 71.9556 22.4313 71.959 22.7461 71.962C24.1593 71.9762 25.5731 71.9916 26.9875 72.008C27.7237 72.0179 27.969 71.7071 27.969 70.964C27.9372 61.6527 27.9327 52.3414 27.9554 43.0301C27.9574 42.0549 27.9491 41.0795 27.9407 40.1041C27.9201 37.6854 27.8995 35.2663 28.0355 32.848C28.102 31.6675 27.9793 31.5968 26.7745 31.5968C25.3984 31.5914 24.0223 31.5918 22.6464 31.5922C21.0985 31.5927 19.5508 31.5931 18.0036 31.5853C17.9446 31.5853 17.8819 31.5917 17.8181 31.5981C17.5576 31.6245 17.2795 31.6527 17.1686 31.2565C16.8943 30.293 17.2112 29.8475 18.2337 29.8475C18.5258 29.8467 18.8179 29.8459 19.11 29.8451C21.8853 29.8373 24.6605 29.8296 27.4357 29.8475C27.9246 29.8507 28.4133 29.8492 28.9021 29.8477C29.9158 29.8446 30.9294 29.8415 31.9447 29.8803C32.8529 29.9165 33.0659 30.2453 33.0659 31.0674C33.043 37.1492 33.0446 43.231 33.0463 49.3128C33.0468 50.8992 33.0472 52.4857 33.0472 54.0722C33.0472 55.1507 33.0455 55.1507 31.9361 55.1507C29.5673 55.1621 29.5673 55.1622 29.6191 57.4106L29.6203 57.464C29.6322 58.0378 29.8401 58.2285 30.4195 58.2285C31.9532 58.2006 33.4868 58.1743 35.0205 58.2285C35.7856 58.2565 35.9697 58.0082 35.9697 57.2996C35.9477 53.6001 35.9502 49.9054 35.9527 46.2118ZM3.40973 46.895C3.40883 48.0948 3.40792 49.2947 3.40792 50.4947C3.40792 55.4786 3.41133 60.4636 3.41814 65.4497C3.41814 65.5224 3.4075 65.6021 3.39669 65.6831C3.36447 65.9245 3.33076 66.177 3.57322 66.2866C3.81885 66.3976 3.98601 66.1907 4.14094 65.9989C4.19023 65.9379 4.23828 65.8784 4.28722 65.8312C5.59408 64.573 6.89793 63.3117 8.20181 62.0504C10.0025 60.3084 11.8032 58.5665 13.6119 56.8328C13.836 56.628 14.0116 56.3788 14.1266 56.1024C14.2416 55.826 14.2933 55.5289 14.2782 55.2314C14.2669 49.6183 14.2669 44.0053 14.2782 38.3922C14.2799 37.4771 14.2224 37.0618 14.4021 36.8758C14.5857 36.6858 15.0168 36.7349 16.0113 36.7349C17.3115 36.7382 17.3456 36.7859 17.3456 38.0305C17.3459 39.1483 17.3466 40.2662 17.3474 41.384C17.3501 45.6326 17.3529 49.8812 17.3353 54.1298C17.3251 54.7678 17.5057 54.9864 18.1874 54.97C20.009 54.924 21.8256 54.9157 23.6404 54.97C24.4686 54.9947 24.7003 54.7283 24.7003 53.9424C24.6758 49.1008 24.6774 44.2592 24.6791 39.4184C24.6795 38.2082 24.6799 36.998 24.6799 35.7879C24.6782 34.7027 24.6765 34.7027 23.5705 34.7027C21.8044 34.7018 20.0383 34.7026 18.2722 34.7033C13.653 34.7052 9.03361 34.7071 4.41332 34.6797C3.54936 34.6748 3.39088 34.9494 3.39088 35.7089C3.41538 39.4327 3.41256 43.163 3.40973 46.895Z" fill="#F6B349"/>
<path d="M5.66895 68.5966C7.25033 67.1169 8.73628 65.7424 10.2086 64.3432C12.1672 62.4799 14.1138 60.6017 16.0485 58.7088C16.2091 58.5395 16.4065 58.4065 16.6265 58.3192C16.8465 58.232 17.0838 58.1927 17.3214 58.204C19.4498 58.2221 21.5816 58.2303 23.7066 58.1892C24.4513 58.1761 24.6881 58.4128 24.6796 59.133C24.6467 62.0365 24.6467 64.9411 24.6796 67.8469C24.6898 68.6361 24.3916 68.9008 23.5856 68.8975C18.0218 68.8778 12.458 68.8975 6.89588 68.8975C6.46744 68.8964 6.04594 68.793 5.66895 68.5966Z" fill="#FEFEFD"/>
<path fill-rule="evenodd" clip-rule="evenodd" d="M48.507 39.3434C48.5056 39.8424 48.5043 40.3414 48.5043 40.8402C48.502 42.7551 48.5037 44.6694 48.5094 46.5832C48.5094 46.6173 48.5083 46.6521 48.5071 46.6869C48.4987 46.9447 48.4902 47.2053 48.9405 47.1981C49.4163 47.1902 49.8929 47.1941 50.3695 47.198C51.791 47.2095 53.213 47.2211 54.6168 46.9219C56.1948 46.5832 57.6483 45.9814 58.6197 44.6497C59.2603 43.7844 59.6641 42.7772 59.7938 41.7212C59.9235 40.6653 59.7748 39.5948 59.3615 38.6091C58.9482 37.6234 58.2837 36.7542 57.4296 36.0823C56.5754 35.4103 55.5593 34.9573 54.4753 34.7651C53.312 34.5525 52.1419 34.5649 50.9716 34.5773C50.3864 34.5835 49.8011 34.5898 49.2166 34.5678C48.6611 34.5465 48.4804 34.7125 48.4906 35.2617C48.5143 36.6211 48.5107 37.9824 48.507 39.3434ZM50.9259 39.7582C50.9241 40.1211 50.9222 40.484 50.9222 40.8469C50.9217 41.0473 50.9213 41.2476 50.9209 41.4478C50.9202 41.8487 50.9194 42.2492 50.9171 42.6505C50.9171 42.8412 50.9209 43.0338 50.9247 43.2266C50.9333 43.6688 50.942 44.1117 50.9052 44.533C50.8524 45.1381 51.1046 45.2959 51.6771 45.2318C51.9829 45.1981 52.291 45.1794 52.5992 45.1607C52.9969 45.1365 53.3949 45.1124 53.7885 45.0559C55.6391 44.7895 56.7962 43.7554 57.1728 42.0668C57.6312 40.0232 56.987 38.1965 55.4687 37.2775C54.2639 36.5458 52.9007 36.5162 51.5374 36.4899C51.0654 36.4817 50.9001 36.6034 50.912 37.0785C50.935 37.9718 50.9305 38.865 50.9259 39.7582Z" fill="#020202"/>
<path fill-rule="evenodd" clip-rule="evenodd" d="M90.4748 39.908C90.0369 43.9279 92.1755 47.4743 96.8429 47.4004C99.912 47.4004 102.108 45.7809 102.836 42.9415C103.303 41.1395 103.242 39.3194 102.451 37.6309C101.043 34.6238 97.9421 33.7984 94.9224 34.5186C92.092 35.1943 90.7679 37.2248 90.4748 39.908ZM99.2713 44.5675C100.433 43.5613 100.582 42.2049 100.635 40.8222C100.672 39.9963 100.516 39.1729 100.178 38.4135C99.5439 36.9683 98.3835 36.286 96.7816 36.2482C96.0677 36.2118 95.3597 36.3901 94.7553 36.7585C94.151 37.1269 93.68 37.6673 93.4076 38.305C93.0503 39.0688 92.8559 39.8941 92.836 40.7319C92.8161 41.5696 92.9711 42.4027 93.2917 43.1815C93.5061 43.7288 93.8559 44.2172 94.3108 44.6041C94.7656 44.991 95.3117 45.2648 95.9013 45.4014C96.4909 45.5381 97.1062 45.5335 97.6936 45.3882C98.281 45.2428 98.8226 44.9611 99.2713 44.5675Z" fill="#020202"/>
<path fill-rule="evenodd" clip-rule="evenodd" d="M137.775 44.2697C137.2 43.5127 136.632 42.7653 136.058 42.0108C136.244 41.9192 136.431 41.8347 136.616 41.7513C137.253 41.4636 137.865 41.1876 138.324 40.6675C140.19 38.5532 138.963 35.4211 136.007 34.8045C134.779 34.5487 133.537 34.5649 132.295 34.581C131.637 34.5895 130.979 34.598 130.324 34.5661C129.657 34.5349 129.531 34.7634 129.531 35.357C129.554 38.0057 129.552 40.6544 129.55 43.3031C129.549 44.0759 129.548 44.8486 129.548 45.6213C129.548 47.1806 129.55 47.1806 131.084 47.2109C131.115 47.2115 131.148 47.2122 131.181 47.2128C131.818 47.2276 131.92 47.0024 131.903 46.4648C131.876 45.6178 131.882 44.7717 131.888 43.9259C131.891 43.5664 131.893 43.207 131.893 42.8477C131.893 42.8091 131.89 42.7691 131.887 42.7288C131.873 42.5613 131.859 42.389 132.104 42.2936C132.648 42.0831 133.607 42.3594 133.962 42.8526C134.898 44.1547 135.838 45.4547 136.782 46.7525C136.808 46.7876 136.832 46.8247 136.856 46.862C136.962 47.0272 137.071 47.1948 137.338 47.1948H139.999C139.229 46.1825 138.496 45.2185 137.775 44.2697ZM134.003 36.5276C131.895 36.4339 131.895 36.4389 131.895 38.448C131.895 38.5976 131.893 38.747 131.892 38.8964C131.888 39.2116 131.885 39.5265 131.897 39.8422C131.897 39.8734 131.895 39.9076 131.893 39.9427C131.884 40.1058 131.873 40.2894 132.113 40.2894C132.35 40.2915 132.588 40.3012 132.825 40.3108C133.884 40.3537 134.944 40.3967 135.908 39.7765C136.615 39.3194 136.763 38.6683 136.641 37.9104C136.525 37.1902 136.014 36.8285 135.347 36.6641C134.905 36.5756 134.455 36.5299 134.003 36.5276Z" fill="#010101"/>
</g>
<defs>
<clipPath id="clip0_725_4887">
<rect width="140" height="45" fill="white" transform="translate(0 27)"/>
</clipPath>
</defs>
</svg>
