<svg width="140" height="100" viewBox="0 0 140 100" fill="none" xmlns="http://www.w3.org/2000/svg">
<g clip-path="url(#clip0_714_4608)">
<path d="M36.0642 21.4298C36.7116 23.9662 35.9868 25.475 34.0696 26.9804C24.8199 34.2735 15.7384 41.7819 6.55594 49.1523C5.37871 50.101 5.62088 50.5736 6.64508 51.3658C9.3544 53.4633 11.9611 55.6936 14.6789 57.7759C15.9789 58.7716 14.9278 59.3855 14.5006 60.1408C13.9204 61.1701 13.3335 60.6773 12.7129 60.171C9.01805 57.1636 5.33667 54.1361 1.59979 51.1741C0.673136 50.4357 0.673136 50.0371 1.58802 49.3003C10.3433 42.2472 19.0823 35.1745 27.805 28.0821C30.5009 25.8989 33.2085 23.7291 36.0642 21.4298Z" fill="#4F4F4E"/>
<path d="M132.505 42.4714C133.213 40.162 134.068 37.8711 134.589 35.5046C134.925 33.9437 135.645 33.5821 137.112 33.6392C139.971 33.7503 139.971 33.6695 139.971 36.6046C139.971 40.199 139.917 43.7968 139.999 47.3895C140.031 48.7923 139.269 48.7754 138.276 48.7889C137.282 48.8024 136.671 48.6913 136.713 47.4181C136.813 44.6066 136.728 41.7916 136.459 38.9913C135.899 40.9447 135.334 42.8986 134.764 44.8531C134.512 45.7277 134.177 46.5905 134.038 47.4837C133.844 48.7183 133.072 48.767 132.07 48.799C130.951 48.836 130.629 48.2944 130.388 47.334C129.702 44.6024 128.92 41.8944 128.175 39.178L127.746 39.2268C127.746 41.8059 127.746 44.3849 127.746 46.9639C127.746 48.6224 126.599 49.3456 125.069 48.7065C124.525 48.4777 124.586 48.0556 124.586 47.6401C124.586 43.3477 124.586 39.0552 124.586 34.7628C124.586 34.5021 124.571 34.0799 124.709 34.0042C126.005 33.3079 127.416 33.8041 128.775 33.6863C129.552 33.6191 129.719 34.233 129.887 34.82C130.548 37.1395 131.221 39.4556 131.885 41.775C131.964 42.0256 131.945 42.32 132.505 42.4714Z" fill="#E12026"/>
<path d="M0.504803 76.2943C5.10947 76.037 9.47869 75.0143 13.5351 72.6881C22.8016 67.3697 27.9495 56.4452 26.0676 45.8941C25.9516 45.2347 25.553 44.4913 26.1433 43.9076C26.7336 43.324 27.339 42.377 28.1749 42.52C29.0107 42.663 28.7668 43.7714 28.893 44.4627C30.8724 55.3536 27.7241 64.5019 19.6433 72.0675C16.4984 75.0143 12.6875 76.6257 8.81776 78.2118C6.48179 78.9821 4.06341 79.2681 1.62822 79.4665H0.878155C-0.245263 78.5246 0.336627 77.3859 0.504803 76.2943Z" fill="#E01F25"/>
<path d="M80.3341 66.6079C80.3425 64.6232 80.3341 62.6401 80.3661 60.6554C80.3812 59.626 80.3526 58.5933 78.9887 58.5966C77.7728 58.5966 76.9201 59.2694 76.8428 60.5444C76.7536 62.0397 76.8091 63.545 76.8024 65.047C76.794 66.761 75.9245 67.3598 74.2596 66.8602C73.6171 66.6668 73.6424 66.2059 73.6407 65.7232C73.6407 64.0076 73.6138 62.2903 73.6407 60.5746C73.6609 59.478 73.4052 58.5663 72.1271 58.5983C70.9263 58.6269 70.0787 59.2459 70.0602 60.578C70.035 62.2936 69.9896 64.0143 70.072 65.7266C70.1258 66.8602 69.5153 66.9527 68.6778 66.877C67.8991 66.8081 66.8682 67.2286 66.8951 65.7568C66.9456 62.9681 66.8951 60.1794 66.9271 57.3906C66.9271 56.8659 66.6075 56.0064 67.4568 55.9441C68.3061 55.8819 69.443 55.3807 69.9559 56.2704C70.3612 56.9718 70.521 56.6287 70.8506 56.4218C72.6131 55.3252 74.3588 55.1082 76.0036 56.6085C76.5518 57.1131 76.8175 56.7162 77.2128 56.4403C79.399 54.9013 81.846 55.379 83.2957 57.6076C83.817 58.3628 83.7077 59.224 83.7077 60.0667C83.7077 61.7117 83.7313 63.3566 83.696 65.0016C83.6808 65.703 84.0407 66.7257 83.1393 66.9611C82.2379 67.1966 81.1599 67.5381 80.3341 66.6079Z" fill="#50504E"/>
<path d="M122.252 39.5969C122.165 41.1746 122.429 43.0618 122.012 44.9204C121.406 47.6234 119.807 48.868 116.815 48.9572C113.238 49.0699 111.321 48.0405 110.69 45.277C109.871 41.686 110.354 38.0041 110.391 34.3676C110.406 33.0775 111.763 33.8328 112.503 33.6948C113.317 33.5266 113.645 33.9757 113.631 34.8033C113.599 36.8418 113.621 38.8821 113.631 40.9223C113.631 41.6725 113.631 42.426 113.673 43.1745C113.791 45.2854 114.397 45.8556 116.431 45.8152C118.281 45.7765 118.936 45.1105 118.964 43.0887C118.996 40.6196 119.001 38.1504 118.964 35.688C118.947 34.4837 118.86 33.5939 120.646 33.6074C122.496 33.6208 122.262 34.6468 122.25 35.7704C122.242 36.9411 122.252 38.1218 122.252 39.5969Z" fill="#E02127"/>
<path d="M70.5618 45.726C72.6657 45.726 74.4198 45.7916 76.1654 45.7025C77.3292 45.6419 77.6033 46.0927 77.6017 47.1759C77.6 48.2591 77.4116 48.8478 76.115 48.8057C73.4393 48.7183 70.7602 48.8057 68.0829 48.7637C67.3849 48.7519 66.3607 49.1791 66.0647 48.3264C65.7284 47.4063 65.8495 46.4089 66.5693 45.4754C68.4932 42.9793 70.2893 40.384 72.1309 37.824C72.3411 37.5331 72.6875 37.3026 72.585 36.6803C70.9789 36.6803 69.3391 36.6096 67.7078 36.7022C66.3843 36.7762 66.4314 36.0075 66.3977 35.0807C66.3607 34.0715 66.6281 33.6308 67.7331 33.6594C70.3028 33.7267 72.8759 33.6594 75.4456 33.6964C76.0998 33.6964 77.0652 33.3113 77.3443 34.0328C77.5201 34.4846 77.5752 34.9742 77.5045 35.4537C77.4337 35.9332 77.2394 36.3861 76.9407 36.7678C75.1227 39.2134 73.3653 41.7027 71.5877 44.1803C71.3068 44.5621 71.0596 44.9658 70.5618 45.726Z" fill="#DF2127"/>
<path d="M21.9047 47.3661C22.463 48.8715 22.3201 50.3129 22.2158 51.7208C21.4153 62.4855 13.1343 70.919 2.38947 71.9786C0.573169 72.1569 -0.112991 71.2604 0.463854 69.5145C0.672393 68.8871 1.16347 68.951 1.62932 68.9073C9.21968 68.1773 14.5974 64.3446 17.7625 57.4092C18.5949 55.5792 19.1785 53.6063 19.0625 51.6585C18.9246 49.3643 20.3171 48.4745 21.9047 47.3661Z" fill="#A92623"/>
<path d="M36.0691 30.0381C36.7519 32.5829 35.901 34.1304 33.935 35.6357C28.2372 39.9887 22.7395 44.6024 17.1695 49.1186C16.411 49.7325 15.6071 50.3111 16.9811 51.2042C18.8899 52.2134 17.3763 53.8954 17.0803 54.4959C16.8802 54.8979 16.4917 54.6775 16.2395 54.4774C14.7023 53.2293 13.1955 51.946 11.6449 50.7148C10.8427 50.0773 11.5557 49.8183 11.9089 49.5273C14.3054 47.556 16.7204 45.6049 19.1405 43.6521C24.5917 39.2408 30.0451 34.8301 35.5007 30.4199C35.6537 30.2937 35.8303 30.1962 36.0691 30.0381Z" fill="#727271"/>
<path d="M98.0161 66.6146C97.7949 63.0749 97.805 59.5246 98.0464 55.9862C99.1462 56.0316 100.339 55.3268 101.307 56.4689C101.644 56.8692 101.98 56.3966 102.263 56.2183C104.743 54.6877 108.714 55.8533 108.433 59.8631C108.293 61.8361 108.361 63.8293 108.433 65.8107C108.419 66.8751 107.66 66.8751 106.795 66.8703C106.141 66.7233 105.248 67.0738 105.307 65.8241C105.384 64.2195 105.34 62.6081 105.323 61.0002C105.315 60.1592 105.451 59.2341 104.425 58.7951C103.5 58.3981 102.659 58.4755 101.928 59.2156C101.477 59.7387 101.423 60.3576 101.423 61.0187C101.449 62.4652 101.361 63.9151 101.45 65.3548C101.534 66.7004 101.13 67.027 99.7046 67.0873C99.1945 67.0873 98.3969 67.1788 98.0884 66.7963" fill="#50504F"/>
<path d="M2.18695 21.2027C9.52617 21.7948 15.7991 24.5684 21.0227 29.6698C21.4902 30.1257 22.094 30.5108 21.2497 31.2997C20.7822 31.732 20.059 33.1667 18.796 31.885C14.1998 27.2242 8.57765 24.7265 2.07764 24.385C0.337012 24.2925 0.426145 23.4213 0.437918 22.2287C0.451372 20.7183 1.51425 21.2952 2.18695 21.2027Z" fill="#E02127"/>
<path d="M83.919 41.1209C83.919 39.0302 83.9762 36.9378 83.9005 34.8504C83.8484 33.4224 84.7851 33.673 85.6142 33.673C86.4433 33.673 87.3515 33.4409 87.3195 34.8656C87.2455 38.0277 87.3313 41.1915 87.2775 44.3537C87.2607 45.3713 87.518 45.854 88.6128 45.7278C89.2468 45.6538 89.8977 45.7144 90.5418 45.7161C92.2824 45.7161 92.8424 46.515 92.3581 48.1903C92.1899 48.7588 91.8115 48.7773 91.3793 48.779C89.2351 48.779 87.0908 48.7638 84.9466 48.7941C84.0334 48.8076 83.9056 48.2895 83.9106 47.5579C83.9342 45.41 83.919 43.2654 83.919 41.1209Z" fill="#E1262C"/>
<path d="M48.7497 55.5876C49.6242 55.6061 50.7678 55.8198 51.6205 56.7768C52.1569 57.3823 52.8347 58.2906 52.236 58.8574C51.6373 59.4243 50.5273 59.2863 49.6932 58.7548C49.5735 58.6476 49.4709 58.5229 49.3888 58.3848C48.9734 57.8802 48.4402 57.9441 47.9273 58.1375C47.7707 58.1842 47.6349 58.2834 47.543 58.4186C47.4511 58.5537 47.4086 58.7165 47.4228 58.8793C47.5136 59.4629 48.0484 59.5521 48.4974 59.6951C49.1584 59.9104 49.8311 60.0903 50.4937 60.3039C51.9181 60.7682 52.7086 61.7101 52.7624 63.2525C52.8196 64.8672 52.2242 66.0362 50.6921 66.7022C48.4453 67.6811 45.6199 67.0891 44.6647 65.3331C44.3418 64.741 43.5581 63.8428 44.4158 63.419C45.1188 63.0725 46.3111 62.8219 47.0393 63.784C47.448 64.3239 47.855 64.7562 48.6034 64.7175C49.2004 64.6872 49.6562 64.4719 49.8395 63.8866C50.0581 63.1852 49.5233 62.9177 49.0305 62.7092C48.5279 62.5256 48.0146 62.3728 47.4934 62.2517C45.1389 61.6092 44.3065 60.5848 44.5217 58.6169C44.7235 56.7465 46.1799 55.6146 48.7497 55.5876Z" fill="#4F4F4E"/>
<path d="M112.75 52.4759C113.885 52.4497 114.4 52.5987 114.302 53.8215C114.22 54.8475 113.966 55.9744 115.738 55.993C116.534 55.993 116.163 57.0051 116.161 57.6278C116.162 57.5718 116.102 58.6253 115.419 58.5782C114.307 58.4991 114.262 59.1921 114.275 60.0247C114.304 61.895 114.216 63.7705 114.307 65.6375C114.375 67.0066 113.542 66.8754 112.657 66.899C111.773 66.9225 111.125 66.8653 111.183 65.6509C111.278 63.6763 111.215 61.6949 111.206 59.7152C111.206 59.2526 111.324 58.6185 110.614 58.6303C109.582 58.6488 109.55 58.05 109.553 57.2847C109.553 56.4891 109.538 55.9173 110.649 55.8012C111.658 55.6969 111.208 54.6591 111.176 54.0671C111.11 52.8375 111.456 52.4497 112.75 52.4759Z" fill="#4F4F4F"/>
<path d="M0.419091 30.3291C0.441283 30.0796 0.444656 29.8289 0.429182 29.5789C0.365275 28.6269 0.86644 28.3477 1.98481 28.4537C7.0032 28.9313 11.4195 30.758 15.1597 34.1421C15.6071 34.5458 16.6733 34.9831 15.6172 35.8578C14.8503 36.4852 14.2718 37.6323 12.9953 36.4061C9.90256 33.4475 6.10177 31.9337 1.87045 31.5973C0.773943 31.5182 0.356866 31.1667 0.419091 30.3291Z" fill="#AA2926"/>
<path d="M64.5911 41.1847C64.5911 43.3309 64.5423 45.4772 64.6096 47.6217C64.6533 49.0682 63.6678 48.752 62.8622 48.7823C62.0567 48.8125 61.2797 48.8983 61.2982 47.6049C61.3587 43.3141 61.3503 39.0267 61.2982 34.7309C61.283 33.3551 62.2147 33.6881 62.948 33.6831C63.6812 33.678 64.6297 33.382 64.5978 34.741C64.5524 36.8839 64.5911 39.0301 64.5911 41.1847Z" fill="#E0232A"/>
<path d="M79.0568 41.21C79.0568 39.0638 79.1073 36.9159 79.0367 34.7731C78.998 33.5957 79.7094 33.5957 80.488 33.6848C81.2179 33.7672 82.338 33.1802 82.338 34.694C82.3245 39.038 82.3245 43.3832 82.338 47.7294C82.338 49.2197 81.2213 48.6781 80.4779 48.7605C79.6858 48.8479 79.003 48.8109 79.0417 47.6453C79.109 45.5025 79.0585 43.3546 79.0568 41.21Z" fill="#E02329"/>
<path d="M36.1979 79.1808C32.2575 75.985 28.5408 72.9709 24.8342 69.9467C23.7949 69.0973 24.9889 68.6869 25.2816 68.1604C25.5624 67.6676 25.8988 66.9191 26.7397 67.602C29.7971 70.0998 32.9622 72.4798 35.8851 75.1205C36.879 76.0254 36.1811 77.6014 36.1979 79.1808Z" fill="#50504F"/>
<path d="M35.8927 70.4009C33.453 68.4162 31.0133 66.4325 28.5737 64.45C27.1929 63.3231 28.6779 62.4047 28.979 61.5452C29.2346 60.8203 29.9426 61.7017 30.3244 62.0044C32.0936 63.3836 33.8225 64.8167 35.553 66.2464C36.9522 67.4036 35.9633 68.9123 36.2812 70.2327L35.8927 70.4009Z" fill="#737371"/>
<path d="M1.63184 79.4684L8.82137 78.2136C6.55772 79.3759 4.11076 79.5239 1.63184 79.4684Z" fill="#E4E4E4"/>
<path d="M0.504223 76.2947C0.589993 77.356 0.103963 78.4813 0.884302 79.4652C-0.563697 78.567 0.112372 77.4132 0.504223 76.2947Z" fill="#E4E4E4"/>
<path fill-rule="evenodd" clip-rule="evenodd" d="M58.1091 45.3896C59.0267 44.3176 59.4891 42.9293 59.3973 41.521C59.4427 38.1167 57.4801 35.0891 54.6329 33.9941C51.3635 32.7259 48.0437 33.5787 45.8019 36.2699C43.6711 38.8265 43.4458 42.5218 45.2453 45.4215C46.9808 48.2187 50.2939 49.5458 53.6154 48.7653C53.7302 48.7386 53.8505 48.6986 53.9721 48.6582C54.3937 48.518 54.8317 48.3724 55.1189 48.7536C55.7061 49.5343 56.4568 49.5127 57.2179 49.4908C57.3439 49.4872 57.4702 49.4835 57.5961 49.4835C57.6913 49.4835 57.7943 49.4949 57.8991 49.5064C58.2428 49.5441 58.6058 49.5839 58.7734 49.2346C58.944 48.8788 58.6576 48.6183 58.4022 48.3859C58.3304 48.3206 58.261 48.2575 58.2049 48.1951C57.3624 47.26 57.1151 46.53 58.1091 45.3896ZM51.1649 43.1841C51.1937 43.1635 51.2272 43.1503 51.2624 43.1458C51.363 43.1334 51.4602 43.1212 51.5544 43.1093C53.0461 42.9219 53.768 42.8312 54.7234 43.7093C55.1945 44.1426 55.367 43.7789 55.5199 43.4564C55.551 43.3909 55.5813 43.327 55.6131 43.2719C56.5095 41.7178 56.1798 39.3966 54.9202 38.041C53.6606 36.6853 51.4642 36.2816 49.7404 37.0873C48.1276 37.8425 47.174 39.7633 47.3977 41.8137C47.5978 43.6437 48.9264 45.2466 50.6082 45.5964C50.6918 45.614 50.7802 45.6359 50.871 45.6585C51.3713 45.7827 51.9464 45.9255 52.2311 45.4585C52.4544 45.0843 52.1509 44.7888 51.8517 44.4976C51.7341 44.3832 51.6171 44.2693 51.5331 44.1516C51.444 44.0261 51.3643 43.8941 51.2443 43.6954C51.2035 43.6278 51.158 43.5524 51.106 43.4671C51.0878 43.4366 51.0775 43.4021 51.076 43.3667C51.0745 43.3313 51.0819 43.296 51.0974 43.2642C51.1129 43.2323 51.1361 43.2048 51.1649 43.1841Z" fill="#E01F25"/>
<path fill-rule="evenodd" clip-rule="evenodd" d="M107.673 37.57C106.287 34.8956 103.984 33.4895 100.905 33.397C97.735 33.4811 95.3368 34.9612 94.0099 37.8055C92.6644 40.68 92.9268 43.5394 94.9987 46.0943C96.9714 48.5231 99.5328 49.3624 102.583 48.8242C102.741 48.7964 102.905 48.7335 103.07 48.6704C103.484 48.5115 103.903 48.3506 104.237 48.7417C104.914 49.5387 105.748 49.5135 106.598 49.4878C106.695 49.4848 106.793 49.4819 106.89 49.4801C106.976 49.4789 107.067 49.4873 107.16 49.4958C107.459 49.5233 107.769 49.5517 107.925 49.2615C108.141 48.8583 107.837 48.596 107.572 48.3671C107.511 48.3152 107.453 48.265 107.403 48.2153C106.445 47.2582 106.505 46.498 107.313 45.3391C109.018 42.9052 109.018 40.1754 107.673 37.57ZM96.7754 42.8583C97.539 44.8616 99.251 45.854 101.535 45.5579C101.41 45.0251 101.135 44.6782 100.875 44.3506C100.767 44.2148 100.662 44.0825 100.571 43.9415C100.411 43.6892 100.206 43.2334 100.721 43.2334C100.983 43.2312 101.255 43.199 101.529 43.1666C102.288 43.0767 103.059 42.9854 103.657 43.5295C104.385 44.1914 104.594 43.7688 104.82 43.3112C104.847 43.2571 104.874 43.2026 104.902 43.1493C105.813 41.3849 105.268 39.0049 103.659 37.6156C102.339 36.4752 99.8262 36.3793 98.3916 37.4121C97.5679 38.0216 96.9648 38.8826 96.6732 39.865C96.3817 40.8474 96.4176 41.8981 96.7754 42.8583Z" fill="#E01F25"/>
<path fill-rule="evenodd" clip-rule="evenodd" d="M85.5648 64.1001C86.0794 65.301 87.0162 66.0209 88.0639 66.6668C89.8836 67.3968 91.7066 67.4792 93.533 66.682C93.7182 66.5329 93.9155 66.3922 94.1128 66.2515C94.5768 65.9207 95.0408 65.5898 95.3476 65.1497C95.4058 65.0644 95.4743 64.9746 95.5458 64.8809C95.8694 64.4571 96.2531 63.9543 96.0052 63.4391C95.7798 62.9701 95.3362 63.0184 94.8893 63.067C94.6726 63.0906 94.455 63.1143 94.2612 63.0791C93.5263 62.9444 93.0629 63.3528 92.5637 63.7929C92.5271 63.8251 92.4904 63.8575 92.4533 63.8899C91.2643 64.931 89.675 64.6989 88.8224 63.4492C88.5651 63.0859 88.3246 62.6923 88.5651 62.2718C88.7408 61.968 89.0708 61.9875 89.383 62.0059C89.4563 62.0102 89.5286 62.0144 89.5977 62.0144C91.4745 62.006 93.3514 62.006 95.2299 62.006C95.25 62.006 95.27 62.006 95.2899 62.0059C95.8125 62.0054 96.2772 62.005 96.3533 61.229C96.54 59.3081 94.8868 56.5631 93.0369 55.9778C90.674 55.231 88.4759 55.4295 86.6697 57.3368C84.8299 59.2812 84.4902 61.5939 85.5648 64.1001ZM90.0447 59.8902C90.0447 59.8902 90.5926 59.8521 90.8932 59.8296C90.9922 59.8222 91.1263 59.8306 91.2814 59.8404C91.771 59.8712 92.4702 59.9153 92.9365 59.515C93.134 59.2929 92.9341 59.0797 92.7491 58.8826C92.6947 58.8245 92.6415 58.7678 92.6002 58.7127C91.9679 57.8684 91.0883 57.7843 90.1415 57.9357C89.9816 57.9538 89.8268 58.0029 89.6857 58.0803C89.1778 58.3948 88.564 58.7935 88.6447 59.3906C88.7439 60.134 90.0447 59.8902 90.0447 59.8902Z" fill="#50504E"/>
<path fill-rule="evenodd" clip-rule="evenodd" d="M58.0642 62.0162H61.1166V62.0044C61.3657 62.0044 61.6155 61.9973 61.8653 61.9902C62.4213 61.9743 62.9771 61.9585 63.5249 62.0212C64.9392 62.1844 65.3092 61.6091 65.0839 60.2736C64.6315 57.5942 62.7513 55.744 60.1714 55.5758C57.3965 55.3959 55.0622 56.9567 54.255 59.5302C53.4326 62.144 54.4366 65.0723 56.5708 66.2968C59.006 67.6929 62.2047 67.3649 63.8259 65.4962C63.8826 65.4307 63.9433 65.3629 64.0057 65.293C64.5325 64.7037 65.1887 63.9697 64.6971 63.3096C64.3131 62.7953 63.4291 62.9541 62.6654 63.0914C62.5225 63.1171 62.3839 63.142 62.2535 63.1616C62.0082 63.1986 61.7916 63.4226 61.5752 63.6465C61.477 63.7481 61.3788 63.8496 61.278 63.9336C60.9927 64.176 60.6561 64.3505 60.2936 64.444C59.9311 64.5374 59.5521 64.5473 59.1852 64.473C58.8183 64.3986 58.473 64.242 58.1754 64.0148C57.8778 63.7877 57.6356 63.4959 57.4672 63.1616C57.1392 62.5208 57.1123 62.0162 58.0642 62.0162ZM59.3257 59.8278C59.3814 59.836 59.4381 59.836 59.4938 59.8278C59.5896 59.8283 59.6858 59.8309 59.7818 59.8335C60.0076 59.8396 60.2329 59.8457 60.4524 59.8244C60.572 59.8133 60.7065 59.824 60.8425 59.8349C61.2207 59.8651 61.6099 59.8962 61.7188 59.4594C61.8401 58.98 61.4276 58.6543 61.0563 58.3611C60.99 58.3087 60.9249 58.2574 60.8645 58.2063C60.5247 57.9154 60.0841 57.8817 59.6502 57.8599C58.6059 57.8077 57.5951 58.351 57.5564 59.2189C57.5515 59.8435 58.2884 59.8287 58.86 59.8171C59.0416 59.8135 59.2065 59.8102 59.3257 59.8278Z" fill="#50504F"/>
</g>
<defs>
<clipPath id="clip0_714_4608">
<rect width="140" height="100" fill="white"/>
</clipPath>
</defs>
</svg>
