<svg width="140" height="100" viewBox="0 0 140 100" fill="none" xmlns="http://www.w3.org/2000/svg">
<rect x="1" y="15.6196" width="139" height="67.9891" fill="#383838"/>
<g filter="url(#filter0_i_726_5226)">
<path d="M45.7326 57.1107C42.8764 58.0795 39.8783 58.4686 36.9923 59.3471C31.8726 60.9057 27.0766 63.1647 22.4774 65.8729C20.1018 67.2709 17.7461 68.7141 15.4726 70.2778C13.9263 71.3446 12.5617 72.6497 11.0303 73.9198C11.0311 73.6862 11.0303 73.4594 11.1973 73.0326C11.1933 72.777 11.8258 71.7428 11.953 71.5217C13.2052 69.3461 13.1792 68.1017 13.996 65.7901C14.494 64.3669 15.2411 62.999 15.6196 61.5232C16.2471 59.1036 17.1983 58.7999 17.4921 58.6016C18.4359 57.9847 19.5219 57.6242 20.6446 57.555C20.7393 55.5822 20.5301 53.5742 20.4902 51.5663C20.4902 51.0643 20.5948 50.1883 20.5649 49.5006C20.4778 47.4575 20.3881 45.4119 20.3782 43.3663C20.3782 42.4577 19.9349 42.3046 19.3149 42.6585C18.3189 43.2308 18.0698 42.7664 17.8582 41.8704C17.5924 40.6908 17.2649 39.5262 16.8771 38.3815C16.5509 37.4177 16.907 36.8932 17.7586 36.5367C19.2028 35.9369 20.6621 35.3646 22.0715 34.6869C23.4024 34.0692 24.6896 33.3597 25.9237 32.5635C26.6458 32.0791 27.1961 32.1996 27.861 32.5183C28.5259 32.8371 28.7948 33.3918 28.7749 34.1322C28.7126 36.3912 28.6578 38.6501 28.6255 40.9091C28.5682 45.1283 28.5333 49.3475 28.4686 53.5667C28.4686 54.2243 28.4985 54.5857 29.3426 54.3824C33.1219 53.5137 36.9639 52.9497 40.832 52.6957C45.1504 52.3271 49.4856 52.1989 53.818 52.3117C57.9989 52.4573 62.1923 52.643 66.3358 53.1626C67.81 53.3483 69.2941 53.1852 70.7433 53.514C71.0372 53.5792 71.3634 53.5767 71.4157 53.9306C71.4754 54.3247 71.1293 54.2519 70.9177 54.2594C65.2925 54.5104 59.7121 55.1329 54.1168 55.8206" fill="#498499"/>
</g>
<path d="M78.7424 56.1922C78.7424 55.1054 78.7424 54.0186 78.7424 52.9293C78.7424 52.3897 78.6478 51.85 79.5068 51.8224C80.3659 51.7948 80.2912 52.3244 80.2912 52.8816C80.2912 54.7616 80.3186 56.6465 80.2788 58.5215C80.2614 59.3121 80.4705 59.6559 81.3246 59.6057C82.5249 59.538 83.7301 59.5631 84.9328 59.6057C85.5803 59.6258 85.7894 59.405 85.7745 58.7423C85.7346 56.9452 85.7745 55.1481 85.7745 53.351C85.7745 52.3043 86.2352 51.8199 87.2686 51.845C88.8448 51.8601 90.421 51.845 91.9998 51.83C92.4356 51.83 92.7692 51.7898 92.7468 52.465C92.7244 53.1401 92.5202 53.218 91.9525 53.218C90.7522 53.1853 89.547 53.2556 88.3468 53.218C87.2437 53.1803 87.3507 53.9032 87.3209 54.6361C87.2785 55.4217 87.5001 55.763 88.3493 55.7204C89.5943 55.6551 90.8394 55.7204 92.0844 55.7053C92.4978 55.7053 92.8041 55.7229 92.7618 56.2976C92.7294 56.762 92.5949 56.9678 92.1044 56.9628C90.8195 56.9452 89.5321 57.0029 88.2497 56.9628C87.413 56.9327 87.2536 57.3619 87.3383 58.0421C87.418 58.6645 86.9598 59.5932 88.165 59.6032C89.5346 59.6032 90.9041 59.6032 92.2712 59.6283C93.0182 59.6459 93.1303 59.0686 93.332 58.5968C94.094 56.7921 94.8435 54.9824 95.5607 53.1602C95.857 52.4072 96.2305 51.8124 97.117 51.7747C98.0035 51.7371 98.4965 52.2767 98.7256 53.0623C99.3033 55.0276 100.324 56.8021 101.066 58.6921C101.335 59.3799 101.694 59.6785 102.436 59.6459C103.681 59.5957 104.926 59.6283 106.171 59.6158C106.774 59.6158 107.371 59.5756 107.444 58.7624C107.511 58.0245 107.033 57.7283 106.447 57.5376C105.501 57.2364 104.538 56.9804 103.606 56.634C102.77 56.3202 101.726 56.1169 101.552 55.0377C101.268 53.2807 101.41 51.9178 103.858 51.8626C105.185 51.8325 106.512 51.8626 107.842 51.8626C108.283 51.8626 108.659 51.8626 108.674 52.4901C108.689 53.1176 108.387 53.2631 107.837 53.2431C106.592 53.223 105.347 53.223 104.102 53.2431C103.654 53.2431 103.133 53.2431 103.093 53.9057C103.063 54.4378 103.183 54.9097 103.766 55.1054C104.946 55.4987 106.125 55.8894 107.304 56.2776C109.007 56.8398 109.662 58.6344 108.746 60.1931C108.615 60.4331 108.42 60.6311 108.182 60.7643C107.945 60.8975 107.675 60.9605 107.404 60.9461C105.287 60.9461 103.17 60.9235 101.056 60.9762C100.16 60.9963 100.048 60.3085 99.8935 59.7639C99.6146 58.775 99.0593 58.4185 98.0757 58.5691C97.663 58.6324 97.2433 58.6324 96.8306 58.5691C95.486 58.3608 94.5895 58.7649 94.3131 60.2157C94.2011 60.8256 93.7678 60.9461 93.2 60.9435C88.8124 60.921 84.4223 60.9084 80.0348 60.9435C79.0661 60.9435 78.6876 60.5796 78.7274 59.6108C78.7797 58.4487 78.7424 57.3192 78.7424 56.1922ZM97.1693 57.5175C97.457 57.4986 97.7456 57.4986 98.0334 57.5175C98.8352 57.6229 98.9572 57.2841 98.6758 56.6114C98.2799 55.6777 97.9064 54.7314 97.5079 53.7978C97.4382 53.6346 97.4457 53.3635 97.1394 53.3886C96.8331 53.4137 96.868 53.6095 96.7983 53.8078C96.5667 54.4704 96.3152 55.128 96.0388 55.7706C95.2892 57.5175 95.2818 57.515 97.1718 57.5175H97.1693Z" fill="#EDE9ED"/>
<path d="M98.6533 43.2484C98.6533 42.1215 98.6533 40.9895 98.6533 39.865C98.6533 39.363 98.7131 38.9665 99.363 38.9489C100.013 38.9313 100.242 39.2175 100.235 39.8475C100.215 41.7676 100.262 43.6902 100.207 45.6203C100.182 46.5164 100.518 46.8276 101.368 46.7598C101.943 46.7146 102.528 46.7598 103.111 46.7598C105.541 46.7598 105.536 46.7598 106.482 44.4532C107.082 42.9874 107.712 41.5366 108.312 40.0708C108.584 39.4082 108.937 38.9514 109.749 38.9188C110.618 38.8836 111.019 39.3204 111.316 40.0483C112.063 41.9006 112.882 43.7278 113.624 45.5852C113.96 46.431 114.448 46.8401 115.399 46.7749C116.43 46.7021 117.471 46.7749 118.507 46.7749C119.177 46.7749 119.906 46.8477 120.058 45.9265C120.21 45.0054 119.56 44.7017 118.843 44.4808C117.847 44.1696 116.871 43.8483 115.88 43.5496C114.363 43.0903 113.915 42.3323 114.149 40.5904C114.304 39.4584 114.881 39.0342 116.423 39.0041C117.79 38.979 119.162 39.0041 120.527 39.0041C120.915 39.0041 121.313 39.0041 121.274 39.5689C121.246 40.0407 120.935 40.2014 120.512 40.2039C119.391 40.2039 118.27 40.2239 117.152 40.2214C116.505 40.2214 115.825 40.2214 115.701 41.0447C115.576 41.868 116.219 42.1817 116.881 42.3976C118.024 42.7715 119.169 43.1305 120.3 43.532C121.545 43.9788 121.911 44.7594 121.64 46.4938C121.463 47.6157 120.591 47.9721 119.647 47.9997C117.703 48.0675 115.75 47.9997 113.803 48.0524C113.056 48.07 112.73 47.6559 112.62 47.0485C112.399 45.7935 111.624 45.6354 110.474 45.5927C110.102 45.5604 109.728 45.5604 109.356 45.5927C107.996 45.7533 107.115 45.8437 106.881 47.3095C106.798 47.8416 106.408 48.0399 105.885 48.0349C103.935 48.0198 101.988 48.0349 100.038 48.0173C99.0542 48.0173 98.6184 47.5354 98.6533 46.5339C98.6807 45.422 98.6533 44.3352 98.6533 43.2484ZM110.133 44.5385C110.133 44.5385 111.609 44.5762 111.206 43.4919C110.902 42.6736 110.544 41.878 110.21 41.0698C110.12 40.8514 110.085 40.5201 109.762 40.5979C109.607 40.6356 109.458 40.8665 109.383 41.0422C108.995 41.9608 108.636 42.8895 108.265 43.8182C108.156 44.0993 108.063 44.4432 108.489 44.5009C109.036 44.5494 109.585 44.562 110.133 44.5385Z" fill="#498499"/>
<path d="M62.8329 46.5916C63.4903 44.8096 64.0929 43.3287 64.576 41.7951C64.7254 41.3232 64.952 40.9041 65.1189 40.4498C65.6991 38.856 65.9854 39.0292 67.6737 39.1948C68.5478 39.2676 68.3386 39.5638 68.3386 40.0206C68.3386 42.4427 68.3236 44.8648 68.356 47.2994C68.356 47.9746 68.0198 48.0173 67.5069 48.0348C66.9366 48.0549 66.7922 47.7838 66.8022 47.2818C66.8345 45.6529 66.8495 44.0189 66.8669 42.3975C66.8669 41.8805 66.8669 41.3659 66.8669 40.6857C66.1846 41.0773 66.085 41.5893 65.9157 42.026C65.328 43.532 64.7852 45.0756 64.195 46.5891C63.9311 47.2643 63.7842 48.0649 62.7856 48.0951C61.7497 48.1252 61.6377 47.2994 61.3737 46.6242C60.7412 44.9928 60.1436 43.3488 59.5036 41.7198C59.3791 41.4036 59.3717 40.9668 58.7367 40.7962C58.7367 42.2394 58.7367 43.6249 58.7367 45.0078C58.7367 45.7156 58.7367 46.4285 58.8014 47.1363C58.8537 47.7587 58.6769 48.0298 57.9996 48.0549C57.275 48.08 57.1853 47.7236 57.1878 47.1438C57.1878 44.93 57.1629 42.7163 57.1878 40.5025C57.1878 39.8248 57.138 39.0191 58.1689 38.9137C59.1052 38.8208 59.7402 39.1045 60.0963 40.0532C60.8433 42.026 61.6377 43.9712 62.4196 45.9265C62.5458 46.1553 62.6838 46.3773 62.8329 46.5916Z" fill="#EDE9ED"/>
<path d="M119.312 58.6118C119.312 56.7519 119.292 54.8921 119.326 53.0322C119.326 52.5302 119.023 51.8074 120.074 51.8199C121.027 51.8199 120.875 52.4549 120.878 53.0146C120.878 55.1431 120.863 57.2815 120.878 59.4049C120.878 60.0826 120.773 60.7202 120.074 60.931C119.314 61.1594 118.604 61.0213 118.126 60.2483C116.976 58.4085 115.813 56.5863 114.655 54.754C114.496 54.503 114.466 54.0211 114.005 54.1843C113.661 54.3073 113.788 54.6863 113.788 54.9624C113.788 56.6315 113.788 58.3031 113.813 59.9822C113.813 60.5771 113.699 60.9059 113.002 60.9184C112.304 60.931 112.329 60.5219 112.332 60.0375C112.332 57.8237 112.332 55.6074 112.332 53.3936C112.332 52.7185 112.294 51.9906 113.166 51.7973C114.037 51.6041 114.697 51.9655 115.158 52.716C116.317 54.5432 117.477 56.3721 118.639 58.2027C118.754 58.3665 118.877 58.5241 119.008 58.6746L119.312 58.6118Z" fill="#EDE9ED"/>
<path d="M45.4308 44.7896L48.668 47.8768C47.5923 48.1127 46.7905 48.1002 46.0833 47.3171C45.3213 46.4712 44.4871 45.6881 43.6654 44.8975C43.374 44.6189 43.3939 44.3001 43.4487 43.9764C43.5184 43.5446 43.882 43.5296 44.2157 43.5195C44.5493 43.5095 44.8805 43.5195 45.2117 43.5195C46.6784 43.507 47.0121 43.1907 47.0146 41.8153C47.0146 40.5603 46.6485 40.1713 45.2491 40.1989C41.8426 40.2642 42.2609 39.5789 42.2211 43.2309C42.2211 44.526 42.2211 45.8186 42.2211 47.1138C42.2211 47.5982 42.246 48.0324 41.5438 48.0148C40.9661 47.9973 40.6125 47.9094 40.6274 47.1941C40.6697 44.8599 40.6872 42.5206 40.6623 40.1838C40.6623 39.3731 41.0582 39.0192 41.7505 39.0017C43.4487 38.9565 45.147 38.9389 46.8427 38.9866C47.1784 38.9772 47.5087 39.0737 47.7873 39.2627C48.0659 39.4517 48.2789 39.7237 48.3966 40.0408C48.8341 41.2264 48.8002 42.5367 48.302 43.6978C47.794 44.885 46.646 44.5712 45.4308 44.7896Z" fill="#EDE9ED"/>
<path d="M84.3614 44.6866L87.7081 47.8265C86.7568 48.1152 85.965 48.2055 85.2304 47.3923C84.5381 46.6167 83.7712 45.9089 83.0217 45.1886C82.6357 44.8196 82.3294 44.3879 82.5386 43.8683C82.7278 43.4065 83.2508 43.5521 83.6517 43.5169C83.9007 43.4969 84.1497 43.5169 84.3987 43.5169C85.7832 43.4868 86.1293 43.1078 86.1044 41.6972C86.0845 40.4849 85.4197 40.1762 84.319 40.1913C81.2885 40.2114 81.2885 40.1812 81.2885 43.1781C81.2885 44.5159 81.2462 45.8537 81.2885 47.194C81.3159 47.9144 80.9773 47.9846 80.3896 48.0072C79.7422 48.0323 79.6426 47.7562 79.6426 47.1915C79.6708 44.9359 79.6766 42.677 79.66 40.4147C79.66 39.3956 80.1854 38.9689 81.1142 38.9589C82.6905 38.9438 84.2667 38.9589 85.8455 38.9589C86.1802 38.9437 86.5113 39.0336 86.7932 39.2161C87.0751 39.3986 87.2938 39.6648 87.4192 39.9779C87.6621 40.5374 87.792 41.1401 87.8014 41.7507C87.8108 42.3613 87.6995 42.9677 87.474 43.5345C87.0158 44.7895 85.8156 44.6966 84.3614 44.6866Z" fill="#EDE9ED"/>
<path d="M126.5 60.9185H126.376C122.063 60.9411 120.053 57.7585 121.804 53.7175C122.344 52.4625 123.412 52.0559 124.565 51.9354C126.002 51.7873 127.459 51.8551 128.908 51.8224C129.346 51.8224 129.623 51.963 129.628 52.4575C129.633 52.9519 129.399 53.2104 128.881 53.2104C127.885 53.1954 126.889 53.2104 125.893 53.2104C125.603 53.2041 125.314 53.2167 125.026 53.2481C123.666 53.4188 123.119 54.5457 123.206 56.9628C123.271 58.6921 123.898 59.5154 125.215 59.5882C125.504 59.6033 125.795 59.5882 126.084 59.5882C128.664 59.6033 128.271 59.661 128.268 57.4999C128.268 56.8599 128.353 56.496 129.137 56.5336C129.832 56.5788 130.133 56.7193 130.163 57.5376C130.238 60.8156 130.178 60.9009 126.5 60.9185Z" fill="#EDE9ED"/>
<path d="M31.8699 43.6827C31.8699 42.5557 31.8699 41.4237 31.8699 40.3043C31.8699 39.4333 32.2459 38.9665 33.1149 38.964C34.731 38.964 36.3521 38.964 37.9607 38.964C38.3162 38.95 38.6669 39.0511 38.9613 39.2526C39.2557 39.454 39.4784 39.7452 39.5967 40.0834C40.0464 41.222 40.0338 42.4931 39.5618 43.6224C39.2605 44.3754 38.6256 44.7469 37.7739 44.7243C36.7405 44.6967 35.6972 44.7946 34.6712 44.6892C33.6453 44.5837 33.3639 45.0405 33.4785 45.9617C33.5258 46.3733 33.4586 46.7975 33.4934 47.2167C33.5432 47.8015 33.3341 48.0223 32.7265 48.0349C32.1189 48.0474 31.835 47.8692 31.8599 47.1916C31.9072 46.0244 31.8599 44.8548 31.8599 43.6776L31.8699 43.6827ZM35.5154 43.4844C35.8466 43.4844 36.1778 43.4844 36.5114 43.4844C37.8661 43.4618 38.2545 43.0903 38.2545 41.8052C38.2545 40.6205 37.8437 40.2164 36.5762 40.1964C35.7918 40.1838 35.0074 40.2089 34.2255 40.2139C33.8644 40.2139 33.6179 40.3093 33.5059 40.7285C32.9605 42.7013 33.5133 43.4693 35.5154 43.4844Z" fill="#EDE9ED"/>
<path d="M49.434 43.4918C49.434 42.4075 49.434 41.3232 49.434 40.2289C49.434 39.4759 49.7802 39.004 50.5197 38.9865C52.34 38.9388 54.1603 38.9513 55.9806 38.9388C56.374 38.9388 56.6131 39.0793 56.5807 39.5261C56.5876 39.6198 56.5736 39.7138 56.5396 39.8012C56.5057 39.8887 56.4527 39.9673 56.3846 40.0314C56.3165 40.0955 56.235 40.1433 56.1461 40.1714C56.0572 40.1995 55.9632 40.2072 55.871 40.1938C54.6259 40.1938 53.3809 40.2465 52.1358 40.1762C50.8908 40.1059 51.0352 40.884 50.9729 41.7098C50.8982 42.6836 51.3564 42.8066 52.1433 42.7715C53.2589 42.7238 54.3844 42.7715 55.495 42.7564C55.9532 42.7564 56.4462 42.6761 56.4288 43.3964C56.4114 44.1168 55.8635 43.9612 55.4327 43.9662C54.2748 43.9787 53.1144 44.0038 51.9466 43.9662C51.3141 43.9461 50.8285 44.0365 50.9655 44.8095C51.0925 45.5224 50.4948 46.6644 51.8644 46.7372C53.1443 46.8024 54.4292 46.7372 55.7116 46.7372C56.1947 46.7372 56.633 46.7372 56.6056 47.4324C56.5782 48.1277 56.1076 47.9771 55.7216 47.9796C54.108 47.9796 52.4844 47.9796 50.8808 47.9946C49.8474 48.0097 49.3494 47.5654 49.3867 46.4887C49.4241 45.4847 49.3867 44.4807 49.3867 43.4768L49.434 43.4918Z" fill="#EDE9ED"/>
<path d="M71.8848 42.5306C71.9022 42.0286 71.9246 41.5266 71.9346 41.0246C71.9769 39.0518 72.0691 38.9489 73.9765 38.9413C75.4257 38.9413 76.8775 38.9413 78.3292 38.9413C78.7276 38.9413 79.0762 38.974 79.0538 39.5312C79.0314 40.0332 78.7425 40.1737 78.3217 40.1737C77.0368 40.1737 75.7494 40.2038 74.467 40.1737C73.1846 40.1436 73.6229 41.1099 73.5133 41.7675C73.3813 42.5506 73.7324 42.7991 74.4795 42.7715C75.5951 42.7263 76.7206 42.7514 77.8362 42.7514C78.3217 42.7514 78.9119 42.6259 78.9044 43.404C78.8969 44.1821 78.3093 43.9462 77.8934 43.9537C76.733 43.9738 75.5701 44.0039 74.4073 43.9537C73.6602 43.9186 73.4112 44.2398 73.5283 44.9024C73.6453 45.5651 73.0004 46.6594 74.3425 46.7272C75.6249 46.7899 76.9123 46.7272 78.1972 46.7272C78.6131 46.7272 79.0414 46.672 79.0737 47.312C79.1111 48.0499 78.623 47.9671 78.1648 47.9671H73.8171C72.1338 47.9671 71.9545 47.7889 71.9271 46.1223C71.9271 45.914 71.9147 45.7031 71.9097 45.4973C71.7917 44.5124 71.7833 43.5173 71.8848 42.5306Z" fill="#EDE9ED"/>
<path d="M125.272 47.9696C124.443 47.9696 123.614 47.9696 122.782 47.9696C122.396 47.9696 122.015 47.9445 122.053 47.3798C122.083 46.9104 122.332 46.7398 122.78 46.7423C124.025 46.7423 125.27 46.7573 126.515 46.7423C127.09 46.7423 127.733 46.7573 127.887 45.9893C128.054 45.1485 127.541 44.767 126.851 44.536C125.87 44.2072 124.894 43.8584 123.9 43.5722C122.406 43.1455 121.744 42.2244 121.908 40.726C122.048 39.5488 122.822 38.9866 124.349 38.969C125.633 38.969 126.918 38.969 128.201 38.969C128.614 38.969 129.072 38.9062 129.09 39.5413C129.107 40.1763 128.686 40.1738 128.251 40.1763C127.13 40.1763 126.01 40.1938 124.894 40.1763C124.187 40.1763 123.582 40.4273 123.507 41.1326C123.442 41.7877 124.005 42.1139 124.605 42.3072C125.785 42.6887 126.968 43.0602 128.131 43.4994C129.376 43.9588 129.782 44.8874 129.481 46.4637C129.257 47.6308 128.412 47.9696 127.377 47.9897C126.672 48.0098 125.97 47.9897 125.265 47.9897L125.272 47.9696Z" fill="#498499"/>
<path d="M95.3813 47.9746C94.6343 47.947 93.7727 48.0223 92.9086 47.7989C91.4693 47.4274 90.5903 46.4912 90.528 45.038C90.4907 44.1625 90.5106 43.2854 90.5878 42.4126C90.7571 40.4297 91.7706 38.8535 94.2782 38.9489C95.0626 38.979 95.8544 38.9137 96.6388 38.9489C97.1069 38.979 97.854 38.6326 97.8963 39.5111C97.9411 40.4423 97.1667 40.0834 96.7085 40.121C95.9615 40.1812 95.2144 40.121 94.4674 40.1787C93.3543 40.2565 92.6173 40.8112 92.3657 41.9608C92.1643 42.9428 92.1465 43.9541 92.3135 44.9426C92.4977 46.1323 93.3369 46.6142 94.4201 46.6996C95.2443 46.7648 96.076 46.7272 96.9102 46.7196C97.458 46.7196 98.0781 46.6443 98.0457 47.455C98.0158 48.208 97.3908 47.9119 96.9949 47.957C96.5018 48.0097 96.0013 47.9746 95.3813 47.9746Z" fill="#498499"/>
<path d="M111.068 60.9611C109.8 61.1393 109.589 60.4967 109.621 59.4375C109.691 57.2313 109.646 55.0226 109.636 52.8138C109.636 52.2089 109.691 51.7747 110.49 51.7923C111.29 51.8098 111.304 52.2441 111.307 52.8489C111.317 55.5471 111.332 58.2453 111.068 60.9611Z" fill="#EDE9ED"/>
<path d="M70.937 43.6199C70.937 44.8271 70.917 46.0369 70.937 47.2442C70.9519 47.8566 70.6879 48.0223 70.1227 47.9972C69.5574 47.9721 69.291 47.8642 69.296 47.2291C69.3175 44.7292 69.3175 42.2293 69.296 39.7294C69.296 39.1045 69.5699 38.9589 70.1227 38.9564C70.6755 38.9539 70.9693 39.1195 70.9594 39.732C70.937 41.0246 70.9594 42.3147 70.9594 43.6073L70.937 43.6199Z" fill="#EDE9ED"/>
<defs>
<filter id="filter0_i_726_5226" x="9.03027" y="32.2391" width="62.3926" height="41.6807" filterUnits="userSpaceOnUse" color-interpolation-filters="sRGB">
<feFlood flood-opacity="0" result="BackgroundImageFix"/>
<feBlend mode="normal" in="SourceGraphic" in2="BackgroundImageFix" result="shape"/>
<feColorMatrix in="SourceAlpha" type="matrix" values="0 0 0 0 0 0 0 0 0 0 0 0 0 0 0 0 0 0 127 0" result="hardAlpha"/>
<feOffset dx="-2"/>
<feGaussianBlur stdDeviation="2"/>
<feComposite in2="hardAlpha" operator="arithmetic" k2="-1" k3="1"/>
<feColorMatrix type="matrix" values="0 0 0 0 0.795833 0 0 0 0 0.795833 0 0 0 0 0.795833 0 0 0 0.25 0"/>
<feBlend mode="normal" in2="shape" result="effect1_innerShadow_726_5226"/>
</filter>
</defs>
</svg>
