<svg width="140" height="100" viewBox="0 0 140 100" fill="none" xmlns="http://www.w3.org/2000/svg">
<path d="M69.5844 73.1316C69.6856 72.6739 69.7665 72.3262 69.8373 71.9773C69.9119 71.6069 70.123 71.2681 69.6085 70.9457C69.2899 70.7472 69.482 70.2542 69.7349 70.0026C70.0914 69.6537 69.9043 69.555 69.5781 69.4135C68.0341 68.7434 66.4934 68.0654 64.9561 67.3793C64.6097 67.2263 64.2671 67.0645 63.9308 66.8913C63.0142 66.4236 62.9713 66.3414 63.4137 65.3907C63.8132 64.5323 64.2684 63.7004 64.6931 62.8534C64.7563 62.727 64.8916 62.579 64.7968 62.4488C64.6818 62.2908 64.4883 62.3831 64.329 62.4172C63.8651 62.5171 63.4934 62.7965 63.0989 63.0392C61.7854 63.8572 61.0446 64.9583 60.9498 66.5652C60.8764 67.8205 60.6236 69.0671 60.6072 70.3338C60.6072 70.5424 60.5831 70.7447 60.7664 70.9141C62.0471 72.0936 62.4226 73.7548 63.1786 75.3629H59.3998C59.1154 75.3629 59.1735 75.2036 59.2279 75.0292C59.5212 74.0936 59.5136 73.1202 59.6072 72.1568C59.6489 71.7068 59.5414 71.4577 59.0635 71.5032C58.439 71.5614 58.3568 71.2188 58.3568 70.7004C58.3568 69.7143 58.5578 68.8142 59.2898 68.1075C59.5022 67.9027 59.5098 67.6751 59.5085 67.4198C59.501 65.8825 59.5174 64.3439 59.4807 62.8079C59.4693 62.3237 59.592 61.9444 60.0319 61.7838C61.4979 61.2626 62.7746 60.3152 63.6982 59.0632C64.1912 58.4058 64.3303 58.469 63.6514 57.9583C62.9384 57.4222 62.8575 56.6511 62.7968 55.8748C62.7579 55.2005 62.8231 54.5242 62.9902 53.8698C63.0635 53.5499 62.9725 53.4905 62.6514 53.4905C60.5149 53.4905 59.0269 54.6599 57.7702 56.2073C57.219 56.8862 57.415 57.4109 58.2418 57.7029C59.0686 57.9949 59.9422 57.9494 60.8044 57.9621C61.0041 57.9621 61.2646 57.8812 61.2936 58.1972C61.3227 58.5133 61.6059 58.8395 61.2292 59.1214C61.0964 59.2212 60.908 59.2895 60.8752 59.4652C60.731 60.2427 60.1027 60.5411 59.4959 60.8116C58.6527 61.1909 58.2443 61.9608 57.8752 62.6814C57.3252 63.7548 56.5237 63.8723 55.4858 63.7219C52.4339 63.282 50.7866 60.9128 51.4744 57.9065C52.3593 54.0506 55.3935 51.5297 59.5136 51.2465C60.839 51.1514 62.1711 51.2343 63.4744 51.493C63.788 51.5562 64.0231 51.5765 64.1786 51.201C64.5275 50.3527 65.2228 49.8976 66.0914 49.7092C66.9333 49.5271 67.7892 49.407 68.6312 49.2212C70.9157 48.7155 72.3177 47.2553 73.056 45.091C73.12 44.8727 73.2047 44.661 73.3089 44.4589C73.3898 44.3198 73.4783 44.1807 73.3455 44.0695C73.1913 43.943 73.0257 44.0353 72.9157 44.1744C72.5465 44.6447 72.1837 45.1213 71.8209 45.5967C71.5528 45.9481 71.2937 46.3072 71.0155 46.6498C70.9018 46.7888 70.7627 46.9797 70.5453 46.8457C70.3556 46.7307 70.3771 46.5284 70.4112 46.3337C70.5162 45.7256 70.7905 45.1757 70.9827 44.5967C71.0522 44.3855 71.2279 44.1049 71.0118 43.9544C70.7956 43.804 70.6059 44.0808 70.4302 44.2161C70.2115 44.3817 70.0092 44.5676 69.7981 44.7345C69.6717 44.8331 69.5263 44.9873 69.3531 44.8482C69.2014 44.7218 69.2456 44.5486 69.2962 44.3805C69.4972 43.7054 69.9182 43.1428 70.2229 42.5208C70.3733 42.2148 70.7576 41.8419 70.4871 41.5701C70.2166 41.2983 69.8487 41.6902 69.5465 41.847C69.1369 42.0593 68.745 42.3097 68.3341 42.5208C68.1369 42.6232 67.9018 42.7547 67.702 42.5372C67.5023 42.3198 67.6198 42.0947 67.702 41.8836C67.9283 41.3286 68.324 40.8874 68.7033 40.4361C69.1091 39.9519 69.5212 39.474 69.9169 38.9835C70.0016 38.8785 70.1281 38.7471 70.032 38.5878C69.922 38.407 69.7286 38.4373 69.5756 38.4892C69.2165 38.608 68.8701 38.7622 68.5162 38.8975C68.3986 38.9418 68.2633 38.9822 68.1584 38.8849C68.0219 38.7584 68.08 38.6131 68.1382 38.4778C68.3042 38.0863 68.5734 37.7473 68.9169 37.4967C70.4896 36.3425 71.1458 34.852 71.0244 32.8709C70.9435 31.546 71.8095 30.503 72.769 29.6396C73.0649 29.3728 73.2204 29.1415 73.2065 28.7432C73.2059 28.3646 73.2402 27.9867 73.3089 27.6143C73.3405 27.4057 73.4353 27.1908 73.6654 27.1339C73.8955 27.077 74.0446 27.2603 74.1774 27.4284C74.4107 27.7308 74.5559 28.0917 74.5971 28.4714C74.635 28.8039 74.7981 28.9152 75.0965 28.857C76.4226 28.6042 77.4075 29.1225 78.161 30.1819C78.3645 30.4689 78.6768 30.5119 78.9827 30.5953C80.3936 30.9746 81.7451 31.4967 82.8955 32.4322C83.3848 32.8292 83.2672 32.9518 82.9031 33.4082C81.9385 34.6181 80.6085 34.187 79.4151 34.2717C78.7678 34.3172 78.257 34.3564 77.9435 35.0037C77.8651 35.1655 77.7551 35.2426 77.9081 35.4158C79.0763 36.7306 79.7008 38.3526 80.4265 39.9152C80.5242 40.1468 80.6728 40.3533 80.8614 40.5195C81.9777 41.4588 82.6136 42.7104 83.1167 44.0417C83.4366 44.8874 83.7236 45.7471 84.0358 46.5954C84.2621 47.2111 84.5845 47.2844 85.0611 46.8482C85.7893 46.1833 87.3848 46.3426 87.9524 47.1441C89.6756 49.5853 91.4126 52.0189 92.7729 54.6928C92.8108 54.7686 92.8349 54.8786 92.8993 54.909C94.0561 55.4728 93.6465 56.5828 93.8033 57.4918C93.845 57.7345 93.7097 57.8255 93.4708 57.8243C92.692 57.8243 91.912 57.8243 91.1332 57.847C90.8209 57.8571 90.7767 57.7092 90.8172 57.4678C90.9436 56.6751 90.8563 55.8167 91.4783 55.1656C91.6288 55.0076 91.448 54.9532 91.3772 54.8824C90.3949 53.914 89.668 52.7497 88.8816 51.6321C88.3506 50.8735 88.0207 50.8963 87.6073 51.7421C87.1711 52.6359 86.9903 53.6182 86.6705 54.5537C86.4417 55.2212 86.1648 55.7762 85.362 55.9026C84.8373 55.9836 84.6781 56.4956 84.5188 56.9241C84.3759 57.3123 84.1648 57.4399 83.7602 57.354C83.3911 57.2756 83.008 57.2693 82.6313 57.2276C81.8563 57.134 81.8361 57.1264 82.0232 56.3426C82.3241 55.0897 81.9954 55.3426 83.2874 55.0986C83.7097 55.0177 84.1964 55.0316 84.3178 54.4526C84.3405 54.3489 84.4113 54.2263 84.3178 54.1656C83.7286 53.8002 84.1913 53.493 84.3797 53.2035C84.788 52.5916 85.2368 52.0076 85.6515 51.3995C85.7653 51.2339 85.9044 51.005 85.7109 50.8242C85.5175 50.6435 85.3165 50.8445 85.1635 50.9633C84.1951 51.7218 83.4176 52.6675 82.5592 53.5335C82.1117 53.9861 81.6743 54.4298 80.9916 54.5221C80.2583 54.6232 79.8146 54.4463 79.4985 53.7762C79.3455 53.4513 79.2457 53.5423 79.0573 53.6978C77.1508 55.2592 75.0573 56.493 72.7172 57.2857C72.3999 57.3932 72.3657 57.5879 72.3771 57.8609C72.4087 58.6195 72.4049 59.378 72.4643 60.1366C72.4924 60.3309 72.4668 60.5292 72.3901 60.7099C72.3134 60.8907 72.1887 61.047 72.0295 61.1618C70.5351 62.3945 69.075 63.6688 67.5832 64.904C67.2279 65.1973 67.2178 65.3667 67.5832 65.6524C68.2216 66.1454 68.9359 66.5032 69.6274 66.904C70.5933 67.4628 71.2115 68.2681 71.8373 69.2175C72.525 70.2618 72.2684 71.3136 72.5225 72.3389C72.5769 72.5551 72.5566 72.7472 72.2494 72.7864C71.3847 72.8737 70.5351 73.0001 69.5844 73.1316Z" fill="#794430"/>
<path d="M74.9622 83.3554C74.4995 83.3554 74.0318 83.3125 73.5716 83.3668C72.9395 83.4427 72.7473 83.229 72.7739 82.583C72.7953 82.0609 72.923 81.9041 73.4452 81.9269C74.411 81.9673 75.3807 81.942 76.3529 81.9344C76.6044 81.927 76.8552 81.9038 77.1038 81.8649C77.3719 81.8282 77.4957 81.6727 77.5033 81.3921C77.5122 81.0836 77.3769 80.9205 77.0849 80.8662C76.521 80.7612 75.9471 80.8194 75.3858 80.8068C74.8396 80.7941 74.2922 80.8396 73.7562 80.6803C73.1354 80.4983 72.7966 80.1064 72.8004 79.4439C72.8004 79.2126 72.8004 78.9812 72.8004 78.7498C72.8004 77.5653 73.1999 77.095 74.4022 77.0406C75.6045 76.9862 76.8421 77.0267 78.0621 77.0115C78.3377 77.0115 78.4414 77.1 78.4237 77.3744C78.4027 77.5846 78.4027 77.7963 78.4237 78.0065C78.4641 78.344 78.3263 78.4389 78.0002 78.4351C76.8851 78.4199 75.7701 78.4237 74.655 78.4351C74.4199 78.4351 74.1278 78.3769 73.9863 78.6639C73.8067 79.0267 74.0191 79.3744 74.4351 79.382C75.2126 79.3971 75.9926 79.3681 76.7701 79.3997C78.4237 79.4692 79.2985 81.1203 78.4338 82.5425C78.1089 83.0786 77.559 83.2682 76.9812 83.3011C76.3124 83.3466 75.6373 83.3124 74.9648 83.3124L74.9622 83.3554Z" fill="#273657"/>
<path d="M102.174 80.808C102.174 80.2201 102.174 79.631 102.174 79.038C102.187 77.8509 102.959 77.0039 104.148 76.9268C104.798 76.8819 105.451 76.8819 106.102 76.9268C107.336 77.0165 108.136 77.9015 108.141 79.1354C108.146 80.3693 108.111 81.5754 108.153 82.7928C108.169 83.3086 107.892 83.2479 107.569 83.2593C107.215 83.2707 106.978 83.2593 106.993 82.7764C107.009 82.2934 107.246 81.6815 106.878 81.411C106.578 81.186 105.993 81.344 105.527 81.3402C104.938 81.3402 104.349 81.3528 103.757 81.3314C103.412 81.3174 103.251 81.411 103.283 81.7852C103.309 82.0558 103.283 82.3314 103.283 82.6057C103.283 83.1936 102.858 83.4742 102.321 83.2505C102.097 83.1569 102.172 82.9723 102.169 82.8219C102.17 82.1544 102.175 81.4818 102.174 80.808ZM105.11 79.923C105.615 79.923 106.115 79.923 106.618 79.923C106.796 79.923 106.974 79.9673 107.02 79.6702C107.131 78.942 106.767 78.4059 106.029 78.3667C105.465 78.3351 104.899 78.3592 104.332 78.3566C103.991 78.3566 103.738 78.5336 103.509 78.7587C103.216 79.0469 103.236 79.4325 103.326 79.7625C103.416 80.0924 103.754 79.8965 103.98 79.9129C104.354 79.9445 104.733 79.9243 105.11 79.9243V79.923Z" fill="#283757"/>
<path d="M49.0535 80.928C49.0535 81.6006 49.0283 82.2757 49.0624 82.9508C49.0877 83.4464 48.7716 83.3541 48.4872 83.3566C48.2027 83.3591 47.8942 83.4426 47.917 82.9483C47.9398 82.4539 48.1332 81.8408 47.8285 81.5576C47.4973 81.2453 46.8652 81.4881 46.3658 81.4565C46.1774 81.4451 45.9865 81.4565 45.7981 81.4565C45.2925 81.4653 44.6603 81.2921 44.3253 81.5349C43.9587 81.8016 44.1989 82.4767 44.2128 82.9672C44.2267 83.4577 43.8993 83.3465 43.6287 83.3617C43.3367 83.3718 43.0497 83.4337 43.0598 82.9483C43.0902 81.6448 43.0598 80.3414 43.0801 79.038C43.1003 77.9343 43.893 77.1252 45.0447 77.0418C45.695 76.9975 46.3476 76.9975 46.9979 77.0418C48.2394 77.1227 49.0308 77.9862 49.0497 79.234C49.0586 79.8016 49.0497 80.3718 49.0497 80.9369L49.0535 80.928ZM46.0308 80.0355C46.5365 80.0355 47.0421 80.0355 47.539 80.0355C47.6983 80.0355 47.9183 80.0848 47.9284 79.8408C47.9499 79.4615 47.9928 79.0823 47.6844 78.7776C47.1332 78.2289 44.9726 78.2656 44.4378 78.8433C44.3626 78.9169 44.2998 79.0023 44.252 79.0962C43.9852 79.6764 44.2103 80.0355 44.8361 80.0367L46.0308 80.0355Z" fill="#263455"/>
<path d="M86.0105 80.98C86.0105 81.6323 85.9839 82.2872 86.0193 82.9383C86.0459 83.4263 85.7437 83.3592 85.4517 83.3517C85.1596 83.3441 84.8512 83.4503 84.8727 82.9496C84.8929 82.473 85.0901 81.8308 84.7905 81.559C84.4365 81.2328 83.7879 81.4755 83.2671 81.4553C82.7462 81.4351 82.2557 81.4895 81.75 81.4401C81.2203 81.3871 81.0825 81.6058 81.1457 82.0798C81.1735 82.2872 81.1242 82.5046 81.1558 82.712C81.2342 83.2379 81.0294 83.3946 80.5047 83.3769C80.0913 83.363 80.0243 83.2227 80.0307 82.8586C80.0509 81.6374 80.0307 80.4149 80.0408 79.1924C80.0471 77.9281 80.8461 77.0874 82.1027 77.0293C82.6919 77.0014 83.2835 77.004 83.8727 77.0293C85.1609 77.0874 86.0003 77.98 86.0092 79.2783C86.0143 79.8422 86.0105 80.4111 86.0105 80.98ZM82.9978 80.0356C83.396 80.0356 83.7955 80.0546 84.1912 80.0356C84.4201 80.0217 84.7728 80.186 84.8524 79.8927C84.9472 79.5451 84.9789 79.1342 84.6767 78.8245C84.478 78.6021 84.2004 78.4661 83.903 78.4452C83.3384 78.4123 82.7723 78.4123 82.2077 78.4452C81.5515 78.4907 81.1432 78.9863 81.1343 79.6095C81.1343 79.9205 81.2039 80.071 81.5528 80.052C82.0281 80.0154 82.5161 80.0343 82.9978 80.0356Z" fill="#253556"/>
<path d="M37.8278 81.9382C39.0238 81.9382 40.1135 81.9521 41.202 81.9306C41.5636 81.9231 41.7368 82.0495 41.642 82.3908C41.5472 82.7322 41.9631 83.3112 41.3272 83.3327C39.6015 83.3896 37.8721 83.3643 36.1439 83.344C35.6281 83.3377 35.4233 82.8687 35.6382 82.3137C35.7444 82.047 35.9656 81.8775 36.1616 81.6892C37.2501 80.6437 38.3411 79.6019 39.5674 78.4287C38.3727 78.4287 37.3512 78.4363 36.331 78.4224C36.1198 78.4224 35.7734 78.5602 35.7166 78.296C35.6532 77.9013 35.6562 77.4988 35.7254 77.1051C35.7444 76.9635 35.9782 77.0166 36.1249 77.0166C37.7465 77.0166 39.3685 77.0166 40.9909 77.0166C41.3133 77.0166 41.6458 77.0166 41.7785 77.3959C41.9113 77.7751 41.7482 78.1026 41.4789 78.3643C40.5876 79.2303 39.685 80.0836 38.7912 80.9471C38.4953 81.2378 38.2096 81.5463 37.8278 81.9382Z" fill="#253556"/>
<path d="M71.4512 80.2075C71.4512 80.65 71.4512 81.0924 71.4512 81.5324C71.4512 82.6095 71.0416 83.1468 69.9771 83.2909C68.9971 83.4294 68.0026 83.4294 67.0226 83.2909C65.8848 83.1228 65.4739 82.5905 65.4727 81.4603C65.4727 80.5362 65.4727 79.6108 65.4727 78.6866C65.479 77.8231 65.8216 77.3174 66.661 77.1518C67.8805 76.9116 69.1354 76.9142 70.3538 77.1594C71.0972 77.3073 71.4335 77.8017 71.4474 78.5703C71.4588 79.1152 71.4512 79.6613 71.4512 80.2075ZM70.3349 80.1961C70.3349 79.8168 70.321 79.4376 70.3349 79.0583C70.35 78.7245 70.2085 78.5349 69.8861 78.4944C68.9473 78.3794 67.998 78.3794 67.0593 78.4944C66.7356 78.5336 66.5928 78.7119 66.5991 79.0494C66.6143 79.7637 66.6345 80.4805 66.5991 81.1986C66.5675 81.7397 66.8342 81.9205 67.2995 81.9319C67.9501 81.9471 68.6012 81.9513 69.2527 81.9445C70.2805 81.9357 70.3349 81.8737 70.3349 80.832V80.1961Z" fill="#283758"/>
<path d="M100.687 80.1734C100.687 80.6993 100.673 81.2239 100.687 81.7499C100.709 82.4566 100.383 82.9597 99.727 83.1317C98.3895 83.4819 97.0254 83.5261 95.6942 83.1089C94.9356 82.87 94.7232 82.4856 94.7207 81.6841C94.7207 80.6727 94.7207 79.6639 94.7207 78.6576C94.7207 77.8131 95.0443 77.3339 95.8661 77.1607C97.0836 76.9104 98.3391 76.9079 99.5576 77.1531C100.353 77.3074 100.669 77.7852 100.679 78.5969C100.679 79.1228 100.679 79.6475 100.679 80.1734H100.687ZM95.8636 80.1734C95.8636 80.5526 95.8851 80.9319 95.8636 81.3112C95.8421 81.6905 95.99 81.8738 96.344 81.9028C97.2636 81.98 98.188 81.98 99.1076 81.9028C99.4742 81.8712 99.5817 81.65 99.5703 81.296C99.5475 80.583 99.5387 79.8674 99.5703 79.1557C99.5943 78.6854 99.3819 78.497 98.9584 78.4831C98.3098 78.4603 97.66 78.4414 97.0102 78.4439C95.9028 78.4439 95.8724 78.4945 95.8724 79.6158C95.8648 79.7916 95.8648 79.9812 95.8636 80.1696V80.1734Z" fill="#273657"/>
<path d="M31.6749 80.1911C31.6749 80.6968 31.6749 81.2025 31.6749 81.7082C31.6749 82.5034 31.4005 82.9724 30.6458 83.1646C29.3786 83.4947 28.0474 83.4903 26.7823 83.152C25.9517 82.9257 25.7102 82.4908 25.709 81.6033C25.709 80.6147 25.709 79.6273 25.709 78.6387C25.709 77.8561 26.0111 77.3744 26.7532 77.1937C28.027 76.9002 29.3499 76.8929 30.6268 77.1722C31.3399 77.3176 31.6546 77.8144 31.6711 78.5514C31.6711 78.8245 31.6711 79.0976 31.6711 79.3719L31.6749 80.1911ZM26.8544 80.1532C26.8708 80.5096 26.8683 80.8666 26.8468 81.2228C26.7962 81.6867 27.0073 81.9029 27.4347 81.9105C28.2724 81.9265 29.111 81.9265 29.9505 81.9105C30.3639 81.9016 30.5826 81.7095 30.5598 81.2341C30.5219 80.5427 30.5219 79.8497 30.5598 79.1583C30.5851 78.6968 30.393 78.4971 29.9669 78.4642C29.1306 78.4048 28.2912 78.4048 27.4549 78.4642C27.0377 78.4908 26.8025 78.6804 26.8506 79.1494C26.8688 79.4837 26.8701 79.8188 26.8544 80.1532Z" fill="#283556"/>
<path d="M92.2261 80.9925C92.2261 79.8257 92.2552 78.6676 92.2135 77.5121C92.1945 76.9837 92.4664 77.0216 92.8292 77.0064C93.2426 76.9837 93.3678 77.1152 93.3614 77.5336C93.3399 79.1948 93.3526 80.8573 93.3538 82.5197C93.3538 82.8434 93.3425 83.1797 93.01 83.3402C92.6307 83.5223 92.436 83.1923 92.2224 82.9787C91.168 81.9218 90.1225 80.8547 89.0618 79.7966C88.9215 79.655 88.8191 79.459 88.5106 79.3845C88.5106 80.5223 88.4929 81.6209 88.5182 82.7233C88.5295 83.1721 88.4689 83.3832 87.9252 83.3819C87.4031 83.3819 87.3614 83.1847 87.3677 82.7587C87.3892 81.1392 87.3766 79.5185 87.3778 77.899C87.3778 77.5576 87.3652 77.1847 87.747 77.0343C88.1288 76.8838 88.3134 77.2201 88.5333 77.4312C89.7609 78.6057 90.9784 79.7865 92.2261 80.9925Z" fill="#283758"/>
<path d="M53.6183 81.2214C54.1644 80.1569 54.7712 79.1202 55.2377 78.0241C55.6006 77.1758 56.0898 76.7827 57.0747 77.0886C56.5867 78.0368 56.0924 78.9989 55.5968 79.9597C55.0746 80.971 54.5652 81.9824 54.0215 82.9786C53.7282 83.5185 53.3894 83.5678 53.1366 83.0874C52.0898 81.1063 51.086 79.1025 50.0557 77.0835C51.3085 76.9141 51.3085 76.9141 51.8091 77.8952C52.3098 78.8762 52.7978 79.8446 53.2997 80.8168C53.3768 80.9584 53.4046 81.1442 53.6183 81.2214Z" fill="#2A3757"/>
<path d="M61.4332 77.0128C62.255 77.0128 63.0767 77.0317 63.8985 77.0052C64.2841 76.9925 64.4484 77.1013 64.3941 77.4982C64.3726 77.6661 64.3726 77.836 64.3941 78.0039C64.432 78.325 64.3283 78.4578 63.9807 78.4363C63.4977 78.4072 63.011 78.4552 62.5281 78.4211C62.0932 78.3895 61.9465 78.5223 61.9566 78.9761C61.987 80.2606 61.944 81.5463 61.9794 82.8307C61.992 83.3111 61.8049 83.3668 61.3966 83.3706C60.9882 83.3744 60.815 83.2947 60.8289 82.827C60.8656 81.5855 60.8074 80.3402 60.8567 79.1C60.8808 78.5147 60.6785 78.363 60.1425 78.4211C59.7632 78.4628 59.3776 78.3819 59.0046 78.4413C58.2979 78.5551 58.4307 78.0949 58.3978 77.6828C58.3586 77.191 58.4673 76.966 59.0299 77.0039C59.8264 77.0558 60.6292 77.0166 61.432 77.0166L61.4332 77.0128Z" fill="#283757"/>
<path d="M112.344 77.0128C113.185 77.0128 114.027 77.0343 114.872 77.0039C115.278 76.9887 115.398 77.1303 115.35 77.5096C115.329 77.6978 115.329 77.8878 115.35 78.076C115.379 78.3592 115.254 78.4401 114.988 78.4325C114.462 78.4186 113.934 78.4515 113.411 78.4198C113.021 78.3958 112.905 78.5222 112.917 78.9116C112.94 80.2163 112.892 81.5223 112.942 82.8307C112.963 83.3946 112.673 83.3364 112.298 83.3718C111.843 83.4098 111.792 83.2024 111.801 82.8269C111.82 81.5438 111.789 80.2593 111.819 78.9761C111.83 78.526 111.681 78.392 111.252 78.4072C110.77 78.4236 110.285 78.3617 109.802 78.3731C109.476 78.3807 109.335 78.282 109.371 77.9445C109.393 77.7564 109.393 77.5663 109.371 77.3781C109.327 77.0178 109.464 76.9053 109.825 76.9154C110.666 76.9407 111.508 76.923 112.354 76.923L112.344 77.0128Z" fill="#2A3757"/>
<path d="M60.6373 87.6854V87.0533C60.6373 85.6867 60.6373 85.6854 62.038 85.6854C62.7119 85.6854 63.3857 85.6943 64.0608 85.6854C64.3275 85.6854 64.4982 85.7322 64.5045 86.0647C64.5109 86.3972 64.3554 86.4907 64.0444 86.4857C63.2656 86.4718 62.4868 86.4857 61.7068 86.4857C61.411 86.4857 61.234 86.5527 61.2289 86.9029C61.2239 87.2531 61.3996 87.3226 61.698 87.3175C62.2036 87.3062 62.7093 87.2948 63.215 87.3277C63.4679 87.3454 63.8914 87.114 63.899 87.6867C63.9066 88.2923 63.4653 88.0736 63.1822 88.0913C62.6992 88.1203 62.2138 88.1102 61.7296 88.0913C61.4009 88.0799 61.2239 88.1557 61.2239 88.5401C61.2239 88.9244 61.4464 88.9749 61.7523 88.9712C62.5109 88.9712 63.2694 88.9712 64.0279 88.9712C64.3174 88.9712 64.5033 89.0103 64.5045 89.377C64.5058 89.7436 64.3275 89.7878 64.0342 89.7853C63.0658 89.7765 62.0962 89.7676 61.1265 89.7853C60.7321 89.7954 60.6095 89.65 60.6208 89.2708C60.6461 88.7461 60.6272 88.2189 60.6272 87.6918L60.6373 87.6854Z" fill="#CC446B"/>
<path d="M82.1922 85.6981C82.5714 85.6981 82.9507 85.6981 83.33 85.6981C83.5992 85.6981 83.7585 85.7625 83.7535 86.0875C83.7484 86.4124 83.6132 86.4832 83.33 86.4794C82.6144 86.4705 81.8976 86.4794 81.1808 86.4794C80.7016 86.4794 80.4538 86.6614 80.4728 87.2012C80.5385 89.1102 80.1138 88.9712 82.2705 88.9573C82.6207 88.9573 83.1466 89.2101 83.1492 88.4452C83.1492 87.8839 82.9924 87.6867 82.4362 87.7562C82.1049 87.7992 81.7623 87.7487 81.4248 87.7676C81.0872 87.7866 81.0354 87.6146 81.0367 87.3428C81.0379 87.071 81.153 86.9737 81.4159 86.9787C82.0265 86.9901 82.6372 86.9787 83.2478 86.9787C83.5563 86.9787 83.7143 87.1317 83.7333 87.4364C83.7378 87.4784 83.7378 87.5208 83.7333 87.5628C83.6308 88.2619 84.0999 89.2354 83.3072 89.5856C82.402 89.9939 81.3312 89.8928 80.3502 89.5755C80.0063 89.4629 79.8799 89.1292 79.8799 88.7613C79.8799 88.109 79.8799 87.4554 79.8799 86.803C79.8799 86.1507 80.1391 85.8333 80.7977 85.7449C81.2554 85.6842 81.7219 85.6943 82.1884 85.6728L82.1922 85.6981Z" fill="#CC4268"/>
<path d="M71.828 85.6841C72.1858 85.6841 72.5436 85.6955 72.9013 85.6841C73.1946 85.6715 73.3147 85.7739 73.3097 86.0836C73.3046 86.3934 73.1833 86.4844 72.89 86.4793C72.2806 86.4667 71.67 86.4667 71.0606 86.4869C70.8078 86.4945 70.3931 86.3706 70.3779 86.7259C70.3615 87.1279 70.7863 86.9547 71.024 86.9724C71.4627 87.004 71.9089 86.9724 72.3476 87.0015C73.1163 87.0621 73.3994 87.3491 73.4298 88.0381C73.4854 89.248 73.3211 89.6209 72.4955 89.7132C71.67 89.8055 70.8166 89.7638 69.9772 89.7701C69.6434 89.7701 69.7243 89.5173 69.7079 89.3112C69.6927 89.0811 69.7749 88.9597 70.0278 88.9623C70.7218 88.9699 71.4184 88.9623 72.1099 88.9623C72.4892 88.9623 72.8179 88.9395 72.8356 88.4111C72.8533 87.8826 72.5322 87.779 72.1163 87.7701C71.6106 87.7575 71.1049 87.7802 70.5992 87.7372C69.8798 87.6753 69.6889 87.4237 69.7028 86.6551C69.7142 86.0229 69.9418 85.7701 70.627 85.7233C71.024 85.6955 71.4247 85.7233 71.8242 85.7233L71.828 85.6841Z" fill="#CC4268"/>
<path d="M69.0384 88.1747C69.0384 88.5123 69.0535 88.8498 69.0384 89.1861C69.0245 89.4073 69.1762 89.7449 68.7602 89.7639C68.3443 89.7828 68.4733 89.4465 68.4492 89.219C68.4409 89.1349 68.4409 89.0502 68.4492 88.9661C68.4859 88.6159 68.3405 88.4693 67.9815 88.4819C67.4555 88.5097 66.9284 88.5097 66.4025 88.4819C65.9448 88.4503 65.7198 88.5767 65.7994 89.0685C65.8077 89.1948 65.8077 89.3215 65.7994 89.4478C65.7994 89.6475 65.7375 89.7676 65.5124 89.7651C65.314 89.7651 65.185 89.7057 65.1875 89.4819C65.1989 88.5565 65.1875 87.6298 65.2318 86.7006C65.2444 86.377 65.4669 86.1241 65.7451 85.9421C66.3076 85.5717 67.9208 85.5894 68.4808 85.9699C68.6519 86.0761 68.7932 86.2238 68.8918 86.3993C68.9904 86.5748 69.043 86.7724 69.0447 86.9737C69.0434 87.3745 69.0371 87.7752 69.0384 88.1747ZM67.1167 87.7272C67.3457 87.7424 67.5755 87.7424 67.8045 87.7272C68.0358 87.6956 68.3961 87.9092 68.4429 87.4579C68.4821 87.0786 68.4214 86.6994 68.0194 86.5729C67.4578 86.3995 66.858 86.3925 66.2925 86.5527C65.8879 86.6627 65.7248 87.0255 65.7868 87.4516C65.8601 87.9269 66.2394 87.6842 66.4872 87.7259C66.6966 87.7443 66.9072 87.7447 67.1167 87.7272Z" fill="#CC446B"/>
<path d="M70.4428 8.27154C70.0951 8.5168 69.7613 8.76838 69.4086 8.99342C69.2316 9.1072 69.0723 9.38406 68.8119 9.18558C68.5515 8.9871 68.7424 8.75827 68.8031 8.55347C69.1697 7.3082 69.1697 7.31326 68.1254 6.50289C67.9598 6.37646 67.6602 6.2867 67.7664 5.98582C67.8726 5.68493 68.1457 5.78607 68.3707 5.78101C69.6766 5.7532 69.669 5.7532 70.1254 4.50794C70.1962 4.31577 70.1634 3.99087 70.4971 4.00224C70.8106 4.01489 70.7967 4.32589 70.8688 4.52184C71.3227 5.7532 71.3163 5.7532 72.6134 5.78607C72.8321 5.78607 73.1191 5.69884 73.2089 5.99972C73.2986 6.30061 73.0079 6.37899 72.8385 6.513C71.8132 7.31326 71.8144 7.30947 72.1849 8.56358C72.2455 8.76965 72.4289 9.00732 72.171 9.19569C71.9131 9.38406 71.7512 9.11731 71.5679 9.00606C71.195 8.77344 70.8916 8.43589 70.4428 8.27154ZM69.2013 8.48014L69.3783 8.4991C69.4727 8.45997 69.5609 8.40715 69.64 8.34234C70.1924 7.74942 70.7424 7.71023 71.3201 8.312C71.3998 8.39544 71.5136 8.5522 71.7487 8.38279C71.1419 7.49025 71.3897 6.78987 72.3935 6.29429C71.8878 6.20579 71.3467 6.31199 71.0635 6.09201C70.7601 5.8556 70.6943 5.31325 70.5262 4.90364C70.3631 6.04144 69.6792 6.40049 68.5426 6.27027C69.6678 6.78228 69.779 7.52312 69.2013 8.48014Z" fill="#C35171"/>
<path d="M47.3887 89.0166C47.4393 88.832 47.256 88.7157 47.0714 88.6057C46.7288 88.3996 46.3837 88.1986 46.0411 87.9925C45.9298 87.9268 45.8262 87.8484 45.8502 87.698C45.86 87.624 45.8966 87.5562 45.9529 87.5073C46.0093 87.4585 46.0815 87.4318 46.1561 87.4325C46.5354 87.3908 46.9083 87.3276 47.2863 87.3136C47.6441 87.301 47.8123 87.143 47.8679 86.794C47.9235 86.4451 48.0259 86.0975 48.1005 85.7473C48.1384 85.5703 48.2042 85.4186 48.4077 85.4021C48.6112 85.3857 48.677 85.5425 48.7061 85.6765C48.9753 86.8952 49.7023 87.3035 50.8894 86.9483C50.9288 86.9319 50.9711 86.9237 51.0138 86.9242C51.0564 86.9247 51.0986 86.9338 51.1376 86.9511C51.1766 86.9684 51.2117 86.9934 51.2408 87.0246C51.2698 87.0559 51.2922 87.0927 51.3066 87.1329C51.385 87.3212 51.2522 87.4236 51.1372 87.4932C50.0828 88.1253 49.873 88.9356 50.6075 89.9571C50.7023 90.0836 50.7693 90.2606 50.5822 90.4047C50.5242 90.452 50.4506 90.4758 50.3759 90.4713C50.3012 90.4669 50.2309 90.4345 50.1789 90.3807C49.256 89.6032 48.4166 89.5855 47.6643 90.6221C47.5758 90.7486 47.4115 90.8636 47.2244 90.7334C47.0373 90.6032 47.1056 90.435 47.1346 90.2745C47.2067 89.8813 47.2914 89.4906 47.3887 89.0166ZM48.5 86.3136L48.3382 86.2694C48.4216 87.4527 47.8135 87.8965 46.5493 87.7599C47.1131 88.148 47.6391 88.3225 47.7819 88.6601C47.9248 88.9976 47.7124 89.5235 47.6555 89.966C48.3597 89.0722 49.1207 89.0418 49.988 89.8573C49.9779 89.6335 49.9981 89.5589 49.969 89.5172C49.4633 88.7662 49.519 88.143 50.3483 87.6702C50.4267 87.6259 50.5164 87.5349 50.4191 87.4072C49.988 87.3642 49.4848 87.6929 49.1422 87.4211C48.835 87.172 48.7073 86.6916 48.4987 86.3136H48.5Z" fill="#C35171"/>
<path d="M34.0632 70.0824C33.493 71.3554 34.153 71.9218 35.2377 72.2581C35.3881 72.3036 35.5714 72.3719 35.555 72.5944C35.5385 72.8169 35.3514 72.8599 35.1896 72.8674C34.0177 72.9231 33.3894 73.4553 33.5322 74.7018C33.5512 74.8599 33.5259 75.0457 33.3034 75.0963C33.2626 75.1065 33.2201 75.1083 33.1786 75.1016C33.1371 75.0948 33.0973 75.0797 33.0618 75.0571C33.0264 75.0345 32.9958 75.0049 32.9722 74.9701C32.9485 74.9354 32.9321 74.8961 32.9241 74.8548C32.5322 73.6412 31.7509 73.3592 30.6194 73.8611C30.5528 73.8957 30.4756 73.9041 30.4031 73.8847C30.3306 73.8652 30.268 73.8194 30.2275 73.7562C30.0923 73.5628 30.2086 73.4136 30.3337 73.3175C31.2933 72.5868 31.4159 71.7764 30.6119 70.8472C30.512 70.7309 30.4033 70.5666 30.5625 70.3946C30.7218 70.2227 30.8811 70.2758 31.0215 70.3719C32.0126 71.052 32.8205 70.913 33.4538 69.8662C33.5373 69.7296 33.6586 69.5855 33.8685 69.6778C34.0784 69.7701 34.0366 69.9408 34.0632 70.0824ZM31.3464 71.0052C31.2983 70.961 31.2452 70.9243 31.1997 71.0052C31.1921 71.0191 31.2389 71.0659 31.2617 71.0975C31.8217 71.8561 31.847 72.5514 31.0253 73.1532C30.9962 73.1747 31.0076 73.2518 30.9823 73.4338C32.0556 72.784 32.6738 73.291 33.158 74.2745C33.0038 73.0356 33.6346 72.5994 34.7509 72.497C33.5613 72.2277 33.2035 71.5564 33.5411 70.3959C32.9444 71.4212 32.2174 71.4996 31.3464 71.0052Z" fill="#C35171"/>
<path d="M90.4029 86.9534C91.4142 87.4287 91.9338 86.8093 92.236 85.7852C92.2853 85.6196 92.3333 85.3895 92.5938 85.4135C92.8542 85.4376 92.8883 85.6575 92.8934 85.8358C92.9288 86.99 93.4775 87.5412 94.6633 87.4173C94.8352 87.3996 95.0565 87.4275 95.1197 87.6702C95.1829 87.9129 94.973 87.9825 94.815 88.0773C93.6077 88.8042 93.6102 88.8029 93.8352 90.2265C93.863 90.4022 93.9617 90.6057 93.7392 90.7322C93.5166 90.8586 93.3599 90.6866 93.26 90.5514C92.5495 89.6512 91.7796 89.54 90.9022 90.3175C90.7758 90.4287 90.5988 90.5703 90.3965 90.3933C90.1943 90.2163 90.3118 90.028 90.4092 89.8876C91.0413 88.9407 90.9541 88.1645 89.9187 87.5665C89.7733 87.4831 89.5887 87.3465 89.6848 87.1063C89.7404 86.9471 89.8112 86.9344 90.4029 86.9534ZM93.3751 90.0634C92.7429 88.8965 93.3232 88.3112 94.3662 87.8548C93.7543 87.6892 93.2284 87.8295 92.9225 87.5248C92.6165 87.2201 92.7707 86.6879 92.5027 86.277C92.1867 86.6563 92.1993 87.2454 91.7998 87.4591C91.4206 87.6613 90.9364 87.3238 90.2827 87.497C91.5394 88.0406 91.5027 88.8308 90.9351 89.8029C91.8352 89.0836 92.5874 89.0558 93.3751 90.0634Z" fill="#C35171"/>
<path d="M50.7002 14.0302C49.3664 13.924 49.3677 13.924 48.7722 15.1453C48.6837 15.326 48.6597 15.5839 48.3765 15.5637C48.0933 15.5435 48.1237 15.2767 48.0579 15.0896C48.0579 15.0694 48.0478 15.0479 48.0428 15.0277C47.7419 13.7382 47.7406 13.742 46.4448 13.5738C46.2298 13.546 45.9391 13.6206 45.867 13.321C45.795 13.0214 46.1085 12.9619 46.288 12.8494C47.4081 12.1478 47.4081 12.1528 47.173 10.8696C47.135 10.6585 46.972 10.4095 47.2513 10.2451C47.5307 10.0808 47.6647 10.3715 47.819 10.498C48.7899 11.3361 48.7836 11.3361 49.9682 10.7255C50.1565 10.6282 50.3474 10.388 50.5889 10.5991C50.8304 10.8102 50.6091 11.0302 50.5282 11.2224C50.0086 12.4525 50.0074 12.4461 50.9745 13.3361C51.1275 13.4765 51.422 13.5751 51.2893 13.876C51.1565 14.1769 50.886 14.0125 50.7002 14.0302ZM46.5902 13.0277C47.1515 13.3513 47.7014 13.1402 48.02 13.4069C48.3386 13.6737 48.1869 14.2729 48.5611 14.809C48.7318 13.5713 49.4258 13.254 50.5725 13.6396C50.2185 13.0833 49.6875 12.9202 49.6041 12.4879C49.5206 12.0555 50.0187 11.7129 49.9555 11.0884C49.0706 12.0846 48.3424 11.7508 47.6079 10.9139C48.0061 11.9657 47.9151 12.7318 46.5902 13.0277Z" fill="#C35171"/>
<path d="M108.972 73.5728C108.853 73.5463 108.74 73.6816 108.639 73.8611C108.443 74.2087 108.236 74.5513 108.031 74.894C107.955 75.0204 107.881 75.1468 107.691 75.1063C107.627 75.0996 107.568 75.0687 107.526 75.0198C107.483 74.9709 107.462 74.9078 107.465 74.8434C107.575 73.5374 106.975 72.8788 105.672 72.8408C105.607 72.8376 105.545 72.8108 105.499 72.7654C105.452 72.72 105.424 72.6592 105.419 72.5943C105.394 72.4413 105.491 72.3655 105.612 72.3086C105.734 72.2517 105.841 72.2037 105.955 72.148C107.099 71.5943 107.093 71.5943 106.983 70.3516C106.963 70.124 106.793 69.8193 107.128 69.6891C107.404 69.5817 107.534 69.8547 107.686 70.0128C108.578 70.9293 108.571 70.9281 109.782 70.4375C109.978 70.3579 110.2 70.1493 110.414 70.387C110.628 70.6246 110.372 70.8193 110.276 71.0027C109.666 72.1657 109.663 72.1607 110.542 73.1999C110.668 73.3427 110.921 73.4616 110.771 73.7207C110.628 73.9584 110.391 73.8472 110.197 73.8143C109.826 73.7498 109.462 73.6689 108.972 73.5728ZM109.816 70.918C108.763 71.7081 108.064 71.2972 107.381 70.4236C107.917 71.6689 107.245 72.1695 106.205 72.473C106.711 72.7625 107.266 72.6171 107.557 72.942C107.848 73.2669 107.702 73.7764 107.84 74.2416C108.257 73.9331 108.275 73.3567 108.658 73.1809C109.071 72.99 109.528 73.3756 110.175 73.2795C109.171 72.6044 108.956 71.8649 109.816 70.9129V70.918Z" fill="#C35171"/>
<path d="M93.8441 10.7533C93.1956 11.8241 93.7834 12.5232 94.9187 12.9846C94.9546 12.9946 94.9881 13.0117 95.0172 13.035C95.0463 13.0583 95.0703 13.0873 95.0878 13.1202C95.1053 13.153 95.1159 13.1891 95.119 13.2263C95.1221 13.2634 95.1176 13.3008 95.1058 13.3361C95.0875 13.4089 95.0418 13.4719 94.9782 13.512C94.9146 13.552 94.8381 13.566 94.7645 13.551C93.5483 13.4524 92.8871 13.9644 92.8795 15.2274C92.8839 15.27 92.8794 15.3131 92.8664 15.3539C92.8534 15.3948 92.8321 15.4325 92.8039 15.4648C92.7756 15.497 92.7411 15.5231 92.7023 15.5414C92.6636 15.5598 92.6215 15.5699 92.5786 15.5713C92.3902 15.5826 92.3131 15.4448 92.279 15.302C91.9983 14.0984 91.2828 13.6673 90.0906 14.0377C90.022 14.0669 89.9448 14.0692 89.8746 14.0442C89.8043 14.0191 89.746 13.9685 89.7113 13.9025C89.6929 13.8649 89.6822 13.8239 89.6801 13.7821C89.678 13.7403 89.6844 13.6985 89.6989 13.6592C89.7135 13.6199 89.7358 13.584 89.7647 13.5537C89.7936 13.5234 89.8283 13.4992 89.8668 13.4827C90.9667 12.838 91.0325 11.9973 90.3662 10.9998C90.2815 10.8734 90.2398 10.7368 90.3801 10.6016C90.4084 10.5695 90.4434 10.5439 90.4825 10.5267C90.5217 10.5094 90.5641 10.5008 90.6069 10.5015C90.6497 10.5023 90.6918 10.5123 90.7304 10.5308C90.7689 10.5494 90.803 10.5761 90.8302 10.6092C91.767 11.4752 92.5862 11.3083 93.3397 10.3563C93.4446 10.2299 93.5925 10.1186 93.7771 10.2438C93.9048 10.3222 93.8896 10.4486 93.8441 10.7533ZM93.3384 10.9164C92.5988 11.9771 91.8213 11.881 90.8984 11.1692C91.5963 12.168 91.456 12.9164 90.4105 13.5573C91.5786 13.2109 92.2107 13.6509 92.5432 14.7419C92.5672 13.5687 93.1374 13.0807 94.3131 13.1187C93.1045 12.7318 92.9263 11.9973 93.3384 10.9164Z" fill="#C35171"/>
<path d="M107.06 29.7547C107.138 29.4475 106.972 29.2895 106.711 29.1795C106.451 29.0695 106.166 28.9532 105.907 28.8141C105.717 28.713 105.401 28.7117 105.423 28.4007C105.452 28.0556 105.791 28.1175 106.016 28.0493C106.216 27.984 106.423 27.9416 106.633 27.9228C107.159 27.8874 107.356 27.5916 107.364 27.0973C107.364 26.804 107.413 26.5107 107.437 26.2123C107.449 26.0543 107.495 25.9279 107.671 25.8824C107.706 25.8713 107.744 25.8677 107.781 25.8717C107.819 25.8757 107.855 25.8874 107.887 25.9058C107.92 25.9243 107.948 25.9493 107.971 25.9791C107.993 26.009 108.01 26.0432 108.018 26.0796C108.427 27.2895 109.223 27.6043 110.38 27.134C110.445 27.099 110.521 27.0909 110.592 27.1115C110.663 27.132 110.723 27.1796 110.759 27.244C110.857 27.4045 110.777 27.5196 110.669 27.6333C110.583 27.7256 110.505 27.8242 110.417 27.9203C109.61 28.8609 109.614 28.8584 110.228 29.9178C110.346 30.1188 110.618 30.3198 110.407 30.5853C110.176 30.8761 109.958 30.5663 109.734 30.5145C109.714 30.509 109.694 30.5018 109.675 30.493C108.557 30.0253 108.557 30.0253 107.719 30.9115C107.632 31.0025 107.547 31.0961 107.457 31.1846C107.367 31.273 107.283 31.3628 107.13 31.311C106.955 31.2452 106.93 31.11 106.943 30.9557C106.989 30.5499 107.027 30.1555 107.06 29.7547ZM110.106 27.4993C108.945 28.1466 108.285 27.7408 107.84 26.6675C107.931 27.8697 107.401 28.4172 106.209 28.45C107.347 28.7825 107.853 29.3969 107.386 30.6144C108.054 29.6485 108.777 29.3072 109.788 30.0847C109.59 29.579 109.24 29.2086 109.219 28.8204C109.193 28.3653 109.809 28.1618 110.108 27.4993H110.106Z" fill="#C35171"/>
<path d="M30.5978 27.1364C30.6183 27.1401 30.6386 27.1452 30.6585 27.1515C31.7685 27.6193 32.5207 27.2893 32.9202 26.1477C32.9733 25.996 33.063 25.8304 33.2868 25.8823C33.3706 25.899 33.4443 25.9484 33.4918 26.0195C33.5392 26.0907 33.5564 26.1777 33.5396 26.2615C33.4132 27.4866 33.972 28.0744 35.1831 28.0985C35.3488 28.0985 35.5245 28.1617 35.5561 28.3728C35.5877 28.5839 35.4082 28.6787 35.2577 28.7154C34.0934 28.9998 33.6433 29.6813 34.0175 30.8545C34.0668 31.0112 34.0858 31.1832 33.8911 31.2906C33.6964 31.3981 33.5548 31.2729 33.4701 31.1377C32.8216 30.1023 32.0137 29.8987 31.0011 30.632C30.9694 30.6605 30.9319 30.682 30.8913 30.6949C30.8506 30.7078 30.8076 30.7119 30.7653 30.7069C30.7229 30.7018 30.6821 30.6878 30.6456 30.6657C30.6091 30.6437 30.5777 30.614 30.5535 30.5789C30.5069 30.5203 30.4852 30.4457 30.493 30.3712C30.5008 30.2967 30.5375 30.2283 30.5953 30.1806C31.46 29.2249 31.2767 28.3918 30.3133 27.6383C30.197 27.546 30.1161 27.417 30.2223 27.259C30.2931 27.1364 30.3513 27.1111 30.5978 27.1364ZM31.1439 30.0719C32.1857 29.3071 32.9139 29.6408 33.6041 30.6168C33.0529 29.3526 33.7002 28.8191 34.771 28.4107C33.4474 28.527 33.1123 27.7976 33.1035 26.6673C32.7154 27.838 31.9821 28.0668 30.8848 27.6433C31.7988 28.3816 32.0023 29.1237 31.1439 30.0706V30.0719Z" fill="#C35171"/>
<path d="M29.2433 49.0191C29.0891 49.2778 28.9145 49.5239 28.7211 49.7548C28.247 50.2504 28.2508 50.6878 28.6984 51.2188C28.9158 51.4717 29.4139 51.7789 29.1611 52.1404C28.8754 52.5475 28.4025 52.1657 28.0941 52.014C27.3355 51.6436 27.0056 52.0671 26.6377 52.6019C26.4683 52.8459 26.3709 53.3414 25.9436 53.1822C25.577 53.0469 25.7742 52.6221 25.7628 52.3288C25.7135 51.0557 25.9474 51.4034 24.7085 50.9382C24.4392 50.8357 23.9828 50.8699 24.0005 50.4615C24.0169 50.1088 24.4582 50.1758 24.7047 50.0469C24.8729 49.9591 25.0537 49.8981 25.2407 49.8661C25.6566 49.7953 25.7869 49.5526 25.7616 49.1543C25.7388 48.7991 25.7616 48.44 25.7616 48.0835C25.7543 48.0204 25.7673 47.9567 25.7987 47.9015C25.8301 47.8463 25.8782 47.8024 25.936 47.7763C26.1067 47.7005 26.2154 47.7877 26.309 47.9141C26.5214 48.1998 26.7477 48.478 26.9411 48.7776C27.1611 49.1139 27.4139 49.1986 27.7932 49.0431C28.1269 48.9169 28.4676 48.8097 28.8134 48.722C29.0334 48.6587 29.1838 48.7346 29.2433 49.0191ZM28.4759 49.3541V49.124C27.4304 49.9938 26.7894 49.4742 26.2534 48.5159C26.0612 49.0848 26.3456 49.6284 26.0485 49.928C25.7515 50.2277 25.2812 50.2845 24.8855 50.4502C25.9373 50.6486 26.3836 51.2732 26.2496 52.4464C26.7553 51.2239 27.5568 51.2656 28.4999 51.7081C28.247 51.2454 27.8147 50.8787 27.8197 50.5184C27.8248 50.1265 28.2395 49.7422 28.4759 49.3541Z" fill="#C35171"/>
<path d="M78.5106 88.3618C78.5106 87.6411 78.5106 86.9395 78.5106 86.2366C78.5106 86.0065 78.4171 85.6904 78.8444 85.7157C79.2376 85.7385 79.1035 86.0394 79.1048 86.2366C79.1162 87.2252 79.1124 88.2151 79.1048 89.205C79.1048 89.406 79.1402 89.6652 78.8924 89.7512C78.68 89.8257 78.5549 89.6247 78.4259 89.4907C77.7142 88.7739 77.01 88.0495 76.2982 87.3327C76.2148 87.248 76.0858 87.1279 75.9999 87.143C75.8026 87.1784 75.8734 87.3782 75.8734 87.5109C75.8659 88.1216 75.8734 88.7322 75.8734 89.3428C75.8734 89.5565 75.8873 89.7752 75.5599 89.7676C75.2325 89.76 75.2717 89.5261 75.2704 89.3226C75.2704 88.2695 75.2704 87.2176 75.2704 86.162C75.2704 85.9888 75.2704 85.8042 75.4487 85.7246C75.6269 85.6449 75.7635 85.8004 75.8785 85.9155C76.5624 86.6007 77.2375 87.2948 77.924 87.9774C78.0694 88.1203 78.1693 88.3251 78.5106 88.3618Z" fill="#CC446B"/>
<path d="M70.5062 96.9687C70.285 96.9775 70.2104 96.8182 70.1851 96.6488C70.017 95.4731 69.3937 94.9383 68.1839 95.1924C68.1024 95.2202 68.0134 95.2157 67.9353 95.1797C67.8572 95.1437 67.7959 95.079 67.7641 94.999C67.6617 94.7461 67.864 94.6336 68.017 94.5616C69.0536 94.0673 69.3495 93.3441 68.7755 92.31C68.687 92.1494 68.6301 91.9421 68.8122 91.7879C69.0182 91.6109 69.1535 91.8182 69.309 91.9004C69.3447 91.9225 69.3789 91.947 69.4114 91.9737C70.4923 92.7588 70.4898 92.755 71.5606 91.9927C71.7338 91.8662 71.8906 91.6033 72.1548 91.779C72.462 91.9813 72.2281 92.2367 72.1636 92.4566C71.725 93.9737 71.6061 93.5249 72.7793 94.4288L73.0789 94.6589C73.1839 94.7386 73.2711 94.8271 73.2307 94.9737C73.211 95.0457 73.1657 95.1079 73.1033 95.1487C73.0408 95.1895 72.9656 95.2059 72.8918 95.195C72.5126 95.195 72.1333 95.219 71.754 95.195C71.3748 95.1709 71.2167 95.31 71.1295 95.6564C71.0316 95.9994 70.9155 96.337 70.7818 96.6678C70.7325 96.8056 70.7022 96.9661 70.5062 96.9687ZM68.51 94.8814C69.7363 94.5186 70.2926 95.0243 70.4987 96.1684C70.6377 94.9573 71.309 94.5831 72.4494 94.7335C71.3419 94.2025 71.1434 93.4693 71.7287 92.4137C70.8754 93.2759 70.1004 93.3492 69.3153 92.4061C69.3937 92.9118 69.6213 93.3492 69.5745 93.7499C69.5189 94.2177 68.8729 94.2936 68.51 94.8814Z" fill="#C35171"/>
<path d="M112.118 48.6966C112.469 48.8091 112.857 48.9141 113.229 49.0582C113.581 49.1947 113.818 49.1277 114.02 48.7977C114.206 48.4943 114.447 48.2238 114.66 47.9368C114.751 47.8104 114.838 47.7004 115.02 47.7687C115.203 47.8369 115.218 47.9659 115.218 48.1227C115.235 48.3955 115.233 48.6693 115.211 48.9419C115.114 49.5525 115.397 49.8268 115.961 49.9406C116.225 50.0116 116.484 50.0986 116.737 50.201C116.886 50.2516 117.008 50.3173 117 50.5032C117.002 50.5674 116.98 50.6299 116.937 50.678C116.895 50.7261 116.835 50.7563 116.771 50.7624C115.467 50.9267 114.941 51.6397 115.211 52.9356C115.217 52.9669 115.216 52.9991 115.21 53.0303C115.203 53.0614 115.19 53.0909 115.172 53.1171C115.154 53.1433 115.13 53.1656 115.104 53.1829C115.077 53.2001 115.047 53.2118 115.015 53.2175C114.954 53.2352 114.888 53.2317 114.829 53.2077C114.77 53.1836 114.721 53.1403 114.689 53.0847C114.474 52.799 114.249 52.5196 114.057 52.2213C113.845 51.8938 113.602 51.7662 113.214 51.9318C112.9 52.0527 112.58 52.1565 112.254 52.2428C112.094 52.2921 111.931 52.3566 111.804 52.1657C111.761 52.1044 111.743 52.0284 111.756 51.9542C111.768 51.8801 111.809 51.8138 111.87 51.7699C112.809 50.9077 112.755 50.0734 111.87 49.1922C111.612 48.9444 111.761 48.6953 112.118 48.6966ZM112.597 51.6309C113.482 51.2769 114.213 51.4084 114.684 52.3224C114.736 52.3171 114.788 52.3079 114.838 52.2946C114.535 51.1998 115.079 50.6574 116.237 50.4918C115.061 50.3224 114.527 49.7484 114.764 48.5019C114.258 49.6991 113.452 49.7586 112.42 49.2946C113.32 50.0632 113.296 50.7864 112.567 51.5323C112.554 51.5449 112.567 51.574 112.558 51.5942C112.549 51.6144 112.526 51.6473 112.51 51.6726L112.597 51.6309Z" fill="#C35171"/>
<path d="M57.2494 87.693C57.2494 87.21 57.2418 86.7271 57.2494 86.2454C57.2557 86.0179 57.1508 85.7043 57.573 85.7132C57.9649 85.7208 57.8474 86.0153 57.8499 86.2189C57.8625 86.9319 57.8916 87.6475 57.8499 88.3567C57.8145 88.8801 58.0294 89.0166 58.4959 88.9888C58.8929 88.9661 59.2924 88.9888 59.6906 88.9888C59.9624 88.9825 60.0699 89.0912 60.0421 89.3681C60.0155 89.5855 60.0105 89.7827 59.7007 89.7777C59.0096 89.7667 58.3177 89.7667 57.6249 89.7777C57.2962 89.7777 57.2456 89.5944 57.2519 89.3352C57.2519 88.7903 57.2519 88.2454 57.2519 87.7006L57.2494 87.693Z" fill="#CC4268"/>
<path d="M34.278 77.8105V78.2517C34.278 78.899 33.9923 79.0937 33.345 78.9306C33.1351 78.8775 33.1478 78.7524 33.1478 78.607C33.1478 78.0823 33.1566 77.5564 33.1478 77.0305C33.1351 76.5438 33.4904 76.7119 33.7243 76.7081C33.9582 76.7043 34.3159 76.5817 34.2856 77.0533C34.2654 77.3048 34.278 77.5577 34.278 77.8105Z" fill="#2A3757"/>
<path d="M73.9873 87.6993C73.9873 87.1532 73.9873 86.6083 73.9873 86.0621C73.9873 85.8864 74.0012 85.7284 74.2402 85.7157C74.5158 85.7018 74.5423 85.8649 74.5423 86.076C74.5423 87.1886 74.5423 88.3011 74.5423 89.4136C74.5423 89.5906 74.5271 89.7537 74.2895 89.7663C74.0176 89.7802 73.9873 89.6096 73.9873 89.3997C73.9873 88.8333 73.9873 88.2619 73.9873 87.6993Z" fill="#CC4268"/>
<path d="M69.2012 8.48022C69.779 7.52319 69.6677 6.78236 68.54 6.27666C69.6778 6.40309 70.3605 6.04658 70.5236 4.91003C70.6918 5.31964 70.7575 5.862 71.0609 6.09841C71.3441 6.31838 71.8801 6.21219 72.3909 6.30069C71.3871 6.79626 71.1393 7.49665 71.7461 8.38919C71.511 8.5586 71.3972 8.40183 71.3175 8.31839C70.7398 7.71536 70.1899 7.75581 69.6374 8.34874C69.5591 8.41334 69.4718 8.46615 69.3782 8.5055L69.2012 8.48022Z" fill="#FDEBEE"/>
<path d="M48.4984 86.3138C48.707 86.6931 48.8347 87.1722 49.1457 87.4212C49.4883 87.6931 49.9914 87.3644 50.4225 87.4073C50.5199 87.5338 50.4301 87.6261 50.3517 87.6703C49.5173 88.1431 49.4567 88.7664 49.9725 89.5173C50.0015 89.5591 49.9813 89.6336 49.9914 89.8574C49.1242 89.042 48.3631 89.0723 47.6589 89.9661C47.7158 89.5237 47.9345 89.0142 47.7854 88.6602C47.6362 88.3062 47.1166 88.1545 46.5527 87.7601C47.817 87.8966 48.4251 87.4528 48.3416 86.2695L48.4984 86.3138Z" fill="#FDEBEE"/>
<path d="M31.3475 71.0052C32.2122 71.4944 32.9455 71.416 33.5422 70.3907C33.2046 71.5513 33.5624 72.2226 34.7521 72.4919C33.6357 72.5943 33.0049 73.0305 33.1591 74.2694C32.6749 73.2858 32.0567 72.7789 30.9834 73.4287C31.0087 73.2466 30.9973 73.1695 31.0264 73.148C31.8481 72.5463 31.8228 71.8509 31.2628 71.0924C31.2919 71.0696 31.3209 71.0406 31.3475 71.0052Z" fill="#FDEBEE"/>
<path d="M31.262 71.0975C31.2392 71.0659 31.1925 71.0191 31.2 71.0052C31.2456 70.9293 31.2987 70.966 31.3467 71.0052C31.3201 71.0406 31.2911 71.0697 31.262 71.0975Z" fill="#FDEBEE"/>
<path d="M93.3746 90.0635C92.587 89.0521 91.8348 89.0799 90.9385 89.803C91.5061 88.8308 91.5428 88.0407 90.2861 87.4971C90.9359 87.3239 91.4239 87.6614 91.8032 87.4592C92.2027 87.2455 92.1901 86.6589 92.5061 86.2771C92.7741 86.688 92.6325 87.2303 92.9258 87.5249C93.2191 87.8195 93.7577 87.6892 94.3696 87.8549C93.3228 88.3112 92.7362 88.8966 93.3746 90.0635Z" fill="#FDEBEE"/>
<path d="M46.5898 13.0276C47.9148 12.7318 48.0058 11.9619 47.6012 10.9138C48.3357 11.7507 49.069 12.0845 49.9489 11.0883C50.0121 11.7128 49.5165 12.0668 49.5974 12.4928C49.6784 12.9189 50.2119 13.0883 50.5658 13.6446C49.4192 13.2653 48.7251 13.5763 48.5545 14.814C48.1752 14.2779 48.3471 13.6976 48.0134 13.4119C47.6796 13.1262 47.1512 13.3563 46.5898 13.0276Z" fill="#FDEBEE"/>
<path d="M109.817 70.913C108.952 71.8649 109.172 72.6045 110.175 73.2745C109.529 73.3706 109.072 72.985 108.658 73.1759C108.278 73.3516 108.257 73.9345 107.84 74.2366C107.702 73.7714 107.84 73.2518 107.557 72.937C107.273 72.6222 106.715 72.7575 106.205 72.468C107.244 72.1645 107.917 71.6639 107.381 70.4186C108.065 71.296 108.764 71.7031 109.817 70.913Z" fill="#FDEBEE"/>
<path d="M93.3385 10.9164C92.9264 11.9973 93.1046 12.7318 94.3158 13.1237C93.1375 13.0858 92.5673 13.5738 92.5458 14.747C92.2133 13.656 91.5812 13.216 90.4131 13.5624C91.4586 12.9214 91.5989 12.1718 90.9011 11.1743C91.8227 11.881 92.5989 11.9771 93.3385 10.9164Z" fill="#FDEBEE"/>
<path d="M110.108 27.4993C109.809 28.1618 109.193 28.3653 109.217 28.8179C109.237 29.2085 109.588 29.5764 109.786 30.0821C108.785 29.3046 108.057 29.646 107.384 30.6118C107.845 29.3944 107.346 28.78 106.207 28.4475C107.399 28.4146 107.929 27.8672 107.838 26.6649C108.288 27.7408 108.948 28.1479 110.108 27.4993Z" fill="#FDEBEE"/>
<path d="M31.1435 30.0707C32.0019 29.1238 31.7984 28.3817 30.8818 27.6433C31.9792 28.0669 32.7124 27.838 33.1006 26.6674C33.1119 27.7976 33.447 28.5207 34.7706 28.4095C33.6998 28.8178 33.0525 29.3526 33.6037 30.6155C32.9122 29.6396 32.1853 29.3058 31.1435 30.0707Z" fill="#FDEBEE"/>
<path d="M28.4762 49.354C28.2397 49.7421 27.8251 50.1264 27.8188 50.5183C27.8188 50.8787 28.2461 51.2453 28.4989 51.708C27.5558 51.2655 26.7492 51.2238 26.2486 52.4463C26.3826 51.2731 25.9363 50.6511 24.8857 50.4501C25.2827 50.2845 25.7707 50.2099 26.0514 49.928C26.332 49.646 26.064 49.0847 26.2562 48.5158C26.7922 49.4741 27.4332 49.9937 28.4787 49.1239L28.4762 49.354Z" fill="#FDEBEE"/>
<path d="M68.5098 94.8814C68.8726 94.2935 69.5211 94.2177 69.5742 93.7436C69.621 93.3428 69.3935 92.9105 69.3151 92.3997C70.1002 93.3428 70.8751 93.2695 71.7285 92.4073C71.1432 93.4579 71.3416 94.1962 72.4491 94.7272C71.3113 94.5767 70.6375 94.9509 70.4984 96.1621C70.2923 95.0255 69.7361 94.5198 68.5098 94.8814Z" fill="#FDEBEE"/>
<path d="M112.552 51.5943C112.552 51.574 112.552 51.545 112.561 51.5323C113.29 50.7864 113.319 50.0633 112.414 49.2946C113.446 49.7586 114.247 49.6992 114.758 48.502C114.522 49.7485 115.055 50.3224 116.231 50.4918C115.073 50.6575 114.529 51.1998 114.833 52.2946C114.782 52.3079 114.73 52.3172 114.678 52.3225C114.207 51.4084 113.48 51.2769 112.591 51.6309L112.552 51.5943Z" fill="#FDEBEE"/>
<path d="M112.592 51.6313L112.504 51.6736C112.521 51.648 112.536 51.6211 112.553 51.5942L112.592 51.6313Z" fill="#FDEBEE"/>
</svg>
