<svg width="297" height="95" viewBox="0 0 297 95" fill="none" xmlns="http://www.w3.org/2000/svg">
<path d="M148.994 0.22998C153.413 0.22998 157.566 1.06943 161.454 2.74834C165.43 4.33889 168.965 6.68053 172.057 9.77326C175.15 12.866 177.492 16.4005 179.082 20.3769C180.761 24.2649 181.601 28.418 181.601 32.8362V84.2638C181.601 87.1798 180.54 89.6982 178.419 91.8189C176.387 93.8513 173.913 94.8674 170.997 94.8674C168.081 94.8674 165.563 93.8513 163.442 91.8189C161.409 89.6982 160.393 87.1798 160.393 84.2638V58.1523H111.219C109.098 58.1523 107.287 58.9034 105.785 60.4056C104.282 61.9078 103.531 63.7634 103.531 65.9725C103.531 68.0933 104.282 69.9047 105.785 71.4069C107.287 72.9091 109.098 73.6602 111.219 73.6602H131.896C134.812 73.6602 137.286 74.7205 139.319 76.8413C141.439 78.8736 142.5 81.3478 142.5 84.2638C142.5 87.1798 141.439 89.6982 139.319 91.8189C137.286 93.8513 134.812 94.8674 131.896 94.8674H111.219C107.331 94.8674 103.62 94.1605 100.085 92.7467C96.6389 91.2445 93.5461 89.1238 90.8069 86.3845C88.0676 83.6453 85.9469 80.5525 84.4447 77.1063C83.0309 73.5718 82.324 69.8605 82.324 65.9725C82.324 61.9962 83.0309 58.2849 84.4447 54.8387C85.9469 51.3042 88.0676 48.1673 90.8069 45.428C93.5461 42.6887 96.6389 40.6122 100.085 39.1983C103.62 37.6962 107.331 36.9451 111.219 36.9451H160.393V32.8362C160.393 31.2456 160.084 29.7876 159.465 28.4622C158.847 27.0483 158.007 25.8554 156.947 24.8834C155.975 23.8231 154.782 22.9836 153.368 22.3651C152.043 21.7465 150.585 21.4373 148.994 21.4373H60.454V84.2638C60.454 87.1798 59.3936 89.6982 57.2729 91.8189C55.2405 93.8513 52.7663 94.8674 49.8503 94.8674C46.9343 94.8674 44.416 93.8513 42.2952 91.8189C40.2629 89.6982 39.2467 87.1798 39.2467 84.2638V21.4373H10.882C7.96596 21.4373 5.44759 20.4211 3.32687 18.3887C1.2945 16.3563 0.27832 13.838 0.27832 10.8336C0.27832 7.91761 1.2945 5.44343 3.32687 3.41107C5.44759 1.29034 7.96596 0.22998 10.882 0.22998H148.994Z" fill="#EFEFEF"/>
<path d="M267.792 36.9451C271.769 36.9451 275.48 37.6962 278.926 39.1983C282.461 40.6122 285.598 42.6887 288.337 45.428C291.076 48.1673 293.153 51.3042 294.567 54.8387C296.069 58.2849 296.82 61.9962 296.82 65.9725C296.82 69.8605 296.069 73.5718 294.567 77.1063C293.153 80.5525 291.076 83.6453 288.337 86.3845C285.598 89.1238 282.461 91.2445 278.926 92.7467C275.48 94.1605 271.769 94.8674 267.792 94.8674H213.449C210.533 94.8674 208.014 93.8513 205.894 91.8189C203.861 89.6982 202.845 87.1798 202.845 84.2638C202.845 81.3478 203.861 78.8736 205.894 76.8413C208.014 74.7205 210.533 73.6602 213.449 73.6602H267.792C270.001 73.6602 271.857 72.9091 273.359 71.4069C274.861 69.9047 275.613 68.0933 275.613 65.9725C275.613 63.7634 274.861 61.9078 273.359 60.4056C271.857 58.9034 270.001 58.1523 267.792 58.1523H226.438C222.55 58.1523 218.839 57.4454 215.304 56.0316C211.858 54.5294 208.765 52.4087 206.026 49.6694C203.287 46.9302 201.166 43.8374 199.664 40.3913C198.25 36.8567 197.543 33.1454 197.543 29.2574C197.543 25.2811 198.25 21.5698 199.664 18.1236C201.166 14.6774 203.287 11.5405 206.026 8.71289C208.765 5.97362 211.858 3.89707 215.304 2.48326C218.839 0.981072 222.55 0.22998 226.438 0.22998H280.914C283.83 0.22998 286.305 1.29034 288.337 3.41107C290.458 5.44343 291.518 7.91761 291.518 10.8336C291.518 13.838 290.458 16.3563 288.337 18.3887C286.305 20.4211 283.83 21.4373 280.914 21.4373H226.438C224.317 21.4373 222.506 22.2325 221.004 23.8231C219.502 25.3253 218.751 27.1367 218.751 29.2574C218.751 31.3782 219.502 33.1896 221.004 34.6918C222.506 36.194 224.317 36.9451 226.438 36.9451H267.792Z" fill="#EFEFEF"/>
</svg>
